<svg width="371" height="370" viewBox="0 0 371 370" fill="none" xmlns="http://www.w3.org/2000/svg">
<g filter="url(#filter0_d_624_10244)">
<circle cx="185.6" cy="179.8" r="172.8" fill="url(#paint0_linear_624_10244)"/>
</g>
<g clip-path="url(#clip0_624_10244)">
<path d="M152.658 89.8V67.6H162.918C164.358 67.6 165.568 67.85 166.548 68.35C167.548 68.85 168.308 69.52 168.828 70.36C169.348 71.18 169.608 72.09 169.608 73.09C169.608 74.07 169.428 74.89 169.068 75.55C168.708 76.19 168.268 76.71 167.748 77.11C167.248 77.49 166.758 77.75 166.278 77.89V78.13C166.818 78.25 167.418 78.51 168.078 78.91C168.738 79.31 169.308 79.88 169.788 80.62C170.268 81.36 170.508 82.32 170.508 83.5C170.508 84.54 170.258 85.54 169.758 86.5C169.278 87.46 168.488 88.25 167.388 88.87C166.308 89.49 164.898 89.8 163.158 89.8H152.658ZM162.138 71.47H157.278V76.63H162.138C163.178 76.63 163.938 76.38 164.418 75.88C164.898 75.38 165.138 74.77 165.138 74.05C165.138 73.35 164.898 72.75 164.418 72.25C163.938 71.73 163.178 71.47 162.138 71.47ZM162.498 80.17H157.278V85.93H162.498C163.678 85.93 164.528 85.65 165.048 85.09C165.588 84.51 165.858 83.82 165.858 83.02C165.858 82.24 165.588 81.57 165.048 81.01C164.528 80.45 163.678 80.17 162.498 80.17ZM183.927 90.1C182.087 90.1 180.467 89.78 179.067 89.14C177.667 88.48 176.487 87.61 175.527 86.53C174.587 85.43 173.877 84.2 173.397 82.84C172.937 81.48 172.707 80.09 172.707 78.67C172.707 77.25 172.937 75.87 173.397 74.53C173.877 73.17 174.587 71.95 175.527 70.87C176.487 69.79 177.667 68.93 179.067 68.29C180.467 67.63 182.087 67.3 183.927 67.3C185.787 67.3 187.417 67.63 188.817 68.29C190.217 68.93 191.387 69.79 192.327 70.87C193.267 71.95 193.967 73.17 194.427 74.53C194.907 75.87 195.147 77.25 195.147 78.67C195.147 80.09 194.907 81.48 194.427 82.84C193.967 84.2 193.267 85.43 192.327 86.53C191.387 87.61 190.217 88.48 188.817 89.14C187.417 89.78 185.787 90.1 183.927 90.1ZM183.927 85.93C185.327 85.93 186.507 85.58 187.467 84.88C188.427 84.18 189.147 83.28 189.627 82.18C190.107 81.06 190.347 79.89 190.347 78.67C190.347 77.45 190.107 76.29 189.627 75.19C189.147 74.09 188.427 73.19 187.467 72.49C186.507 71.79 185.327 71.44 183.927 71.44C182.527 71.44 181.347 71.79 180.387 72.49C179.447 73.19 178.737 74.09 178.257 75.19C177.777 76.29 177.537 77.45 177.537 78.67C177.537 79.89 177.777 81.06 178.257 82.18C178.737 83.28 179.447 84.18 180.387 84.88C181.347 85.58 182.527 85.93 183.927 85.93ZM198.391 89.8V67.6H204.631L209.701 79.03L214.921 67.6H220.951V89.8H216.391V74.68L211.831 84.61H207.541L202.951 74.62V89.8H198.391ZM114.466 127.8L106.906 105.6H111.766L117.556 123.27L123.316 105.6H128.176L120.616 127.8H114.466ZM136.592 128.1C135.192 128.1 133.982 127.87 132.962 127.41C131.942 126.93 131.102 126.3 130.442 125.52C129.782 124.72 129.282 123.83 128.942 122.85C128.622 121.87 128.462 120.86 128.462 119.82C128.462 118.82 128.612 117.84 128.912 116.88C129.232 115.9 129.712 115.01 130.352 114.21C131.012 113.41 131.842 112.78 132.842 112.32C133.862 111.84 135.062 111.6 136.442 111.6C137.902 111.6 139.192 111.92 140.312 112.56C141.452 113.2 142.342 114.15 142.982 115.41C143.622 116.65 143.942 118.16 143.942 119.94V121.05H133.052C133.112 122.01 133.442 122.84 134.042 123.54C134.662 124.24 135.512 124.59 136.592 124.59C137.212 124.59 137.712 124.5 138.092 124.32C138.492 124.12 138.802 123.9 139.022 123.66C139.242 123.4 139.392 123.17 139.472 122.97C139.552 122.77 139.592 122.67 139.592 122.67H143.792C143.792 122.67 143.742 122.86 143.642 123.24C143.562 123.6 143.382 124.05 143.102 124.59C142.822 125.13 142.412 125.67 141.872 126.21C141.352 126.75 140.662 127.2 139.802 127.56C138.942 127.92 137.872 128.1 136.592 128.1ZM133.052 118.29H139.562C139.502 117.19 139.172 116.37 138.572 115.83C137.972 115.29 137.232 115.02 136.352 115.02C135.472 115.02 134.722 115.31 134.102 115.89C133.482 116.45 133.132 117.25 133.052 118.29ZM147.217 127.8V111.9H151.747V114.21H151.897C152.077 113.79 152.327 113.38 152.647 112.98C152.967 112.58 153.407 112.25 153.967 111.99C154.527 111.73 155.247 111.6 156.127 111.6C156.567 111.6 156.917 111.63 157.177 111.69C157.437 111.73 157.567 111.75 157.567 111.75V116.25C157.567 116.25 157.417 116.22 157.117 116.16C156.837 116.1 156.467 116.07 156.007 116.07C154.587 116.07 153.527 116.46 152.827 117.24C152.127 118 151.777 119.25 151.777 120.99V127.8H147.217ZM166.768 128.1C165.448 128.1 164.358 127.92 163.498 127.56C162.638 127.2 161.948 126.76 161.428 126.24C160.928 125.7 160.548 125.17 160.288 124.65C160.048 124.11 159.888 123.66 159.808 123.3C159.748 122.94 159.718 122.76 159.718 122.76H163.948C163.948 122.76 163.978 122.86 164.038 123.06C164.098 123.26 164.228 123.49 164.428 123.75C164.648 124.01 164.958 124.24 165.358 124.44C165.758 124.64 166.298 124.74 166.978 124.74C167.818 124.74 168.388 124.57 168.688 124.23C169.008 123.89 169.168 123.55 169.168 123.21C169.168 122.49 168.578 122.01 167.398 121.77L165.238 121.35C164.318 121.17 163.448 120.91 162.628 120.57C161.828 120.21 161.178 119.72 160.678 119.1C160.198 118.46 159.958 117.64 159.958 116.64C159.958 115.68 160.208 114.82 160.708 114.06C161.208 113.3 161.918 112.7 162.838 112.26C163.778 111.82 164.898 111.6 166.198 111.6C167.418 111.6 168.428 111.77 169.228 112.11C170.048 112.43 170.698 112.84 171.178 113.34C171.658 113.82 172.018 114.31 172.258 114.81C172.498 115.29 172.648 115.7 172.708 116.04C172.788 116.36 172.828 116.52 172.828 116.52H168.748C168.748 116.52 168.688 116.39 168.568 116.13C168.448 115.85 168.198 115.58 167.818 115.32C167.458 115.04 166.898 114.9 166.138 114.9C165.358 114.9 164.818 115.06 164.518 115.38C164.218 115.68 164.068 116 164.068 116.34C164.068 116.74 164.238 117.04 164.578 117.24C164.938 117.44 165.398 117.6 165.958 117.72L168.028 118.14C169.548 118.44 170.798 118.97 171.778 119.73C172.758 120.47 173.248 121.55 173.248 122.97C173.248 123.93 172.998 124.8 172.498 125.58C171.998 126.36 171.268 126.98 170.308 127.44C169.348 127.88 168.168 128.1 166.768 128.1ZM178.891 109.74C178.091 109.74 177.441 109.49 176.941 108.99C176.441 108.47 176.191 107.86 176.191 107.16C176.191 106.42 176.441 105.8 176.941 105.3C177.441 104.78 178.091 104.52 178.891 104.52C179.651 104.52 180.291 104.78 180.811 105.3C181.331 105.8 181.591 106.42 181.591 107.16C181.591 107.86 181.331 108.47 180.811 108.99C180.291 109.49 179.651 109.74 178.891 109.74ZM176.611 127.8V111.9H181.171V127.8H176.611ZM193.198 128.1C191.418 128.1 189.908 127.72 188.668 126.96C187.428 126.18 186.478 125.17 185.818 123.93C185.178 122.67 184.858 121.31 184.858 119.85C184.858 118.39 185.178 117.04 185.818 115.8C186.478 114.54 187.428 113.53 188.668 112.77C189.908 111.99 191.418 111.6 193.198 111.6C194.978 111.6 196.488 111.99 197.728 112.77C198.968 113.53 199.908 114.54 200.548 115.8C201.208 117.04 201.538 118.39 201.538 119.85C201.538 121.31 201.208 122.67 200.548 123.93C199.908 125.17 198.968 126.18 197.728 126.96C196.488 127.72 194.978 128.1 193.198 128.1ZM193.198 124.38C193.998 124.38 194.668 124.17 195.208 123.75C195.768 123.33 196.198 122.78 196.498 122.1C196.798 121.4 196.948 120.65 196.948 119.85C196.948 119.03 196.798 118.28 196.498 117.6C196.198 116.92 195.768 116.37 195.208 115.95C194.668 115.53 193.998 115.32 193.198 115.32C192.398 115.32 191.718 115.53 191.158 115.95C190.598 116.37 190.168 116.92 189.868 117.6C189.588 118.28 189.448 119.03 189.448 119.85C189.448 120.65 189.588 121.4 189.868 122.1C190.168 122.78 190.598 123.33 191.158 123.75C191.718 124.17 192.398 124.38 193.198 124.38ZM204.639 127.8V111.9H209.199V114.18H209.349C209.529 113.86 209.789 113.5 210.129 113.1C210.489 112.7 210.959 112.35 211.539 112.05C212.139 111.75 212.899 111.6 213.819 111.6C215.059 111.6 216.069 111.89 216.849 112.47C217.629 113.03 218.199 113.76 218.559 114.66C218.919 115.54 219.099 116.47 219.099 117.45V127.8H214.539V118.23C214.539 117.47 214.329 116.8 213.909 116.22C213.509 115.64 212.859 115.35 211.959 115.35C211.279 115.35 210.739 115.51 210.339 115.83C209.939 116.15 209.649 116.56 209.469 117.06C209.289 117.56 209.199 118.09 209.199 118.65V127.8H204.639ZM225.268 109.74C224.468 109.74 223.818 109.49 223.318 108.99C222.818 108.47 222.568 107.86 222.568 107.16C222.568 106.42 222.818 105.8 223.318 105.3C223.818 104.78 224.468 104.52 225.268 104.52C226.028 104.52 226.668 104.78 227.188 105.3C227.708 105.8 227.968 106.42 227.968 107.16C227.968 107.86 227.708 108.47 227.188 108.99C226.668 109.49 226.028 109.74 225.268 109.74ZM222.988 127.8V111.9H227.548V127.8H222.988ZM231.445 127.8V111.9H236.005V114.18H236.155C236.335 113.86 236.595 113.5 236.935 113.1C237.295 112.7 237.765 112.35 238.345 112.05C238.945 111.75 239.705 111.6 240.625 111.6C241.865 111.6 242.875 111.89 243.655 112.47C244.435 113.03 245.005 113.76 245.365 114.66C245.725 115.54 245.905 116.47 245.905 117.45V127.8H241.345V118.23C241.345 117.47 241.135 116.8 240.715 116.22C240.315 115.64 239.665 115.35 238.765 115.35C238.085 115.35 237.545 115.51 237.145 115.83C236.745 116.15 236.455 116.56 236.275 117.06C236.095 117.56 236.005 118.09 236.005 118.65V127.8H231.445ZM257.359 134.16C255.879 134.16 254.659 133.98 253.699 133.62C252.759 133.26 252.009 132.8 251.449 132.24C250.889 131.7 250.479 131.16 250.219 130.62C249.959 130.08 249.789 129.62 249.709 129.24C249.649 128.88 249.619 128.7 249.619 128.7H254.059C254.059 128.7 254.089 128.79 254.149 128.97C254.229 129.17 254.379 129.39 254.599 129.63C254.819 129.89 255.139 130.11 255.559 130.29C255.999 130.49 256.579 130.59 257.299 130.59C258.539 130.59 259.449 130.24 260.029 129.54C260.629 128.84 260.929 127.92 260.929 126.78V125.1H260.719C260.519 125.42 260.219 125.77 259.819 126.15C259.419 126.53 258.909 126.85 258.289 127.11C257.669 127.37 256.919 127.5 256.039 127.5C254.859 127.5 253.829 127.28 252.949 126.84C252.069 126.38 251.329 125.77 250.729 125.01C250.149 124.25 249.709 123.4 249.409 122.46C249.129 121.52 248.989 120.55 248.989 119.55C248.989 118.57 249.129 117.61 249.409 116.67C249.709 115.71 250.149 114.85 250.729 114.09C251.329 113.33 252.069 112.73 252.949 112.29C253.829 111.83 254.859 111.6 256.039 111.6C256.919 111.6 257.669 111.74 258.289 112.02C258.909 112.28 259.419 112.6 259.819 112.98C260.239 113.34 260.539 113.69 260.719 114.03H260.929V111.9H265.489V126.78C265.489 128.1 265.199 129.32 264.619 130.44C264.039 131.56 263.149 132.46 261.949 133.14C260.749 133.82 259.219 134.16 257.359 134.16ZM257.299 123.9C258.139 123.9 258.829 123.69 259.369 123.27C259.929 122.85 260.349 122.31 260.629 121.65C260.909 120.97 261.049 120.27 261.049 119.55C261.049 118.81 260.909 118.11 260.629 117.45C260.349 116.79 259.929 116.25 259.369 115.83C258.829 115.41 258.139 115.2 257.299 115.2C256.479 115.2 255.789 115.41 255.229 115.83C254.689 116.25 254.279 116.79 253.999 117.45C253.719 118.11 253.579 118.81 253.579 119.55C253.579 120.27 253.719 120.97 253.999 121.65C254.279 122.31 254.689 122.85 255.229 123.27C255.789 123.69 256.479 123.9 257.299 123.9Z" fill="white"/>
<path d="M111.955 297.8V283H113.715L121.435 294.26V283H123.395V297.8H121.635L113.915 286.56V297.8H111.955ZM132.243 298C131.083 298 130.083 297.78 129.243 297.34C128.403 296.887 127.75 296.253 127.283 295.44C126.83 294.613 126.603 293.64 126.603 292.52V283H128.563V292.52C128.563 293.547 128.863 294.407 129.463 295.1C130.077 295.793 131.003 296.14 132.243 296.14C133.497 296.14 134.423 295.793 135.023 295.1C135.637 294.407 135.943 293.547 135.943 292.52V283H137.903V292.52C137.903 293.64 137.67 294.613 137.203 295.44C136.75 296.253 136.103 296.887 135.263 297.34C134.423 297.78 133.417 298 132.243 298ZM141.096 297.8V283H143.056V296.08H150.676V297.8H141.096ZM158.83 298C157.656 298 156.623 297.787 155.73 297.36C154.836 296.92 154.09 296.34 153.49 295.62C152.89 294.887 152.436 294.067 152.13 293.16C151.823 292.253 151.67 291.327 151.67 290.38C151.67 289.433 151.823 288.513 152.13 287.62C152.436 286.713 152.89 285.9 153.49 285.18C154.09 284.46 154.836 283.887 155.73 283.46C156.623 283.02 157.656 282.8 158.83 282.8C160.003 282.8 161.036 283.02 161.93 283.46C162.823 283.887 163.57 284.46 164.17 285.18C164.77 285.9 165.223 286.713 165.53 287.62C165.836 288.513 165.99 289.433 165.99 290.38C165.99 291.327 165.836 292.253 165.53 293.16C165.223 294.067 164.77 294.887 164.17 295.62C163.57 296.34 162.823 296.92 161.93 297.36C161.036 297.787 160.003 298 158.83 298ZM158.83 296.18C159.67 296.18 160.41 296.02 161.05 295.7C161.69 295.38 162.223 294.947 162.65 294.4C163.09 293.853 163.423 293.233 163.65 292.54C163.876 291.847 163.99 291.127 163.99 290.38C163.99 289.647 163.876 288.94 163.65 288.26C163.423 287.567 163.09 286.947 162.65 286.4C162.223 285.853 161.69 285.42 161.05 285.1C160.41 284.78 159.67 284.62 158.83 284.62C157.99 284.62 157.25 284.78 156.61 285.1C155.97 285.42 155.43 285.853 154.99 286.4C154.563 286.947 154.236 287.567 154.01 288.26C153.783 288.94 153.67 289.647 153.67 290.38C153.67 291.127 153.783 291.847 154.01 292.54C154.236 293.233 154.563 293.853 154.99 294.4C155.43 294.947 155.97 295.38 156.61 295.7C157.25 296.02 157.99 296.18 158.83 296.18ZM175.293 298C174.093 298 173.047 297.787 172.153 297.36C171.26 296.933 170.52 296.36 169.933 295.64C169.347 294.907 168.907 294.093 168.613 293.2C168.333 292.293 168.193 291.367 168.193 290.42C168.193 289.473 168.333 288.547 168.613 287.64C168.907 286.733 169.347 285.92 169.933 285.2C170.533 284.467 171.28 283.887 172.173 283.46C173.08 283.02 174.14 282.8 175.353 282.8C176.287 282.8 177.087 282.92 177.753 283.16C178.433 283.4 179 283.707 179.453 284.08C179.907 284.453 180.273 284.853 180.553 285.28C180.833 285.693 181.047 286.087 181.193 286.46C181.34 286.833 181.433 287.14 181.473 287.38C181.527 287.62 181.553 287.74 181.553 287.74H179.573C179.573 287.74 179.547 287.633 179.493 287.42C179.44 287.207 179.333 286.947 179.173 286.64C179.013 286.32 178.773 286.007 178.453 285.7C178.147 285.38 177.74 285.113 177.233 284.9C176.74 284.687 176.12 284.58 175.373 284.58C174.493 284.58 173.727 284.747 173.073 285.08C172.42 285.413 171.88 285.86 171.453 286.42C171.027 286.967 170.707 287.587 170.493 288.28C170.28 288.96 170.173 289.66 170.173 290.38C170.173 291.113 170.28 291.833 170.493 292.54C170.707 293.233 171.027 293.86 171.453 294.42C171.893 294.967 172.433 295.407 173.073 295.74C173.713 296.06 174.453 296.22 175.293 296.22C176.667 296.22 177.753 295.82 178.553 295.02C179.367 294.207 179.807 293.113 179.873 291.74H175.473V290.12H181.753V291.14C181.753 292.66 181.46 293.927 180.873 294.94C180.3 295.953 179.527 296.72 178.553 297.24C177.58 297.747 176.493 298 175.293 298ZM188.437 297.8V292.54L183.257 283H185.397L189.417 290.54L193.417 283H195.557L190.377 292.54V297.8H188.437ZM206.207 292.98C205.594 292.98 205.047 292.833 204.567 292.54C204.087 292.247 203.707 291.86 203.427 291.38C203.161 290.9 203.027 290.373 203.027 289.8C203.027 289.213 203.161 288.687 203.427 288.22C203.707 287.74 204.087 287.36 204.567 287.08C205.047 286.787 205.594 286.64 206.207 286.64C206.807 286.64 207.347 286.787 207.827 287.08C208.307 287.36 208.681 287.74 208.947 288.22C209.227 288.687 209.367 289.213 209.367 289.8C209.367 290.387 209.227 290.92 208.947 291.4C208.681 291.88 208.307 292.267 207.827 292.56C207.347 292.84 206.807 292.98 206.207 292.98ZM217.952 297.8V296.42L221.192 293.42C222.098 292.58 222.892 291.847 223.572 291.22C224.265 290.58 224.805 289.96 225.192 289.36C225.578 288.76 225.772 288.1 225.772 287.38C225.772 286.78 225.625 286.273 225.332 285.86C225.052 285.447 224.685 285.133 224.232 284.92C223.792 284.693 223.332 284.58 222.852 284.58C222.225 284.58 221.712 284.687 221.312 284.9C220.912 285.113 220.605 285.38 220.392 285.7C220.178 286.007 220.025 286.32 219.932 286.64C219.838 286.947 219.785 287.207 219.772 287.42C219.758 287.633 219.752 287.74 219.752 287.74H217.872C217.872 287.74 217.878 287.62 217.892 287.38C217.905 287.14 217.952 286.833 218.032 286.46C218.125 286.087 218.272 285.693 218.472 285.28C218.672 284.853 218.952 284.453 219.312 284.08C219.685 283.707 220.158 283.4 220.732 283.16C221.318 282.92 222.032 282.8 222.872 282.8C223.725 282.8 224.518 282.98 225.252 283.34C225.998 283.687 226.598 284.2 227.052 284.88C227.505 285.547 227.732 286.367 227.732 287.34C227.732 288.233 227.505 289.047 227.052 289.78C226.612 290.5 226.025 291.207 225.292 291.9C224.558 292.593 223.758 293.34 222.892 294.14L220.852 296.02H228.052V297.8H217.952ZM236.119 297.98C235.199 297.98 234.386 297.78 233.679 297.38C232.972 296.967 232.379 296.413 231.899 295.72C231.432 295.013 231.072 294.2 230.819 293.28C230.579 292.36 230.459 291.393 230.459 290.38C230.459 289.353 230.579 288.387 230.819 287.48C231.072 286.56 231.432 285.747 231.899 285.04C232.379 284.333 232.972 283.78 233.679 283.38C234.386 282.98 235.199 282.78 236.119 282.78C237.039 282.78 237.852 282.98 238.559 283.38C239.266 283.78 239.852 284.333 240.319 285.04C240.799 285.747 241.159 286.56 241.399 287.48C241.652 288.387 241.779 289.353 241.779 290.38C241.779 291.393 241.652 292.36 241.399 293.28C241.159 294.2 240.799 295.013 240.319 295.72C239.852 296.413 239.266 296.967 238.559 297.38C237.852 297.78 237.039 297.98 236.119 297.98ZM236.119 296.18C237.172 296.18 238.039 295.693 238.719 294.72C239.412 293.733 239.759 292.287 239.759 290.38C239.759 288.473 239.412 287.033 238.719 286.06C238.039 285.087 237.172 284.6 236.119 284.6C235.066 284.6 234.192 285.087 233.499 286.06C232.819 287.033 232.479 288.473 232.479 290.38C232.479 292.273 232.819 293.713 233.499 294.7C234.192 295.687 235.066 296.18 236.119 296.18ZM248.375 283V297.8H246.455V286.32L243.675 286.34V285.22L244.175 285.06C244.881 284.833 245.448 284.587 245.875 284.32C246.315 284.053 246.721 283.687 247.095 283.22L247.275 283H248.375ZM256.91 298C255.87 298 254.963 297.813 254.19 297.44C253.43 297.053 252.836 296.54 252.41 295.9C251.983 295.247 251.77 294.513 251.77 293.7C251.77 292.98 251.896 292.387 252.15 291.92C252.403 291.44 252.696 291.06 253.03 290.78C253.376 290.487 253.676 290.28 253.93 290.16C254.183 290.04 254.31 289.98 254.31 289.98V289.88C254.31 289.88 254.203 289.833 253.99 289.74C253.776 289.633 253.523 289.46 253.23 289.22C252.95 288.98 252.703 288.66 252.49 288.26C252.276 287.86 252.17 287.367 252.17 286.78C252.17 286.02 252.363 285.34 252.75 284.74C253.136 284.14 253.683 283.667 254.39 283.32C255.11 282.973 255.95 282.8 256.91 282.8C257.87 282.8 258.703 282.973 259.41 283.32C260.13 283.667 260.683 284.14 261.07 284.74C261.456 285.34 261.65 286.02 261.65 286.78C261.65 287.367 261.543 287.86 261.33 288.26C261.116 288.66 260.863 288.98 260.57 289.22C260.29 289.46 260.043 289.633 259.83 289.74C259.616 289.833 259.51 289.88 259.51 289.88V289.98C259.51 289.98 259.636 290.04 259.89 290.16C260.143 290.28 260.436 290.487 260.77 290.78C261.116 291.06 261.416 291.44 261.67 291.92C261.923 292.387 262.05 292.98 262.05 293.7C262.05 294.513 261.836 295.247 261.41 295.9C260.983 296.54 260.383 297.053 259.61 297.44C258.85 297.813 257.95 298 256.91 298ZM256.91 289.22C257.55 289.22 258.083 289.1 258.51 288.86C258.936 288.62 259.256 288.313 259.47 287.94C259.683 287.567 259.79 287.187 259.79 286.8C259.79 286.387 259.683 285.993 259.47 285.62C259.256 285.247 258.936 284.947 258.51 284.72C258.083 284.48 257.55 284.36 256.91 284.36C256.283 284.36 255.75 284.48 255.31 284.72C254.883 284.947 254.563 285.247 254.35 285.62C254.136 285.993 254.03 286.387 254.03 286.8C254.03 287.187 254.136 287.567 254.35 287.94C254.563 288.313 254.883 288.62 255.31 288.86C255.75 289.1 256.283 289.22 256.91 289.22ZM256.91 296.42C257.63 296.42 258.23 296.28 258.71 296C259.203 295.72 259.57 295.36 259.81 294.92C260.063 294.467 260.19 294 260.19 293.52C260.19 293.053 260.07 292.613 259.83 292.2C259.59 291.773 259.223 291.427 258.73 291.16C258.25 290.88 257.643 290.74 256.91 290.74C256.176 290.74 255.563 290.88 255.07 291.16C254.59 291.427 254.23 291.773 253.99 292.2C253.75 292.613 253.63 293.053 253.63 293.52C253.63 294 253.75 294.467 253.99 294.92C254.243 295.36 254.61 295.72 255.09 296C255.583 296.28 256.19 296.42 256.91 296.42Z" fill="white"/>
<path fill-rule="evenodd" clip-rule="evenodd" d="M147.8 193.2C147.8 191.875 148.875 190.8 150.2 190.8H195.943C197.894 190.8 199.029 193.004 197.897 194.593L192.048 202.8L197.897 211.007C199.029 212.596 197.894 214.8 195.943 214.8H150.2C148.875 214.8 147.8 213.726 147.8 212.4V193.2Z" stroke="white" stroke-width="3"/>
<path fill-rule="evenodd" clip-rule="evenodd" d="M152.6 164.4C152.6 163.075 153.675 162 155 162H199.594C200.238 162 200.854 162.258 201.305 162.717L219.8 181.519V241.2C219.8 242.525 218.726 243.6 217.4 243.6H155C153.675 243.6 152.6 242.525 152.6 241.2V164.4Z" stroke="white" stroke-width="3"/>
<path d="M152.3 190.5C152.3 190.5 150.8 191 150.8 192C150.8 193 150.8 211 150.8 213C150.8 215 152.8 215 152.8 215" stroke="white" stroke-width="3" stroke-linecap="round" stroke-linejoin="round"/>
<path fill-rule="evenodd" clip-rule="evenodd" d="M200.6 162L219.8 181.519H200.6V162Z" stroke="white" stroke-width="3" stroke-linejoin="round"/>
<path fill-rule="evenodd" clip-rule="evenodd" d="M147.8 193.2C147.8 191.875 148.875 190.8 150.2 190.8H195.943C197.894 190.8 199.029 193.004 197.897 194.593L192.048 202.8L197.897 211.007C199.029 212.596 197.894 214.8 195.943 214.8H150.2C148.875 214.8 147.8 213.726 147.8 212.4V193.2Z" fill="#EF8B93" stroke="white" stroke-width="2.4"/>
<circle cx="210.8" cy="224" r="21" fill="#F08774" stroke="white" stroke-width="3"/>
<path d="M210.8 208V225H223.8" stroke="white" stroke-width="2" stroke-linecap="round" stroke-linejoin="round"/>
<path d="M159.874 208L156.22 197.64H157.676L160.742 206.432L163.808 197.64H165.264L161.596 208H159.874ZM169.535 197.64V208H168.191V199.964L166.245 199.978V199.194L166.595 199.082C167.09 198.923 167.486 198.751 167.785 198.564C168.093 198.377 168.378 198.121 168.639 197.794L168.765 197.64H169.535ZM173.074 208.14C172.812 208.14 172.593 208.051 172.416 207.874C172.248 207.687 172.164 207.473 172.164 207.23C172.164 206.978 172.248 206.763 172.416 206.586C172.593 206.409 172.812 206.32 173.074 206.32C173.335 206.32 173.55 206.409 173.718 206.586C173.895 206.763 173.984 206.978 173.984 207.23C173.984 207.482 173.895 207.697 173.718 207.874C173.55 208.051 173.335 208.14 173.074 208.14ZM179.81 208.126C179.166 208.126 178.596 207.986 178.102 207.706C177.607 207.417 177.192 207.029 176.856 206.544C176.529 206.049 176.277 205.48 176.1 204.836C175.932 204.192 175.848 203.515 175.848 202.806C175.848 202.087 175.932 201.411 176.1 200.776C176.277 200.132 176.529 199.563 176.856 199.068C177.192 198.573 177.607 198.186 178.102 197.906C178.596 197.626 179.166 197.486 179.81 197.486C180.454 197.486 181.023 197.626 181.518 197.906C182.012 198.186 182.423 198.573 182.75 199.068C183.086 199.563 183.338 200.132 183.506 200.776C183.683 201.411 183.772 202.087 183.772 202.806C183.772 203.515 183.683 204.192 183.506 204.836C183.338 205.48 183.086 206.049 182.75 206.544C182.423 207.029 182.012 207.417 181.518 207.706C181.023 207.986 180.454 208.126 179.81 208.126ZM179.81 206.866C180.547 206.866 181.154 206.525 181.63 205.844C182.115 205.153 182.358 204.141 182.358 202.806C182.358 201.471 182.115 200.463 181.63 199.782C181.154 199.101 180.547 198.76 179.81 198.76C179.072 198.76 178.461 199.101 177.976 199.782C177.5 200.463 177.262 201.471 177.262 202.806C177.262 204.131 177.5 205.139 177.976 205.83C178.461 206.521 179.072 206.866 179.81 206.866Z" fill="white"/>
</g>
<defs>
<filter id="filter0_d_624_10244" x="0.800049" y="0" width="369.6" height="369.6" filterUnits="userSpaceOnUse" color-interpolation-filters="sRGB">
<feFlood flood-opacity="0" result="BackgroundImageFix"/>
<feColorMatrix in="SourceAlpha" type="matrix" values="0 0 0 0 0 0 0 0 0 0 0 0 0 0 0 0 0 0 127 0" result="hardAlpha"/>
<feOffset dy="5"/>
<feGaussianBlur stdDeviation="6"/>
<feColorMatrix type="matrix" values="0 0 0 0 0.287583 0 0 0 0 0.287583 0 0 0 0 0.287583 0 0 0 0.2 0"/>
<feBlend mode="normal" in2="BackgroundImageFix" result="effect1_dropShadow_624_10244"/>
<feBlend mode="normal" in="SourceGraphic" in2="effect1_dropShadow_624_10244" result="shape"/>
</filter>
<linearGradient id="paint0_linear_624_10244" x1="106.5" y1="28" x2="275.5" y2="322.5" gradientUnits="userSpaceOnUse">
<stop stop-color="#F098EF"/>
<stop offset="1" stop-color="#EF7E38"/>
</linearGradient>
<clipPath id="clip0_624_10244">
<rect width="219" height="239" fill="white" transform="translate(77.6001 59.8)"/>
</clipPath>
</defs>
</svg>
