<svg width="370" height="370" viewBox="0 0 370 370" fill="none" xmlns="http://www.w3.org/2000/svg">
<g filter="url(#filter0_d)">
<circle cx="184.8" cy="179.8" r="172.8" fill="#B67474"/>
</g>
<path d="M152.75 89.8V67.05H160.719C163.479 67.05 165.573 67.5813 167 68.6438C168.427 69.6959 169.141 71.2428 169.141 73.2844C169.141 74.399 168.854 75.3834 168.281 76.2375C167.708 77.0813 166.911 77.7011 165.891 78.0969C167.057 78.3886 167.974 78.9771 168.641 79.8625C169.318 80.748 169.656 81.8313 169.656 83.1125C169.656 85.3 168.958 86.9563 167.562 88.0813C166.167 89.2063 164.177 89.7792 161.594 89.8H152.75ZM157.438 79.8938V86.0344H161.453C162.557 86.0344 163.417 85.774 164.031 85.2532C164.656 84.7219 164.969 83.9928 164.969 83.0657C164.969 80.9823 163.891 79.925 161.734 79.8938H157.438ZM157.438 76.5813H160.906C163.271 76.5396 164.453 75.5969 164.453 73.7532C164.453 72.7219 164.151 71.9823 163.547 71.5344C162.953 71.0761 162.01 70.8469 160.719 70.8469H157.438V76.5813Z" fill="white"/>
<path d="M191.875 78.9407C191.875 81.1803 191.479 83.1438 190.688 84.8313C189.896 86.5188 188.76 87.8209 187.281 88.7375C185.812 89.6542 184.125 90.1125 182.219 90.1125C180.333 90.1125 178.651 89.6594 177.172 88.7532C175.693 87.8469 174.547 86.5553 173.734 84.8782C172.922 83.1907 172.51 81.2532 172.5 79.0657V77.9407C172.5 75.7011 172.901 73.7323 173.703 72.0344C174.516 70.3261 175.656 69.0188 177.125 68.1125C178.604 67.1959 180.292 66.7375 182.188 66.7375C184.083 66.7375 185.766 67.1959 187.234 68.1125C188.714 69.0188 189.854 70.3261 190.656 72.0344C191.469 73.7323 191.875 75.6959 191.875 77.925V78.9407ZM187.125 77.9094C187.125 75.524 186.698 73.7115 185.844 72.4719C184.99 71.2323 183.771 70.6125 182.188 70.6125C180.615 70.6125 179.401 71.2271 178.547 72.4563C177.693 73.675 177.26 75.4667 177.25 77.8313V78.9407C177.25 81.2636 177.677 83.0657 178.531 84.3469C179.385 85.6282 180.615 86.2688 182.219 86.2688C183.792 86.2688 185 85.6542 185.844 84.425C186.688 83.1855 187.115 81.3834 187.125 79.0188V77.9094Z" fill="white"/>
<path d="M201.406 67.05L207.25 83.55L213.062 67.05H219.219V89.8H214.516V83.5813L214.984 72.8469L208.844 89.8H205.625L199.5 72.8625L199.969 83.5813V89.8H195.281V67.05H201.406Z" fill="white"/>
<path d="M118.953 122.159L124.109 105.05H129.328L121.406 127.8H116.516L108.625 105.05H113.828L118.953 122.159Z" fill="white"/>
<path d="M138.281 128.113C135.802 128.113 133.781 127.352 132.219 125.831C130.667 124.31 129.891 122.284 129.891 119.753V119.316C129.891 117.618 130.219 116.102 130.875 114.769C131.531 113.425 132.458 112.394 133.656 111.675C134.865 110.946 136.24 110.581 137.781 110.581C140.094 110.581 141.911 111.31 143.234 112.769C144.568 114.227 145.234 116.295 145.234 118.972V120.816H134.469C134.615 121.92 135.052 122.805 135.781 123.472C136.521 124.139 137.453 124.472 138.578 124.472C140.318 124.472 141.677 123.842 142.656 122.581L144.875 125.066C144.198 126.024 143.281 126.774 142.125 127.316C140.969 127.847 139.688 128.113 138.281 128.113ZM137.766 114.238C136.87 114.238 136.141 114.54 135.578 115.144C135.026 115.748 134.672 116.613 134.516 117.738H140.797V117.378C140.776 116.378 140.505 115.607 139.984 115.066C139.464 114.514 138.724 114.238 137.766 114.238Z" fill="white"/>
<path d="M157.312 115.128C156.698 115.045 156.156 115.003 155.688 115.003C153.979 115.003 152.859 115.581 152.328 116.738V127.8H147.812V110.894H152.078L152.203 112.909C153.109 111.357 154.365 110.581 155.969 110.581C156.469 110.581 156.938 110.649 157.375 110.784L157.312 115.128Z" fill="white"/>
<path d="M168.656 123.128C168.656 122.576 168.38 122.144 167.828 121.831C167.286 121.508 166.411 121.222 165.203 120.972C161.182 120.128 159.172 118.42 159.172 115.847C159.172 114.347 159.792 113.097 161.031 112.097C162.281 111.087 163.911 110.581 165.922 110.581C168.068 110.581 169.781 111.087 171.062 112.097C172.354 113.107 173 114.42 173 116.034H168.484C168.484 115.389 168.276 114.857 167.859 114.441C167.443 114.014 166.792 113.8 165.906 113.8C165.146 113.8 164.557 113.972 164.141 114.316C163.724 114.659 163.516 115.097 163.516 115.628C163.516 116.128 163.75 116.534 164.219 116.847C164.698 117.149 165.5 117.415 166.625 117.644C167.75 117.863 168.698 118.113 169.469 118.394C171.854 119.269 173.047 120.784 173.047 122.941C173.047 124.482 172.385 125.732 171.062 126.691C169.74 127.639 168.031 128.113 165.938 128.113C164.521 128.113 163.26 127.863 162.156 127.363C161.062 126.852 160.203 126.159 159.578 125.284C158.953 124.399 158.641 123.446 158.641 122.425H162.922C162.964 123.227 163.26 123.842 163.812 124.269C164.365 124.696 165.104 124.909 166.031 124.909C166.896 124.909 167.547 124.748 167.984 124.425C168.432 124.092 168.656 123.659 168.656 123.128Z" fill="white"/>
<path d="M180.734 127.8H176.203V110.894H180.734V127.8ZM175.938 106.519C175.938 105.842 176.161 105.284 176.609 104.847C177.068 104.409 177.688 104.191 178.469 104.191C179.24 104.191 179.854 104.409 180.312 104.847C180.771 105.284 181 105.842 181 106.519C181 107.206 180.766 107.769 180.297 108.206C179.839 108.644 179.229 108.863 178.469 108.863C177.708 108.863 177.094 108.644 176.625 108.206C176.167 107.769 175.938 107.206 175.938 106.519Z" fill="white"/>
<path d="M183.766 119.191C183.766 117.514 184.089 116.019 184.734 114.706C185.38 113.394 186.307 112.378 187.516 111.659C188.734 110.941 190.146 110.581 191.75 110.581C194.031 110.581 195.891 111.279 197.328 112.675C198.776 114.071 199.583 115.967 199.75 118.363L199.781 119.519C199.781 122.113 199.057 124.196 197.609 125.769C196.161 127.331 194.219 128.113 191.781 128.113C189.344 128.113 187.396 127.331 185.938 125.769C184.49 124.206 183.766 122.081 183.766 119.394V119.191ZM188.281 119.519C188.281 121.123 188.583 122.352 189.188 123.206C189.792 124.05 190.656 124.472 191.781 124.472C192.875 124.472 193.729 124.055 194.344 123.222C194.958 122.378 195.266 121.034 195.266 119.191C195.266 117.618 194.958 116.399 194.344 115.534C193.729 114.67 192.865 114.238 191.75 114.238C190.646 114.238 189.792 114.67 189.188 115.534C188.583 116.389 188.281 117.717 188.281 119.519Z" fill="white"/>
<path d="M206.719 110.894L206.859 112.847C208.068 111.337 209.688 110.581 211.719 110.581C213.51 110.581 214.844 111.107 215.719 112.159C216.594 113.212 217.042 114.784 217.062 116.878V127.8H212.547V116.988C212.547 116.029 212.339 115.337 211.922 114.909C211.505 114.472 210.812 114.253 209.844 114.253C208.573 114.253 207.62 114.795 206.984 115.878V127.8H202.469V110.894H206.719Z" fill="white"/>
<path d="M225.266 127.8H220.734V110.894H225.266V127.8ZM220.469 106.519C220.469 105.842 220.693 105.284 221.141 104.847C221.599 104.409 222.219 104.191 223 104.191C223.771 104.191 224.385 104.409 224.844 104.847C225.302 105.284 225.531 105.842 225.531 106.519C225.531 107.206 225.297 107.769 224.828 108.206C224.37 108.644 223.76 108.863 223 108.863C222.24 108.863 221.625 108.644 221.156 108.206C220.698 107.769 220.469 107.206 220.469 106.519Z" fill="white"/>
<path d="M233.156 110.894L233.297 112.847C234.505 111.337 236.125 110.581 238.156 110.581C239.948 110.581 241.281 111.107 242.156 112.159C243.031 113.212 243.479 114.784 243.5 116.878V127.8H238.984V116.988C238.984 116.029 238.776 115.337 238.359 114.909C237.943 114.472 237.25 114.253 236.281 114.253C235.01 114.253 234.057 114.795 233.422 115.878V127.8H228.906V110.894H233.156Z" fill="white"/>
<path d="M246.281 119.222C246.281 116.628 246.896 114.54 248.125 112.956C249.365 111.373 251.031 110.581 253.125 110.581C254.979 110.581 256.422 111.217 257.453 112.488L257.641 110.894H261.734V127.238C261.734 128.717 261.396 130.003 260.719 131.097C260.052 132.191 259.109 133.024 257.891 133.597C256.672 134.17 255.245 134.456 253.609 134.456C252.37 134.456 251.161 134.206 249.984 133.706C248.807 133.217 247.917 132.581 247.312 131.8L249.312 129.05C250.438 130.31 251.802 130.941 253.406 130.941C254.604 130.941 255.536 130.618 256.203 129.972C256.87 129.337 257.203 128.43 257.203 127.253V126.347C256.161 127.524 254.792 128.113 253.094 128.113C251.062 128.113 249.417 127.321 248.156 125.738C246.906 124.144 246.281 122.034 246.281 119.409V119.222ZM250.797 119.55C250.797 121.081 251.104 122.284 251.719 123.159C252.333 124.024 253.177 124.456 254.25 124.456C255.625 124.456 256.609 123.941 257.203 122.909V115.8C256.599 114.769 255.625 114.253 254.281 114.253C253.198 114.253 252.344 114.696 251.719 115.581C251.104 116.467 250.797 117.79 250.797 119.55Z" fill="white"/>
<path d="M129.418 293.8H127.533L120.375 282.843V293.8H118.49V279.581H120.375L127.553 290.587V279.581H129.418V293.8Z" fill="white"/>
<path d="M142.758 279.581V289.249C142.751 290.59 142.328 291.687 141.488 292.54C140.655 293.393 139.522 293.872 138.09 293.976L137.592 293.995C136.036 293.995 134.796 293.575 133.871 292.736C132.947 291.896 132.478 290.74 132.465 289.269V279.581H134.32V289.21C134.32 290.239 134.604 291.04 135.17 291.613C135.736 292.179 136.544 292.462 137.592 292.462C138.653 292.462 139.464 292.179 140.023 291.613C140.59 291.046 140.873 290.249 140.873 289.22V279.581H142.758Z" fill="white"/>
<path d="M147.602 292.267H154.34V293.8H145.717V279.581H147.602V292.267Z" fill="white"/>
<path d="M166.771 287.15C166.771 288.543 166.537 289.76 166.068 290.802C165.6 291.837 164.936 292.628 164.076 293.175C163.217 293.722 162.214 293.995 161.068 293.995C159.949 293.995 158.956 293.722 158.09 293.175C157.224 292.622 156.55 291.837 156.068 290.822C155.593 289.799 155.349 288.618 155.336 287.277V286.251C155.336 284.884 155.574 283.676 156.049 282.628C156.524 281.58 157.195 280.779 158.061 280.226C158.933 279.666 159.929 279.386 161.049 279.386C162.188 279.386 163.191 279.663 164.057 280.216C164.929 280.763 165.6 281.56 166.068 282.609C166.537 283.65 166.771 284.865 166.771 286.251V287.15ZM164.906 286.232C164.906 284.545 164.568 283.253 163.891 282.355C163.214 281.45 162.266 280.997 161.049 280.997C159.864 280.997 158.93 281.45 158.246 282.355C157.569 283.253 157.221 284.503 157.201 286.105V287.15C157.201 288.784 157.543 290.07 158.227 291.007C158.917 291.938 159.864 292.404 161.068 292.404C162.279 292.404 163.217 291.964 163.881 291.085C164.545 290.2 164.887 288.934 164.906 287.286V286.232Z" fill="white"/>
<path d="M180.082 291.935C179.6 292.625 178.926 293.142 178.061 293.488C177.201 293.826 176.199 293.995 175.053 293.995C173.894 293.995 172.865 293.725 171.967 293.185C171.068 292.638 170.372 291.863 169.877 290.861C169.389 289.858 169.138 288.696 169.125 287.374V286.134C169.125 283.992 169.623 282.332 170.619 281.154C171.622 279.975 173.028 279.386 174.838 279.386C176.322 279.386 177.517 279.767 178.422 280.529C179.327 281.284 179.88 282.358 180.082 283.751H178.207C177.855 281.87 176.736 280.929 174.848 280.929C173.591 280.929 172.637 281.372 171.986 282.257C171.342 283.136 171.016 284.412 171.01 286.085V287.247C171.01 288.842 171.374 290.112 172.104 291.056C172.833 291.993 173.819 292.462 175.062 292.462C175.766 292.462 176.381 292.384 176.908 292.228C177.436 292.072 177.872 291.808 178.217 291.437V288.243H174.926V286.72H180.082V291.935Z" fill="white"/>
<path d="M187.553 286.72L191.264 279.581H193.393L188.49 288.497V293.8H186.615V288.497L181.713 279.581H183.861L187.553 286.72Z" fill="white"/>
<path d="M199.887 286.261C199.887 285.695 200.066 285.229 200.424 284.865C200.788 284.5 201.27 284.318 201.869 284.318C202.462 284.318 202.943 284.497 203.314 284.855C203.686 285.206 203.871 285.685 203.871 286.29V286.652C203.871 287.218 203.692 287.68 203.334 288.038C202.976 288.396 202.491 288.575 201.879 288.575C201.273 288.575 200.788 288.396 200.424 288.038C200.066 287.674 199.887 287.205 199.887 286.632V286.261Z" fill="white"/>
<path d="M220.736 293.8H211.42V292.501L216.342 287.032C217.071 286.206 217.572 285.535 217.846 285.021C218.126 284.5 218.266 283.963 218.266 283.409C218.266 282.667 218.041 282.059 217.592 281.583C217.143 281.108 216.544 280.87 215.795 280.87C214.896 280.87 214.197 281.128 213.695 281.642C213.201 282.15 212.953 282.859 212.953 283.771H211.146C211.146 282.462 211.566 281.404 212.406 280.597C213.253 279.79 214.382 279.386 215.795 279.386C217.117 279.386 218.161 279.734 218.93 280.431C219.698 281.121 220.082 282.042 220.082 283.195C220.082 284.594 219.19 286.261 217.406 288.195L213.598 292.325H220.736V293.8Z" fill="white"/>
<path d="M231.566 287.736C231.566 289.851 231.205 291.424 230.482 292.452C229.76 293.481 228.63 293.995 227.094 293.995C225.577 293.995 224.454 293.494 223.725 292.491C222.995 291.482 222.618 289.978 222.592 287.98V285.568C222.592 283.478 222.953 281.925 223.676 280.909C224.398 279.894 225.531 279.386 227.074 279.386C228.604 279.386 229.73 279.878 230.453 280.861C231.176 281.837 231.547 283.348 231.566 285.392V287.736ZM229.76 285.265C229.76 283.735 229.545 282.622 229.115 281.925C228.686 281.222 228.005 280.87 227.074 280.87C226.15 280.87 225.476 281.219 225.053 281.915C224.63 282.612 224.411 283.683 224.398 285.128V288.019C224.398 289.555 224.62 290.691 225.062 291.427C225.512 292.156 226.189 292.521 227.094 292.521C227.986 292.521 228.646 292.176 229.076 291.486C229.512 290.795 229.74 289.708 229.76 288.224V285.265Z" fill="white"/>
<path d="M239.818 293.8H238.002V281.759L234.359 283.097V281.456L239.535 279.513H239.818V293.8Z" fill="white"/>
<path d="M253.734 283.292C253.734 284.002 253.546 284.633 253.168 285.187C252.797 285.74 252.292 286.173 251.654 286.486C252.396 286.805 252.982 287.27 253.412 287.882C253.848 288.494 254.066 289.187 254.066 289.962C254.066 291.193 253.65 292.172 252.816 292.902C251.99 293.631 250.899 293.995 249.545 293.995C248.178 293.995 247.081 293.631 246.254 292.902C245.434 292.166 245.023 291.186 245.023 289.962C245.023 289.194 245.232 288.501 245.648 287.882C246.072 287.264 246.654 286.795 247.396 286.476C246.765 286.163 246.267 285.73 245.902 285.177C245.538 284.624 245.355 283.995 245.355 283.292C245.355 282.094 245.74 281.144 246.508 280.441C247.276 279.738 248.288 279.386 249.545 279.386C250.795 279.386 251.804 279.738 252.572 280.441C253.347 281.144 253.734 282.094 253.734 283.292ZM252.26 289.923C252.26 289.129 252.006 288.481 251.498 287.98C250.997 287.478 250.339 287.228 249.525 287.228C248.712 287.228 248.057 287.475 247.562 287.97C247.074 288.465 246.83 289.116 246.83 289.923C246.83 290.73 247.068 291.365 247.543 291.827C248.025 292.29 248.692 292.521 249.545 292.521C250.391 292.521 251.055 292.29 251.537 291.827C252.019 291.359 252.26 290.724 252.26 289.923ZM249.545 280.87C248.835 280.87 248.259 281.092 247.816 281.534C247.38 281.971 247.162 282.566 247.162 283.322C247.162 284.044 247.377 284.63 247.807 285.079C248.243 285.522 248.822 285.743 249.545 285.743C250.268 285.743 250.844 285.522 251.273 285.079C251.71 284.63 251.928 284.044 251.928 283.322C251.928 282.599 251.703 282.01 251.254 281.554C250.805 281.098 250.235 280.87 249.545 280.87Z" fill="white"/>
<path fill-rule="evenodd" clip-rule="evenodd" d="M147 193.2C147 191.875 148.075 190.8 149.4 190.8H195.142C197.093 190.8 198.229 193.004 197.097 194.593L191.248 202.8L197.097 211.007C198.229 212.596 197.093 214.8 195.142 214.8H149.4C148.075 214.8 147 213.726 147 212.4V193.2Z" stroke="white" stroke-width="3"/>
<path fill-rule="evenodd" clip-rule="evenodd" d="M151.8 164.4C151.8 163.075 152.875 162 154.2 162H198.794C199.438 162 200.054 162.258 200.505 162.717L219 181.519V241.2C219 242.525 217.926 243.6 216.6 243.6H154.2C152.875 243.6 151.8 242.525 151.8 241.2V164.4Z" stroke="white" stroke-width="3"/>
<path d="M151.5 190.5C151.5 190.5 150 191 150 192C150 193 150 211 150 213C150 215 152 215 152 215" stroke="white" stroke-width="3" stroke-linecap="round" stroke-linejoin="round"/>
<path fill-rule="evenodd" clip-rule="evenodd" d="M199.8 162L219 181.519H199.8V162Z" stroke="white" stroke-width="3" stroke-linejoin="round"/>
<path fill-rule="evenodd" clip-rule="evenodd" d="M147 193.2C147 191.875 148.075 190.8 149.4 190.8H195.142C197.093 190.8 198.229 193.004 197.097 194.593L191.248 202.8L197.097 211.007C198.229 212.596 197.093 214.8 195.142 214.8H149.4C148.075 214.8 147 213.726 147 212.4V193.2Z" fill="#B67474" stroke="white" stroke-width="2.4"/>
<circle cx="210" cy="224" r="21" fill="#B67474" stroke="white" stroke-width="3"/>
<path d="M210 208V225H223" stroke="white" stroke-width="2" stroke-linecap="round" stroke-linejoin="round"/>
<path d="M159.88 209C159.613 209 159.432 208.872 159.336 208.616L155.624 198.296L155.592 198.12C155.592 198.035 155.624 197.96 155.688 197.896C155.752 197.832 155.827 197.8 155.912 197.8H156.248C156.344 197.8 156.419 197.827 156.472 197.88C156.536 197.933 156.579 197.987 156.6 198.04L160.104 207.832L163.608 198.04C163.629 197.987 163.667 197.933 163.72 197.88C163.784 197.827 163.864 197.8 163.96 197.8H164.296C164.381 197.8 164.456 197.832 164.52 197.896C164.584 197.96 164.616 198.035 164.616 198.12L164.584 198.296L160.872 208.616C160.776 208.872 160.595 209 160.328 209H159.88ZM169.447 209C169.341 209 169.255 208.968 169.191 208.904C169.127 208.84 169.095 208.755 169.095 208.648V199.112L166.231 201.32C166.146 201.373 166.071 201.4 166.007 201.4C165.901 201.4 165.81 201.352 165.735 201.256L165.559 201.032C165.506 200.957 165.479 200.883 165.479 200.808C165.479 200.701 165.527 200.611 165.623 200.536L169.031 197.912C169.138 197.837 169.277 197.8 169.447 197.8H169.751C169.858 197.8 169.943 197.832 170.007 197.896C170.071 197.96 170.103 198.045 170.103 198.152V208.648C170.103 208.755 170.071 208.84 170.007 208.904C169.943 208.968 169.858 209 169.751 209H169.447ZM172.926 209C172.82 209 172.734 208.968 172.67 208.904C172.606 208.84 172.574 208.755 172.574 208.648V207.88C172.574 207.773 172.606 207.688 172.67 207.624C172.734 207.549 172.82 207.512 172.926 207.512H173.694C173.801 207.512 173.886 207.549 173.95 207.624C174.025 207.688 174.062 207.773 174.062 207.88V208.648C174.062 208.755 174.025 208.84 173.95 208.904C173.886 208.968 173.801 209 173.694 209H172.926ZM179.85 209.16C178.506 209.16 177.535 208.755 176.938 207.944C176.351 207.133 176.042 206.067 176.01 204.744L175.994 203.416L176.01 202.056C176.042 200.733 176.351 199.667 176.938 198.856C177.535 198.045 178.506 197.64 179.85 197.64C181.194 197.64 182.159 198.045 182.746 198.856C183.343 199.667 183.658 200.733 183.69 202.056C183.701 202.355 183.706 202.808 183.706 203.416C183.706 204.013 183.701 204.456 183.69 204.744C183.658 206.067 183.343 207.133 182.746 207.944C182.159 208.755 181.194 209.16 179.85 209.16ZM179.85 208.2C180.767 208.2 181.461 207.896 181.93 207.288C182.41 206.669 182.661 205.795 182.682 204.664C182.693 204.355 182.698 203.928 182.698 203.384C182.698 202.84 182.693 202.424 182.682 202.136C182.661 201.027 182.41 200.163 181.93 199.544C181.461 198.915 180.767 198.6 179.85 198.6C178.933 198.6 178.234 198.915 177.754 199.544C177.285 200.163 177.039 201.027 177.018 202.136L177.002 203.384L177.018 204.664C177.039 205.795 177.285 206.669 177.754 207.288C178.234 207.896 178.933 208.2 179.85 208.2Z" fill="white"/>
<defs>
<filter id="filter0_d" x="0" y="0" width="369.6" height="369.6" filterUnits="userSpaceOnUse" color-interpolation-filters="sRGB">
<feFlood flood-opacity="0" result="BackgroundImageFix"/>
<feColorMatrix in="SourceAlpha" type="matrix" values="0 0 0 0 0 0 0 0 0 0 0 0 0 0 0 0 0 0 127 0"/>
<feOffset dy="5"/>
<feGaussianBlur stdDeviation="6"/>
<feColorMatrix type="matrix" values="0 0 0 0 0.552941 0 0 0 0 0.552941 0 0 0 0 0.552941 0 0 0 0.5 0"/>
<feBlend mode="normal" in2="BackgroundImageFix" result="effect1_dropShadow"/>
<feBlend mode="normal" in="SourceGraphic" in2="effect1_dropShadow" result="shape"/>
</filter>
</defs>
</svg>
