<svg width="370" height="370" viewBox="0 0 370 370" fill="none" xmlns="http://www.w3.org/2000/svg">
<g filter="url(#filter0_d_205_13666)">
<circle cx="184.8" cy="179.8" r="172.8" fill="#B67474"/>
</g>
<path d="M145.406 78H140.453L140.484 74.3438H145.406C146.635 74.3438 147.672 74.0677 148.516 73.5156C149.359 72.9531 149.995 72.1354 150.422 71.0625C150.859 69.9896 151.078 68.6927 151.078 67.1719V66.0625C151.078 64.8958 150.953 63.8698 150.703 62.9844C150.464 62.099 150.104 61.3542 149.625 60.75C149.146 60.1458 148.557 59.6927 147.859 59.3906C147.161 59.0781 146.359 58.9219 145.453 58.9219H140.359V55.25H145.453C146.974 55.25 148.365 55.5104 149.625 56.0312C150.896 56.5417 151.995 57.276 152.922 58.2344C153.849 59.1927 154.562 60.3385 155.062 61.6719C155.573 62.9948 155.828 64.4688 155.828 66.0938V67.1719C155.828 68.7865 155.573 70.2604 155.062 71.5938C154.562 72.9271 153.849 74.0729 152.922 75.0312C152.005 75.9792 150.906 76.7135 149.625 77.2344C148.354 77.7448 146.948 78 145.406 78ZM143.109 55.25V78H138.422V55.25H143.109ZM166.734 78.3125C165.422 78.3125 164.245 78.1042 163.203 77.6875C162.161 77.2604 161.276 76.6719 160.547 75.9219C159.828 75.1719 159.276 74.3021 158.891 73.3125C158.505 72.3125 158.312 71.25 158.312 70.125V69.5C158.312 68.2188 158.495 67.0469 158.859 65.9844C159.224 64.9219 159.745 64 160.422 63.2188C161.109 62.4375 161.943 61.8385 162.922 61.4219C163.901 60.9948 165.005 60.7812 166.234 60.7812C167.432 60.7812 168.495 60.9792 169.422 61.375C170.349 61.7708 171.125 62.3333 171.75 63.0625C172.385 63.7917 172.865 64.6667 173.188 65.6875C173.51 66.6979 173.672 67.8229 173.672 69.0625V70.9375H160.234V67.9375H169.25V67.5938C169.25 66.9688 169.135 66.4115 168.906 65.9219C168.688 65.4219 168.354 65.026 167.906 64.7344C167.458 64.4427 166.885 64.2969 166.188 64.2969C165.594 64.2969 165.083 64.4271 164.656 64.6875C164.229 64.9479 163.88 65.3125 163.609 65.7812C163.349 66.25 163.151 66.8021 163.016 67.4375C162.891 68.0625 162.828 68.75 162.828 69.5V70.125C162.828 70.8021 162.922 71.4271 163.109 72C163.307 72.5729 163.583 73.0677 163.938 73.4844C164.302 73.901 164.74 74.224 165.25 74.4531C165.771 74.6823 166.359 74.7969 167.016 74.7969C167.828 74.7969 168.583 74.6406 169.281 74.3281C169.99 74.0052 170.599 73.5208 171.109 72.875L173.297 75.25C172.943 75.7604 172.458 76.25 171.844 76.7188C171.24 77.1875 170.51 77.5729 169.656 77.875C168.802 78.1667 167.828 78.3125 166.734 78.3125ZM185.375 73.3281C185.375 73.0052 185.281 72.7135 185.094 72.4531C184.906 72.1927 184.557 71.9531 184.047 71.7344C183.547 71.5052 182.823 71.2969 181.875 71.1094C181.021 70.9219 180.224 70.6875 179.484 70.4062C178.755 70.1146 178.12 69.7656 177.578 69.3594C177.047 68.9531 176.63 68.474 176.328 67.9219C176.026 67.3594 175.875 66.7188 175.875 66C175.875 65.2917 176.026 64.625 176.328 64C176.641 63.375 177.083 62.8229 177.656 62.3438C178.24 61.8542 178.948 61.474 179.781 61.2031C180.625 60.9219 181.573 60.7812 182.625 60.7812C184.094 60.7812 185.354 61.0156 186.406 61.4844C187.469 61.9531 188.281 62.599 188.844 63.4219C189.417 64.2344 189.703 65.1615 189.703 66.2031H185.203C185.203 65.7656 185.109 65.375 184.922 65.0312C184.745 64.6771 184.464 64.401 184.078 64.2031C183.703 63.9948 183.214 63.8906 182.609 63.8906C182.109 63.8906 181.677 63.9792 181.312 64.1562C180.948 64.3229 180.667 64.5521 180.469 64.8438C180.281 65.125 180.188 65.4375 180.188 65.7812C180.188 66.0417 180.24 66.276 180.344 66.4844C180.458 66.6823 180.641 66.8646 180.891 67.0312C181.141 67.1979 181.464 67.3542 181.859 67.5C182.266 67.6354 182.766 67.7604 183.359 67.875C184.578 68.125 185.667 68.4531 186.625 68.8594C187.583 69.2552 188.344 69.7969 188.906 70.4844C189.469 71.1615 189.75 72.0521 189.75 73.1562C189.75 73.9062 189.583 74.5938 189.25 75.2188C188.917 75.8438 188.438 76.3906 187.812 76.8594C187.188 77.3177 186.438 77.6771 185.562 77.9375C184.698 78.1875 183.724 78.3125 182.641 78.3125C181.068 78.3125 179.734 78.0312 178.641 77.4688C177.557 76.9062 176.734 76.1927 176.172 75.3281C175.62 74.4531 175.344 73.5573 175.344 72.6406H179.609C179.63 73.2552 179.786 73.75 180.078 74.125C180.38 74.5 180.76 74.7708 181.219 74.9375C181.688 75.1042 182.193 75.1875 182.734 75.1875C183.318 75.1875 183.802 75.1094 184.188 74.9531C184.573 74.7865 184.865 74.5677 185.062 74.2969C185.271 74.0156 185.375 73.6927 185.375 73.3281ZM197.422 61.0938V78H192.906V61.0938H197.422ZM192.625 56.6875C192.625 56.0312 192.854 55.4896 193.312 55.0625C193.771 54.6354 194.385 54.4219 195.156 54.4219C195.917 54.4219 196.526 54.6354 196.984 55.0625C197.453 55.4896 197.688 56.0312 197.688 56.6875C197.688 57.3438 197.453 57.8854 196.984 58.3125C196.526 58.7396 195.917 58.9531 195.156 58.9531C194.385 58.9531 193.771 58.7396 193.312 58.3125C192.854 57.8854 192.625 57.3438 192.625 56.6875ZM211.844 61.0938H215.922V77.4375C215.922 78.9792 215.578 80.2865 214.891 81.3594C214.214 82.4427 213.266 83.2604 212.047 83.8125C210.828 84.375 209.411 84.6562 207.797 84.6562C207.089 84.6562 206.339 84.5625 205.547 84.375C204.766 84.1875 204.016 83.8958 203.297 83.5C202.589 83.1042 201.995 82.6042 201.516 82L203.5 79.3438C204.021 79.9479 204.625 80.4167 205.312 80.75C206 81.0938 206.76 81.2656 207.594 81.2656C208.406 81.2656 209.094 81.1146 209.656 80.8125C210.219 80.5208 210.651 80.0885 210.953 79.5156C211.255 78.9531 211.406 78.2708 211.406 77.4688V65L211.844 61.0938ZM200.469 69.75V69.4219C200.469 68.1302 200.625 66.9583 200.938 65.9062C201.26 64.8438 201.714 63.9323 202.297 63.1719C202.891 62.4115 203.609 61.8229 204.453 61.4062C205.297 60.9896 206.25 60.7812 207.312 60.7812C208.438 60.7812 209.38 60.9896 210.141 61.4062C210.901 61.8229 211.526 62.4167 212.016 63.1875C212.505 63.9479 212.885 64.849 213.156 65.8906C213.438 66.9219 213.656 68.0521 213.812 69.2812V70C213.656 71.1771 213.422 72.2708 213.109 73.2812C212.797 74.2917 212.385 75.1771 211.875 75.9375C211.365 76.6875 210.729 77.2708 209.969 77.6875C209.219 78.1042 208.323 78.3125 207.281 78.3125C206.24 78.3125 205.297 78.099 204.453 77.6719C203.62 77.2448 202.906 76.6458 202.312 75.875C201.719 75.1042 201.26 74.1979 200.938 73.1562C200.625 72.1146 200.469 70.9792 200.469 69.75ZM204.969 69.4219V69.75C204.969 70.4479 205.036 71.099 205.172 71.7031C205.307 72.3073 205.516 72.8438 205.797 73.3125C206.089 73.7708 206.448 74.1302 206.875 74.3906C207.312 74.6406 207.828 74.7656 208.422 74.7656C209.245 74.7656 209.917 74.5938 210.438 74.25C210.958 73.8958 211.349 73.4115 211.609 72.7969C211.87 72.1823 212.021 71.474 212.062 70.6719V68.625C212.042 67.9688 211.953 67.3802 211.797 66.8594C211.641 66.3281 211.422 65.875 211.141 65.5C210.859 65.125 210.495 64.8333 210.047 64.625C209.599 64.4167 209.068 64.3125 208.453 64.3125C207.859 64.3125 207.344 64.4479 206.906 64.7188C206.479 64.9792 206.12 65.3385 205.828 65.7969C205.547 66.2552 205.333 66.7969 205.188 67.4219C205.042 68.0365 204.969 68.7031 204.969 69.4219ZM223.828 64.7031V78H219.328V61.0938H223.547L223.828 64.7031ZM223.172 68.9531H221.953C221.953 67.7031 222.115 66.5781 222.438 65.5781C222.76 64.5677 223.214 63.7083 223.797 63C224.38 62.2812 225.073 61.7344 225.875 61.3594C226.688 60.974 227.594 60.7812 228.594 60.7812C229.385 60.7812 230.109 60.8958 230.766 61.125C231.422 61.3542 231.984 61.7188 232.453 62.2188C232.932 62.7188 233.297 63.3802 233.547 64.2031C233.807 65.026 233.938 66.0312 233.938 67.2188V78H229.406V67.2031C229.406 66.4531 229.302 65.8698 229.094 65.4531C228.885 65.0365 228.578 64.7448 228.172 64.5781C227.776 64.401 227.286 64.3125 226.703 64.3125C226.099 64.3125 225.573 64.4323 225.125 64.6719C224.688 64.9115 224.323 65.2448 224.031 65.6719C223.75 66.0885 223.536 66.5781 223.391 67.1406C223.245 67.7031 223.172 68.3073 223.172 68.9531ZM129.625 93.25H133.594L139.438 109.953L145.281 93.25H149.25L141.031 116H137.844L129.625 93.25ZM127.484 93.25H131.438L132.156 109.531V116H127.484V93.25ZM147.438 93.25H151.406V116H146.719V109.531L147.438 93.25ZM164.359 112.188V104.656C164.359 104.115 164.271 103.651 164.094 103.266C163.917 102.87 163.641 102.562 163.266 102.344C162.901 102.125 162.427 102.016 161.844 102.016C161.344 102.016 160.911 102.104 160.547 102.281C160.182 102.448 159.901 102.693 159.703 103.016C159.505 103.328 159.406 103.698 159.406 104.125H154.906C154.906 103.406 155.073 102.724 155.406 102.078C155.74 101.432 156.224 100.865 156.859 100.375C157.495 99.875 158.25 99.4844 159.125 99.2031C160.01 98.9219 161 98.7812 162.094 98.7812C163.406 98.7812 164.573 99 165.594 99.4375C166.615 99.875 167.417 100.531 168 101.406C168.594 102.281 168.891 103.375 168.891 104.688V111.922C168.891 112.849 168.948 113.609 169.062 114.203C169.177 114.786 169.344 115.297 169.562 115.734V116H165.016C164.797 115.542 164.63 114.969 164.516 114.281C164.411 113.583 164.359 112.885 164.359 112.188ZM164.953 105.703L164.984 108.25H162.469C161.875 108.25 161.359 108.318 160.922 108.453C160.484 108.589 160.125 108.781 159.844 109.031C159.562 109.271 159.354 109.552 159.219 109.875C159.094 110.198 159.031 110.552 159.031 110.938C159.031 111.323 159.12 111.672 159.297 111.984C159.474 112.286 159.729 112.526 160.062 112.703C160.396 112.87 160.786 112.953 161.234 112.953C161.911 112.953 162.5 112.818 163 112.547C163.5 112.276 163.885 111.943 164.156 111.547C164.438 111.151 164.583 110.776 164.594 110.422L165.781 112.328C165.615 112.755 165.385 113.198 165.094 113.656C164.812 114.115 164.453 114.547 164.016 114.953C163.578 115.349 163.052 115.677 162.438 115.938C161.823 116.188 161.094 116.312 160.25 116.312C159.177 116.312 158.203 116.099 157.328 115.672C156.464 115.234 155.776 114.635 155.266 113.875C154.766 113.104 154.516 112.229 154.516 111.25C154.516 110.365 154.682 109.578 155.016 108.891C155.349 108.203 155.839 107.625 156.484 107.156C157.141 106.677 157.958 106.318 158.938 106.078C159.917 105.828 161.052 105.703 162.344 105.703H164.953ZM180.641 99.0938V102.281H170.797V99.0938H180.641ZM173.234 94.9219H177.734V110.906C177.734 111.396 177.797 111.771 177.922 112.031C178.057 112.292 178.255 112.474 178.516 112.578C178.776 112.672 179.104 112.719 179.5 112.719C179.781 112.719 180.031 112.708 180.25 112.688C180.479 112.656 180.672 112.625 180.828 112.594L180.844 115.906C180.458 116.031 180.042 116.13 179.594 116.203C179.146 116.276 178.651 116.312 178.109 116.312C177.12 116.312 176.255 116.151 175.516 115.828C174.786 115.495 174.224 114.964 173.828 114.234C173.432 113.505 173.234 112.547 173.234 111.359V94.9219ZM193.203 111.953V99.0938H197.703V116H193.469L193.203 111.953ZM193.703 108.484L195.031 108.453C195.031 109.578 194.901 110.625 194.641 111.594C194.38 112.552 193.99 113.385 193.469 114.094C192.948 114.792 192.292 115.339 191.5 115.734C190.708 116.12 189.776 116.312 188.703 116.312C187.88 116.312 187.12 116.198 186.422 115.969C185.734 115.729 185.141 115.359 184.641 114.859C184.151 114.349 183.766 113.698 183.484 112.906C183.214 112.104 183.078 111.141 183.078 110.016V99.0938H187.578V110.047C187.578 110.547 187.635 110.969 187.75 111.312C187.875 111.656 188.047 111.938 188.266 112.156C188.484 112.375 188.74 112.531 189.031 112.625C189.333 112.719 189.667 112.766 190.031 112.766C190.958 112.766 191.688 112.578 192.219 112.203C192.76 111.828 193.141 111.318 193.359 110.672C193.589 110.016 193.703 109.286 193.703 108.484ZM205.641 102.781V116H201.141V99.0938H205.375L205.641 102.781ZM210.734 98.9844L210.656 103.156C210.438 103.125 210.172 103.099 209.859 103.078C209.557 103.047 209.281 103.031 209.031 103.031C208.396 103.031 207.844 103.115 207.375 103.281C206.917 103.438 206.531 103.672 206.219 103.984C205.917 104.297 205.688 104.677 205.531 105.125C205.385 105.573 205.302 106.083 205.281 106.656L204.375 106.375C204.375 105.281 204.484 104.276 204.703 103.359C204.922 102.432 205.24 101.625 205.656 100.938C206.083 100.25 206.604 99.7188 207.219 99.3438C207.833 98.9688 208.536 98.7812 209.328 98.7812C209.578 98.7812 209.833 98.8021 210.094 98.8438C210.354 98.875 210.568 98.9219 210.734 98.9844ZM217.609 99.0938V116H213.094V99.0938H217.609ZM212.812 94.6875C212.812 94.0312 213.042 93.4896 213.5 93.0625C213.958 92.6354 214.573 92.4219 215.344 92.4219C216.104 92.4219 216.714 92.6354 217.172 93.0625C217.641 93.4896 217.875 94.0312 217.875 94.6875C217.875 95.3438 217.641 95.8854 217.172 96.3125C216.714 96.7396 216.104 96.9531 215.344 96.9531C214.573 96.9531 213.958 96.7396 213.5 96.3125C213.042 95.8854 212.812 95.3438 212.812 94.6875ZM229.609 99.0938V102.281H219.766V99.0938H229.609ZM222.203 94.9219H226.703V110.906C226.703 111.396 226.766 111.771 226.891 112.031C227.026 112.292 227.224 112.474 227.484 112.578C227.745 112.672 228.073 112.719 228.469 112.719C228.75 112.719 229 112.708 229.219 112.688C229.448 112.656 229.641 112.625 229.797 112.594L229.812 115.906C229.427 116.031 229.01 116.13 228.562 116.203C228.115 116.276 227.62 116.312 227.078 116.312C226.089 116.312 225.224 116.151 224.484 115.828C223.755 115.495 223.193 114.964 222.797 114.234C222.401 113.505 222.203 112.547 222.203 111.359V94.9219ZM237.188 114.094L241.672 99.0938H246.5L239.703 118.547C239.557 118.974 239.359 119.432 239.109 119.922C238.87 120.411 238.542 120.875 238.125 121.312C237.719 121.76 237.203 122.125 236.578 122.406C235.964 122.688 235.208 122.828 234.312 122.828C233.885 122.828 233.536 122.802 233.266 122.75C232.995 122.698 232.672 122.625 232.297 122.531V119.234C232.411 119.234 232.531 119.234 232.656 119.234C232.781 119.245 232.901 119.25 233.016 119.25C233.609 119.25 234.094 119.182 234.469 119.047C234.844 118.911 235.146 118.703 235.375 118.422C235.604 118.151 235.786 117.797 235.922 117.359L237.188 114.094ZM235.312 99.0938L238.984 111.344L239.625 116.109L236.562 116.438L230.484 99.0938H235.312ZM126.672 148.047C126.672 147.641 126.609 147.276 126.484 146.953C126.37 146.62 126.151 146.318 125.828 146.047C125.505 145.766 125.052 145.49 124.469 145.219C123.885 144.948 123.13 144.667 122.203 144.375C121.172 144.042 120.193 143.667 119.266 143.25C118.349 142.833 117.536 142.349 116.828 141.797C116.13 141.234 115.578 140.583 115.172 139.844C114.776 139.104 114.578 138.245 114.578 137.266C114.578 136.318 114.786 135.458 115.203 134.688C115.62 133.906 116.203 133.24 116.953 132.688C117.703 132.125 118.589 131.693 119.609 131.391C120.641 131.089 121.771 130.938 123 130.938C124.677 130.938 126.141 131.24 127.391 131.844C128.641 132.448 129.609 133.276 130.297 134.328C130.995 135.38 131.344 136.583 131.344 137.938H126.688C126.688 137.271 126.547 136.688 126.266 136.188C125.995 135.677 125.578 135.276 125.016 134.984C124.464 134.693 123.766 134.547 122.922 134.547C122.109 134.547 121.432 134.672 120.891 134.922C120.349 135.161 119.943 135.49 119.672 135.906C119.401 136.312 119.266 136.771 119.266 137.281C119.266 137.667 119.359 138.016 119.547 138.328C119.745 138.641 120.036 138.932 120.422 139.203C120.807 139.474 121.281 139.729 121.844 139.969C122.406 140.208 123.057 140.443 123.797 140.672C125.036 141.047 126.125 141.469 127.062 141.938C128.01 142.406 128.802 142.932 129.438 143.516C130.073 144.099 130.552 144.76 130.875 145.5C131.198 146.24 131.359 147.078 131.359 148.016C131.359 149.005 131.167 149.891 130.781 150.672C130.396 151.453 129.839 152.115 129.109 152.656C128.38 153.198 127.51 153.609 126.5 153.891C125.49 154.172 124.359 154.312 123.109 154.312C121.984 154.312 120.875 154.167 119.781 153.875C118.688 153.573 117.693 153.12 116.797 152.516C115.911 151.911 115.203 151.141 114.672 150.203C114.141 149.266 113.875 148.156 113.875 146.875H118.578C118.578 147.583 118.688 148.182 118.906 148.672C119.125 149.161 119.432 149.557 119.828 149.859C120.234 150.161 120.714 150.38 121.266 150.516C121.828 150.651 122.443 150.719 123.109 150.719C123.922 150.719 124.589 150.604 125.109 150.375C125.641 150.146 126.031 149.828 126.281 149.422C126.542 149.016 126.672 148.557 126.672 148.047ZM141.25 150.797C141.802 150.797 142.292 150.693 142.719 150.484C143.146 150.266 143.479 149.964 143.719 149.578C143.969 149.182 144.099 148.719 144.109 148.188H148.344C148.333 149.375 148.016 150.432 147.391 151.359C146.766 152.276 145.927 153 144.875 153.531C143.823 154.052 142.646 154.312 141.344 154.312C140.031 154.312 138.885 154.094 137.906 153.656C136.938 153.219 136.13 152.615 135.484 151.844C134.839 151.062 134.354 150.156 134.031 149.125C133.708 148.083 133.547 146.969 133.547 145.781V145.328C133.547 144.13 133.708 143.016 134.031 141.984C134.354 140.943 134.839 140.036 135.484 139.266C136.13 138.484 136.938 137.875 137.906 137.438C138.875 137 140.01 136.781 141.312 136.781C142.698 136.781 143.911 137.047 144.953 137.578C146.005 138.109 146.828 138.87 147.422 139.859C148.026 140.839 148.333 142 148.344 143.344H144.109C144.099 142.781 143.979 142.271 143.75 141.812C143.531 141.354 143.208 140.99 142.781 140.719C142.365 140.438 141.849 140.297 141.234 140.297C140.578 140.297 140.042 140.438 139.625 140.719C139.208 140.99 138.885 141.365 138.656 141.844C138.427 142.312 138.266 142.849 138.172 143.453C138.089 144.047 138.047 144.672 138.047 145.328V145.781C138.047 146.438 138.089 147.068 138.172 147.672C138.255 148.276 138.411 148.812 138.641 149.281C138.88 149.75 139.208 150.12 139.625 150.391C140.042 150.661 140.583 150.797 141.25 150.797ZM150.234 145.719V145.391C150.234 144.151 150.411 143.01 150.766 141.969C151.12 140.917 151.635 140.005 152.312 139.234C152.99 138.464 153.823 137.865 154.812 137.438C155.802 137 156.938 136.781 158.219 136.781C159.5 136.781 160.641 137 161.641 137.438C162.641 137.865 163.479 138.464 164.156 139.234C164.844 140.005 165.365 140.917 165.719 141.969C166.073 143.01 166.25 144.151 166.25 145.391V145.719C166.25 146.948 166.073 148.089 165.719 149.141C165.365 150.182 164.844 151.094 164.156 151.875C163.479 152.646 162.646 153.245 161.656 153.672C160.667 154.099 159.531 154.312 158.25 154.312C156.969 154.312 155.828 154.099 154.828 153.672C153.839 153.245 153 152.646 152.312 151.875C151.635 151.094 151.12 150.182 150.766 149.141C150.411 148.089 150.234 146.948 150.234 145.719ZM154.734 145.391V145.719C154.734 146.427 154.797 147.089 154.922 147.703C155.047 148.318 155.245 148.859 155.516 149.328C155.797 149.786 156.161 150.146 156.609 150.406C157.057 150.667 157.604 150.797 158.25 150.797C158.875 150.797 159.411 150.667 159.859 150.406C160.307 150.146 160.667 149.786 160.938 149.328C161.208 148.859 161.406 148.318 161.531 147.703C161.667 147.089 161.734 146.427 161.734 145.719V145.391C161.734 144.703 161.667 144.057 161.531 143.453C161.406 142.839 161.203 142.297 160.922 141.828C160.651 141.349 160.292 140.974 159.844 140.703C159.396 140.432 158.854 140.297 158.219 140.297C157.583 140.297 157.042 140.432 156.594 140.703C156.156 140.974 155.797 141.349 155.516 141.828C155.245 142.297 155.047 142.839 154.922 143.453C154.797 144.057 154.734 144.703 154.734 145.391ZM173.516 140.781V154H169.016V137.094H173.25L173.516 140.781ZM178.609 136.984L178.531 141.156C178.312 141.125 178.047 141.099 177.734 141.078C177.432 141.047 177.156 141.031 176.906 141.031C176.271 141.031 175.719 141.115 175.25 141.281C174.792 141.438 174.406 141.672 174.094 141.984C173.792 142.297 173.562 142.677 173.406 143.125C173.26 143.573 173.177 144.083 173.156 144.656L172.25 144.375C172.25 143.281 172.359 142.276 172.578 141.359C172.797 140.432 173.115 139.625 173.531 138.938C173.958 138.25 174.479 137.719 175.094 137.344C175.708 136.969 176.411 136.781 177.203 136.781C177.453 136.781 177.708 136.802 177.969 136.844C178.229 136.875 178.443 136.922 178.609 136.984ZM188.203 154.312C186.891 154.312 185.714 154.104 184.672 153.688C183.63 153.26 182.745 152.672 182.016 151.922C181.297 151.172 180.745 150.302 180.359 149.312C179.974 148.312 179.781 147.25 179.781 146.125V145.5C179.781 144.219 179.964 143.047 180.328 141.984C180.693 140.922 181.214 140 181.891 139.219C182.578 138.438 183.411 137.839 184.391 137.422C185.37 136.995 186.474 136.781 187.703 136.781C188.901 136.781 189.964 136.979 190.891 137.375C191.818 137.771 192.594 138.333 193.219 139.062C193.854 139.792 194.333 140.667 194.656 141.688C194.979 142.698 195.141 143.823 195.141 145.062V146.938H181.703V143.938H190.719V143.594C190.719 142.969 190.604 142.411 190.375 141.922C190.156 141.422 189.823 141.026 189.375 140.734C188.927 140.443 188.354 140.297 187.656 140.297C187.062 140.297 186.552 140.427 186.125 140.688C185.698 140.948 185.349 141.312 185.078 141.781C184.818 142.25 184.62 142.802 184.484 143.438C184.359 144.062 184.297 144.75 184.297 145.5V146.125C184.297 146.802 184.391 147.427 184.578 148C184.776 148.573 185.052 149.068 185.406 149.484C185.771 149.901 186.208 150.224 186.719 150.453C187.24 150.682 187.828 150.797 188.484 150.797C189.297 150.797 190.052 150.641 190.75 150.328C191.458 150.005 192.068 149.521 192.578 148.875L194.766 151.25C194.411 151.76 193.927 152.25 193.312 152.719C192.708 153.188 191.979 153.573 191.125 153.875C190.271 154.167 189.297 154.312 188.203 154.312ZM204.688 150.797C205.24 150.797 205.729 150.693 206.156 150.484C206.583 150.266 206.917 149.964 207.156 149.578C207.406 149.182 207.536 148.719 207.547 148.188H211.781C211.771 149.375 211.453 150.432 210.828 151.359C210.203 152.276 209.365 153 208.312 153.531C207.26 154.052 206.083 154.312 204.781 154.312C203.469 154.312 202.323 154.094 201.344 153.656C200.375 153.219 199.568 152.615 198.922 151.844C198.276 151.062 197.792 150.156 197.469 149.125C197.146 148.083 196.984 146.969 196.984 145.781V145.328C196.984 144.13 197.146 143.016 197.469 141.984C197.792 140.943 198.276 140.036 198.922 139.266C199.568 138.484 200.375 137.875 201.344 137.438C202.312 137 203.448 136.781 204.75 136.781C206.135 136.781 207.349 137.047 208.391 137.578C209.443 138.109 210.266 138.87 210.859 139.859C211.464 140.839 211.771 142 211.781 143.344H207.547C207.536 142.781 207.417 142.271 207.188 141.812C206.969 141.354 206.646 140.99 206.219 140.719C205.802 140.438 205.286 140.297 204.672 140.297C204.016 140.297 203.479 140.438 203.062 140.719C202.646 140.99 202.323 141.365 202.094 141.844C201.865 142.312 201.703 142.849 201.609 143.453C201.526 144.047 201.484 144.672 201.484 145.328V145.781C201.484 146.438 201.526 147.068 201.609 147.672C201.693 148.276 201.849 148.812 202.078 149.281C202.318 149.75 202.646 150.12 203.062 150.391C203.479 150.661 204.021 150.797 204.688 150.797ZM223.516 150.188V142.656C223.516 142.115 223.427 141.651 223.25 141.266C223.073 140.87 222.797 140.562 222.422 140.344C222.057 140.125 221.583 140.016 221 140.016C220.5 140.016 220.068 140.104 219.703 140.281C219.339 140.448 219.057 140.693 218.859 141.016C218.661 141.328 218.562 141.698 218.562 142.125H214.062C214.062 141.406 214.229 140.724 214.562 140.078C214.896 139.432 215.38 138.865 216.016 138.375C216.651 137.875 217.406 137.484 218.281 137.203C219.167 136.922 220.156 136.781 221.25 136.781C222.562 136.781 223.729 137 224.75 137.438C225.771 137.875 226.573 138.531 227.156 139.406C227.75 140.281 228.047 141.375 228.047 142.688V149.922C228.047 150.849 228.104 151.609 228.219 152.203C228.333 152.786 228.5 153.297 228.719 153.734V154H224.172C223.953 153.542 223.786 152.969 223.672 152.281C223.568 151.583 223.516 150.885 223.516 150.188ZM224.109 143.703L224.141 146.25H221.625C221.031 146.25 220.516 146.318 220.078 146.453C219.641 146.589 219.281 146.781 219 147.031C218.719 147.271 218.51 147.552 218.375 147.875C218.25 148.198 218.188 148.552 218.188 148.938C218.188 149.323 218.276 149.672 218.453 149.984C218.63 150.286 218.885 150.526 219.219 150.703C219.552 150.87 219.943 150.953 220.391 150.953C221.068 150.953 221.656 150.818 222.156 150.547C222.656 150.276 223.042 149.943 223.312 149.547C223.594 149.151 223.74 148.776 223.75 148.422L224.938 150.328C224.771 150.755 224.542 151.198 224.25 151.656C223.969 152.115 223.609 152.547 223.172 152.953C222.734 153.349 222.208 153.677 221.594 153.938C220.979 154.188 220.25 154.312 219.406 154.312C218.333 154.312 217.359 154.099 216.484 153.672C215.62 153.234 214.932 152.635 214.422 151.875C213.922 151.104 213.672 150.229 213.672 149.25C213.672 148.365 213.839 147.578 214.172 146.891C214.505 146.203 214.995 145.625 215.641 145.156C216.297 144.677 217.115 144.318 218.094 144.078C219.073 143.828 220.208 143.703 221.5 143.703H224.109ZM236.016 140.781V154H231.516V137.094H235.75L236.016 140.781ZM241.109 136.984L241.031 141.156C240.812 141.125 240.547 141.099 240.234 141.078C239.932 141.047 239.656 141.031 239.406 141.031C238.771 141.031 238.219 141.115 237.75 141.281C237.292 141.438 236.906 141.672 236.594 141.984C236.292 142.297 236.062 142.677 235.906 143.125C235.76 143.573 235.677 144.083 235.656 144.656L234.75 144.375C234.75 143.281 234.859 142.276 235.078 141.359C235.297 140.432 235.615 139.625 236.031 138.938C236.458 138.25 236.979 137.719 237.594 137.344C238.208 136.969 238.911 136.781 239.703 136.781C239.953 136.781 240.208 136.802 240.469 136.844C240.729 136.875 240.943 136.922 241.109 136.984ZM252.906 150.312V130H257.438V154H253.359L252.906 150.312ZM242.219 145.75V145.422C242.219 144.13 242.365 142.958 242.656 141.906C242.948 140.844 243.375 139.932 243.938 139.172C244.5 138.411 245.193 137.823 246.016 137.406C246.839 136.99 247.776 136.781 248.828 136.781C249.818 136.781 250.682 136.99 251.422 137.406C252.172 137.823 252.807 138.417 253.328 139.188C253.859 139.948 254.286 140.849 254.609 141.891C254.932 142.922 255.167 144.052 255.312 145.281V146C255.167 147.177 254.932 148.271 254.609 149.281C254.286 150.292 253.859 151.177 253.328 151.938C252.807 152.688 252.172 153.271 251.422 153.688C250.672 154.104 249.797 154.312 248.797 154.312C247.745 154.312 246.807 154.099 245.984 153.672C245.172 153.245 244.484 152.646 243.922 151.875C243.37 151.104 242.948 150.198 242.656 149.156C242.365 148.115 242.219 146.979 242.219 145.75ZM246.719 145.422V145.75C246.719 146.448 246.771 147.099 246.875 147.703C246.99 148.307 247.172 148.844 247.422 149.312C247.682 149.771 248.016 150.13 248.422 150.391C248.839 150.641 249.344 150.766 249.938 150.766C250.708 150.766 251.344 150.594 251.844 150.25C252.344 149.896 252.724 149.411 252.984 148.797C253.255 148.182 253.411 147.474 253.453 146.672V144.625C253.422 143.969 253.328 143.38 253.172 142.859C253.026 142.328 252.807 141.875 252.516 141.5C252.234 141.125 251.88 140.833 251.453 140.625C251.036 140.417 250.542 140.312 249.969 140.312C249.385 140.312 248.885 140.448 248.469 140.719C248.052 140.979 247.714 141.339 247.453 141.797C247.203 142.255 247.016 142.797 246.891 143.422C246.776 144.036 246.719 144.703 246.719 145.422Z" fill="white"/>
<path d="M113.498 287.15H109.895L109.875 285.636H113.146C113.687 285.636 114.159 285.545 114.562 285.363C114.966 285.18 115.279 284.92 115.5 284.581C115.728 284.236 115.842 283.826 115.842 283.351C115.842 282.83 115.741 282.407 115.539 282.081C115.344 281.749 115.041 281.508 114.631 281.359C114.227 281.202 113.713 281.124 113.088 281.124H110.314V293.8H108.43V279.581H113.088C113.817 279.581 114.468 279.656 115.041 279.806C115.614 279.949 116.099 280.177 116.496 280.489C116.9 280.795 117.206 281.186 117.414 281.661C117.622 282.137 117.727 282.706 117.727 283.37C117.727 283.956 117.577 284.487 117.277 284.962C116.978 285.431 116.561 285.815 116.027 286.114C115.5 286.414 114.882 286.606 114.172 286.691L113.498 287.15ZM113.41 293.8H109.152L110.217 292.267H113.41C114.009 292.267 114.517 292.163 114.934 291.954C115.357 291.746 115.679 291.453 115.9 291.075C116.122 290.691 116.232 290.239 116.232 289.718C116.232 289.191 116.138 288.735 115.949 288.351C115.76 287.967 115.464 287.67 115.061 287.462C114.657 287.254 114.136 287.15 113.498 287.15H110.812L110.832 285.636H114.504L114.904 286.183C115.588 286.241 116.167 286.437 116.643 286.769C117.118 287.094 117.479 287.511 117.727 288.019C117.98 288.527 118.107 289.086 118.107 289.698C118.107 290.584 117.912 291.333 117.521 291.945C117.137 292.55 116.594 293.012 115.891 293.331C115.188 293.644 114.361 293.8 113.41 293.8ZM129.924 292.267V293.8H122.395V292.267H129.924ZM122.775 279.581V293.8H120.891V279.581H122.775ZM128.928 285.695V287.228H122.395V285.695H128.928ZM129.826 279.581V281.124H122.395V279.581H129.826ZM143.195 279.581V293.8H141.301L134.143 282.833V293.8H132.258V279.581H134.143L141.33 290.577V279.581H143.195ZM155.119 289.279H156.994C156.896 290.177 156.639 290.981 156.223 291.691C155.806 292.4 155.217 292.963 154.455 293.38C153.693 293.79 152.743 293.995 151.604 293.995C150.77 293.995 150.012 293.839 149.328 293.527C148.651 293.214 148.068 292.771 147.58 292.198C147.092 291.619 146.714 290.926 146.447 290.118C146.187 289.305 146.057 288.4 146.057 287.404V285.988C146.057 284.991 146.187 284.09 146.447 283.282C146.714 282.469 147.095 281.772 147.59 281.193C148.091 280.613 148.693 280.167 149.396 279.855C150.1 279.542 150.891 279.386 151.77 279.386C152.844 279.386 153.752 279.588 154.494 279.991C155.236 280.395 155.812 280.955 156.223 281.671C156.639 282.381 156.896 283.204 156.994 284.142H155.119C155.028 283.478 154.859 282.908 154.611 282.433C154.364 281.951 154.012 281.58 153.557 281.32C153.101 281.059 152.505 280.929 151.77 280.929C151.138 280.929 150.581 281.049 150.1 281.29C149.624 281.531 149.224 281.873 148.898 282.316C148.579 282.758 148.339 283.289 148.176 283.907C148.013 284.526 147.932 285.213 147.932 285.968V287.404C147.932 288.1 148.003 288.754 148.146 289.366C148.296 289.978 148.521 290.515 148.82 290.978C149.12 291.44 149.501 291.805 149.963 292.071C150.425 292.332 150.972 292.462 151.604 292.462C152.404 292.462 153.042 292.335 153.518 292.081C153.993 291.827 154.351 291.463 154.592 290.988C154.839 290.512 155.015 289.943 155.119 289.279ZM168.85 285.695V287.228H161.154V285.695H168.85ZM161.447 279.581V293.8H159.562V279.581H161.447ZM170.49 279.581V293.8H168.615V279.581H170.49ZM181.418 290.206C181.418 289.874 181.366 289.581 181.262 289.327C181.164 289.067 180.988 288.833 180.734 288.624C180.487 288.416 180.142 288.217 179.699 288.029C179.263 287.84 178.71 287.648 178.039 287.452C177.336 287.244 176.701 287.013 176.135 286.759C175.568 286.499 175.083 286.202 174.68 285.87C174.276 285.538 173.967 285.157 173.752 284.728C173.537 284.298 173.43 283.807 173.43 283.253C173.43 282.7 173.544 282.189 173.771 281.72C173.999 281.251 174.325 280.844 174.748 280.499C175.178 280.148 175.689 279.874 176.281 279.679C176.874 279.484 177.535 279.386 178.264 279.386C179.331 279.386 180.236 279.591 180.979 280.001C181.727 280.405 182.297 280.935 182.688 281.593C183.078 282.244 183.273 282.941 183.273 283.683H181.398C181.398 283.149 181.285 282.677 181.057 282.267C180.829 281.85 180.484 281.525 180.021 281.29C179.559 281.049 178.973 280.929 178.264 280.929C177.593 280.929 177.04 281.03 176.604 281.232C176.167 281.433 175.842 281.707 175.627 282.052C175.419 282.397 175.314 282.791 175.314 283.234C175.314 283.533 175.376 283.807 175.5 284.054C175.63 284.295 175.829 284.519 176.096 284.728C176.369 284.936 176.714 285.128 177.131 285.304C177.554 285.48 178.059 285.649 178.645 285.812C179.452 286.04 180.148 286.293 180.734 286.573C181.32 286.853 181.802 287.169 182.18 287.521C182.564 287.866 182.847 288.26 183.029 288.702C183.218 289.139 183.312 289.633 183.312 290.187C183.312 290.766 183.195 291.29 182.961 291.759C182.727 292.228 182.391 292.628 181.955 292.96C181.519 293.292 180.995 293.549 180.383 293.732C179.777 293.907 179.1 293.995 178.352 293.995C177.694 293.995 177.046 293.904 176.408 293.722C175.777 293.54 175.201 293.266 174.68 292.902C174.165 292.537 173.752 292.088 173.439 291.554C173.133 291.014 172.98 290.389 172.98 289.679H174.855C174.855 290.167 174.95 290.587 175.139 290.939C175.327 291.284 175.585 291.57 175.91 291.798C176.242 292.026 176.617 292.195 177.033 292.306C177.456 292.41 177.896 292.462 178.352 292.462C179.009 292.462 179.566 292.371 180.021 292.189C180.477 292.006 180.822 291.746 181.057 291.407C181.298 291.069 181.418 290.668 181.418 290.206ZM194.299 289.279H196.174C196.076 290.177 195.819 290.981 195.402 291.691C194.986 292.4 194.396 292.963 193.635 293.38C192.873 293.79 191.923 293.995 190.783 293.995C189.95 293.995 189.191 293.839 188.508 293.527C187.831 293.214 187.248 292.771 186.76 292.198C186.271 291.619 185.894 290.926 185.627 290.118C185.367 289.305 185.236 288.4 185.236 287.404V285.988C185.236 284.991 185.367 284.09 185.627 283.282C185.894 282.469 186.275 281.772 186.77 281.193C187.271 280.613 187.873 280.167 188.576 279.855C189.279 279.542 190.07 279.386 190.949 279.386C192.023 279.386 192.932 279.588 193.674 279.991C194.416 280.395 194.992 280.955 195.402 281.671C195.819 282.381 196.076 283.204 196.174 284.142H194.299C194.208 283.478 194.038 282.908 193.791 282.433C193.544 281.951 193.192 281.58 192.736 281.32C192.281 281.059 191.685 280.929 190.949 280.929C190.318 280.929 189.761 281.049 189.279 281.29C188.804 281.531 188.404 281.873 188.078 282.316C187.759 282.758 187.518 283.289 187.355 283.907C187.193 284.526 187.111 285.213 187.111 285.968V287.404C187.111 288.1 187.183 288.754 187.326 289.366C187.476 289.978 187.701 290.515 188 290.978C188.299 291.44 188.68 291.805 189.143 292.071C189.605 292.332 190.152 292.462 190.783 292.462C191.584 292.462 192.222 292.335 192.697 292.081C193.173 291.827 193.531 291.463 193.771 290.988C194.019 290.512 194.195 289.943 194.299 289.279ZM200.764 279.581V293.8H198.879V279.581H200.764ZM208.859 286.652V286.251C208.859 285.691 209.035 285.229 209.387 284.864C209.745 284.5 210.23 284.318 210.842 284.318C211.46 284.318 211.949 284.5 212.307 284.864C212.665 285.229 212.844 285.691 212.844 286.251V286.652C212.844 287.205 212.665 287.664 212.307 288.029C211.955 288.387 211.47 288.566 210.852 288.566C210.24 288.566 209.755 288.387 209.396 288.029C209.038 287.664 208.859 287.205 208.859 286.652ZM229.719 292.316V293.8H220.412V292.501L225.07 287.316C225.643 286.678 226.086 286.137 226.398 285.695C226.717 285.245 226.939 284.845 227.062 284.493C227.193 284.135 227.258 283.771 227.258 283.4C227.258 282.931 227.16 282.508 226.965 282.13C226.776 281.746 226.496 281.44 226.125 281.212C225.754 280.984 225.305 280.87 224.777 280.87C224.146 280.87 223.618 280.994 223.195 281.241C222.779 281.482 222.466 281.821 222.258 282.257C222.049 282.693 221.945 283.195 221.945 283.761H220.139C220.139 282.96 220.314 282.228 220.666 281.564C221.018 280.9 221.538 280.372 222.229 279.982C222.919 279.585 223.768 279.386 224.777 279.386C225.676 279.386 226.444 279.545 227.082 279.864C227.72 280.177 228.208 280.62 228.547 281.193C228.892 281.759 229.064 282.423 229.064 283.185C229.064 283.601 228.993 284.025 228.85 284.454C228.713 284.877 228.521 285.301 228.273 285.724C228.033 286.147 227.749 286.564 227.424 286.974C227.105 287.384 226.763 287.788 226.398 288.185L222.59 292.316H229.719ZM240.578 285.558V287.726C240.578 288.891 240.474 289.874 240.266 290.675C240.057 291.476 239.758 292.12 239.367 292.609C238.977 293.097 238.505 293.452 237.951 293.673C237.404 293.888 236.786 293.995 236.096 293.995C235.549 293.995 235.044 293.927 234.582 293.79C234.12 293.654 233.703 293.435 233.332 293.136C232.967 292.83 232.655 292.433 232.395 291.945C232.134 291.456 231.936 290.864 231.799 290.167C231.662 289.471 231.594 288.657 231.594 287.726V285.558C231.594 284.392 231.698 283.416 231.906 282.628C232.121 281.84 232.424 281.209 232.814 280.734C233.205 280.252 233.674 279.907 234.221 279.698C234.774 279.49 235.393 279.386 236.076 279.386C236.63 279.386 237.137 279.454 237.6 279.591C238.068 279.721 238.485 279.933 238.85 280.226C239.214 280.512 239.523 280.896 239.777 281.378C240.038 281.853 240.236 282.436 240.373 283.126C240.51 283.816 240.578 284.627 240.578 285.558ZM238.762 288.019V285.255C238.762 284.617 238.723 284.057 238.645 283.575C238.573 283.087 238.465 282.67 238.322 282.325C238.179 281.98 237.997 281.7 237.775 281.486C237.561 281.271 237.31 281.114 237.023 281.017C236.743 280.913 236.428 280.861 236.076 280.861C235.646 280.861 235.266 280.942 234.934 281.105C234.602 281.261 234.322 281.512 234.094 281.857C233.872 282.202 233.703 282.654 233.586 283.214C233.469 283.774 233.41 284.454 233.41 285.255V288.019C233.41 288.657 233.446 289.22 233.518 289.708C233.596 290.196 233.71 290.62 233.859 290.978C234.009 291.329 234.191 291.619 234.406 291.847C234.621 292.075 234.868 292.244 235.148 292.355C235.435 292.459 235.751 292.511 236.096 292.511C236.538 292.511 236.926 292.426 237.258 292.257C237.59 292.088 237.867 291.824 238.088 291.466C238.316 291.101 238.485 290.636 238.596 290.07C238.706 289.497 238.762 288.813 238.762 288.019ZM252.219 292.316V293.8H242.912V292.501L247.57 287.316C248.143 286.678 248.586 286.137 248.898 285.695C249.217 285.245 249.439 284.845 249.562 284.493C249.693 284.135 249.758 283.771 249.758 283.4C249.758 282.931 249.66 282.508 249.465 282.13C249.276 281.746 248.996 281.44 248.625 281.212C248.254 280.984 247.805 280.87 247.277 280.87C246.646 280.87 246.118 280.994 245.695 281.241C245.279 281.482 244.966 281.821 244.758 282.257C244.549 282.693 244.445 283.195 244.445 283.761H242.639C242.639 282.96 242.814 282.228 243.166 281.564C243.518 280.9 244.038 280.372 244.729 279.982C245.419 279.585 246.268 279.386 247.277 279.386C248.176 279.386 248.944 279.545 249.582 279.864C250.22 280.177 250.708 280.62 251.047 281.193C251.392 281.759 251.564 282.423 251.564 283.185C251.564 283.601 251.493 284.025 251.35 284.454C251.213 284.877 251.021 285.301 250.773 285.724C250.533 286.147 250.249 286.564 249.924 286.974C249.605 287.384 249.263 287.788 248.898 288.185L245.09 292.316H252.219ZM263.469 292.316V293.8H254.162V292.501L258.82 287.316C259.393 286.678 259.836 286.137 260.148 285.695C260.467 285.245 260.689 284.845 260.812 284.493C260.943 284.135 261.008 283.771 261.008 283.4C261.008 282.931 260.91 282.508 260.715 282.13C260.526 281.746 260.246 281.44 259.875 281.212C259.504 280.984 259.055 280.87 258.527 280.87C257.896 280.87 257.368 280.994 256.945 281.241C256.529 281.482 256.216 281.821 256.008 282.257C255.799 282.693 255.695 283.195 255.695 283.761H253.889C253.889 282.96 254.064 282.228 254.416 281.564C254.768 280.9 255.288 280.372 255.979 279.982C256.669 279.585 257.518 279.386 258.527 279.386C259.426 279.386 260.194 279.545 260.832 279.864C261.47 280.177 261.958 280.62 262.297 281.193C262.642 281.759 262.814 282.423 262.814 283.185C262.814 283.601 262.743 284.025 262.6 284.454C262.463 284.877 262.271 285.301 262.023 285.724C261.783 286.147 261.499 286.564 261.174 286.974C260.855 287.384 260.513 287.788 260.148 288.185L256.34 292.316H263.469Z" fill="white"/>
<rect x="137" y="179" width="98" height="65.7317" rx="1" stroke="white" stroke-width="3"/>
<path d="M215.281 214.256L218.268 217.244L225.439 209.476" stroke="white" stroke-width="3" stroke-linecap="round" stroke-linejoin="round"/>
<path d="M215.878 230.39L223.049 237.561" stroke="white" stroke-width="3" stroke-linecap="round" stroke-linejoin="round"/>
<path d="M223.049 230.39L215.878 237.561" stroke="white" stroke-width="3" stroke-linecap="round" stroke-linejoin="round"/>
<path d="M137 203.5H235" stroke="white" stroke-width="3" stroke-linecap="round" stroke-linejoin="round"/>
<path d="M155.524 243.537V204.098" stroke="white" stroke-width="3" stroke-linecap="round" stroke-linejoin="round"/>
<path d="M192.573 243.537V204.098" stroke="white" stroke-width="3" stroke-linecap="round" stroke-linejoin="round"/>
<path d="M204.524 243.537V204.098" stroke="white" stroke-width="3" stroke-linecap="round" stroke-linejoin="round"/>
<path d="M137 223.817H235" stroke="white" stroke-width="3" stroke-linecap="round" stroke-linejoin="round"/>
<defs>
<filter id="filter0_d_205_13666" x="0" y="0" width="369.6" height="369.6" filterUnits="userSpaceOnUse" color-interpolation-filters="sRGB">
<feFlood flood-opacity="0" result="BackgroundImageFix"/>
<feColorMatrix in="SourceAlpha" type="matrix" values="0 0 0 0 0 0 0 0 0 0 0 0 0 0 0 0 0 0 127 0" result="hardAlpha"/>
<feOffset dy="5"/>
<feGaussianBlur stdDeviation="6"/>
<feColorMatrix type="matrix" values="0 0 0 0 0.552941 0 0 0 0 0.552941 0 0 0 0 0.552941 0 0 0 0.5 0"/>
<feBlend mode="normal" in2="BackgroundImageFix" result="effect1_dropShadow_205_13666"/>
<feBlend mode="normal" in="SourceGraphic" in2="effect1_dropShadow_205_13666" result="shape"/>
</filter>
</defs>
</svg>
