<svg width="370" height="370" viewBox="0 0 370 370" fill="none" xmlns="http://www.w3.org/2000/svg">
<g filter="url(#filter0_d_624_10259)">
<circle cx="185" cy="179.8" r="172.8" fill="url(#paint0_linear_624_10259)"/>
</g>
<path d="M136.355 78V55.8H144.755C146.555 55.8 148.135 56.12 149.495 56.76C150.875 57.38 152.015 58.22 152.915 59.28C153.815 60.34 154.495 61.53 154.955 62.85C155.415 64.17 155.645 65.52 155.645 66.9C155.645 68.28 155.415 69.63 154.955 70.95C154.495 72.27 153.815 73.46 152.915 74.52C152.015 75.58 150.875 76.43 149.495 77.07C148.135 77.69 146.555 78 144.755 78H136.355ZM144.545 59.85H140.975V73.89H144.545C146.005 73.89 147.205 73.55 148.145 72.87C149.105 72.19 149.815 71.31 150.275 70.23C150.755 69.15 150.995 68.03 150.995 66.87C150.995 65.71 150.755 64.6 150.275 63.54C149.815 62.46 149.105 61.58 148.145 60.9C147.205 60.2 146.005 59.85 144.545 59.85ZM166.505 78.3C165.105 78.3 163.895 78.07 162.875 77.61C161.855 77.13 161.015 76.5 160.355 75.72C159.695 74.92 159.195 74.03 158.855 73.05C158.535 72.07 158.375 71.06 158.375 70.02C158.375 69.02 158.525 68.04 158.825 67.08C159.145 66.1 159.625 65.21 160.265 64.41C160.925 63.61 161.755 62.98 162.755 62.52C163.775 62.04 164.975 61.8 166.355 61.8C167.815 61.8 169.105 62.12 170.225 62.76C171.365 63.4 172.255 64.35 172.895 65.61C173.535 66.85 173.855 68.36 173.855 70.14V71.25H162.965C163.025 72.21 163.355 73.04 163.955 73.74C164.575 74.44 165.425 74.79 166.505 74.79C167.125 74.79 167.625 74.7 168.005 74.52C168.405 74.32 168.715 74.1 168.935 73.86C169.155 73.6 169.305 73.37 169.385 73.17C169.465 72.97 169.505 72.87 169.505 72.87H173.705C173.705 72.87 173.655 73.06 173.555 73.44C173.475 73.8 173.295 74.25 173.015 74.79C172.735 75.33 172.325 75.87 171.785 76.41C171.265 76.95 170.575 77.4 169.715 77.76C168.855 78.12 167.785 78.3 166.505 78.3ZM162.965 68.49H169.475C169.415 67.39 169.085 66.57 168.485 66.03C167.885 65.49 167.145 65.22 166.265 65.22C165.385 65.22 164.635 65.51 164.015 66.09C163.395 66.65 163.045 67.45 162.965 68.49ZM183.82 78.3C182.5 78.3 181.41 78.12 180.55 77.76C179.69 77.4 179 76.96 178.48 76.44C177.98 75.9 177.6 75.37 177.34 74.85C177.1 74.31 176.94 73.86 176.86 73.5C176.8 73.14 176.77 72.96 176.77 72.96H181C181 72.96 181.03 73.06 181.09 73.26C181.15 73.46 181.28 73.69 181.48 73.95C181.7 74.21 182.01 74.44 182.41 74.64C182.81 74.84 183.35 74.94 184.03 74.94C184.87 74.94 185.44 74.77 185.74 74.43C186.06 74.09 186.22 73.75 186.22 73.41C186.22 72.69 185.63 72.21 184.45 71.97L182.29 71.55C181.37 71.37 180.5 71.11 179.68 70.77C178.88 70.41 178.23 69.92 177.73 69.3C177.25 68.66 177.01 67.84 177.01 66.84C177.01 65.88 177.26 65.02 177.76 64.26C178.26 63.5 178.97 62.9 179.89 62.46C180.83 62.02 181.95 61.8 183.25 61.8C184.47 61.8 185.48 61.97 186.28 62.31C187.1 62.63 187.75 63.04 188.23 63.54C188.71 64.02 189.07 64.51 189.31 65.01C189.55 65.49 189.7 65.9 189.76 66.24C189.84 66.56 189.88 66.72 189.88 66.72H185.8C185.8 66.72 185.74 66.59 185.62 66.33C185.5 66.05 185.25 65.78 184.87 65.52C184.51 65.24 183.95 65.1 183.19 65.1C182.41 65.1 181.87 65.26 181.57 65.58C181.27 65.88 181.12 66.2 181.12 66.54C181.12 66.94 181.29 67.24 181.63 67.44C181.99 67.64 182.45 67.8 183.01 67.92L185.08 68.34C186.6 68.64 187.85 69.17 188.83 69.93C189.81 70.67 190.3 71.75 190.3 73.17C190.3 74.13 190.05 75 189.55 75.78C189.05 76.56 188.32 77.18 187.36 77.64C186.4 78.08 185.22 78.3 183.82 78.3ZM195.943 59.94C195.143 59.94 194.493 59.69 193.993 59.19C193.493 58.67 193.243 58.06 193.243 57.36C193.243 56.62 193.493 56 193.993 55.5C194.493 54.98 195.143 54.72 195.943 54.72C196.703 54.72 197.343 54.98 197.863 55.5C198.383 56 198.643 56.62 198.643 57.36C198.643 58.06 198.383 58.67 197.863 59.19C197.343 59.69 196.703 59.94 195.943 59.94ZM193.663 78V62.1H198.223V78H193.663ZM210.28 84.36C208.8 84.36 207.58 84.18 206.62 83.82C205.68 83.46 204.93 83 204.37 82.44C203.81 81.9 203.4 81.36 203.14 80.82C202.88 80.28 202.71 79.82 202.63 79.44C202.57 79.08 202.54 78.9 202.54 78.9H206.98C206.98 78.9 207.01 78.99 207.07 79.17C207.15 79.37 207.3 79.59 207.52 79.83C207.74 80.09 208.06 80.31 208.48 80.49C208.92 80.69 209.5 80.79 210.22 80.79C211.46 80.79 212.37 80.44 212.95 79.74C213.55 79.04 213.85 78.12 213.85 76.98V75.3H213.64C213.44 75.62 213.14 75.97 212.74 76.35C212.34 76.73 211.83 77.05 211.21 77.31C210.59 77.57 209.84 77.7 208.96 77.7C207.78 77.7 206.75 77.48 205.87 77.04C204.99 76.58 204.25 75.97 203.65 75.21C203.07 74.45 202.63 73.6 202.33 72.66C202.05 71.72 201.91 70.75 201.91 69.75C201.91 68.77 202.05 67.81 202.33 66.87C202.63 65.91 203.07 65.05 203.65 64.29C204.25 63.53 204.99 62.93 205.87 62.49C206.75 62.03 207.78 61.8 208.96 61.8C209.84 61.8 210.59 61.94 211.21 62.22C211.83 62.48 212.34 62.8 212.74 63.18C213.16 63.54 213.46 63.89 213.64 64.23H213.85V62.1H218.41V76.98C218.41 78.3 218.12 79.52 217.54 80.64C216.96 81.76 216.07 82.66 214.87 83.34C213.67 84.02 212.14 84.36 210.28 84.36ZM210.22 74.1C211.06 74.1 211.75 73.89 212.29 73.47C212.85 73.05 213.27 72.51 213.55 71.85C213.83 71.17 213.97 70.47 213.97 69.75C213.97 69.01 213.83 68.31 213.55 67.65C213.27 66.99 212.85 66.45 212.29 66.03C211.75 65.61 211.06 65.4 210.22 65.4C209.4 65.4 208.71 65.61 208.15 66.03C207.61 66.45 207.2 66.99 206.92 67.65C206.64 68.31 206.5 69.01 206.5 69.75C206.5 70.47 206.64 71.17 206.92 71.85C207.2 72.51 207.61 73.05 208.15 73.47C208.71 73.89 209.4 74.1 210.22 74.1ZM221.895 78V62.1H226.455V64.38H226.605C226.785 64.06 227.045 63.7 227.385 63.3C227.745 62.9 228.215 62.55 228.795 62.25C229.395 61.95 230.155 61.8 231.075 61.8C232.315 61.8 233.325 62.09 234.105 62.67C234.885 63.23 235.455 63.96 235.815 64.86C236.175 65.74 236.355 66.67 236.355 67.65V78H231.795V68.43C231.795 67.67 231.585 67 231.165 66.42C230.765 65.84 230.115 65.55 229.215 65.55C228.535 65.55 227.995 65.71 227.595 66.03C227.195 66.35 226.905 66.76 226.725 67.26C226.545 67.76 226.455 68.29 226.455 68.85V78H221.895ZM123.318 116V93.8H129.558L134.628 105.23L139.848 93.8H145.878V116H141.318V100.88L136.758 110.81H132.468L127.878 100.82V116H123.318ZM156.253 99.8C157.273 99.8 158.113 99.97 158.773 100.31C159.433 100.63 159.933 100.98 160.273 101.36C160.633 101.74 160.853 102 160.933 102.14H161.173V100.1H165.733V116H161.173V113.96H160.933C160.853 114.1 160.633 114.36 160.273 114.74C159.933 115.12 159.433 115.48 158.773 115.82C158.113 116.14 157.273 116.3 156.253 116.3C155.073 116.3 154.043 116.07 153.163 115.61C152.303 115.13 151.583 114.5 151.003 113.72C150.423 112.92 149.983 112.03 149.683 111.05C149.403 110.07 149.263 109.07 149.263 108.05C149.263 107.03 149.403 106.03 149.683 105.05C149.983 104.07 150.423 103.19 151.003 102.41C151.583 101.61 152.303 100.98 153.163 100.52C154.043 100.04 155.073 99.8 156.253 99.8ZM157.573 103.49C156.753 103.49 156.063 103.72 155.503 104.18C154.963 104.62 154.553 105.19 154.273 105.89C154.013 106.59 153.883 107.31 153.883 108.05C153.883 108.79 154.013 109.51 154.273 110.21C154.553 110.91 154.963 111.49 155.503 111.95C156.063 112.39 156.753 112.61 157.573 112.61C158.393 112.61 159.073 112.39 159.613 111.95C160.173 111.49 160.583 110.91 160.843 110.21C161.123 109.51 161.263 108.79 161.263 108.05C161.263 107.31 161.123 106.59 160.843 105.89C160.583 105.19 160.173 104.62 159.613 104.18C159.073 103.72 158.393 103.49 157.573 103.49ZM176.395 116.3C175.155 116.3 174.165 116.12 173.425 115.76C172.685 115.38 172.125 114.91 171.745 114.35C171.365 113.77 171.115 113.16 170.995 112.52C170.875 111.88 170.815 111.29 170.815 110.75V103.73H168.115V100.1H170.815V96.17H175.375V100.1H178.765V103.73H175.375V110.63C175.375 111.29 175.545 111.8 175.885 112.16C176.245 112.52 176.835 112.7 177.655 112.7C178.015 112.7 178.345 112.67 178.645 112.61C178.945 112.55 179.095 112.52 179.095 112.52V116.03C179.095 116.03 178.825 116.07 178.285 116.15C177.745 116.25 177.115 116.3 176.395 116.3ZM187.089 116.3C185.969 116.3 185.039 116.06 184.299 115.58C183.579 115.1 183.039 114.46 182.679 113.66C182.319 112.84 182.139 111.92 182.139 110.9V100.1H186.669V110C186.669 110.76 186.869 111.38 187.269 111.86C187.669 112.32 188.259 112.55 189.039 112.55C189.699 112.55 190.219 112.39 190.599 112.07C190.999 111.75 191.289 111.34 191.469 110.84C191.649 110.34 191.739 109.81 191.739 109.25V100.1H196.299V116H191.739V113.75H191.559C191.219 114.37 190.689 114.95 189.969 115.49C189.269 116.03 188.309 116.3 187.089 116.3ZM199.776 116V100.1H204.306V102.41H204.456C204.636 101.99 204.886 101.58 205.206 101.18C205.526 100.78 205.966 100.45 206.526 100.19C207.086 99.93 207.806 99.8 208.686 99.8C209.126 99.8 209.476 99.83 209.736 99.89C209.996 99.93 210.126 99.95 210.126 99.95V104.45C210.126 104.45 209.976 104.42 209.676 104.36C209.396 104.3 209.026 104.27 208.566 104.27C207.146 104.27 206.086 104.66 205.386 105.44C204.686 106.2 204.336 107.45 204.336 109.19V116H199.776ZM215.748 97.94C214.948 97.94 214.298 97.69 213.798 97.19C213.298 96.67 213.048 96.06 213.048 95.36C213.048 94.62 213.298 94 213.798 93.5C214.298 92.98 214.948 92.72 215.748 92.72C216.508 92.72 217.148 92.98 217.668 93.5C218.188 94 218.448 94.62 218.448 95.36C218.448 96.06 218.188 96.67 217.668 97.19C217.148 97.69 216.508 97.94 215.748 97.94ZM213.468 116V100.1H218.028V116H213.468ZM229.335 116.3C228.095 116.3 227.105 116.12 226.365 115.76C225.625 115.38 225.065 114.91 224.685 114.35C224.305 113.77 224.055 113.16 223.935 112.52C223.815 111.88 223.755 111.29 223.755 110.75V103.73H221.055V100.1H223.755V96.17H228.315V100.1H231.705V103.73H228.315V110.63C228.315 111.29 228.485 111.8 228.825 112.16C229.185 112.52 229.775 112.7 230.595 112.7C230.955 112.7 231.285 112.67 231.585 112.61C231.885 112.55 232.035 112.52 232.035 112.52V116.03C232.035 116.03 231.765 116.07 231.225 116.15C230.685 116.25 230.055 116.3 229.335 116.3ZM236.252 121.85C235.712 121.85 235.282 121.83 234.962 121.79C234.642 121.75 234.482 121.73 234.482 121.73V118.07C234.482 118.07 234.612 118.08 234.872 118.1C235.152 118.12 235.492 118.13 235.892 118.13C236.852 118.13 237.642 117.99 238.262 117.71C238.882 117.45 239.422 116.93 239.882 116.15L234.002 100.1H238.562L242.252 110.87L245.852 100.1H250.442L244.742 115.37C244.222 116.83 243.592 118.04 242.852 119C242.132 119.96 241.242 120.67 240.182 121.13C239.122 121.61 237.812 121.85 236.252 121.85ZM116.686 154.3C115.246 154.3 114.016 154.13 112.996 153.79C111.996 153.43 111.156 152.98 110.476 152.44C109.816 151.88 109.286 151.3 108.886 150.7C108.486 150.08 108.186 149.5 107.986 148.96C107.806 148.4 107.686 147.95 107.626 147.61C107.586 147.25 107.566 147.07 107.566 147.07H112.246C112.246 147.07 112.286 147.24 112.366 147.58C112.466 147.92 112.666 148.32 112.966 148.78C113.266 149.22 113.726 149.61 114.346 149.95C114.966 150.27 115.806 150.43 116.866 150.43C118.166 150.43 119.126 150.16 119.746 149.62C120.366 149.06 120.676 148.4 120.676 147.64C120.676 146.96 120.436 146.42 119.956 146.02C119.496 145.62 118.776 145.32 117.796 145.12L114.826 144.55C113.626 144.33 112.506 143.98 111.466 143.5C110.446 143.02 109.616 142.36 108.976 141.52C108.336 140.66 108.016 139.56 108.016 138.22C108.016 136.86 108.356 135.68 109.036 134.68C109.716 133.66 110.666 132.88 111.886 132.34C113.126 131.78 114.576 131.5 116.236 131.5C117.796 131.5 119.086 131.73 120.106 132.19C121.146 132.63 121.966 133.18 122.566 133.84C123.186 134.48 123.636 135.13 123.916 135.79C124.216 136.45 124.406 137 124.486 137.44C124.586 137.88 124.636 138.1 124.636 138.1H120.076C120.076 138.1 120.036 137.96 119.956 137.68C119.896 137.4 119.736 137.08 119.476 136.72C119.216 136.36 118.816 136.04 118.276 135.76C117.756 135.48 117.036 135.34 116.116 135.34C114.856 135.34 113.946 135.62 113.386 136.18C112.826 136.72 112.546 137.31 112.546 137.95C112.546 138.61 112.826 139.12 113.386 139.48C113.946 139.84 114.676 140.11 115.576 140.29L118.726 140.92C119.926 141.14 121.026 141.51 122.026 142.03C123.026 142.55 123.816 143.25 124.396 144.13C124.996 144.99 125.296 146.06 125.296 147.34C125.296 148.66 124.966 149.85 124.306 150.91C123.646 151.95 122.676 152.78 121.396 153.4C120.116 154 118.546 154.3 116.686 154.3ZM136.157 154.3C134.757 154.3 133.537 154.07 132.497 153.61C131.457 153.13 130.597 152.5 129.917 151.72C129.237 150.94 128.727 150.06 128.387 149.08C128.047 148.08 127.877 147.07 127.877 146.05C127.877 145.03 128.047 144.03 128.387 143.05C128.727 142.07 129.237 141.19 129.917 140.41C130.597 139.61 131.457 138.98 132.497 138.52C133.537 138.04 134.757 137.8 136.157 137.8C137.577 137.8 138.747 138.01 139.667 138.43C140.587 138.83 141.317 139.34 141.857 139.96C142.417 140.56 142.827 141.17 143.087 141.79C143.347 142.39 143.507 142.9 143.567 143.32C143.647 143.72 143.687 143.92 143.687 143.92H139.427C139.427 143.92 139.387 143.8 139.307 143.56C139.247 143.3 139.107 143.01 138.887 142.69C138.687 142.35 138.377 142.06 137.957 141.82C137.537 141.56 136.977 141.43 136.277 141.43C135.417 141.43 134.697 141.65 134.117 142.09C133.557 142.51 133.137 143.07 132.857 143.77C132.577 144.47 132.437 145.23 132.437 146.05C132.437 146.87 132.577 147.63 132.857 148.33C133.137 149.03 133.557 149.6 134.117 150.04C134.697 150.46 135.417 150.67 136.277 150.67C136.977 150.67 137.537 150.55 137.957 150.31C138.377 150.05 138.687 149.76 138.887 149.44C139.107 149.1 139.247 148.81 139.307 148.57C139.387 148.31 139.427 148.18 139.427 148.18H143.687C143.687 148.18 143.647 148.39 143.567 148.81C143.507 149.21 143.347 149.72 143.087 150.34C142.827 150.94 142.417 151.55 141.857 152.17C141.317 152.77 140.587 153.28 139.667 153.7C138.747 154.1 137.577 154.3 136.157 154.3ZM154.908 154.3C153.128 154.3 151.618 153.92 150.378 153.16C149.138 152.38 148.188 151.37 147.528 150.13C146.888 148.87 146.568 147.51 146.568 146.05C146.568 144.59 146.888 143.24 147.528 142C148.188 140.74 149.138 139.73 150.378 138.97C151.618 138.19 153.128 137.8 154.908 137.8C156.688 137.8 158.198 138.19 159.438 138.97C160.678 139.73 161.618 140.74 162.258 142C162.918 143.24 163.248 144.59 163.248 146.05C163.248 147.51 162.918 148.87 162.258 150.13C161.618 151.37 160.678 152.38 159.438 153.16C158.198 153.92 156.688 154.3 154.908 154.3ZM154.908 150.58C155.708 150.58 156.378 150.37 156.918 149.95C157.478 149.53 157.908 148.98 158.208 148.3C158.508 147.6 158.658 146.85 158.658 146.05C158.658 145.23 158.508 144.48 158.208 143.8C157.908 143.12 157.478 142.57 156.918 142.15C156.378 141.73 155.708 141.52 154.908 141.52C154.108 141.52 153.428 141.73 152.868 142.15C152.308 142.57 151.878 143.12 151.578 143.8C151.298 144.48 151.158 145.23 151.158 146.05C151.158 146.85 151.298 147.6 151.578 148.3C151.878 148.98 152.308 149.53 152.868 149.95C153.428 150.37 154.108 150.58 154.908 150.58ZM166.524 154V138.1H171.054V140.41H171.204C171.384 139.99 171.634 139.58 171.954 139.18C172.274 138.78 172.714 138.45 173.274 138.19C173.834 137.93 174.554 137.8 175.434 137.8C175.874 137.8 176.224 137.83 176.484 137.89C176.744 137.93 176.874 137.95 176.874 137.95V142.45C176.874 142.45 176.724 142.42 176.424 142.36C176.144 142.3 175.774 142.27 175.314 142.27C173.894 142.27 172.834 142.66 172.134 143.44C171.434 144.2 171.084 145.45 171.084 147.19V154H166.524ZM186.632 154.3C185.232 154.3 184.022 154.07 183.002 153.61C181.982 153.13 181.142 152.5 180.482 151.72C179.822 150.92 179.322 150.03 178.982 149.05C178.662 148.07 178.502 147.06 178.502 146.02C178.502 145.02 178.652 144.04 178.952 143.08C179.272 142.1 179.752 141.21 180.392 140.41C181.052 139.61 181.882 138.98 182.882 138.52C183.902 138.04 185.102 137.8 186.482 137.8C187.942 137.8 189.232 138.12 190.352 138.76C191.492 139.4 192.382 140.35 193.022 141.61C193.662 142.85 193.982 144.36 193.982 146.14V147.25H183.092C183.152 148.21 183.482 149.04 184.082 149.74C184.702 150.44 185.552 150.79 186.632 150.79C187.252 150.79 187.752 150.7 188.132 150.52C188.532 150.32 188.842 150.1 189.062 149.86C189.282 149.6 189.432 149.37 189.512 149.17C189.592 148.97 189.632 148.87 189.632 148.87H193.832C193.832 148.87 193.782 149.06 193.682 149.44C193.602 149.8 193.422 150.25 193.142 150.79C192.862 151.33 192.452 151.87 191.912 152.41C191.392 152.95 190.702 153.4 189.842 153.76C188.982 154.12 187.912 154.3 186.632 154.3ZM183.092 144.49H189.602C189.542 143.39 189.212 142.57 188.612 142.03C188.012 141.49 187.272 141.22 186.392 141.22C185.512 141.22 184.762 141.51 184.142 142.09C183.522 142.65 183.172 143.45 183.092 144.49ZM205.18 154.3C203.78 154.3 202.56 154.07 201.52 153.61C200.48 153.13 199.62 152.5 198.94 151.72C198.26 150.94 197.75 150.06 197.41 149.08C197.07 148.08 196.9 147.07 196.9 146.05C196.9 145.03 197.07 144.03 197.41 143.05C197.75 142.07 198.26 141.19 198.94 140.41C199.62 139.61 200.48 138.98 201.52 138.52C202.56 138.04 203.78 137.8 205.18 137.8C206.6 137.8 207.77 138.01 208.69 138.43C209.61 138.83 210.34 139.34 210.88 139.96C211.44 140.56 211.85 141.17 212.11 141.79C212.37 142.39 212.53 142.9 212.59 143.32C212.67 143.72 212.71 143.92 212.71 143.92H208.45C208.45 143.92 208.41 143.8 208.33 143.56C208.27 143.3 208.13 143.01 207.91 142.69C207.71 142.35 207.4 142.06 206.98 141.82C206.56 141.56 206 141.43 205.3 141.43C204.44 141.43 203.72 141.65 203.14 142.09C202.58 142.51 202.16 143.07 201.88 143.77C201.6 144.47 201.46 145.23 201.46 146.05C201.46 146.87 201.6 147.63 201.88 148.33C202.16 149.03 202.58 149.6 203.14 150.04C203.72 150.46 204.44 150.67 205.3 150.67C206 150.67 206.56 150.55 206.98 150.31C207.4 150.05 207.71 149.76 207.91 149.44C208.13 149.1 208.27 148.81 208.33 148.57C208.41 148.31 208.45 148.18 208.45 148.18H212.71C212.71 148.18 212.67 148.39 212.59 148.81C212.53 149.21 212.37 149.72 212.11 150.34C211.85 150.94 211.44 151.55 210.88 152.17C210.34 152.77 209.61 153.28 208.69 153.7C207.77 154.1 206.6 154.3 205.18 154.3ZM222.582 137.8C223.602 137.8 224.442 137.97 225.102 138.31C225.762 138.63 226.262 138.98 226.602 139.36C226.962 139.74 227.182 140 227.262 140.14H227.502V138.1H232.062V154H227.502V151.96H227.262C227.182 152.1 226.962 152.36 226.602 152.74C226.262 153.12 225.762 153.48 225.102 153.82C224.442 154.14 223.602 154.3 222.582 154.3C221.402 154.3 220.372 154.07 219.492 153.61C218.632 153.13 217.912 152.5 217.332 151.72C216.752 150.92 216.312 150.03 216.012 149.05C215.732 148.07 215.592 147.07 215.592 146.05C215.592 145.03 215.732 144.03 216.012 143.05C216.312 142.07 216.752 141.19 217.332 140.41C217.912 139.61 218.632 138.98 219.492 138.52C220.372 138.04 221.402 137.8 222.582 137.8ZM223.902 141.49C223.082 141.49 222.392 141.72 221.832 142.18C221.292 142.62 220.882 143.19 220.602 143.89C220.342 144.59 220.212 145.31 220.212 146.05C220.212 146.79 220.342 147.51 220.602 148.21C220.882 148.91 221.292 149.49 221.832 149.95C222.392 150.39 223.082 150.61 223.902 150.61C224.722 150.61 225.402 150.39 225.942 149.95C226.502 149.49 226.912 148.91 227.172 148.21C227.452 147.51 227.592 146.79 227.592 146.05C227.592 145.31 227.452 144.59 227.172 143.89C226.912 143.19 226.502 142.62 225.942 142.18C225.402 141.72 224.722 141.49 223.902 141.49ZM235.548 154V138.1H240.078V140.41H240.228C240.408 139.99 240.658 139.58 240.978 139.18C241.298 138.78 241.738 138.45 242.298 138.19C242.858 137.93 243.578 137.8 244.458 137.8C244.898 137.8 245.248 137.83 245.508 137.89C245.768 137.93 245.898 137.95 245.898 137.95V142.45C245.898 142.45 245.748 142.42 245.448 142.36C245.168 142.3 244.798 142.27 244.338 142.27C242.918 142.27 241.858 142.66 241.158 143.44C240.458 144.2 240.108 145.45 240.108 147.19V154H235.548ZM254.515 154.3C253.335 154.3 252.305 154.07 251.425 153.61C250.565 153.13 249.845 152.5 249.265 151.72C248.685 150.92 248.245 150.03 247.945 149.05C247.665 148.07 247.525 147.07 247.525 146.05C247.525 145.03 247.665 144.03 247.945 143.05C248.245 142.07 248.685 141.19 249.265 140.41C249.845 139.61 250.565 138.98 251.425 138.52C252.305 138.04 253.335 137.8 254.515 137.8C255.535 137.8 256.375 137.97 257.035 138.31C257.695 138.63 258.195 138.98 258.535 139.36C258.895 139.74 259.115 140 259.195 140.14H259.435V131.2H263.995V154H259.435V151.96H259.195C259.115 152.1 258.895 152.36 258.535 152.74C258.195 153.12 257.695 153.48 257.035 153.82C256.375 154.14 255.535 154.3 254.515 154.3ZM255.835 150.61C256.655 150.61 257.335 150.39 257.875 149.95C258.435 149.49 258.845 148.91 259.105 148.21C259.385 147.51 259.525 146.79 259.525 146.05C259.525 145.31 259.385 144.59 259.105 143.89C258.845 143.19 258.435 142.62 257.875 142.18C257.335 141.72 256.655 141.49 255.835 141.49C255.015 141.49 254.325 141.72 253.765 142.18C253.225 142.62 252.815 143.19 252.535 143.89C252.275 144.59 252.145 145.31 252.145 146.05C252.145 146.79 252.275 147.51 252.535 148.21C252.815 148.91 253.225 149.49 253.765 149.95C254.325 150.39 255.015 150.61 255.835 150.61Z" fill="white"/>
<path d="M99.4311 297.8V283H105.131C106.078 283 106.884 283.173 107.551 283.52C108.231 283.853 108.751 284.307 109.111 284.88C109.471 285.44 109.651 286.053 109.651 286.72C109.651 287.453 109.518 288.047 109.251 288.5C108.984 288.953 108.684 289.3 108.351 289.54C108.018 289.767 107.751 289.92 107.551 290V290.12C107.871 290.213 108.238 290.393 108.651 290.66C109.078 290.913 109.444 291.28 109.751 291.76C110.058 292.24 110.211 292.867 110.211 293.64C110.211 294.32 110.044 294.98 109.711 295.62C109.378 296.26 108.851 296.787 108.131 297.2C107.411 297.6 106.458 297.8 105.271 297.8H99.4311ZM105.051 284.7H101.391V289.42H105.051C105.691 289.42 106.204 289.307 106.591 289.08C106.991 288.853 107.278 288.56 107.451 288.2C107.638 287.827 107.731 287.447 107.731 287.06C107.731 286.66 107.638 286.28 107.451 285.92C107.278 285.56 106.991 285.267 106.591 285.04C106.204 284.813 105.691 284.7 105.051 284.7ZM105.211 291H101.391V296.1H105.211C105.944 296.1 106.531 295.98 106.971 295.74C107.411 295.487 107.731 295.167 107.931 294.78C108.144 294.38 108.251 293.967 108.251 293.54C108.251 293.113 108.144 292.707 107.931 292.32C107.731 291.933 107.411 291.62 106.971 291.38C106.531 291.127 105.944 291 105.211 291ZM112.908 297.8V283H122.308V284.72H114.868V289.4H121.388V291.12H114.868V296.08H122.408V297.8H112.908ZM125.31 297.8V283H127.07L134.79 294.26V283H136.75V297.8H134.99L127.27 286.56V297.8H125.31ZM146.458 298C145.298 298 144.278 297.787 143.398 297.36C142.518 296.92 141.785 296.34 141.198 295.62C140.625 294.887 140.192 294.073 139.898 293.18C139.605 292.273 139.458 291.347 139.458 290.4C139.458 289.453 139.605 288.527 139.898 287.62C140.192 286.713 140.625 285.9 141.198 285.18C141.785 284.447 142.518 283.867 143.398 283.44C144.278 283.013 145.298 282.8 146.458 282.8C147.418 282.8 148.238 282.927 148.918 283.18C149.612 283.42 150.185 283.733 150.638 284.12C151.105 284.507 151.478 284.92 151.758 285.36C152.052 285.8 152.265 286.213 152.398 286.6C152.545 286.987 152.638 287.307 152.678 287.56C152.732 287.8 152.758 287.92 152.758 287.92H150.798C150.798 287.92 150.772 287.813 150.718 287.6C150.665 287.373 150.558 287.1 150.398 286.78C150.238 286.447 149.998 286.113 149.678 285.78C149.358 285.447 148.938 285.173 148.418 284.96C147.898 284.733 147.252 284.62 146.478 284.62C145.638 284.62 144.905 284.787 144.278 285.12C143.652 285.44 143.125 285.88 142.698 286.44C142.285 286.987 141.972 287.607 141.758 288.3C141.558 288.98 141.458 289.68 141.458 290.4C141.458 291.12 141.558 291.827 141.758 292.52C141.972 293.2 142.285 293.82 142.698 294.38C143.125 294.927 143.652 295.367 144.278 295.7C144.905 296.02 145.638 296.18 146.478 296.18C147.252 296.18 147.898 296.067 148.418 295.84C148.938 295.613 149.358 295.34 149.678 295.02C149.998 294.687 150.238 294.36 150.398 294.04C150.558 293.707 150.665 293.427 150.718 293.2C150.772 292.973 150.798 292.86 150.798 292.86H152.758C152.758 292.86 152.732 292.987 152.678 293.24C152.638 293.48 152.545 293.8 152.398 294.2C152.265 294.587 152.052 295 151.758 295.44C151.478 295.867 151.105 296.28 150.638 296.68C150.185 297.067 149.612 297.387 148.918 297.64C148.238 297.88 147.418 298 146.458 298ZM155.466 297.8V283H157.426V289.42H164.486V283H166.446V297.8H164.486V291.18H157.426V297.8H155.466ZM174.606 298C173.753 298 173.019 297.893 172.406 297.68C171.806 297.453 171.306 297.167 170.906 296.82C170.506 296.46 170.186 296.087 169.946 295.7C169.706 295.313 169.526 294.947 169.406 294.6C169.286 294.24 169.206 293.953 169.166 293.74C169.139 293.513 169.126 293.4 169.126 293.4H171.126C171.126 293.4 171.146 293.493 171.186 293.68C171.226 293.867 171.306 294.1 171.426 294.38C171.559 294.66 171.753 294.947 172.006 295.24C172.259 295.52 172.599 295.753 173.026 295.94C173.453 296.127 173.993 296.22 174.646 296.22C175.633 296.22 176.413 295.987 176.986 295.52C177.559 295.04 177.846 294.42 177.846 293.66C177.846 293.007 177.626 292.5 177.186 292.14C176.759 291.78 176.146 291.5 175.346 291.3L173.386 290.82C172.693 290.647 172.046 290.407 171.446 290.1C170.859 289.78 170.386 289.367 170.026 288.86C169.679 288.34 169.506 287.693 169.506 286.92C169.506 286.053 169.719 285.313 170.146 284.7C170.573 284.087 171.153 283.62 171.886 283.3C172.619 282.967 173.453 282.8 174.386 282.8C175.293 282.8 176.046 282.94 176.646 283.22C177.246 283.5 177.726 283.847 178.086 284.26C178.446 284.66 178.713 285.067 178.886 285.48C179.059 285.88 179.173 286.22 179.226 286.5C179.279 286.78 179.306 286.92 179.306 286.92H177.386C177.386 286.92 177.359 286.8 177.306 286.56C177.253 286.32 177.126 286.047 176.926 285.74C176.726 285.42 176.419 285.14 176.006 284.9C175.593 284.66 175.033 284.54 174.326 284.54C173.366 284.54 172.639 284.767 172.146 285.22C171.666 285.673 171.426 286.193 171.426 286.78C171.426 287.313 171.619 287.747 172.006 288.08C172.393 288.4 172.926 288.647 173.606 288.82L175.726 289.34C176.486 289.527 177.173 289.8 177.786 290.16C178.399 290.507 178.886 290.96 179.246 291.52C179.606 292.067 179.786 292.74 179.786 293.54C179.786 294.34 179.586 295.08 179.186 295.76C178.799 296.44 178.219 296.987 177.446 297.4C176.686 297.8 175.739 298 174.606 298ZM189.134 298C187.974 298 186.954 297.787 186.074 297.36C185.194 296.92 184.461 296.34 183.874 295.62C183.301 294.887 182.868 294.073 182.574 293.18C182.281 292.273 182.134 291.347 182.134 290.4C182.134 289.453 182.281 288.527 182.574 287.62C182.868 286.713 183.301 285.9 183.874 285.18C184.461 284.447 185.194 283.867 186.074 283.44C186.954 283.013 187.974 282.8 189.134 282.8C190.094 282.8 190.914 282.927 191.594 283.18C192.288 283.42 192.861 283.733 193.314 284.12C193.781 284.507 194.154 284.92 194.434 285.36C194.728 285.8 194.941 286.213 195.074 286.6C195.221 286.987 195.314 287.307 195.354 287.56C195.408 287.8 195.434 287.92 195.434 287.92H193.474C193.474 287.92 193.448 287.813 193.394 287.6C193.341 287.373 193.234 287.1 193.074 286.78C192.914 286.447 192.674 286.113 192.354 285.78C192.034 285.447 191.614 285.173 191.094 284.96C190.574 284.733 189.928 284.62 189.154 284.62C188.314 284.62 187.581 284.787 186.954 285.12C186.328 285.44 185.801 285.88 185.374 286.44C184.961 286.987 184.648 287.607 184.434 288.3C184.234 288.98 184.134 289.68 184.134 290.4C184.134 291.12 184.234 291.827 184.434 292.52C184.648 293.2 184.961 293.82 185.374 294.38C185.801 294.927 186.328 295.367 186.954 295.7C187.581 296.02 188.314 296.18 189.154 296.18C189.928 296.18 190.574 296.067 191.094 295.84C191.614 295.613 192.034 295.34 192.354 295.02C192.674 294.687 192.914 294.36 193.074 294.04C193.234 293.707 193.341 293.427 193.394 293.2C193.448 292.973 193.474 292.86 193.474 292.86H195.434C195.434 292.86 195.408 292.987 195.354 293.24C195.314 293.48 195.221 293.8 195.074 294.2C194.941 294.587 194.728 295 194.434 295.44C194.154 295.867 193.781 296.28 193.314 296.68C192.861 297.067 192.288 297.387 191.594 297.64C190.914 297.88 190.094 298 189.134 298ZM198.142 297.8V283H200.102V297.8H198.142ZM211.848 292.98C211.234 292.98 210.688 292.833 210.208 292.54C209.728 292.247 209.348 291.86 209.068 291.38C208.801 290.9 208.668 290.373 208.668 289.8C208.668 289.213 208.801 288.687 209.068 288.22C209.348 287.74 209.728 287.36 210.208 287.08C210.688 286.787 211.234 286.64 211.848 286.64C212.448 286.64 212.988 286.787 213.468 287.08C213.948 287.36 214.321 287.74 214.588 288.22C214.868 288.687 215.008 289.213 215.008 289.8C215.008 290.387 214.868 290.92 214.588 291.4C214.321 291.88 213.948 292.267 213.468 292.56C212.988 292.84 212.448 292.98 211.848 292.98ZM223.592 297.8V296.42L226.832 293.42C227.738 292.58 228.532 291.847 229.212 291.22C229.905 290.58 230.445 289.96 230.832 289.36C231.218 288.76 231.412 288.1 231.412 287.38C231.412 286.78 231.265 286.273 230.972 285.86C230.692 285.447 230.325 285.133 229.872 284.92C229.432 284.693 228.972 284.58 228.492 284.58C227.865 284.58 227.352 284.687 226.952 284.9C226.552 285.113 226.245 285.38 226.032 285.7C225.818 286.007 225.665 286.32 225.572 286.64C225.478 286.947 225.425 287.207 225.412 287.42C225.398 287.633 225.392 287.74 225.392 287.74H223.512C223.512 287.74 223.518 287.62 223.532 287.38C223.545 287.14 223.592 286.833 223.672 286.46C223.765 286.087 223.912 285.693 224.112 285.28C224.312 284.853 224.592 284.453 224.952 284.08C225.325 283.707 225.798 283.4 226.372 283.16C226.958 282.92 227.672 282.8 228.512 282.8C229.365 282.8 230.158 282.98 230.892 283.34C231.638 283.687 232.238 284.2 232.692 284.88C233.145 285.547 233.372 286.367 233.372 287.34C233.372 288.233 233.145 289.047 232.692 289.78C232.252 290.5 231.665 291.207 230.932 291.9C230.198 292.593 229.398 293.34 228.532 294.14L226.492 296.02H233.692V297.8H223.592ZM241.759 297.98C240.839 297.98 240.026 297.78 239.319 297.38C238.612 296.967 238.019 296.413 237.539 295.72C237.072 295.013 236.712 294.2 236.459 293.28C236.219 292.36 236.099 291.393 236.099 290.38C236.099 289.353 236.219 288.387 236.459 287.48C236.712 286.56 237.072 285.747 237.539 285.04C238.019 284.333 238.612 283.78 239.319 283.38C240.026 282.98 240.839 282.78 241.759 282.78C242.679 282.78 243.492 282.98 244.199 283.38C244.906 283.78 245.492 284.333 245.959 285.04C246.439 285.747 246.799 286.56 247.039 287.48C247.292 288.387 247.419 289.353 247.419 290.38C247.419 291.393 247.292 292.36 247.039 293.28C246.799 294.2 246.439 295.013 245.959 295.72C245.492 296.413 244.906 296.967 244.199 297.38C243.492 297.78 242.679 297.98 241.759 297.98ZM241.759 296.18C242.812 296.18 243.679 295.693 244.359 294.72C245.052 293.733 245.399 292.287 245.399 290.38C245.399 288.473 245.052 287.033 244.359 286.06C243.679 285.087 242.812 284.6 241.759 284.6C240.706 284.6 239.832 285.087 239.139 286.06C238.459 287.033 238.119 288.473 238.119 290.38C238.119 292.273 238.459 293.713 239.139 294.7C239.832 295.687 240.706 296.18 241.759 296.18ZM250.135 297.8V296.42L253.375 293.42C254.281 292.58 255.075 291.847 255.755 291.22C256.448 290.58 256.988 289.96 257.375 289.36C257.761 288.76 257.955 288.1 257.955 287.38C257.955 286.78 257.808 286.273 257.515 285.86C257.235 285.447 256.868 285.133 256.415 284.92C255.975 284.693 255.515 284.58 255.035 284.58C254.408 284.58 253.895 284.687 253.495 284.9C253.095 285.113 252.788 285.38 252.575 285.7C252.361 286.007 252.208 286.32 252.115 286.64C252.021 286.947 251.968 287.207 251.955 287.42C251.941 287.633 251.935 287.74 251.935 287.74H250.055C250.055 287.74 250.061 287.62 250.075 287.38C250.088 287.14 250.135 286.833 250.215 286.46C250.308 286.087 250.455 285.693 250.655 285.28C250.855 284.853 251.135 284.453 251.495 284.08C251.868 283.707 252.341 283.4 252.915 283.16C253.501 282.92 254.215 282.8 255.055 282.8C255.908 282.8 256.701 282.98 257.435 283.34C258.181 283.687 258.781 284.2 259.235 284.88C259.688 285.547 259.915 286.367 259.915 287.34C259.915 288.233 259.688 289.047 259.235 289.78C258.795 290.5 258.208 291.207 257.475 291.9C256.741 292.593 255.941 293.34 255.075 294.14L253.035 296.02H260.235V297.8H250.135ZM263.162 297.8V296.42L266.402 293.42C267.309 292.58 268.102 291.847 268.782 291.22C269.475 290.58 270.015 289.96 270.402 289.36C270.789 288.76 270.982 288.1 270.982 287.38C270.982 286.78 270.835 286.273 270.542 285.86C270.262 285.447 269.895 285.133 269.442 284.92C269.002 284.693 268.542 284.58 268.062 284.58C267.435 284.58 266.922 284.687 266.522 284.9C266.122 285.113 265.815 285.38 265.602 285.7C265.389 286.007 265.235 286.32 265.142 286.64C265.049 286.947 264.995 287.207 264.982 287.42C264.969 287.633 264.962 287.74 264.962 287.74H263.082C263.082 287.74 263.089 287.62 263.102 287.38C263.115 287.14 263.162 286.833 263.242 286.46C263.335 286.087 263.482 285.693 263.682 285.28C263.882 284.853 264.162 284.453 264.522 284.08C264.895 283.707 265.369 283.4 265.942 283.16C266.529 282.92 267.242 282.8 268.082 282.8C268.935 282.8 269.729 282.98 270.462 283.34C271.209 283.687 271.809 284.2 272.262 284.88C272.715 285.547 272.942 286.367 272.942 287.34C272.942 288.233 272.715 289.047 272.262 289.78C271.822 290.5 271.235 291.207 270.502 291.9C269.769 292.593 268.969 293.34 268.102 294.14L266.062 296.02H273.262V297.8H263.162Z" fill="white"/>
<rect x="137.2" y="179" width="98" height="65.7317" rx="1" stroke="white" stroke-width="3"/>
<path d="M215.481 214.256L218.469 217.244L225.639 209.476" stroke="white" stroke-width="3" stroke-linecap="round" stroke-linejoin="round"/>
<path d="M216.078 230.39L223.249 237.561" stroke="white" stroke-width="3" stroke-linecap="round" stroke-linejoin="round"/>
<path d="M223.249 230.39L216.078 237.561" stroke="white" stroke-width="3" stroke-linecap="round" stroke-linejoin="round"/>
<path d="M137.2 203.5H235.2" stroke="white" stroke-width="3" stroke-linecap="round" stroke-linejoin="round"/>
<path d="M155.725 243.537V204.098" stroke="white" stroke-width="3" stroke-linecap="round" stroke-linejoin="round"/>
<path d="M192.773 243.537V204.098" stroke="white" stroke-width="3" stroke-linecap="round" stroke-linejoin="round"/>
<path d="M204.725 243.537V204.098" stroke="white" stroke-width="3" stroke-linecap="round" stroke-linejoin="round"/>
<path d="M137.2 223.817H235.2" stroke="white" stroke-width="3" stroke-linecap="round" stroke-linejoin="round"/>
<defs>
<filter id="filter0_d_624_10259" x="0.200195" y="0" width="369.6" height="369.6" filterUnits="userSpaceOnUse" color-interpolation-filters="sRGB">
<feFlood flood-opacity="0" result="BackgroundImageFix"/>
<feColorMatrix in="SourceAlpha" type="matrix" values="0 0 0 0 0 0 0 0 0 0 0 0 0 0 0 0 0 0 127 0" result="hardAlpha"/>
<feOffset dy="5"/>
<feGaussianBlur stdDeviation="6"/>
<feColorMatrix type="matrix" values="0 0 0 0 0.287583 0 0 0 0 0.287583 0 0 0 0 0.287583 0 0 0 0.2 0"/>
<feBlend mode="normal" in2="BackgroundImageFix" result="effect1_dropShadow_624_10259"/>
<feBlend mode="normal" in="SourceGraphic" in2="effect1_dropShadow_624_10259" result="shape"/>
</filter>
<linearGradient id="paint0_linear_624_10259" x1="110.5" y1="30.5" x2="278.5" y2="353" gradientUnits="userSpaceOnUse">
<stop stop-color="#91B9FF"/>
<stop offset="1" stop-color="#8148F9"/>
</linearGradient>
</defs>
</svg>
