<?xml version="1.0" encoding="UTF-8"?>
<svg width="241px" height="241px" viewBox="0 0 241 241" version="1.1" xmlns="http://www.w3.org/2000/svg" xmlns:xlink="http://www.w3.org/1999/xlink">
    <!-- Generator: Sketch 63.1 (92452) - https://sketch.com -->
    <title>line-colour-long-hair-circle</title>
    <desc>Created with Sketch.</desc>
    <defs>
        <circle id="path-1" cx="117.5" cy="117.5" r="117.5"></circle>
        <filter x="-50.3%" y="-231.2%" width="200.5%" height="562.4%" filterUnits="objectBoundingBox" id="filter-3">
            <feGaussianBlur stdDeviation="4.167969" in="SourceGraphic"></feGaussianBlur>
        </filter>
        <filter x="-4.8%" y="-6.8%" width="109.5%" height="113.7%" filterUnits="objectBoundingBox" id="filter-4">
            <feGaussianBlur stdDeviation="0" in="SourceGraphic"></feGaussianBlur>
        </filter>
        <filter x="-50.3%" y="-231.2%" width="200.5%" height="562.4%" filterUnits="objectBoundingBox" id="filter-5">
            <feGaussianBlur stdDeviation="4.167969" in="SourceGraphic"></feGaussianBlur>
        </filter>
        <filter x="-4.5%" y="-6.6%" width="109.0%" height="113.1%" filterUnits="objectBoundingBox" id="filter-6">
            <feGaussianBlur stdDeviation="0" in="SourceGraphic"></feGaussianBlur>
        </filter>
        <filter x="-55.1%" y="-88.9%" width="210.1%" height="277.9%" filterUnits="objectBoundingBox" id="filter-7">
            <feGaussianBlur stdDeviation="4.167969" in="SourceGraphic"></feGaussianBlur>
        </filter>
        <filter x="-55.1%" y="-88.9%" width="210.1%" height="277.9%" filterUnits="objectBoundingBox" id="filter-8">
            <feGaussianBlur stdDeviation="4.167969" in="SourceGraphic"></feGaussianBlur>
        </filter>
    </defs>
    <g id="line-colour-long-hair-circle" stroke="none" stroke-width="1" fill="none" fill-rule="evenodd">
        <g id="emily-line-long-hair" transform="translate(3.000000, 3.000000)">
            <mask id="mask-2" fill="white">
                <use xlink:href="#path-1"></use>
            </mask>
            <use id="Mask" stroke="#B67474" stroke-width="5" fill="#B67474" fill-rule="nonzero" xlink:href="#path-1"></use>
            <g mask="url(#mask-2)">
                <g transform="translate(22.000000, 28.000000)">
                    <path d="M160,218 C170.018125,220.886578 168,154 168,105 C168,50.9272428 154.690414,22.0402548 127,5 C114,-3 99,1 95,1 C91,1 76,-2 63,5 C33.6048844,20.8281392 22,55.868171 22,105 C22,142.636001 26.3996819,221.792412 38,218 C63.5871575,209.634968 78.6635669,228.132825 95,228.000712 C111.863602,227.862889 130.031583,209.365032 160,218 Z" id="Hair" stroke="#000000" stroke-width="1" fill="#000000" fill-rule="nonzero"></path>
                    <path d="M98.816272,216.476861 C128.307355,216.476861 151.899359,216.511308 148,198 C144.827317,182.938416 143.62083,174.372498 133,168 C128,165 121.953033,163.55352 112.7175,162.834238 C103.941938,162.150779 102.25596,162.983885 97,162.834238 C90.8008525,162.657737 84.9047254,162.742936 78.7746243,163.55352 C70.4274121,164.657272 61.2502286,165.80848 56.7455006,169.263625 C44.461799,178.685274 44.8720106,186.220872 43,198 C39.3128368,221.200492 69.3251886,216.476861 98.816272,216.476861 Z" id="Shoulders" stroke="none" fill="#FFFFFF" fill-rule="nonzero"></path>
                    <path d="M84.4352611,152.219763 C89.389121,152.938612 93.1329055,153.282236 95.6666144,153.250635 C98.2003233,153.219035 101.866831,152.76037 106.666138,151.874641 L107.374873,164.9686 C102.996998,167.168675 99.0445733,168.268712 95.5175995,168.268712 C91.9906256,168.268712 88.1375442,167.330232 83.9583553,165.453272 L84.4352611,152.219763 Z" id="Neck" stroke="none" fill="#FDD396" fill-rule="nonzero"></path>
                    <g id="face" stroke="none" stroke-width="1" fill="none" fill-rule="evenodd" transform="translate(25.925827, 15.712834)">
                        <path d="M68.1400371,137.580552 C84.2230096,137.580552 88.5322698,133.599154 110.182727,117.752737 C121.460968,109.49796 124.922122,87.1082485 124.922122,63.0968323 C124.922122,25.1304815 101.269593,5.68434189e-14 67.9347391,5.68434189e-14 C34.599885,5.68434189e-14 11.3579521,23.3962451 11.3579521,63.0968323 C11.3579521,90.1243993 12.5215692,109.173583 29.2636603,119.577974 C51.43753,133.35795 53.9930897,137.580552 68.1400371,137.580552 Z" id="Face-Emily" fill="#FFD69B" fill-rule="nonzero"></path>
                        <ellipse id="left-ear" fill="#FFD69B" fill-rule="nonzero" cx="10.8378901" cy="78.7874322" rx="10.8378901" ry="16.9607825"></ellipse>
                        <ellipse id="right-ear" fill="#FFD69B" fill-rule="nonzero" cx="125.094038" cy="79.7603545" rx="10.8377581" ry="16.9587563"></ellipse>
                    </g>
                    <path d="M78.3831925,11.8109571 C95.2956475,10.0429022 107.256368,9.83169052 114.265354,11.177322 C121.27434,12.5229534 128.932581,16.500743 137.240078,23.1106908 C146.52055,38.3266679 151.774992,50.2212523 153.003403,58.7944441 C154.112661,66.5360595 153.887377,90.522732 151.393447,114.524897 C151.022373,118.096206 149.736603,118.096206 147.536139,114.524897 C149.548998,100.937131 150.327277,89.3618443 149.870976,79.7990377 C149.415678,70.2572424 144.299609,55.6627037 140,49 C134.285703,40.1450867 131.268381,36.8970581 118,31 C112,28.3333333 104.333333,26.3333333 95,25 L78.3831925,11.8109571 Z" id="Bangs-Right" stroke="#000000" stroke-width="1" fill="#000000" fill-rule="nonzero"></path>
                    <path d="M16.9735105,26.382462 C34.2818299,24.5730229 46.5225112,24.3568674 53.6955543,25.7339956 C60.8685973,27.1111238 68.0615626,31.3512239 75.27445,38.454296 C86.5549371,55.3385532 95.8416972,71.1215412 103.13473,85.8032602 C110.427763,100.484979 111.113027,104.574265 105.190522,98.071117 C102.022729,88.5165819 97.3347285,79.4348954 91.1265207,70.8260573 C84.6244809,61.8097663 84.7909503,62.1477145 76.4070511,54.6189667 C71.1391631,49.8883994 66.2162371,46.5475784 54.3711832,41.6798582 C50.0943928,39.922313 41.2230403,38.6635876 31.9356933,40.3958045 C27.7908017,41.1688834 21.6051307,43.0731847 13.3786804,46.1087085 L16.9735105,26.382462 Z" id="Bangs-Left" stroke="#000000" stroke-width="1" fill="#000000" fill-rule="nonzero" transform="translate(61.275216, 62.953405) scale(-1, 1) rotate(29.000000) translate(-61.275216, -62.953405) "></path>
                    <line x1="95" y1="10" x2="95" y2="22" id="hairline" stroke="#FFD69B" stroke-width="0.5" fill="none" stroke-linecap="round" fill-rule="nonzero"></line>
                    <ellipse id="Eyeshadow-RIght" stroke="none" fill-opacity="0.92" fill="#E2A577" fill-rule="nonzero" style="mix-blend-mode: lighten;" filter="url(#filter-3)" cx="124.168665" cy="76.7039088" rx="12.4379805" ry="2.70390881"></ellipse>
                    <g id="right-eye" stroke="none" stroke-width="1" fill="none" fill-rule="evenodd" transform="translate(108.000000, 77.000000)">
                        <path d="M11.0058516,0.949518573 C10.5982468,1.07111712 10.2894717,1.1752626 10.0795265,1.26195504 C9.12596379,1.65570849 8.11161288,2.07468984 7.43458166,2.47690195 C6.53395817,3.01194622 4.23039233,4.53921753 0.523884136,7.05871589 C0.829268556,7.1812014 1.17856617,7.35113587 1.57177699,7.56851929 C1.9649878,7.78590271 2.36051213,8.02122682 2.75834999,8.2744916" id="Line-2" stroke="#7E6153" stroke-linecap="round" stroke-linejoin="round" fill-rule="nonzero" filter="url(#filter-4)"></path>
                        <circle fill="#4A3429" fill-rule="nonzero" cx="11.5747888" cy="5.86195478" r="5.5"></circle>
                        <circle id="right-eye-highlight" fill="#F9E8D0" fill-rule="nonzero" cx="10.2379158" cy="7.7697724" r="2"></circle>
                        <path d="M10.2326618,1.84090308 C10.6701696,1.35840517 12.5336321,1.11715621 15.8230494,1.11715621 C20.7571754,1.11715621 24.7595116,1.84090308 24.7595116,1.84090308" id="Eyelid-Right" stroke="#4A3429" stroke-width="2" stroke-linecap="round" fill-rule="nonzero"></path>
                    </g>
                    <ellipse id="Eyeshadow-Left" stroke="none" fill-opacity="0.92" fill="#E2A577" fill-rule="nonzero" style="mix-blend-mode: lighten;" filter="url(#filter-5)" cx="64.6826711" cy="76.7039088" rx="12.4379805" ry="2.70390881"></ellipse>
                    <g id="left-eye" stroke="none" stroke-width="1" fill="none" fill-rule="evenodd" transform="translate(56.000000, 77.000000)">
                        <path d="M25.6790776,1 C25.2714728,1.12159854 24.9626977,1.22574403 24.7527525,1.31243646 C23.7991898,1.70618992 22.9202234,2.18046833 22.2431921,2.58268045 C21.3425686,3.11772472 18.7615046,4.84468879 14.5,7.76357266 C14.9871325,7.81447468 15.4020377,7.88253333 15.7447155,7.96774861 C16.0873933,8.05296388 16.5291971,8.26597244 17.0701268,8.60677429" id="Line-2" stroke="#7E6153" stroke-linecap="round" stroke-linejoin="round" fill-rule="nonzero" filter="url(#filter-6)" transform="translate(20.089539, 4.803387) scale(-1, 1) translate(-20.089539, -4.803387) "></path>
                        <circle fill="#4A3429" fill-rule="nonzero" cx="12.7413032" cy="5.86195478" r="5.5"></circle>
                        <circle id="left-eye-highlight" fill="#F9E8D0" fill-rule="nonzero" cx="11.4044302" cy="7.7697724" r="2"></circle>
                        <path d="M0.232661768,1.84090308 C0.670169574,1.35840517 2.53363212,1.11715621 5.82304942,1.11715621 C10.7571754,1.11715621 14.7595116,1.84090308 14.7595116,1.84090308" id="Eyelid-Right" stroke="#4A3429" stroke-width="2" stroke-linecap="round" fill-rule="nonzero" transform="translate(7.496087, 1.617156) scale(-1, 1) translate(-7.496087, -1.617156) "></path>
                    </g>
                    <path d="M95.0363534,129.529079 C103.378276,129.529079 110.757144,126.575207 110.872651,126.043777 C110.885274,125.985702 112.012673,125.385208 112.321373,125.135757 C112.390621,125.0798 112.63833,124.96025 112.574858,124.96025 C109.639249,124.96025 104.494377,124.882736 95.0363534,124.882736 C85.5783298,124.882736 76.4533468,124.747509 77.0609771,125.017442 C77.6686073,125.287374 85.5783298,129.529079 95.0363534,129.529079 Z" id="teeth" stroke="none" fill="#FFFFFF" fill-rule="nonzero"></path>
                    <path d="M99.4146699,121 C101.363235,121 104.795793,122.457467 111.589395,124.402287 C112.116842,124.55328 113.405139,124.161759 115.454286,123.227723 C115.062208,123.576791 114.691144,123.894016 114.341093,124.179399 L114.366986,124.146309 C110.199643,129.553551 105.778382,132.907432 101.103202,134.207954 C99.1394355,134.754226 93.5006332,134.809362 90.5379161,134.207954 C85.61714,133.209074 80.8566225,129.945853 76.2563638,124.418291 C75.8244665,124.07422 75.3530477,123.677386 74.8426049,123.227723 C77.1709974,124.165865 78.6091404,124.557386 79.1570338,124.402287 C85.9777943,122.471441 89.761063,121 91.6762066,121 C93.3872684,121 95.0853447,122.709381 95.5471981,122.709381 C96.0653842,122.709381 97.333499,121 99.4146699,121 Z M95.5471981,125.631586 C94.848523,125.620692 93.3846621,125.168123 91.6762066,125.322441 C89.6670002,125.503925 84.5031278,126.078643 81.0732107,126.137118 C81.2675791,126.237991 81.4543384,126.342979 81.6369025,126.450436 C83.140862,127.335669 83.6799364,127.606353 83.974641,127.703819 C87.1238613,128.745345 91.8442347,129.550848 95.6921384,129.550848 C99.4264024,129.550848 101.740341,129.37072 106.620714,127.78781 C107.108204,127.629696 108.016614,127.159404 108.850339,126.450436 C109.03127,126.29658 109.233481,126.146947 109.456973,126.001538 C105.969463,125.771519 101.318868,125.514419 99.4146699,125.322441 C97.4159193,125.12093 96.7618715,125.650525 95.5471981,125.631586 Z" id="Lips" stroke="none" fill="#EC9E88" fill-rule="nonzero"></path>
                    <path d="M110.611902,65.597493 C113.585967,64.8796153 119.338415,63.9470163 122.415696,63.5623561 C125.671915,63.1553287 130.012192,61.8520319 134.21949,64.3764109 C136.933006,66.0045204 138.561116,67.6326299 139.103819,69.2607394 C137.574453,68.5208251 136.087815,67.8993363 134.643904,67.3962732 C132.317964,66.5859081 127.631063,67.4649527 125.5234,67.7459745 C123.259568,68.0478187 119.978319,68.5494026 117.483036,69.1707303 C114.987753,69.7920581 109.051133,71.5499828 107.401417,72.0405823 C105.103941,72.7238154 104.465506,69.5241204 104.506491,68.4466847 C104.56093,67.0156134 107.209184,66.4188388 110.611902,65.597493 Z" id="Eyebrow-Right" stroke="none" fill-opacity="0.53" fill="#000000" fill-rule="nonzero" transform="translate(121.804241, 67.499043) rotate(8.000000) translate(-121.804241, -67.499043) "></path>
                    <path d="M55.6119022,65.597493 C58.5859671,64.8796153 64.3384148,63.9470163 67.4156962,63.5623561 C70.6719152,63.1553287 75.0121919,61.8520319 79.2194902,64.3764109 C81.933006,66.0045204 83.5611155,67.6326299 84.1038187,69.2607394 C82.574453,68.5208251 81.0878148,67.8993363 79.6439041,67.3962732 C77.3179638,66.5859081 72.6310629,67.4649527 70.5233999,67.7459745 C68.2595681,68.0478187 64.9783194,68.5494026 62.4830364,69.1707303 C59.9877533,69.7920581 54.0511333,71.5499828 52.4014175,72.0405823 C50.1039413,72.7238154 49.4655058,69.5241204 49.5064915,68.4466847 C49.5609295,67.0156134 52.209184,66.4188388 55.6119022,65.597493 Z" id="Eyebrow-Left" stroke="none" fill-opacity="0.53" fill="#000000" fill-rule="nonzero" transform="translate(66.804241, 67.499043) scale(-1, 1) rotate(8.000000) translate(-66.804241, -67.499043) "></path>
                    <path d="M129.75746,91.9630623 C132.52281,92.176495 134.507137,92.4637071 135.710442,92.8246985 C136.913746,93.1856899 138.064977,93.6968465 139.164134,94.3581683" id="Cheek-Right" stroke="#EFC180" stroke-width="1" fill="none" stroke-linecap="round" fill-rule="nonzero"></path>
                    <path d="M50.8033227,91.9630623 C53.5686727,92.176495 55.553,92.4637071 56.7563046,92.8246985 C57.9596093,93.1856899 59.11084,93.6968465 60.2099969,94.3581683" id="Cheek-Left" stroke="#EFC180" stroke-width="1" fill="none" stroke-linecap="round" fill-rule="nonzero" transform="translate(55.506660, 93.160615) scale(-1, 1) translate(-55.506660, -93.160615) "></path>
                    <g id="nose" stroke="none" stroke-width="1" fill="none" fill-rule="evenodd" transform="translate(82.000000, 104.000000)" stroke-linecap="round">
                        <path d="M0.983970242,6.46107277 C0.371283295,5.00492977 0.371283295,3.77173876 0.983970242,2.76149972 C1.59665719,1.75126069 2.31238703,1.09747852 3.13115976,0.800153194" id="Line" stroke="#CCA076" stroke-width="0.75" fill-rule="nonzero"></path>
                        <path d="M23.5926659,6.46107277 C22.9799789,5.00492977 22.9799789,3.77173876 23.5926659,2.76149972 C24.2053528,1.75126069 24.9210827,1.09747852 25.7398554,0.800153194" id="Line" stroke="#CCA076" stroke-width="0.75" fill-rule="nonzero" transform="translate(24.436503, 3.630613) scale(-1, 1) translate(-24.436503, -3.630613) "></path>
                        <path d="M16.9545024,6.63509107 C17.7351869,5.93522683 18.5285798,5.69117506 19.3346811,5.90293576 C20.1407825,6.11469647 20.6199454,6.63561353 20.7721698,7.46568694" id="Line" stroke="#CCA076" fill-rule="nonzero" transform="translate(18.863336, 6.647419) scale(-1, 1) translate(-18.863336, -6.647419) "></path>
                        <path d="M5.65015459,6.63509107 C6.43083904,5.93522683 7.22423195,5.69117506 8.03033331,5.90293576 C8.83643467,6.11469647 9.31559756,6.63561353 9.46782198,7.46568694" id="Line" stroke="#CCA076" fill-rule="nonzero"></path>
                    </g>
                    <ellipse id="Blush-Right" stroke="none" fill-opacity="0.92" fill="#FFC6B1" fill-rule="nonzero" style="mix-blend-mode: lighten;" filter="url(#filter-7)" cx="127.413355" cy="102.044261" rx="11.356417" ry="7.0301629"></ellipse>
                    <g id="Right-Freckles" stroke="none" stroke-width="1" fill="none" fill-rule="evenodd" transform="translate(119.000000, 98.000000)">
                        <circle id="Oval-2" fill="#E1B175" fill-rule="nonzero" cx="5.5" cy="0.5" r="1"></circle>
                        <circle id="Oval-2" fill="#E1B175" fill-rule="nonzero" cx="11.5" cy="3.5" r="1"></circle>
                        <circle id="Oval-2" fill="#E1B175" fill-rule="nonzero" cx="10.5" cy="7.5" r="1"></circle>
                        <circle id="Oval-2" fill="#E1B175" fill-rule="nonzero" cx="14.5" cy="0.5" r="1"></circle>
                        <circle id="Oval-2" fill="#E1B175" fill-rule="nonzero" cx="2.5" cy="8.5" r="1"></circle>
                        <circle id="Oval-2" fill="#E1B175" fill-rule="nonzero" cx="5.5" cy="5.5" r="1"></circle>
                        <circle id="Oval-2" fill="#E1B175" fill-rule="nonzero" cx="0.5" cy="4.5" r="1"></circle>
                    </g>
                    <ellipse id="Blush-Left" stroke="none" fill-opacity="0.92" fill="#FFC6B1" fill-rule="nonzero" style="mix-blend-mode: lighten;" filter="url(#filter-8)" cx="60.356417" cy="102.044261" rx="11.356417" ry="7.0301629"></ellipse>
                    <g id="Left-Freckles" stroke="none" stroke-width="1" fill="none" fill-rule="evenodd" transform="translate(62.500000, 102.500000) scale(-1, 1) translate(-62.500000, -102.500000) translate(55.000000, 98.000000)">
                        <circle id="Oval-2" fill="#E1B175" fill-rule="nonzero" cx="5.5" cy="0.5" r="1"></circle>
                        <circle id="Oval-2" fill="#E1B175" fill-rule="nonzero" cx="11.5" cy="3.5" r="1"></circle>
                        <circle id="Oval-2" fill="#E1B175" fill-rule="nonzero" cx="10.5" cy="7.5" r="1"></circle>
                        <circle id="Oval-2" fill="#E1B175" fill-rule="nonzero" cx="14.5" cy="0.5" r="1"></circle>
                        <circle id="Oval-2" fill="#E1B175" fill-rule="nonzero" cx="2.5" cy="8.5" r="1"></circle>
                        <circle id="Oval-2" fill="#E1B175" fill-rule="nonzero" cx="5.5" cy="5.5" r="1"></circle>
                        <circle id="Oval-2" fill="#E1B175" fill-rule="nonzero" cx="0.5" cy="4.5" r="1"></circle>
                    </g>
                </g>
            </g>
        </g>
    </g>
</svg>