<?xml version="1.0" encoding="UTF-8"?>
<svg width="266px" height="266px" viewBox="0 0 266 266" version="1.1" xmlns="http://www.w3.org/2000/svg" xmlns:xlink="http://www.w3.org/1999/xlink">
    <!-- Generator: Sketch 59 (86127) - https://sketch.com -->
    <title>Emily</title>
    <desc>Created with Sketch.</desc>
    <defs>
        <circle id="path-1" cx="130" cy="130" r="130"></circle>
        <path d="M58.1672378,69 C87.6583212,69 113.532006,62.7215153 109.632647,42.7512193 C106.459964,26.5025408 105.436433,14.7681503 97.0781201,7.79188979 C92.5828238,4.03989337 80.9530329,1.63173726 71.7174997,0.85576438 C62.9419385,0.118438507 61.2559596,1.01720565 56,0.85576438 C49.8008525,0.665352294 43.9047254,0.757267042 37.7746243,1.63173726 C29.4274121,2.82248245 20.4530132,4.064424 15.9482852,7.79188979 C3.66458355,17.9561167 2.20328164,30.1998312 0.720793687,45.0964165 C-1.28078178,65.2089843 28.6761544,69 58.1672378,69 Z" id="path-3"></path>
        <filter x="-50.3%" y="-231.2%" width="200.5%" height="562.4%" filterUnits="objectBoundingBox" id="filter-5">
            <feGaussianBlur stdDeviation="4.167969" in="SourceGraphic"></feGaussianBlur>
        </filter>
        <filter x="-50.3%" y="-231.2%" width="200.5%" height="562.4%" filterUnits="objectBoundingBox" id="filter-6">
            <feGaussianBlur stdDeviation="4.167969" in="SourceGraphic"></feGaussianBlur>
        </filter>
        <filter x="-4.8%" y="-6.8%" width="109.5%" height="113.7%" filterUnits="objectBoundingBox" id="filter-7">
            <feGaussianBlur stdDeviation="0" in="SourceGraphic"></feGaussianBlur>
        </filter>
        <filter x="-4.5%" y="-6.6%" width="109.0%" height="113.1%" filterUnits="objectBoundingBox" id="filter-8">
            <feGaussianBlur stdDeviation="0" in="SourceGraphic"></feGaussianBlur>
        </filter>
        <filter x="-55.1%" y="-88.9%" width="210.1%" height="277.9%" filterUnits="objectBoundingBox" id="filter-9">
            <feGaussianBlur stdDeviation="4.167969" in="SourceGraphic"></feGaussianBlur>
        </filter>
        <filter x="-55.1%" y="-88.9%" width="210.1%" height="277.9%" filterUnits="objectBoundingBox" id="filter-10">
            <feGaussianBlur stdDeviation="4.167969" in="SourceGraphic"></feGaussianBlur>
        </filter>
    </defs>
    <g id="logo" stroke="none" stroke-width="1" fill="none" fill-rule="evenodd">
        <g id="Emily" transform="translate(3.000000, 3.000000)">
            <g id="Background">
                <mask id="mask-2" fill="white">
                    <use xlink:href="#path-1"></use>
                </mask>
                <use id="Mask" stroke="#CAE3E0" stroke-width="5" fill="#CAE3E0" fill-rule="nonzero" xlink:href="#path-1"></use>
                <g id="Rectangle-5" mask="url(#mask-2)">
                    <g transform="translate(77.000000, 207.000000)">
                        <mask id="mask-4" fill="white">
                            <use xlink:href="#path-3"></use>
                        </mask>
                        <use id="Shoulders" stroke="none" fill="#FDD396" fill-rule="nonzero" xlink:href="#path-3"></use>
                        <path d="M-9.70077528,-1.53272996 C11.6156554,8.70935816 32.8492413,13.8304022 53.9999826,13.8304022 C75.1507375,13.8304022 96.3843321,8.7093568 117.700766,-1.53273404 C119.194179,-2.25027439 120.986515,-1.62131781 121.704065,-0.12791006 C121.89886,0.277509132 122,0.721541295 122,1.17133004 L122,60.9999991 C122,62.6568533 120.656854,63.9999991 119,63.9999991 L-11.0000174,63.9999991 C-12.6568717,63.9999991 -14.0000174,62.6568533 -14.0000174,60.9999991 L-14.0000174,1.1713285 C-14.0000111,-0.485522278 -12.6568682,-1.82866521 -11.0000174,-1.82866521 C-10.550228,-1.82866521 -10.1061951,-1.7275255 -9.70077528,-1.53272996 Z" id="Shirt" stroke="none" fill="#FFFFFF" fill-rule="nonzero" mask="url(#mask-4)"></path>
                        <g id="Stripes" stroke="none" stroke-width="1" fill="none" fill-rule="evenodd" mask="url(#mask-4)" stroke-linecap="square">
                            <g transform="translate(-3.000000, 14.000000)" fill-rule="nonzero" id="Line-3" stroke="#062C36" stroke-width="2">
                                <path d="M3.5,0.5 C20.3292907,7.5 38.8084615,11 58.9375124,11 C79.0665634,11 99.2540592,7.5 119.5,0.5"></path>
                                <path d="M3.5,10.5 C20.3292907,17.5 38.8084615,21 58.9375124,21 C79.0665634,21 99.2540592,17.5 119.5,10.5"></path>
                                <path d="M0.5,20.5 C17.9096111,27.5 37.0259947,31 57.8491508,31 C78.6723069,31 99.5559233,27.5 120.5,20.5"></path>
                            </g>
                        </g>
                    </g>
                </g>
            </g>
            <path d="M159.271347,201.74195 C166.653566,202.80329 172.663274,204.949774 177.167726,206.684869 C189.188311,211.315144 191.010336,217.516008 194.962503,215.829314 C201.821473,212.902065 205.985217,187.042221 205.985217,153.682 C205.985217,120.321779 201.948932,83.2912949 184.42652,61.8087285 C171.178484,45.5665682 150.802183,36 132.087356,36 C125.298841,36 111.942496,40.6848512 111.005525,43.0272768 C110.068555,45.3697024 106.789159,43.0272768 94.140061,49.1175834 C65.7528884,62.7854814 54.9549574,100.688594 54.9549574,149.820423 C54.9549574,187.456424 65.7528884,218.836163 77.1416023,213.869652 C91.7002216,207.520776 102.57287,203.765762 109.759549,202.604611 C136.269213,201.095258 152.773146,200.807704 159.271347,201.74195 Z" id="Hair" fill="#000000" fill-rule="nonzero"></path>
            <path d="M120.701964,189.58202 L142.333235,189.58202 L143.374873,207.9686 C138.996998,210.168675 135.044573,211.268712 131.517599,211.268712 C127.990626,211.268712 124.081763,210.168675 119.79101,207.9686 L120.701964,189.58202 Z" id="Neck" fill="#FDD396" fill-rule="nonzero"></path>
            <path d="M130.065864,196.293386 C146.148836,196.293386 150.458096,192.311987 172.108554,176.465571 C183.386794,168.210794 186.847949,145.821082 186.847949,121.809666 C186.847949,83.8433155 163.19542,58.712834 129.860566,58.712834 C96.5257116,58.712834 73.2837786,82.1090791 73.2837786,121.809666 C73.2837786,148.837233 74.4473957,167.886417 91.1894868,178.290808 C113.363357,192.070784 115.918916,196.293386 130.065864,196.293386 Z" id="Face-Emily" fill="#FFD69B" fill-rule="nonzero"></path>
            <ellipse id="left-ear" fill="#FFD69B" fill-rule="nonzero" cx="72.7637166" cy="137.500266" rx="10.8378901" ry="16.9607825"></ellipse>
            <ellipse id="right-ear" fill="#FFD69B" fill-rule="nonzero" cx="187.019864" cy="138.473188" rx="10.8377581" ry="16.9587563"></ellipse>
            <path d="M114.383193,54.8109571 C131.295648,53.0429022 143.256368,52.8316905 150.265354,54.177322 C157.27434,55.5229534 164.932581,59.500743 173.240078,66.1106908 C182.52055,81.3266679 187.774992,93.2212523 189.003403,101.794444 C190.112661,109.53606 189.887377,133.522732 187.393447,157.524897 C187.022373,161.096206 185.736603,161.096206 183.536139,157.524897 C185.548998,143.937131 186.327277,132.361844 185.870976,122.799038 C185.415678,113.257242 178.8101,99.9861816 174.510491,93.3234779 C168.796194,84.4685646 166.630129,79.1563747 150.265354,71.2366658 C146.378678,69.3557145 138.44575,67.9560929 126.403602,67.9560929 C125.017302,67.9560929 123.30955,68.284697 121.280346,68.9419051 L114.383193,54.8109571 Z" id="Bangs-Right" fill="#000000" fill-rule="nonzero"></path>
            <path d="M49.6040408,70.2538661 C66.9123603,68.444427 79.1530415,68.2282715 86.3260846,69.6053997 C93.4991277,70.9825279 100.692093,75.222628 107.90498,82.3257 C119.185467,99.2099573 128.472228,114.992945 135.765261,129.674664 C143.058294,144.356383 143.743558,148.445669 137.821053,141.942521 C134.653259,132.387986 129.965259,123.306299 123.757051,114.697461 C117.255011,105.68117 118.295269,107.557846 109.91137,100.029098 C104.643482,95.2985304 99.3849079,88.6071999 81.6241868,84.8730476 C76.9704222,83.8946039 67.8149657,81.6147145 58.9215157,84.3596939 C56.9530928,84.9672512 55.2801571,85.7323672 53.9027086,86.6550419 L49.6040408,70.2538661 Z" id="Bangs-Left" fill="#000000" fill-rule="nonzero" transform="translate(95.703162, 106.824809) scale(-1, 1) rotate(29.000000) translate(-95.703162, -106.824809) "></path>
            <ellipse id="Eyeshadow-RIght" fill-opacity="0.92" fill="#E2A577" fill-rule="nonzero" style="mix-blend-mode: lighten;" filter="url(#filter-5)" cx="160.349642" cy="119.821173" rx="12.4379805" ry="2.70390881"></ellipse>
            <ellipse id="Eyeshadow-Left" fill-opacity="0.92" fill="#E2A577" fill-rule="nonzero" style="mix-blend-mode: lighten;" filter="url(#filter-6)" cx="100.863648" cy="119.821173" rx="12.4379805" ry="2.70390881"></ellipse>
            <g id="right-eye" transform="translate(144.000000, 120.000000)" fill-rule="nonzero">
                <path d="M11.0058516,0.949518573 C10.5982468,1.07111712 10.2894717,1.1752626 10.0795265,1.26195504 C9.12596379,1.65570849 8.11161288,2.07468984 7.43458166,2.47690195 C6.53395817,3.01194622 4.23039233,4.53921753 0.523884136,7.05871589 C0.829268556,7.1812014 1.17856617,7.35113587 1.57177699,7.56851929 C1.9649878,7.78590271 2.36051213,8.02122682 2.75834999,8.2744916" id="Line-2" stroke="#7E6153" stroke-linecap="round" stroke-linejoin="round" filter="url(#filter-7)"></path>
                <circle fill="#4A3429" cx="11.5747888" cy="5.86195478" r="5.5"></circle>
                <circle id="right-eye-highlight" fill="#D5D5D5" cx="10.2379158" cy="7.7697724" r="2"></circle>
                <path d="M10.2326618,1.84090308 C10.6701696,1.35840517 12.5336321,1.11715621 15.8230494,1.11715621 C20.7571754,1.11715621 24.7595116,1.84090308 24.7595116,1.84090308" id="Eyelid-Right" stroke="#4A3429" stroke-width="2" stroke-linecap="round"></path>
            </g>
            <g id="left-eye" transform="translate(92.000000, 120.000000)" fill-rule="nonzero">
                <path d="M25.6790776,1 C25.2714728,1.12159854 24.9626977,1.22574403 24.7527525,1.31243646 C23.7991898,1.70618992 22.9202234,2.18046833 22.2431921,2.58268045 C21.3425686,3.11772472 18.7615046,4.84468879 14.5,7.76357266 C14.9871325,7.81447468 15.4020377,7.88253333 15.7447155,7.96774861 C16.0873933,8.05296388 16.5291971,8.26597244 17.0701268,8.60677429" id="Line-2" stroke="#7E6153" stroke-linecap="round" stroke-linejoin="round" filter="url(#filter-8)" transform="translate(20.089539, 4.803387) scale(-1, 1) translate(-20.089539, -4.803387) "></path>
                <circle fill="#4A3429" cx="12.7413032" cy="5.86195478" r="5.5"></circle>
                <circle id="left-eye-highlight" fill="#D5D5D5" cx="11.4044302" cy="7.7697724" r="2"></circle>
                <path d="M0.232661768,1.84090308 C0.670169574,1.35840517 2.53363212,1.11715621 5.82304942,1.11715621 C10.7571754,1.11715621 14.7595116,1.84090308 14.7595116,1.84090308" id="Eyelid-Right" stroke="#4A3429" stroke-width="2" stroke-linecap="round" transform="translate(7.496087, 1.617156) scale(-1, 1) translate(-7.496087, -1.617156) "></path>
            </g>
            <path d="M131.217331,172.646343 C139.559254,172.646343 146.938121,169.692471 147.053629,169.161041 C147.066251,169.102966 148.193651,168.502472 148.50235,168.253021 C148.571598,168.197064 148.819307,168.077515 148.755836,168.077515 C145.820226,168.077515 140.675354,168 131.217331,168 C121.759307,168 112.634324,167.864773 113.241954,168.134706 C113.849585,168.404639 121.759307,172.646343 131.217331,172.646343 Z" id="teeth" fill="#FFFFFF" fill-rule="nonzero"></path>
            <path d="M112.124487,167.259158 C114.260176,167.814003 116.097648,168.544429 117.636903,169.450436 C119.140862,170.335669 119.679936,170.606353 119.974641,170.703819 C123.123861,171.745345 127.844235,172.550848 131.692138,172.550848 C135.426402,172.550848 137.740341,172.37072 142.620714,170.78781 C143.108204,170.629696 144.016614,170.159404 144.850339,169.450436 C145.930611,168.531814 147.769493,167.763772 150.366986,167.146309 C146.199643,172.553551 141.778382,175.907432 137.103202,177.207954 C135.139436,177.754226 129.500633,177.809362 126.537916,177.207954 C121.570102,176.199526 116.765626,172.88326 112.124487,167.259158 Z" id="bottom-lip" fill="#EC9E88" fill-rule="nonzero"></path>
            <path d="M110.842605,166.227723 C113.170997,167.165865 114.60914,167.557386 115.157034,167.402287 C121.977794,165.471441 125.761063,164 127.676207,164 C129.387268,164 131.085345,165.709381 131.547198,165.709381 C132.065384,165.709381 133.333499,164 135.41467,164 C137.363235,164 140.795793,165.457467 147.589395,167.402287 C148.116842,167.55328 149.405139,167.161759 151.454286,166.227723 C149.237352,168.201465 147.692253,169.157156 146.818988,169.094795 C143.296549,168.843254 137.579985,168.540744 135.41467,168.322441 C133.415919,168.12093 132.761871,168.650525 131.547198,168.631586 C130.848523,168.620692 129.384662,168.168123 127.676207,168.322441 C125.236947,168.54277 118.148037,169.342686 115.157034,169.094795 C114.377112,169.030156 112.938969,168.074465 110.842605,166.227723 Z" id="top-lip" fill="#EC9E88" fill-rule="nonzero"></path>
            <path d="M146.611902,108.597493 C149.585967,107.879615 155.338415,106.947016 158.415696,106.562356 C161.671915,106.155329 166.012192,104.852032 170.21949,107.376411 C172.933006,109.00452 174.561116,110.63263 175.103819,112.260739 C173.574453,111.520825 172.087815,110.899336 170.643904,110.396273 C168.317964,109.585908 163.631063,110.464953 161.5234,110.745974 C159.259568,111.047819 155.978319,111.549403 153.483036,112.17073 C150.987753,112.792058 145.051133,114.549983 143.401417,115.040582 C141.103941,115.723815 140.465506,112.52412 140.506491,111.446685 C140.56093,110.015613 143.209184,109.418839 146.611902,108.597493 Z" id="Eyebrow-Right" fill-opacity="0.53" fill="#000000" fill-rule="nonzero" transform="translate(157.804241, 110.499043) rotate(8.000000) translate(-157.804241, -110.499043) "></path>
            <path d="M91.6119022,108.597493 C94.5859671,107.879615 100.338415,106.947016 103.415696,106.562356 C106.671915,106.155329 111.012192,104.852032 115.21949,107.376411 C117.933006,109.00452 119.561116,110.63263 120.103819,112.260739 C118.574453,111.520825 117.087815,110.899336 115.643904,110.396273 C113.317964,109.585908 108.631063,110.464953 106.5234,110.745974 C104.259568,111.047819 100.978319,111.549403 98.4830364,112.17073 C95.9877533,112.792058 90.0511333,114.549983 88.4014175,115.040582 C86.1039413,115.723815 85.4655058,112.52412 85.5064915,111.446685 C85.5609295,110.015613 88.209184,109.418839 91.6119022,108.597493 Z" id="Eyebrow-Right" fill-opacity="0.53" fill="#000000" fill-rule="nonzero" transform="translate(102.804241, 110.499043) scale(-1, 1) rotate(8.000000) translate(-102.804241, -110.499043) "></path>
            <path d="M165.75746,134.963062 C168.52281,135.176495 170.507137,135.463707 171.710442,135.824698 C172.913746,136.18569 174.064977,136.696846 175.164134,137.358168" id="Cheek-Right" stroke="#EFC180" stroke-linecap="round" fill-rule="nonzero"></path>
            <path d="M86.8033227,134.963062 C89.5686727,135.176495 91.553,135.463707 92.7563046,135.824698 C93.9596093,136.18569 95.11084,136.696846 96.2099969,137.358168" id="Cheek-Left" stroke="#EFC180" stroke-linecap="round" fill-rule="nonzero" transform="translate(91.506660, 136.160615) scale(-1, 1) translate(-91.506660, -136.160615) "></path>
            <ellipse id="Blush-Right" fill-opacity="0.92" fill="#FFC6B1" fill-rule="nonzero" style="mix-blend-mode: lighten;" filter="url(#filter-9)" cx="163.594333" cy="145.161526" rx="11.356417" ry="7.0301629"></ellipse>
            <ellipse id="Blush-Left" fill-opacity="0.92" fill="#FFC6B1" fill-rule="nonzero" style="mix-blend-mode: lighten;" filter="url(#filter-10)" cx="96.5373944" cy="145.161526" rx="11.356417" ry="7.0301629"></ellipse>
            <g id="nose" transform="translate(118.000000, 147.000000)" fill-rule="nonzero" stroke="#CCA076" stroke-linecap="round">
                <path d="M0.983970242,6.46107277 C0.371283295,5.00492977 0.371283295,3.77173876 0.983970242,2.76149972 C1.59665719,1.75126069 2.31238703,1.09747852 3.13115976,0.800153194" id="Line" stroke-width="0.75"></path>
                <path d="M23.5926659,6.46107277 C22.9799789,5.00492977 22.9799789,3.77173876 23.5926659,2.76149972 C24.2053528,1.75126069 24.9210827,1.09747852 25.7398554,0.800153194" id="Line" stroke-width="0.75" transform="translate(24.436503, 3.630613) scale(-1, 1) translate(-24.436503, -3.630613) "></path>
                <path d="M16.9545024,6.63509107 C17.7351869,5.93522683 18.5285798,5.69117506 19.3346811,5.90293576 C20.1407825,6.11469647 20.6199454,6.63561353 20.7721698,7.46568694" id="Line" transform="translate(18.863336, 6.647419) scale(-1, 1) translate(-18.863336, -6.647419) "></path>
                <path d="M5.65015459,6.63509107 C6.43083904,5.93522683 7.22423195,5.69117506 8.03033331,5.90293576 C8.83643467,6.11469647 9.31559756,6.63561353 9.46782198,7.46568694" id="Line"></path>
            </g>
            <line x1="115.5" y1="53.5" x2="121.5" y2="66.5" id="hairline" stroke="#FFD69B" stroke-width="1.5" opacity="0.15" stroke-linecap="round" fill-rule="nonzero"></line>
            <g id="Right-Freckles" transform="translate(155.000000, 141.000000)" fill="#E1B175" fill-rule="nonzero">
                <circle id="Oval-2" cx="5.5" cy="0.5" r="1"></circle>
                <circle id="Oval-2" cx="11.5" cy="3.5" r="1"></circle>
                <circle id="Oval-2" cx="10.5" cy="7.5" r="1"></circle>
                <circle id="Oval-2" cx="14.5" cy="0.5" r="1"></circle>
                <circle id="Oval-2" cx="2.5" cy="8.5" r="1"></circle>
                <circle id="Oval-2" cx="5.5" cy="5.5" r="1"></circle>
                <circle id="Oval-2" cx="0.5" cy="4.5" r="1"></circle>
            </g>
            <g id="Left-Freckles" transform="translate(98.500000, 145.500000) scale(-1, 1) translate(-98.500000, -145.500000) translate(91.000000, 141.000000)" fill="#E1B175" fill-rule="nonzero">
                <circle id="Oval-2" cx="5.5" cy="0.5" r="1"></circle>
                <circle id="Oval-2" cx="11.5" cy="3.5" r="1"></circle>
                <circle id="Oval-2" cx="10.5" cy="7.5" r="1"></circle>
                <circle id="Oval-2" cx="14.5" cy="0.5" r="1"></circle>
                <circle id="Oval-2" cx="2.5" cy="8.5" r="1"></circle>
                <circle id="Oval-2" cx="5.5" cy="5.5" r="1"></circle>
                <circle id="Oval-2" cx="0.5" cy="4.5" r="1"></circle>
            </g>
        </g>
    </g>
</svg>