<svg width="266" height="266" viewBox="0 0 266 266" fill="none" xmlns="http://www.w3.org/2000/svg">
<circle cx="133" cy="133" r="130" fill="url(#paint0_linear_626_5426)" stroke="url(#paint1_linear_626_5426)" stroke-width="5"/>
<mask id="mask0_626_5426" style="mask-type:luminance" maskUnits="userSpaceOnUse" x="3" y="3" width="260" height="260">
<circle cx="133" cy="133" r="130" fill="white"/>
</mask>
<g mask="url(#mask0_626_5426)">
<ellipse cx="135.325" cy="244.78" rx="54.6988" ry="34.2194" fill="#FDD396"/>
<mask id="mask1_626_5426" style="mask-type:luminance" maskUnits="userSpaceOnUse" x="74" y="210" width="124" height="69">
<path d="M198 248.5C198 267.399 165.534 279 135.325 279C105.115 279 74 274.5 74 248.5C74 229.601 105.115 210.561 135.325 210.561C165.534 210.561 198 229.601 198 248.5Z" fill="white"/>
</mask>
<g mask="url(#mask1_626_5426)">
<path d="M66 211.241C66 208.998 68.3857 207.506 70.4306 208.428C80.7339 213.074 107.454 223.83 134 223.83C160.546 223.83 187.266 213.074 197.569 208.428C199.614 207.506 202 208.998 202 211.241V271C202 272.656 200.657 274 199 274H69C67.3431 274 66 272.656 66 271V211.241Z" fill="white"/>
<path d="M80 223C80 223 105.026 235 134.96 235C164.893 235 195 223 195 223" stroke="#062C36" stroke-width="2" stroke-linecap="square"/>
<path d="M80 233C80 233 104.809 245 134.482 245C164.155 245 194 233 194 233" stroke="#062C36" stroke-width="2" stroke-linecap="square"/>
<path d="M71 240C71 240 99.2906 256 133.128 256C166.966 256 201 240 201 240" stroke="#062C36" stroke-width="2" stroke-linecap="square"/>
</g>
</g>
<path d="M208.5 129.056C217.502 218.318 177.719 207.413 133.015 207.5C90.957 207.582 55.1133 224.955 58.4998 129.056C62.4998 77.5 91.7635 39 133.469 39C175.175 39 203.097 75.4916 208.5 129.056Z" fill="black"/>
<path d="M123.702 192.582H145.333L146.375 210.969C146.375 210.969 139.808 214.269 134.518 214.269C129.227 214.269 122.791 210.969 122.791 210.969L123.702 192.582Z" fill="#FDD396"/>
<ellipse cx="133.066" cy="130.503" rx="56.7821" ry="68.7903" fill="#FFD69B"/>
<ellipse cx="75.7637" cy="140.5" rx="10.8379" ry="16.9608" fill="#FFD69B"/>
<ellipse cx="190.02" cy="141.473" rx="10.8378" ry="16.9588" fill="#FFD69B"/>
<path d="M133.006 62.6636C133.287 58.5882 136.598 55.4076 140.675 55.6636C143.998 55.8722 148.217 56.3038 152.765 57.1771C161.39 58.833 171.326 65.8034 174.617 68.254C175.37 68.8145 175.983 69.5077 176.46 70.316C179.334 75.1892 189.914 93.6998 191.503 104.794C192.613 112.536 190.865 136.523 188.371 160.525C188.146 162.69 187.47 163.105 186.745 162.83C184.79 162.091 184.755 159.391 185.157 157.34C186.392 151.047 188.89 136.684 188.371 125.799C187.933 116.631 189.482 116.034 177.299 108.461C176.28 107.828 175.39 106.983 174.782 105.949C170.665 98.9477 172.728 97.3436 166.708 86.5945C165.94 85.2233 164.735 84.1359 163.511 83.1501C159.468 79.8933 153.194 72.9998 143 72.9998C142.147 72.9998 140.227 72.4951 138.26 71.8997C134.827 70.8612 132.671 67.5268 132.917 63.9489L133.006 62.6636Z" fill="black"/>
<path d="M133.5 54.9998C133.5 54.9998 97.2693 65.7027 88.8602 72.7257C80.4511 79.7488 76.1538 94.3128 76.1538 94.3128C76.1538 94.3128 73.5372 117.174 76.0984 149.314C76.1345 149.767 76.2125 150.232 76.3293 150.671C79.587 162.93 81.9999 161 81.9999 161C81.9999 161 76.0991 146.12 77.9834 130.311C79.299 119.273 81.3602 121 88.8602 110C93.1694 103.68 89.2764 94.3764 103 82.4998C107 79.0382 110.873 74.2549 119.982 72.3441C121.314 72.0647 124.095 71.5766 126.791 71.1179C130.657 70.4599 133.5 67.1196 133.5 63.1979L133.5 54.9998Z" fill="black"/>
<g filter="url(#filter0_f_626_5426)">
<ellipse cx="163.35" cy="122.821" rx="12.438" ry="2.70391" fill="#E2A577" fill-opacity="0.92" style="mix-blend-mode:lighten"/>
</g>
<g filter="url(#filter1_f_626_5426)">
<ellipse cx="103.864" cy="122.821" rx="12.438" ry="2.70391" fill="#E2A577" fill-opacity="0.92" style="mix-blend-mode:lighten"/>
</g>
<path d="M158.006 123.95C158.006 123.95 157.394 124.132 157.08 124.262C156.126 124.656 155.112 125.075 154.435 125.477C153.084 126.28 147.524 130.059 147.524 130.059C147.524 130.059 147.982 130.243 148.572 130.569C149.162 130.895 149.758 131.275 149.758 131.275" stroke="#7E6153" stroke-linecap="round" stroke-linejoin="round"/>
<circle cx="158.575" cy="128.862" r="5.5" fill="#4A3429"/>
<circle cx="157.238" cy="130.77" r="2" fill="#D5D5D5"/>
<path d="M157.232 124.841C157.232 124.841 157.889 124.117 162.823 124.117C167.757 124.117 171.759 124.841 171.759 124.841" stroke="#4A3429" stroke-width="2" stroke-linecap="round"/>
<path d="M109.5 124C109.5 124 110.112 124.182 110.426 124.312C111.38 124.706 112.259 125.18 112.936 125.583C114.287 126.385 120.679 130.764 120.679 130.764C120.679 130.764 119.949 130.84 119.434 130.968C118.92 131.096 118.109 131.607 118.109 131.607" stroke="#7E6153" stroke-linecap="round" stroke-linejoin="round"/>
<circle cx="107.741" cy="128.862" r="5.5" fill="#4A3429"/>
<circle cx="106.404" cy="130.77" r="2" fill="#D5D5D5"/>
<path d="M109.759 124.841C109.759 124.841 109.103 124.117 104.169 124.117C99.2348 124.117 95.2324 124.841 95.2324 124.841" stroke="#4A3429" stroke-width="2" stroke-linecap="round"/>
<path d="M150 171.5C150 172.792 143.807 175.646 133.99 175.646C124.172 175.646 119 172.792 119 171.5C119 170.208 124.172 170.966 133.99 170.966C143.807 170.966 150 170.208 150 171.5Z" fill="white"/>
<path d="M115.125 170.259C115.125 170.259 118.328 171.091 120.637 172.45C122.141 173.336 122.68 173.606 122.975 173.704C126.124 174.745 130.844 175.551 134.692 175.551C138.426 175.551 140.74 175.371 145.621 173.788C146.108 173.63 147.017 173.159 147.85 172.45C149.471 171.072 153.367 170.146 153.367 170.146C153.367 170.146 147.116 178.257 140.103 180.208C138.139 180.754 132.501 180.809 129.538 180.208C122.086 178.695 115.125 170.259 115.125 170.259Z" fill="#EC9E88"/>
<path d="M113.843 169.228C113.843 169.228 117.335 170.635 118.157 170.402C124.978 168.471 128.761 167 130.676 167C132.387 167 134.086 168.709 134.547 168.709C135.066 168.709 136.334 167 138.415 167C140.363 167 143.796 168.457 150.59 170.402C151.381 170.629 154.454 169.228 154.454 169.228C154.454 169.228 151.129 172.188 149.819 172.095C146.297 171.843 140.58 171.541 138.415 171.322C136.416 171.121 135.762 171.651 134.547 171.632C133.849 171.621 132.385 171.168 130.676 171.322C128.237 171.543 121.148 172.343 118.157 172.095C116.987 171.998 113.843 169.228 113.843 169.228Z" fill="#EC9E88"/>
<path d="M149.986 110.058C153.031 109.761 158.857 109.638 161.958 109.686C165.239 109.736 169.718 109.049 173.533 112.134C177.224 115.119 177.69 117.651 177.69 117.651C177.69 117.651 175.573 116.233 173.533 115.184C171.343 114.058 166.579 114.276 164.453 114.261C162.169 114.245 158.85 114.285 156.293 114.553C153.735 114.821 147.612 115.735 145.91 115.992C143.539 116.348 143.353 113.091 143.543 112.03C143.796 110.62 146.502 110.398 149.986 110.058Z" fill="black" fill-opacity="0.53"/>
<path d="M116.623 110.058C113.578 109.761 107.752 109.638 104.651 109.686C101.37 109.736 96.8901 109.049 93.0751 112.134C89.3843 115.119 88.918 117.651 88.918 117.651C88.918 117.651 91.0353 116.233 93.0751 115.184C95.2656 114.058 100.029 114.276 102.155 114.261C104.439 114.245 107.758 114.285 110.316 114.553C112.873 114.821 118.997 115.735 120.699 115.992C123.069 116.348 123.256 113.091 123.065 112.03C122.812 110.62 120.107 110.398 116.623 110.058Z" fill="black" fill-opacity="0.53"/>
<path d="M168.757 137.963C168.757 137.963 172.905 138.283 174.71 138.825C176.515 139.366 178.164 140.358 178.164 140.358" stroke="#EFC180" stroke-linecap="round"/>
<path d="M99.21 137.963C99.21 137.963 95.0619 138.283 93.257 138.825C91.452 139.366 89.8033 140.358 89.8033 140.358" stroke="#EFC180" stroke-linecap="round"/>
<g filter="url(#filter2_f_626_5426)">
<ellipse cx="166.594" cy="148.162" rx="11.3564" ry="7.03016" fill="#FFC6B1" fill-opacity="0.92" style="mix-blend-mode:lighten"/>
</g>
<g filter="url(#filter3_f_626_5426)">
<ellipse cx="99.5376" cy="148.162" rx="11.3564" ry="7.03016" fill="#FFC6B1" fill-opacity="0.92" style="mix-blend-mode:lighten"/>
</g>
<path d="M121.984 156.461C121.984 156.461 121.065 154.277 121.984 152.761C122.903 151.246 124.131 150.8 124.131 150.8" stroke="#CCA076" stroke-width="0.75" stroke-linecap="round"/>
<path d="M146.28 156.461C146.28 156.461 147.199 154.277 146.28 152.761C145.361 151.246 144.133 150.8 144.133 150.8" stroke="#CCA076" stroke-width="0.75" stroke-linecap="round"/>
<path d="M141.772 156.635C141.772 156.635 140.601 155.585 139.392 155.903C138.183 156.221 137.954 157.466 137.954 157.466" stroke="#CCA076" stroke-linecap="round"/>
<path d="M126.65 156.635C126.65 156.635 127.821 155.585 129.031 155.903C130.24 156.221 130.468 157.466 130.468 157.466" stroke="#CCA076" stroke-linecap="round"/>
<path opacity="0.15" d="M133.5 55.5V69.5" stroke="#FFD69B" stroke-width="1.5" stroke-linecap="round"/>
<circle cx="163.5" cy="144.5" r="0.5" fill="#E1B175"/>
<circle cx="169.5" cy="147.5" r="0.5" fill="#E1B175"/>
<circle cx="168.5" cy="151.5" r="0.5" fill="#E1B175"/>
<circle cx="172.5" cy="144.5" r="0.5" fill="#E1B175"/>
<circle cx="160.5" cy="152.5" r="0.5" fill="#E1B175"/>
<circle cx="163.5" cy="149.5" r="0.5" fill="#E1B175"/>
<circle cx="158.5" cy="148.5" r="0.5" fill="#E1B175"/>
<circle cx="0.5" cy="0.5" r="0.5" transform="matrix(-1 0 0 1 104 144)" fill="#E1B175"/>
<circle cx="0.5" cy="0.5" r="0.5" transform="matrix(-1 0 0 1 98 147)" fill="#E1B175"/>
<circle cx="0.5" cy="0.5" r="0.5" transform="matrix(-1 0 0 1 99 151)" fill="#E1B175"/>
<circle cx="0.5" cy="0.5" r="0.5" transform="matrix(-1 0 0 1 95 144)" fill="#E1B175"/>
<circle cx="0.5" cy="0.5" r="0.5" transform="matrix(-1 0 0 1 107 152)" fill="#E1B175"/>
<circle cx="0.5" cy="0.5" r="0.5" transform="matrix(-1 0 0 1 104 149)" fill="#E1B175"/>
<circle cx="0.5" cy="0.5" r="0.5" transform="matrix(-1 0 0 1 109 148)" fill="#E1B175"/>
<defs>
<filter id="filter0_f_626_5426" x="139.582" y="108.787" width="47.5354" height="28.0671" filterUnits="userSpaceOnUse" color-interpolation-filters="sRGB">
<feFlood flood-opacity="0" result="BackgroundImageFix"/>
<feBlend mode="normal" in="SourceGraphic" in2="BackgroundImageFix" result="shape"/>
<feGaussianBlur stdDeviation="5.66486" result="effect1_foregroundBlur_626_5426"/>
</filter>
<filter id="filter1_f_626_5426" x="80.0961" y="108.787" width="47.5354" height="28.0671" filterUnits="userSpaceOnUse" color-interpolation-filters="sRGB">
<feFlood flood-opacity="0" result="BackgroundImageFix"/>
<feBlend mode="normal" in="SourceGraphic" in2="BackgroundImageFix" result="shape"/>
<feGaussianBlur stdDeviation="5.66486" result="effect1_foregroundBlur_626_5426"/>
</filter>
<filter id="filter2_f_626_5426" x="143.908" y="129.802" width="45.3723" height="36.7197" filterUnits="userSpaceOnUse" color-interpolation-filters="sRGB">
<feFlood flood-opacity="0" result="BackgroundImageFix"/>
<feBlend mode="normal" in="SourceGraphic" in2="BackgroundImageFix" result="shape"/>
<feGaussianBlur stdDeviation="5.66486" result="effect1_foregroundBlur_626_5426"/>
</filter>
<filter id="filter3_f_626_5426" x="76.8514" y="129.802" width="45.3723" height="36.7197" filterUnits="userSpaceOnUse" color-interpolation-filters="sRGB">
<feFlood flood-opacity="0" result="BackgroundImageFix"/>
<feBlend mode="normal" in="SourceGraphic" in2="BackgroundImageFix" result="shape"/>
<feGaussianBlur stdDeviation="5.66486" result="effect1_foregroundBlur_626_5426"/>
</filter>
<linearGradient id="paint0_linear_626_5426" x1="81.5" y1="13.5" x2="224" y2="228" gradientUnits="userSpaceOnUse">
<stop stop-color="#91B9FF"/>
<stop offset="1" stop-color="#8148F9"/>
</linearGradient>
<linearGradient id="paint1_linear_626_5426" x1="54.5" y1="28" x2="217.5" y2="232.5" gradientUnits="userSpaceOnUse">
<stop stop-color="#91B9FF"/>
<stop offset="1" stop-color="#814BF9"/>
</linearGradient>
</defs>
</svg>
