<svg width="27" height="27" viewBox="0 0 27 27" fill="none" xmlns="http://www.w3.org/2000/svg">
<g id="github">
<circle id="Oval" cx="13.5" cy="13.5" r="12.5" stroke="white" stroke-width="1.5"/>
<path id="Line 6" d="M11.5 25.5V22.5" stroke="white" stroke-linecap="round" stroke-linejoin="round"/>
<path id="Line 6_2" d="M5.5 18.5C5.5 18.5 6.64369 18.6437 7 19C8 20 8.45527 21.6368 9 22C10.0744 22.7162 11.5 22.5 11.5 22.5" stroke="white" stroke-width="1.25" stroke-linecap="round" stroke-linejoin="round"/>
<path id="Line 6_3" d="M5.5 18.5C5.5 18.5 7.0135 18.0135 8 19C9 20 8.98838 21 10 21C11 21 12 19 12 19" stroke="white" stroke-width="1.25" stroke-linecap="round" stroke-linejoin="round"/>
<path id="Line 6_4" d="M11.9998 19C11.9998 19 7.99981 18 6.99981 16C5.7208 13.442 7.99981 10 7.99981 10" stroke="white" stroke-width="1.25" stroke-linecap="round" stroke-linejoin="round"/>
<path id="Line 6_5" d="M16.0002 19C16.0002 19 20.0002 18 21.0002 16C22.2792 13.442 20.0002 10 20.0002 10" stroke="white" stroke-width="1.25" stroke-linecap="round" stroke-linejoin="round"/>
<path id="Line 6_6" d="M17 24C17 24 17.1999 21.9994 17 21C16.8001 20.0006 16 19 16 19" stroke="white" stroke-width="1.25" stroke-linecap="round" stroke-linejoin="round"/>
<path id="Line 6_7" d="M7.99985 9.99993C7.99985 9.99993 7.34292 7.28147 7.99985 6.99993C8.65678 6.71839 10.9999 7.99993 10.9999 7.99993" stroke="white" stroke-width="1.25" stroke-linecap="round" stroke-linejoin="round"/>
<path id="Line 6_8" d="M20.0001 10.0507C20.0001 10.0507 20.6571 7.33225 20.0001 7.05071C19.3432 6.76917 17.0001 8.05071 17.0001 8.05071" stroke="white" stroke-width="1.25" stroke-linecap="round" stroke-linejoin="round"/>
<path id="Line 6_9" d="M17 8C17 8 16 7.5 14 7.5C12 7.5 11 8 11 8" stroke="white" stroke-width="1.25" stroke-linecap="round" stroke-linejoin="round"/>
</g>
</svg>
