<svg width="48" height="48" viewBox="0 0 48 48" fill="none" xmlns="http://www.w3.org/2000/svg">
<rect x="2.75" y="2.75" width="42.5" height="42.5" rx="7.25" stroke="black" stroke-width="1.5"/>
<rect x="10.1" y="18.2" width="4.8" height="20.8" stroke="black" stroke-width="1.2"/>
<circle cx="12.5" cy="11.5" r="2.9" stroke="black" stroke-width="1.2"/>
<mask id="path-4-inside-1" fill="white">
<path fill-rule="evenodd" clip-rule="evenodd" d="M19.5 17.6H25.5V21.1L26.1199 20.1701C26.3715 19.7928 26.6854 19.4609 27.0482 19.1888C28.0039 18.472 29.1081 17.9784 30.2795 17.7441L30.5521 17.6896C30.85 17.63 31.153 17.6 31.4568 17.6H33.5L34.5 17.85C35.16 18.015 35.7804 18.3103 36.3246 18.7184L36.5152 18.8614C37.1656 19.3491 37.7151 19.9585 38.1333 20.6555L38.2961 20.9268C38.7619 21.7031 39.0908 22.5538 39.2683 23.4416L39.3181 23.6906C39.4391 24.2954 39.5 24.9106 39.5 25.5273V39.6H33.5V26.9991C32.5878 24.9351 31.1356 23.6 29.5 23.6C27.8644 23.6 26.4122 24.9351 25.5 26.9991V39.6H19.5V17.6Z"/>
</mask>
<path d="M25.5 17.6H26.7V16.4H25.5V17.6ZM19.5 17.6V16.4H18.3V17.6H19.5ZM25.5 21.1H24.3V25.0633L26.4985 21.7656L25.5 21.1ZM26.1199 20.1701L27.1184 20.8358L27.1184 20.8358L26.1199 20.1701ZM27.0482 19.1888L27.7682 20.1488L27.7682 20.1488L27.0482 19.1888ZM30.2795 17.7441L30.5149 18.9208L30.5149 18.9208L30.2795 17.7441ZM30.5521 17.6896L30.3167 16.5129L30.3167 16.5129L30.5521 17.6896ZM33.5 17.6L33.791 16.4358L33.6477 16.4H33.5V17.6ZM34.5 17.85L34.209 19.0141L34.209 19.0141L34.5 17.85ZM36.3246 18.7184L37.0446 17.7584L37.0446 17.7584L36.3246 18.7184ZM36.5152 18.8614L35.7952 19.8214L35.7952 19.8214L36.5152 18.8614ZM38.1333 20.6555L37.1043 21.2729L37.1043 21.2729L38.1333 20.6555ZM38.2961 20.9268L39.3251 20.3094L39.3251 20.3094L38.2961 20.9268ZM39.2683 23.4416L40.445 23.2063L40.445 23.2063L39.2683 23.4416ZM39.3181 23.6906L38.1414 23.926L38.1414 23.926L39.3181 23.6906ZM39.5 39.6V40.8H40.7V39.6H39.5ZM33.5 39.6H32.3V40.8H33.5V39.6ZM33.5 26.9991H34.7V26.7458L34.5976 26.5141L33.5 26.9991ZM25.5 26.9991L24.4024 26.5141L24.3 26.7458V26.9991H25.5ZM25.5 39.6V40.8H26.7V39.6H25.5ZM19.5 39.6H18.3V40.8H19.5V39.6ZM25.5 16.4H19.5V18.8H25.5V16.4ZM26.7 21.1V17.6H24.3V21.1H26.7ZM25.1214 19.5045L24.5015 20.4343L26.4985 21.7656L27.1184 20.8358L25.1214 19.5045ZM26.3282 18.2288C25.8565 18.5826 25.4485 19.0139 25.1214 19.5045L27.1184 20.8358C27.2945 20.5716 27.5142 20.3393 27.7682 20.1488L26.3282 18.2288ZM30.0442 16.5674C28.697 16.8368 27.4273 17.4045 26.3282 18.2288L27.7682 20.1488C28.5806 19.5395 29.5191 19.1199 30.5149 18.9208L30.0442 16.5674ZM30.3167 16.5129L30.0442 16.5674L30.5149 18.9208L30.7874 18.8663L30.3167 16.5129ZM31.4568 16.4C31.074 16.4 30.6921 16.4378 30.3167 16.5129L30.7874 18.8663C31.0078 18.8222 31.232 18.8 31.4568 18.8V16.4ZM33.5 16.4H31.4568V18.8H33.5V16.4ZM34.791 16.6858L33.791 16.4358L33.209 18.7641L34.209 19.0141L34.791 16.6858ZM37.0446 17.7584C36.3724 17.2543 35.6062 16.8896 34.791 16.6858L34.209 19.0141C34.7138 19.1404 35.1883 19.3662 35.6046 19.6784L37.0446 17.7584ZM37.2352 17.9014L37.0446 17.7584L35.6046 19.6784L35.7952 19.8214L37.2352 17.9014ZM39.1623 20.0381C38.6642 19.2079 38.0097 18.4823 37.2352 17.9014L35.7952 19.8214C36.3214 20.216 36.766 20.709 37.1043 21.2729L39.1623 20.0381ZM39.3251 20.3094L39.1623 20.0381L37.1043 21.2729L37.2671 21.5442L39.3251 20.3094ZM40.445 23.2063C40.2405 22.1836 39.8616 21.2037 39.3251 20.3094L37.2671 21.5442C37.6621 22.2026 37.941 22.924 38.0916 23.6769L40.445 23.2063ZM40.4948 23.4553L40.445 23.2063L38.0916 23.6769L38.1414 23.926L40.4948 23.4553ZM40.7 25.5273C40.7 24.8316 40.6313 24.1375 40.4948 23.4553L38.1414 23.926C38.2469 24.4532 38.3 24.9896 38.3 25.5273H40.7ZM40.7 39.6V25.5273H38.3V39.6H40.7ZM33.5 40.8H39.5V38.4H33.5V40.8ZM32.3 26.9991V39.6H34.7V26.9991H32.3ZM29.5 24.8C30.4261 24.8 31.5651 25.5896 32.4024 27.4842L34.5976 26.5141C33.6105 24.2805 31.8451 22.4 29.5 22.4V24.8ZM26.5976 27.4842C27.4349 25.5896 28.5739 24.8 29.5 24.8V22.4C27.1549 22.4 25.3895 24.2805 24.4024 26.5141L26.5976 27.4842ZM26.7 39.6V26.9991H24.3V39.6H26.7ZM19.5 40.8H25.5V38.4H19.5V40.8ZM18.3 17.6V39.6H20.7V17.6H18.3Z" fill="black" mask="url(#path-4-inside-1)"/>
</svg>
