<?xml version="1.0" encoding="UTF-8"?>
<svg width="27px" height="27px" viewBox="0 0 27 27" version="1.1" xmlns="http://www.w3.org/2000/svg" xmlns:xlink="http://www.w3.org/1999/xlink">
    <!-- Generator: Sketch 59 (86127) - https://sketch.com -->
    <title>Group 2</title>
    <desc>Created with Sketch.</desc>
    <defs>
        <path d="M7.80208331,19.5 L5.54768878,19.5 L5.54768878,9.46191406 L7.80208331,9.46191406 L7.80208331,19.5 Z M5.40852863,6.85498047 C5.40852863,6.50862457 5.51830943,6.22102979 5.73787433,5.9921875 C5.95743923,5.76334521 6.27131955,5.64892578 6.67952472,5.64892578 C7.08772989,5.64892578 7.40315642,5.76334521 7.62581378,5.9921875 C7.84847115,6.22102979 7.95979816,6.50862457 7.95979816,6.85498047 C7.95979816,7.19515144 7.84847115,7.4781076 7.62581378,7.70385742 C7.40315642,7.92960725 7.08772989,8.04248047 6.67952472,8.04248047 C6.27131955,8.04248047 5.95743923,7.92960725 5.73787433,7.70385742 C5.51830943,7.4781076 5.40852863,7.19515144 5.40852863,6.85498047 Z M13.1396484,9.46191406 L13.2045898,10.621582 C13.9467811,9.72476765 14.9208924,9.27636719 16.1269531,9.27636719 C18.2174584,9.27636719 19.2812498,10.4731326 19.3183594,12.8666992 L19.3183594,19.5 L17.0639648,19.5 L17.0639648,12.996582 C17.0639648,12.3595346 16.9263523,11.887941 16.651123,11.5817871 C16.3758938,11.2756332 15.9259471,11.1225586 15.3012695,11.1225586 C14.3920853,11.1225586 13.714846,11.5338501 13.2695312,12.3564453 L13.2695312,19.5 L11.0151367,19.5 L11.0151367,9.46191406 L13.1396484,9.46191406 Z" id="path-1"></path>
    </defs>
    <g id="mobile" stroke="none" stroke-width="1" fill="none" fill-rule="evenodd">
        <g id="Mobile" transform="translate(-16.000000, -6451.000000)">
            <g id="Group-2" transform="translate(17.000000, 6452.000000)">
                <rect id="Rectangle" stroke="#000000" x="0" y="0" width="25" height="25" rx="2"></rect>
                <g id="in" fill-rule="nonzero" fill="#FFFFFF">
                    <use xlink:href="#path-1"></use>
                    <use stroke="#000000" stroke-width="0.75" xlink:href="#path-1"></use>
                </g>
            </g>
        </g>
    </g>
</svg>