<svg width="54" height="54" viewBox="0 0 54 54" fill="none" xmlns="http://www.w3.org/2000/svg">
<g id="linkedin">
<rect id="Rectangle" x="2" y="2" width="50" height="50" rx="4" stroke="white" stroke-width="2"/>
<g id="in">
<mask id="path-2-outside-1_638_5703" maskUnits="userSpaceOnUse" x="8.81738" y="9.29785" width="36" height="36" fill="black">
<rect fill="white" x="8.81738" y="9.29785" width="36" height="36"/>
<path fill-rule="evenodd" clip-rule="evenodd" d="M12.8174 15.71C12.8174 15.0172 13.0369 14.4421 13.4761 13.9844C13.9152 13.5267 14.543 13.2979 15.3594 13.2979C16.1758 13.2979 16.8066 13.5267 17.252 13.9844C17.6973 14.4421 17.9199 15.0172 17.9199 15.71C17.9199 16.3903 17.6973 16.9562 17.252 17.4077C16.8066 17.8592 16.1758 18.085 15.3594 18.085C14.543 18.085 13.9152 17.8592 13.4761 17.4077C13.0369 16.9562 12.8174 16.3903 12.8174 15.71ZM17.6045 40.8C17.6045 40.9105 17.5149 41 17.4045 41H13.2957C13.1852 41 13.0957 40.9105 13.0957 40.8V21.1238C13.0957 21.0134 13.1852 20.9238 13.2957 20.9238H17.4045C17.5149 20.9238 17.6045 21.0134 17.6045 21.1238V40.8ZM28.7465 22.8599C28.6222 22.9928 28.3912 22.9154 28.381 22.7338L28.2902 21.1126C28.2843 21.0067 28.1966 20.9238 28.0905 20.9238H24.2306C24.1201 20.9238 24.0306 21.0134 24.0306 21.1238V40.8C24.0306 40.9105 24.1201 41 24.2306 41H28.3394C28.4498 41 28.5394 40.9105 28.5394 40.8V26.7636C28.5394 26.7303 28.5478 26.6973 28.5638 26.6682C29.4547 25.0528 30.801 24.2451 32.6029 24.2451C33.8522 24.2451 34.7521 24.5513 35.3026 25.1636C35.853 25.7759 36.1283 26.7191 36.1283 27.9932V40.8C36.1283 40.9105 36.2178 41 36.3283 41H40.437C40.5475 41 40.637 40.9105 40.637 40.8V27.7334C40.5628 22.9463 38.4352 20.5527 34.2542 20.5527C32.0205 20.5527 30.1846 21.3218 28.7465 22.8599Z"/>
</mask>
<path d="M13.4761 13.9844L15.28 15.7152L15.28 15.7152L13.4761 13.9844ZM17.252 13.9844L15.4601 15.7278L15.4601 15.7278L17.252 13.9844ZM17.252 17.4077L15.472 15.6522L15.472 15.6522L17.252 17.4077ZM13.4761 17.4077L11.6839 19.1508L11.6839 19.1508L13.4761 17.4077ZM35.3026 25.1636L33.4434 26.8349L33.4434 26.8349L35.3026 25.1636ZM40.637 27.7334H43.137V27.714L43.1367 27.6946L40.637 27.7334ZM28.5638 26.6682L26.3747 25.4608L28.5638 26.6682ZM28.381 22.7338L25.8849 22.8736L28.381 22.7338ZM28.7465 22.8599L26.9203 21.1525L28.7465 22.8599ZM28.2902 21.1126L25.7941 21.2524L28.2902 21.1126ZM13.4761 13.9844L11.6721 12.2536C10.7433 13.2216 10.3174 14.4371 10.3174 15.71H12.8174H15.3174C15.3174 15.669 15.3206 15.6464 15.3219 15.639C15.3231 15.6322 15.3228 15.6373 15.3177 15.6506C15.3125 15.6642 15.3049 15.6795 15.2957 15.6939C15.2867 15.7082 15.28 15.7153 15.28 15.7152L13.4761 13.9844ZM15.3594 13.2979V10.7979C14.0678 10.7979 12.7084 11.1735 11.6721 12.2536L13.4761 13.9844L15.28 15.7152C15.2545 15.7418 15.2246 15.7664 15.1936 15.7864C15.163 15.8061 15.1404 15.8154 15.1325 15.8183C15.1187 15.8233 15.1806 15.7979 15.3594 15.7979V13.2979ZM17.252 13.9844L19.0438 12.241C18.0057 11.1741 16.6528 10.7979 15.3594 10.7979V13.2979V15.7979C15.5378 15.7979 15.6021 15.8232 15.5923 15.8196C15.5865 15.8175 15.5665 15.8094 15.5386 15.7917C15.5104 15.7737 15.4833 15.7515 15.4601 15.7278L17.252 13.9844ZM17.9199 15.71H20.4199C20.4199 14.4267 19.9838 13.2071 19.0438 12.241L17.252 13.9844L15.4601 15.7278C15.4609 15.7286 15.4543 15.7218 15.4449 15.7073C15.4354 15.6926 15.4273 15.6765 15.4215 15.6615C15.4158 15.6468 15.415 15.64 15.4159 15.6449C15.4168 15.6502 15.4199 15.6708 15.4199 15.71H17.9199ZM17.252 17.4077L19.0319 19.1632C19.9744 18.2076 20.4199 16.9945 20.4199 15.71H17.9199H15.4199C15.4199 15.7435 15.4172 15.7588 15.4171 15.7591C15.4171 15.7593 15.4176 15.7565 15.4191 15.751C15.4207 15.7455 15.4231 15.7382 15.4265 15.7293C15.4338 15.7107 15.4436 15.692 15.4543 15.6756C15.465 15.6594 15.4725 15.6517 15.472 15.6522L17.252 17.4077ZM15.3594 18.085V20.585C16.6433 20.585 17.992 20.2176 19.0319 19.1632L17.252 17.4077L15.472 15.6522C15.4961 15.6277 15.5237 15.6057 15.5516 15.5881C15.5791 15.5708 15.5982 15.5634 15.6025 15.5618C15.6091 15.5595 15.5412 15.585 15.3594 15.585V18.085ZM13.4761 17.4077L11.6839 19.1508C12.7222 20.2182 14.0775 20.585 15.3594 20.585V18.085V15.585C15.1772 15.585 15.1117 15.5593 15.1222 15.5631C15.1287 15.5655 15.1504 15.5741 15.1806 15.5933C15.2113 15.6128 15.2416 15.6373 15.2682 15.6647L13.4761 17.4077ZM12.8174 15.71H10.3174C10.3174 16.9839 10.7524 18.193 11.6839 19.1508L13.4761 17.4077L15.2682 15.6647C15.2681 15.6645 15.2701 15.6666 15.2736 15.6709C15.277 15.6753 15.2815 15.6813 15.2865 15.689C15.297 15.7052 15.3061 15.7231 15.3128 15.7404C15.3194 15.7574 15.321 15.7668 15.3206 15.765C15.3202 15.7627 15.3174 15.7454 15.3174 15.71H12.8174ZM13.2957 41V43.5H17.4045V41V38.5H13.2957V41ZM13.0957 21.1238H10.5957V40.8H13.0957H15.5957V21.1238H13.0957ZM17.4045 20.9238V18.4238H13.2957V20.9238V23.4238H17.4045V20.9238ZM17.6045 40.8H20.1045V21.1238H17.6045H15.1045V40.8H17.6045ZM28.2902 21.1126L25.7941 21.2524L25.8849 22.8736L28.381 22.7338L30.8771 22.594L30.7863 20.9729L28.2902 21.1126ZM24.2306 20.9238V23.4238H28.0905V20.9238V18.4238H24.2306V20.9238ZM24.0306 40.8H26.5306V21.1238H24.0306H21.5306V40.8H24.0306ZM28.3394 41V38.5H24.2306V41V43.5H28.3394V41ZM28.5394 26.7636H26.0394V40.8H28.5394H31.0394V26.7636H28.5394ZM32.6029 24.2451V21.7451C31.317 21.7451 30.0718 22.0374 28.9557 22.7071C27.8425 23.3748 26.9956 24.3349 26.3747 25.4608L28.5638 26.6682L30.753 27.8755C31.0229 27.386 31.2946 27.1346 31.5278 26.9947C31.758 26.8566 32.0869 26.7451 32.6029 26.7451V24.2451ZM35.3026 25.1636L37.1617 23.4922C35.9374 22.1303 34.1944 21.7451 32.6029 21.7451V24.2451V26.7451C33.0347 26.7451 33.2859 26.7994 33.4096 26.8415C33.5177 26.8783 33.4958 26.8932 33.4434 26.8349L35.3026 25.1636ZM36.1283 27.9932H38.6283C38.6283 26.4265 38.2997 24.7581 37.1617 23.4922L35.3026 25.1636L33.4434 26.8349C33.4063 26.7937 33.6283 27.0116 33.6283 27.9932H36.1283ZM36.1283 40.8H38.6283V27.9932H36.1283H33.6283V40.8H36.1283ZM40.437 41V38.5H36.3283V41V43.5H40.437V41ZM40.637 27.7334H38.137V40.8H40.637H43.137V27.7334H40.637ZM34.2542 20.5527V23.0527C35.8621 23.0527 36.6625 23.4973 37.1172 24.0088C37.6267 24.582 38.1051 25.6903 38.1373 27.7722L40.637 27.7334L43.1367 27.6946C43.0948 24.9893 42.4723 22.5073 40.8542 20.687C39.1813 18.805 36.8274 18.0527 34.2542 18.0527V20.5527ZM28.7465 22.8599L30.5726 24.5673C31.5067 23.5683 32.6655 23.0527 34.2542 23.0527V20.5527V18.0527C31.3755 18.0527 28.8625 19.0753 26.9203 21.1525L28.7465 22.8599ZM40.437 41V43.5C41.9282 43.5 43.137 42.2912 43.137 40.8H40.637H38.137C38.137 39.5297 39.1668 38.5 40.437 38.5V41ZM28.5394 26.7636H31.0394C31.0394 27.1463 30.9438 27.5295 30.753 27.8755L28.5638 26.6682L26.3747 25.4608C26.1517 25.8651 26.0394 26.3143 26.0394 26.7636H28.5394ZM28.3394 41V43.5C29.8306 43.5 31.0394 42.2912 31.0394 40.8H28.5394H26.0394C26.0394 39.5297 27.0691 38.5 28.3394 38.5V41ZM24.0306 40.8H21.5306C21.5306 42.2912 22.7394 43.5 24.2306 43.5V41V38.5C25.5009 38.5 26.5306 39.5297 26.5306 40.8H24.0306ZM24.2306 20.9238V18.4238C22.7394 18.4238 21.5306 19.6327 21.5306 21.1238H24.0306H26.5306C26.5306 22.3941 25.5009 23.4238 24.2306 23.4238V20.9238ZM28.381 22.7338L25.8849 22.8736C26.0272 25.4145 29.0575 26.1877 30.5726 24.5673L28.7465 22.8599L26.9203 21.1525C28.1869 19.7978 30.7551 20.4163 30.8771 22.594L28.381 22.7338ZM28.2902 21.1126L30.7863 20.9729C30.7062 19.5426 29.523 18.4238 28.0905 18.4238V20.9238V23.4238C26.8702 23.4238 25.8623 22.4708 25.7941 21.2524L28.2902 21.1126ZM17.4045 20.9238V23.4238C16.1342 23.4238 15.1045 22.3941 15.1045 21.1238H17.6045H20.1045C20.1045 19.6327 18.8957 18.4238 17.4045 18.4238V20.9238ZM36.1283 40.8H33.6283C33.6283 42.2912 34.8371 43.5 36.3283 43.5V41V38.5C37.5985 38.5 38.6283 39.5297 38.6283 40.8H36.1283ZM13.0957 21.1238H15.5957C15.5957 22.3941 14.566 23.4238 13.2957 23.4238V20.9238V18.4238C11.8045 18.4238 10.5957 19.6327 10.5957 21.1238H13.0957ZM17.4045 41V43.5C18.8957 43.5 20.1045 42.2912 20.1045 40.8H17.6045H15.1045C15.1045 39.5297 16.1342 38.5 17.4045 38.5V41ZM13.2957 41V38.5C14.566 38.5 15.5957 39.5298 15.5957 40.8H13.0957H10.5957C10.5957 42.2912 11.8045 43.5 13.2957 43.5V41Z" fill="white" mask="url(#path-2-outside-1_638_5703)"/>
</g>
</g>
</svg>
