<svg width="370" height="370" viewBox="0 0 370 370" fill="none" xmlns="http://www.w3.org/2000/svg">
<g filter="url(#filter0_d)">
<circle cx="184.8" cy="179.8" r="172.8" fill="#D8AC9B"/>
</g>
<path d="M166.469 78.9407C166.469 81.1803 166.073 83.1438 165.281 84.8313C164.49 86.5188 163.354 87.8209 161.875 88.7375C160.406 89.6542 158.719 90.1125 156.812 90.1125C154.927 90.1125 153.245 89.6594 151.766 88.7532C150.286 87.8469 149.141 86.5553 148.328 84.8782C147.516 83.1907 147.104 81.2532 147.094 79.0657V77.9407C147.094 75.7011 147.495 73.7323 148.297 72.0344C149.109 70.3261 150.25 69.0188 151.719 68.1125C153.198 67.1959 154.885 66.7375 156.781 66.7375C158.677 66.7375 160.359 67.1959 161.828 68.1125C163.307 69.0188 164.448 70.3261 165.25 72.0344C166.062 73.7323 166.469 75.6959 166.469 77.925V78.9407ZM161.719 77.9094C161.719 75.524 161.292 73.7115 160.438 72.4719C159.583 71.2323 158.365 70.6125 156.781 70.6125C155.208 70.6125 153.995 71.2271 153.141 72.4563C152.286 73.675 151.854 75.4667 151.844 77.8313V78.9407C151.844 81.2636 152.271 83.0657 153.125 84.3469C153.979 85.6282 155.208 86.2688 156.812 86.2688C158.385 86.2688 159.594 85.6542 160.438 84.425C161.281 83.1855 161.708 81.3834 161.719 79.0188V77.9094Z" fill="white"/>
<path d="M179.078 77.1282C178.464 77.0448 177.922 77.0032 177.453 77.0032C175.745 77.0032 174.625 77.5813 174.094 78.7375V89.8H169.578V72.8938H173.844L173.969 74.9094C174.875 73.3573 176.13 72.5813 177.734 72.5813C178.234 72.5813 178.703 72.649 179.141 72.7844L179.078 77.1282Z" fill="white"/>
<path d="M180.25 81.2219C180.25 78.5865 180.839 76.4875 182.016 74.925C183.203 73.3625 184.823 72.5813 186.875 72.5813C188.521 72.5813 189.88 73.1959 190.953 74.425V65.8H195.484V89.8H191.406L191.188 88.0032C190.062 89.4094 188.615 90.1125 186.844 90.1125C184.854 90.1125 183.255 89.3313 182.047 87.7688C180.849 86.1959 180.25 84.0136 180.25 81.2219ZM184.766 81.55C184.766 83.1334 185.042 84.3469 185.594 85.1907C186.146 86.0344 186.948 86.4563 188 86.4563C189.396 86.4563 190.38 85.8678 190.953 84.6907V78.0188C190.391 76.8417 189.417 76.2532 188.031 76.2532C185.854 76.2532 184.766 78.0188 184.766 81.55Z" fill="white"/>
<path d="M206.766 90.1125C204.286 90.1125 202.266 89.3521 200.703 87.8313C199.151 86.3105 198.375 84.2844 198.375 81.7532V81.3157C198.375 79.6178 198.703 78.1021 199.359 76.7688C200.016 75.425 200.943 74.3938 202.141 73.675C203.349 72.9459 204.724 72.5813 206.266 72.5813C208.578 72.5813 210.396 73.3105 211.719 74.7688C213.052 76.2271 213.719 78.2948 213.719 80.9719V82.8157H202.953C203.099 83.9198 203.536 84.8053 204.266 85.4719C205.005 86.1386 205.938 86.4719 207.062 86.4719C208.802 86.4719 210.161 85.8417 211.141 84.5813L213.359 87.0657C212.682 88.024 211.766 88.774 210.609 89.3157C209.453 89.8469 208.172 90.1125 206.766 90.1125ZM206.25 76.2375C205.354 76.2375 204.625 76.5396 204.062 77.1438C203.51 77.748 203.156 78.6125 203 79.7375H209.281V79.3782C209.26 78.3782 208.99 77.6073 208.469 77.0657C207.948 76.5136 207.208 76.2375 206.25 76.2375Z" fill="white"/>
<path d="M225.797 77.1282C225.182 77.0448 224.641 77.0032 224.172 77.0032C222.464 77.0032 221.344 77.5813 220.812 78.7375V89.8H216.297V72.8938H220.562L220.688 74.9094C221.594 73.3573 222.849 72.5813 224.453 72.5813C224.953 72.5813 225.422 72.649 225.859 72.7844L225.797 77.1282Z" fill="white"/>
<path d="M109.375 120.222C109.198 122.67 108.292 124.597 106.656 126.003C105.031 127.409 102.885 128.113 100.219 128.113C97.3021 128.113 95.0052 127.133 93.3281 125.175C91.6615 123.206 90.8281 120.508 90.8281 117.081V115.691C90.8281 113.503 91.2135 111.576 91.9844 109.909C92.7552 108.243 93.8542 106.967 95.2812 106.081C96.7188 105.185 98.3854 104.738 100.281 104.738C102.906 104.738 105.021 105.441 106.625 106.847C108.229 108.253 109.156 110.227 109.406 112.769H104.719C104.604 111.3 104.193 110.238 103.484 109.581C102.786 108.915 101.719 108.581 100.281 108.581C98.7188 108.581 97.5469 109.144 96.7656 110.269C95.9948 111.383 95.599 113.118 95.5781 115.472V117.191C95.5781 119.649 95.9479 121.446 96.6875 122.581C97.4375 123.717 98.6146 124.284 100.219 124.284C101.667 124.284 102.745 123.956 103.453 123.3C104.172 122.633 104.583 121.607 104.688 120.222H109.375Z" fill="white"/>
<path d="M111.453 119.191C111.453 117.514 111.776 116.019 112.422 114.706C113.068 113.394 113.995 112.378 115.203 111.659C116.422 110.941 117.833 110.581 119.438 110.581C121.719 110.581 123.578 111.279 125.016 112.675C126.464 114.071 127.271 115.967 127.438 118.363L127.469 119.519C127.469 122.113 126.745 124.196 125.297 125.769C123.849 127.331 121.906 128.113 119.469 128.113C117.031 128.113 115.083 127.331 113.625 125.769C112.177 124.206 111.453 122.081 111.453 119.394V119.191ZM115.969 119.519C115.969 121.123 116.271 122.352 116.875 123.206C117.479 124.05 118.344 124.472 119.469 124.472C120.562 124.472 121.417 124.055 122.031 123.222C122.646 122.378 122.953 121.034 122.953 119.191C122.953 117.618 122.646 116.399 122.031 115.534C121.417 114.67 120.552 114.238 119.438 114.238C118.333 114.238 117.479 114.67 116.875 115.534C116.271 116.389 115.969 117.717 115.969 119.519Z" fill="white"/>
<path d="M135.016 127.8H130.484V103.8H135.016V127.8Z" fill="white"/>
<path d="M143.516 127.8H138.984V103.8H143.516V127.8Z" fill="white"/>
<path d="M157.047 127.8C156.839 127.394 156.688 126.889 156.594 126.284C155.5 127.503 154.078 128.113 152.328 128.113C150.672 128.113 149.297 127.633 148.203 126.675C147.12 125.717 146.578 124.508 146.578 123.05C146.578 121.258 147.24 119.883 148.562 118.925C149.896 117.967 151.818 117.482 154.328 117.472H156.406V116.503C156.406 115.722 156.203 115.097 155.797 114.628C155.401 114.159 154.771 113.925 153.906 113.925C153.146 113.925 152.547 114.107 152.109 114.472C151.682 114.837 151.469 115.337 151.469 115.972H146.953C146.953 114.993 147.255 114.087 147.859 113.253C148.464 112.42 149.318 111.769 150.422 111.3C151.526 110.821 152.766 110.581 154.141 110.581C156.224 110.581 157.875 111.107 159.094 112.159C160.323 113.201 160.938 114.67 160.938 116.566V123.894C160.948 125.498 161.172 126.712 161.609 127.534V127.8H157.047ZM153.312 124.659C153.979 124.659 154.594 124.514 155.156 124.222C155.719 123.92 156.135 123.519 156.406 123.019V120.113H154.719C152.458 120.113 151.255 120.894 151.109 122.456L151.094 122.722C151.094 123.284 151.292 123.748 151.688 124.113C152.083 124.477 152.625 124.659 153.312 124.659Z" fill="white"/>
<path d="M179.641 119.503C179.641 122.212 179.062 124.326 177.906 125.847C176.75 127.357 175.135 128.113 173.062 128.113C171.229 128.113 169.766 127.409 168.672 126.003L168.469 127.8H164.406V103.8H168.922V112.409C169.964 111.191 171.333 110.581 173.031 110.581C175.094 110.581 176.708 111.342 177.875 112.863C179.052 114.373 179.641 116.503 179.641 119.253V119.503ZM175.125 119.175C175.125 117.467 174.854 116.222 174.312 115.441C173.771 114.649 172.964 114.253 171.891 114.253C170.453 114.253 169.464 114.842 168.922 116.019V122.691C169.474 123.878 170.474 124.472 171.922 124.472C173.38 124.472 174.339 123.753 174.797 122.316C175.016 121.628 175.125 120.581 175.125 119.175Z" fill="white"/>
<path d="M181.734 119.191C181.734 117.514 182.057 116.019 182.703 114.706C183.349 113.394 184.276 112.378 185.484 111.659C186.703 110.941 188.115 110.581 189.719 110.581C192 110.581 193.859 111.279 195.297 112.675C196.745 114.071 197.552 115.967 197.719 118.363L197.75 119.519C197.75 122.113 197.026 124.196 195.578 125.769C194.13 127.331 192.188 128.113 189.75 128.113C187.312 128.113 185.365 127.331 183.906 125.769C182.458 124.206 181.734 122.081 181.734 119.394V119.191ZM186.25 119.519C186.25 121.123 186.552 122.352 187.156 123.206C187.76 124.05 188.625 124.472 189.75 124.472C190.844 124.472 191.698 124.055 192.312 123.222C192.927 122.378 193.234 121.034 193.234 119.191C193.234 117.618 192.927 116.399 192.312 115.534C191.698 114.67 190.833 114.238 189.719 114.238C188.615 114.238 187.76 114.67 187.156 115.534C186.552 116.389 186.25 117.717 186.25 119.519Z" fill="white"/>
<path d="M210.031 115.128C209.417 115.045 208.875 115.003 208.406 115.003C206.698 115.003 205.578 115.581 205.047 116.738V127.8H200.531V110.894H204.797L204.922 112.909C205.828 111.357 207.083 110.581 208.688 110.581C209.188 110.581 209.656 110.649 210.094 110.784L210.031 115.128Z" fill="white"/>
<path d="M221.547 127.8C221.339 127.394 221.188 126.889 221.094 126.284C220 127.503 218.578 128.113 216.828 128.113C215.172 128.113 213.797 127.633 212.703 126.675C211.62 125.717 211.078 124.508 211.078 123.05C211.078 121.258 211.74 119.883 213.062 118.925C214.396 117.967 216.318 117.482 218.828 117.472H220.906V116.503C220.906 115.722 220.703 115.097 220.297 114.628C219.901 114.159 219.271 113.925 218.406 113.925C217.646 113.925 217.047 114.107 216.609 114.472C216.182 114.837 215.969 115.337 215.969 115.972H211.453C211.453 114.993 211.755 114.087 212.359 113.253C212.964 112.42 213.818 111.769 214.922 111.3C216.026 110.821 217.266 110.581 218.641 110.581C220.724 110.581 222.375 111.107 223.594 112.159C224.823 113.201 225.438 114.67 225.438 116.566V123.894C225.448 125.498 225.672 126.712 226.109 127.534V127.8H221.547ZM217.812 124.659C218.479 124.659 219.094 124.514 219.656 124.222C220.219 123.92 220.635 123.519 220.906 123.019V120.113H219.219C216.958 120.113 215.755 120.894 215.609 122.456L215.594 122.722C215.594 123.284 215.792 123.748 216.188 124.113C216.583 124.477 217.125 124.659 217.812 124.659Z" fill="white"/>
<path d="M234.312 106.738V110.894H237.203V114.206H234.312V122.644C234.312 123.269 234.432 123.717 234.672 123.988C234.911 124.258 235.37 124.394 236.047 124.394C236.547 124.394 236.99 124.357 237.375 124.284V127.706C236.49 127.977 235.578 128.113 234.641 128.113C231.474 128.113 229.859 126.514 229.797 123.316V114.206H227.328V110.894H229.797V106.738H234.312Z" fill="white"/>
<path d="M244.484 127.8H239.953V110.894H244.484V127.8ZM239.688 106.519C239.688 105.842 239.911 105.284 240.359 104.847C240.818 104.409 241.438 104.191 242.219 104.191C242.99 104.191 243.604 104.409 244.062 104.847C244.521 105.284 244.75 105.842 244.75 106.519C244.75 107.206 244.516 107.769 244.047 108.206C243.589 108.644 242.979 108.863 242.219 108.863C241.458 108.863 240.844 108.644 240.375 108.206C239.917 107.769 239.688 107.206 239.688 106.519Z" fill="white"/>
<path d="M247.516 119.191C247.516 117.514 247.839 116.019 248.484 114.706C249.13 113.394 250.057 112.378 251.266 111.659C252.484 110.941 253.896 110.581 255.5 110.581C257.781 110.581 259.641 111.279 261.078 112.675C262.526 114.071 263.333 115.967 263.5 118.363L263.531 119.519C263.531 122.113 262.807 124.196 261.359 125.769C259.911 127.331 257.969 128.113 255.531 128.113C253.094 128.113 251.146 127.331 249.688 125.769C248.24 124.206 247.516 122.081 247.516 119.394V119.191ZM252.031 119.519C252.031 121.123 252.333 122.352 252.938 123.206C253.542 124.05 254.406 124.472 255.531 124.472C256.625 124.472 257.479 124.055 258.094 123.222C258.708 122.378 259.016 121.034 259.016 119.191C259.016 117.618 258.708 116.399 258.094 115.534C257.479 114.67 256.615 114.238 255.5 114.238C254.396 114.238 253.542 114.67 252.938 115.534C252.333 116.389 252.031 117.717 252.031 119.519Z" fill="white"/>
<path d="M270.469 110.894L270.609 112.847C271.818 111.337 273.438 110.581 275.469 110.581C277.26 110.581 278.594 111.107 279.469 112.159C280.344 113.212 280.792 114.784 280.812 116.878V127.8H276.297V116.988C276.297 116.029 276.089 115.337 275.672 114.909C275.255 114.472 274.562 114.253 273.594 114.253C272.323 114.253 271.37 114.795 270.734 115.878V127.8H266.219V110.894H270.469Z" fill="white"/>
<circle cx="148.026" cy="174.923" r="18.9231" stroke="white" stroke-width="3"/>
<path d="M127 238C127 238 127.534 212.235 133.308 206.461C137.513 202.256 144.701 202.256 148.026 202.256C152.102 202.256 158.538 202.256 162.744 206.461C168.196 211.914 169.051 238 169.051 238" stroke="white" stroke-width="3" stroke-linecap="round" stroke-linejoin="round"/>
<circle cx="221.615" cy="174.923" r="18.9231" stroke="white" stroke-width="3"/>
<path d="M200.59 238C200.59 238 201.123 212.235 206.897 206.461C211.103 202.256 218.29 202.256 221.615 202.256C225.692 202.256 232.128 202.256 236.333 206.461C241.786 211.914 242.641 238 242.641 238" stroke="white" stroke-width="3" stroke-linecap="round" stroke-linejoin="round"/>
<path d="M175.359 194.897H194.282L191.128 189.641" stroke="white" stroke-width="2" stroke-linecap="round" stroke-linejoin="round"/>
<path d="M194.282 200.154H175.359L178.513 205.41" stroke="white" stroke-width="2" stroke-linecap="round" stroke-linejoin="round"/>
<path d="M129.418 293.8H127.533L120.375 282.843V293.8H118.49V279.581H120.375L127.553 290.587V279.581H129.418V293.8Z" fill="white"/>
<path d="M142.758 279.581V289.249C142.751 290.59 142.328 291.687 141.488 292.54C140.655 293.393 139.522 293.872 138.09 293.976L137.592 293.995C136.036 293.995 134.796 293.575 133.871 292.736C132.947 291.896 132.478 290.74 132.465 289.269V279.581H134.32V289.21C134.32 290.239 134.604 291.04 135.17 291.613C135.736 292.179 136.544 292.462 137.592 292.462C138.653 292.462 139.464 292.179 140.023 291.613C140.59 291.046 140.873 290.249 140.873 289.22V279.581H142.758Z" fill="white"/>
<path d="M147.602 292.267H154.34V293.8H145.717V279.581H147.602V292.267Z" fill="white"/>
<path d="M166.771 287.15C166.771 288.543 166.537 289.76 166.068 290.802C165.6 291.837 164.936 292.628 164.076 293.175C163.217 293.722 162.214 293.995 161.068 293.995C159.949 293.995 158.956 293.722 158.09 293.175C157.224 292.622 156.55 291.837 156.068 290.822C155.593 289.799 155.349 288.618 155.336 287.277V286.251C155.336 284.884 155.574 283.676 156.049 282.628C156.524 281.58 157.195 280.779 158.061 280.226C158.933 279.666 159.929 279.386 161.049 279.386C162.188 279.386 163.191 279.663 164.057 280.216C164.929 280.763 165.6 281.56 166.068 282.609C166.537 283.65 166.771 284.865 166.771 286.251V287.15ZM164.906 286.232C164.906 284.545 164.568 283.253 163.891 282.355C163.214 281.45 162.266 280.997 161.049 280.997C159.864 280.997 158.93 281.45 158.246 282.355C157.569 283.253 157.221 284.503 157.201 286.105V287.15C157.201 288.784 157.543 290.07 158.227 291.007C158.917 291.938 159.864 292.404 161.068 292.404C162.279 292.404 163.217 291.964 163.881 291.085C164.545 290.2 164.887 288.934 164.906 287.286V286.232Z" fill="white"/>
<path d="M180.082 291.935C179.6 292.625 178.926 293.142 178.061 293.488C177.201 293.826 176.199 293.995 175.053 293.995C173.894 293.995 172.865 293.725 171.967 293.185C171.068 292.638 170.372 291.863 169.877 290.861C169.389 289.858 169.138 288.696 169.125 287.374V286.134C169.125 283.992 169.623 282.332 170.619 281.154C171.622 279.975 173.028 279.386 174.838 279.386C176.322 279.386 177.517 279.767 178.422 280.529C179.327 281.284 179.88 282.358 180.082 283.751H178.207C177.855 281.87 176.736 280.929 174.848 280.929C173.591 280.929 172.637 281.372 171.986 282.257C171.342 283.136 171.016 284.412 171.01 286.085V287.247C171.01 288.842 171.374 290.112 172.104 291.056C172.833 291.993 173.819 292.462 175.062 292.462C175.766 292.462 176.381 292.384 176.908 292.228C177.436 292.072 177.872 291.808 178.217 291.437V288.243H174.926V286.72H180.082V291.935Z" fill="white"/>
<path d="M187.553 286.72L191.264 279.581H193.393L188.49 288.497V293.8H186.615V288.497L181.713 279.581H183.861L187.553 286.72Z" fill="white"/>
<path d="M199.887 286.261C199.887 285.695 200.066 285.229 200.424 284.865C200.788 284.5 201.27 284.318 201.869 284.318C202.462 284.318 202.943 284.497 203.314 284.855C203.686 285.206 203.871 285.685 203.871 286.29V286.652C203.871 287.218 203.692 287.68 203.334 288.038C202.976 288.396 202.491 288.575 201.879 288.575C201.273 288.575 200.788 288.396 200.424 288.038C200.066 287.674 199.887 287.205 199.887 286.632V286.261Z" fill="white"/>
<path d="M220.736 293.8H211.42V292.501L216.342 287.032C217.071 286.206 217.572 285.535 217.846 285.021C218.126 284.5 218.266 283.963 218.266 283.409C218.266 282.667 218.041 282.059 217.592 281.583C217.143 281.108 216.544 280.87 215.795 280.87C214.896 280.87 214.197 281.128 213.695 281.642C213.201 282.15 212.953 282.859 212.953 283.771H211.146C211.146 282.462 211.566 281.404 212.406 280.597C213.253 279.79 214.382 279.386 215.795 279.386C217.117 279.386 218.161 279.734 218.93 280.431C219.698 281.121 220.082 282.042 220.082 283.195C220.082 284.594 219.19 286.261 217.406 288.195L213.598 292.325H220.736V293.8Z" fill="white"/>
<path d="M231.566 287.736C231.566 289.851 231.205 291.424 230.482 292.452C229.76 293.481 228.63 293.995 227.094 293.995C225.577 293.995 224.454 293.494 223.725 292.491C222.995 291.482 222.618 289.978 222.592 287.98V285.568C222.592 283.478 222.953 281.925 223.676 280.909C224.398 279.894 225.531 279.386 227.074 279.386C228.604 279.386 229.73 279.878 230.453 280.861C231.176 281.837 231.547 283.348 231.566 285.392V287.736ZM229.76 285.265C229.76 283.735 229.545 282.622 229.115 281.925C228.686 281.222 228.005 280.87 227.074 280.87C226.15 280.87 225.476 281.219 225.053 281.915C224.63 282.612 224.411 283.683 224.398 285.128V288.019C224.398 289.555 224.62 290.691 225.062 291.427C225.512 292.156 226.189 292.521 227.094 292.521C227.986 292.521 228.646 292.176 229.076 291.486C229.512 290.795 229.74 289.708 229.76 288.224V285.265Z" fill="white"/>
<path d="M239.818 293.8H238.002V281.759L234.359 283.097V281.456L239.535 279.513H239.818V293.8Z" fill="white"/>
<path d="M252.035 287.55C251.658 287.999 251.205 288.361 250.678 288.634C250.157 288.907 249.584 289.044 248.959 289.044C248.139 289.044 247.423 288.842 246.811 288.439C246.205 288.035 245.736 287.469 245.404 286.74C245.072 286.004 244.906 285.193 244.906 284.308C244.906 283.357 245.085 282.501 245.443 281.74C245.808 280.978 246.322 280.395 246.986 279.991C247.65 279.588 248.425 279.386 249.311 279.386C250.717 279.386 251.824 279.913 252.631 280.968C253.445 282.016 253.852 283.448 253.852 285.265V285.792C253.852 288.559 253.305 290.581 252.211 291.857C251.117 293.126 249.467 293.777 247.26 293.81H246.908V292.286H247.289C248.78 292.26 249.926 291.873 250.727 291.124C251.527 290.369 251.964 289.178 252.035 287.55ZM249.252 287.55C249.857 287.55 250.414 287.365 250.922 286.993C251.436 286.622 251.811 286.163 252.045 285.616V284.894C252.045 283.709 251.788 282.745 251.273 282.003C250.759 281.261 250.108 280.89 249.32 280.89C248.526 280.89 247.888 281.196 247.406 281.808C246.924 282.413 246.684 283.214 246.684 284.21C246.684 285.18 246.915 285.981 247.377 286.613C247.846 287.238 248.471 287.55 249.252 287.55Z" fill="white"/>
<defs>
<filter id="filter0_d" x="0" y="0" width="369.6" height="369.6" filterUnits="userSpaceOnUse" color-interpolation-filters="sRGB">
<feFlood flood-opacity="0" result="BackgroundImageFix"/>
<feColorMatrix in="SourceAlpha" type="matrix" values="0 0 0 0 0 0 0 0 0 0 0 0 0 0 0 0 0 0 127 0"/>
<feOffset dy="5"/>
<feGaussianBlur stdDeviation="6"/>
<feColorMatrix type="matrix" values="0 0 0 0 0.552941 0 0 0 0 0.552941 0 0 0 0 0.552941 0 0 0 0.5 0"/>
<feBlend mode="normal" in2="BackgroundImageFix" result="effect1_dropShadow"/>
<feBlend mode="normal" in="SourceGraphic" in2="effect1_dropShadow" result="shape"/>
</filter>
</defs>
</svg>
