<svg width="370" height="370" viewBox="0 0 370 370" fill="none" xmlns="http://www.w3.org/2000/svg">
<g filter="url(#filter0_d_626_5665)">
<circle cx="184.8" cy="179.8" r="172.8" fill="url(#paint0_linear_626_5665)"/>
</g>
<path d="M154.27 90.1C152.43 90.1 150.81 89.78 149.41 89.14C148.01 88.48 146.83 87.61 145.87 86.53C144.93 85.43 144.22 84.2 143.74 82.84C143.28 81.48 143.05 80.09 143.05 78.67C143.05 77.25 143.28 75.87 143.74 74.53C144.22 73.17 144.93 71.95 145.87 70.87C146.83 69.79 148.01 68.93 149.41 68.29C150.81 67.63 152.43 67.3 154.27 67.3C156.13 67.3 157.76 67.63 159.16 68.29C160.56 68.93 161.73 69.79 162.67 70.87C163.61 71.95 164.31 73.17 164.77 74.53C165.25 75.87 165.49 77.25 165.49 78.67C165.49 80.09 165.25 81.48 164.77 82.84C164.31 84.2 163.61 85.43 162.67 86.53C161.73 87.61 160.56 88.48 159.16 89.14C157.76 89.78 156.13 90.1 154.27 90.1ZM154.27 85.93C155.67 85.93 156.85 85.58 157.81 84.88C158.77 84.18 159.49 83.28 159.97 82.18C160.45 81.06 160.69 79.89 160.69 78.67C160.69 77.45 160.45 76.29 159.97 75.19C159.49 74.09 158.77 73.19 157.81 72.49C156.85 71.79 155.67 71.44 154.27 71.44C152.87 71.44 151.69 71.79 150.73 72.49C149.79 73.19 149.08 74.09 148.6 75.19C148.12 76.29 147.88 77.45 147.88 78.67C147.88 79.89 148.12 81.06 148.6 82.18C149.08 83.28 149.79 84.18 150.73 84.88C151.69 85.58 152.87 85.93 154.27 85.93ZM168.433 89.8V73.9H172.963V76.21H173.113C173.293 75.79 173.543 75.38 173.863 74.98C174.183 74.58 174.623 74.25 175.183 73.99C175.743 73.73 176.463 73.6 177.343 73.6C177.783 73.6 178.133 73.63 178.393 73.69C178.653 73.73 178.783 73.75 178.783 73.75V78.25C178.783 78.25 178.633 78.22 178.333 78.16C178.053 78.1 177.683 78.07 177.223 78.07C175.803 78.07 174.743 78.46 174.043 79.24C173.343 80 172.993 81.25 172.993 82.99V89.8H168.433ZM187.401 90.1C186.221 90.1 185.191 89.87 184.311 89.41C183.451 88.93 182.731 88.3 182.151 87.52C181.571 86.72 181.131 85.83 180.831 84.85C180.551 83.87 180.411 82.87 180.411 81.85C180.411 80.83 180.551 79.83 180.831 78.85C181.131 77.87 181.571 76.99 182.151 76.21C182.731 75.41 183.451 74.78 184.311 74.32C185.191 73.84 186.221 73.6 187.401 73.6C188.421 73.6 189.261 73.77 189.921 74.11C190.581 74.43 191.081 74.78 191.421 75.16C191.781 75.54 192.001 75.8 192.081 75.94H192.321V67H196.881V89.8H192.321V87.76H192.081C192.001 87.9 191.781 88.16 191.421 88.54C191.081 88.92 190.581 89.28 189.921 89.62C189.261 89.94 188.421 90.1 187.401 90.1ZM188.721 86.41C189.541 86.41 190.221 86.19 190.761 85.75C191.321 85.29 191.731 84.71 191.991 84.01C192.271 83.31 192.411 82.59 192.411 81.85C192.411 81.11 192.271 80.39 191.991 79.69C191.731 78.99 191.321 78.42 190.761 77.98C190.221 77.52 189.541 77.29 188.721 77.29C187.901 77.29 187.211 77.52 186.651 77.98C186.111 78.42 185.701 78.99 185.421 79.69C185.161 80.39 185.031 81.11 185.031 81.85C185.031 82.59 185.161 83.31 185.421 84.01C185.701 84.71 186.111 85.29 186.651 85.75C187.211 86.19 187.901 86.41 188.721 86.41ZM208.404 90.1C207.004 90.1 205.794 89.87 204.774 89.41C203.754 88.93 202.914 88.3 202.254 87.52C201.594 86.72 201.094 85.83 200.754 84.85C200.434 83.87 200.274 82.86 200.274 81.82C200.274 80.82 200.424 79.84 200.724 78.88C201.044 77.9 201.524 77.01 202.164 76.21C202.824 75.41 203.654 74.78 204.654 74.32C205.674 73.84 206.874 73.6 208.254 73.6C209.714 73.6 211.004 73.92 212.124 74.56C213.264 75.2 214.154 76.15 214.794 77.41C215.434 78.65 215.754 80.16 215.754 81.94V83.05H204.864C204.924 84.01 205.254 84.84 205.854 85.54C206.474 86.24 207.324 86.59 208.404 86.59C209.024 86.59 209.524 86.5 209.904 86.32C210.304 86.12 210.614 85.9 210.834 85.66C211.054 85.4 211.204 85.17 211.284 84.97C211.364 84.77 211.404 84.67 211.404 84.67H215.604C215.604 84.67 215.554 84.86 215.454 85.24C215.374 85.6 215.194 86.05 214.914 86.59C214.634 87.13 214.224 87.67 213.684 88.21C213.164 88.75 212.474 89.2 211.614 89.56C210.754 89.92 209.684 90.1 208.404 90.1ZM204.864 80.29H211.374C211.314 79.19 210.984 78.37 210.384 77.83C209.784 77.29 209.044 77.02 208.164 77.02C207.284 77.02 206.534 77.31 205.914 77.89C205.294 78.45 204.944 79.25 204.864 80.29ZM219.029 89.8V73.9H223.559V76.21H223.709C223.889 75.79 224.139 75.38 224.459 74.98C224.779 74.58 225.219 74.25 225.779 73.99C226.339 73.73 227.059 73.6 227.939 73.6C228.379 73.6 228.729 73.63 228.989 73.69C229.249 73.73 229.379 73.75 229.379 73.75V78.25C229.379 78.25 229.229 78.22 228.929 78.16C228.649 78.1 228.279 78.07 227.819 78.07C226.399 78.07 225.339 78.46 224.639 79.24C223.939 80 223.589 81.25 223.589 82.99V89.8H219.029ZM92.8145 128.1C90.9745 128.1 89.3645 127.78 87.9845 127.14C86.6245 126.48 85.4845 125.61 84.5645 124.53C83.6445 123.43 82.9545 122.2 82.4945 120.84C82.0345 119.48 81.8045 118.09 81.8045 116.67C81.8045 115.27 82.0345 113.89 82.4945 112.53C82.9545 111.17 83.6445 109.95 84.5645 108.87C85.4845 107.77 86.6245 106.9 87.9845 106.26C89.3645 105.62 90.9745 105.3 92.8145 105.3C94.3545 105.3 95.6645 105.5 96.7445 105.9C97.8445 106.28 98.7545 106.78 99.4745 107.4C100.215 108 100.805 108.65 101.245 109.35C101.705 110.03 102.045 110.68 102.265 111.3C102.485 111.9 102.625 112.4 102.685 112.8C102.765 113.18 102.805 113.37 102.805 113.37H98.2145C98.2145 113.37 98.1745 113.24 98.0945 112.98C98.0345 112.7 97.9045 112.37 97.7045 111.99C97.5045 111.59 97.2045 111.2 96.8045 110.82C96.4245 110.44 95.9045 110.12 95.2445 109.86C94.6045 109.58 93.8045 109.44 92.8445 109.44C91.4645 109.44 90.3045 109.8 89.3645 110.52C88.4445 111.22 87.7445 112.12 87.2645 113.22C86.8045 114.32 86.5745 115.47 86.5745 116.67C86.5745 117.87 86.8045 119.03 87.2645 120.15C87.7445 121.25 88.4445 122.16 89.3645 122.88C90.3045 123.58 91.4645 123.93 92.8445 123.93C93.8045 123.93 94.6045 123.8 95.2445 123.54C95.9045 123.28 96.4245 122.96 96.8045 122.58C97.2045 122.18 97.5045 121.79 97.7045 121.41C97.9045 121.01 98.0345 120.68 98.0945 120.42C98.1745 120.16 98.2145 120.03 98.2145 120.03H102.805C102.805 120.03 102.765 120.23 102.685 120.63C102.625 121.01 102.485 121.51 102.265 122.13C102.045 122.73 101.705 123.38 101.245 124.08C100.805 124.76 100.215 125.41 99.4745 126.03C98.7545 126.63 97.8445 127.13 96.7445 127.53C95.6645 127.91 94.3545 128.1 92.8145 128.1ZM113.883 128.1C112.103 128.1 110.593 127.72 109.353 126.96C108.113 126.18 107.163 125.17 106.503 123.93C105.863 122.67 105.543 121.31 105.543 119.85C105.543 118.39 105.863 117.04 106.503 115.8C107.163 114.54 108.113 113.53 109.353 112.77C110.593 111.99 112.103 111.6 113.883 111.6C115.663 111.6 117.173 111.99 118.413 112.77C119.653 113.53 120.593 114.54 121.233 115.8C121.893 117.04 122.223 118.39 122.223 119.85C122.223 121.31 121.893 122.67 121.233 123.93C120.593 125.17 119.653 126.18 118.413 126.96C117.173 127.72 115.663 128.1 113.883 128.1ZM113.883 124.38C114.683 124.38 115.353 124.17 115.893 123.75C116.453 123.33 116.883 122.78 117.183 122.1C117.483 121.4 117.633 120.65 117.633 119.85C117.633 119.03 117.483 118.28 117.183 117.6C116.883 116.92 116.453 116.37 115.893 115.95C115.353 115.53 114.683 115.32 113.883 115.32C113.083 115.32 112.403 115.53 111.843 115.95C111.283 116.37 110.853 116.92 110.553 117.6C110.273 118.28 110.133 119.03 110.133 119.85C110.133 120.65 110.273 121.4 110.553 122.1C110.853 122.78 111.283 123.33 111.843 123.75C112.403 124.17 113.083 124.38 113.883 124.38ZM125.623 127.8V105H130.183V127.8H125.623ZM134.266 127.8V105H138.826V127.8H134.266ZM149.212 111.6C150.232 111.6 151.072 111.77 151.732 112.11C152.392 112.43 152.892 112.78 153.232 113.16C153.592 113.54 153.812 113.8 153.892 113.94H154.132V111.9H158.692V127.8H154.132V125.76H153.892C153.812 125.9 153.592 126.16 153.232 126.54C152.892 126.92 152.392 127.28 151.732 127.62C151.072 127.94 150.232 128.1 149.212 128.1C148.032 128.1 147.002 127.87 146.122 127.41C145.262 126.93 144.542 126.3 143.962 125.52C143.382 124.72 142.942 123.83 142.642 122.85C142.362 121.87 142.222 120.87 142.222 119.85C142.222 118.83 142.362 117.83 142.642 116.85C142.942 115.87 143.382 114.99 143.962 114.21C144.542 113.41 145.262 112.78 146.122 112.32C147.002 111.84 148.032 111.6 149.212 111.6ZM150.532 115.29C149.712 115.29 149.022 115.52 148.462 115.98C147.922 116.42 147.512 116.99 147.232 117.69C146.972 118.39 146.842 119.11 146.842 119.85C146.842 120.59 146.972 121.31 147.232 122.01C147.512 122.71 147.922 123.29 148.462 123.75C149.022 124.19 149.712 124.41 150.532 124.41C151.352 124.41 152.032 124.19 152.572 123.75C153.132 123.29 153.542 122.71 153.802 122.01C154.082 121.31 154.222 120.59 154.222 119.85C154.222 119.11 154.082 118.39 153.802 117.69C153.542 116.99 153.132 116.42 152.572 115.98C152.032 115.52 151.352 115.29 150.532 115.29ZM172.046 128.1C171.026 128.1 170.186 127.94 169.526 127.62C168.866 127.28 168.356 126.92 167.996 126.54C167.656 126.16 167.436 125.9 167.336 125.76H167.126V127.8H162.566V105H167.126V113.94H167.336C167.436 113.8 167.656 113.54 167.996 113.16C168.356 112.78 168.866 112.43 169.526 112.11C170.186 111.77 171.026 111.6 172.046 111.6C173.226 111.6 174.246 111.84 175.106 112.32C175.986 112.78 176.716 113.41 177.296 114.21C177.876 114.99 178.306 115.87 178.586 116.85C178.886 117.83 179.036 118.83 179.036 119.85C179.036 120.87 178.886 121.87 178.586 122.85C178.306 123.83 177.876 124.72 177.296 125.52C176.716 126.3 175.986 126.93 175.106 127.41C174.246 127.87 173.226 128.1 172.046 128.1ZM170.726 124.41C171.546 124.41 172.226 124.19 172.766 123.75C173.326 123.29 173.736 122.71 173.996 122.01C174.276 121.31 174.416 120.59 174.416 119.85C174.416 119.11 174.276 118.39 173.996 117.69C173.736 116.99 173.326 116.42 172.766 115.98C172.226 115.52 171.546 115.29 170.726 115.29C169.906 115.29 169.216 115.52 168.656 115.98C168.116 116.42 167.706 116.99 167.426 117.69C167.166 118.39 167.036 119.11 167.036 119.85C167.036 120.59 167.166 121.31 167.426 122.01C167.706 122.71 168.116 123.29 168.656 123.75C169.216 124.19 169.906 124.41 170.726 124.41ZM190.289 128.1C188.509 128.1 186.999 127.72 185.759 126.96C184.519 126.18 183.569 125.17 182.909 123.93C182.269 122.67 181.949 121.31 181.949 119.85C181.949 118.39 182.269 117.04 182.909 115.8C183.569 114.54 184.519 113.53 185.759 112.77C186.999 111.99 188.509 111.6 190.289 111.6C192.069 111.6 193.579 111.99 194.819 112.77C196.059 113.53 196.999 114.54 197.639 115.8C198.299 117.04 198.629 118.39 198.629 119.85C198.629 121.31 198.299 122.67 197.639 123.93C196.999 125.17 196.059 126.18 194.819 126.96C193.579 127.72 192.069 128.1 190.289 128.1ZM190.289 124.38C191.089 124.38 191.759 124.17 192.299 123.75C192.859 123.33 193.289 122.78 193.589 122.1C193.889 121.4 194.039 120.65 194.039 119.85C194.039 119.03 193.889 118.28 193.589 117.6C193.289 116.92 192.859 116.37 192.299 115.95C191.759 115.53 191.089 115.32 190.289 115.32C189.489 115.32 188.809 115.53 188.249 115.95C187.689 116.37 187.259 116.92 186.959 117.6C186.679 118.28 186.539 119.03 186.539 119.85C186.539 120.65 186.679 121.4 186.959 122.1C187.259 122.78 187.689 123.33 188.249 123.75C188.809 124.17 189.489 124.38 190.289 124.38ZM201.905 127.8V111.9H206.435V114.21H206.585C206.765 113.79 207.015 113.38 207.335 112.98C207.655 112.58 208.095 112.25 208.655 111.99C209.215 111.73 209.935 111.6 210.815 111.6C211.255 111.6 211.605 111.63 211.865 111.69C212.125 111.73 212.255 111.75 212.255 111.75V116.25C212.255 116.25 212.105 116.22 211.805 116.16C211.525 116.1 211.155 116.07 210.695 116.07C209.275 116.07 208.215 116.46 207.515 117.24C206.815 118 206.465 119.25 206.465 120.99V127.8H201.905ZM220.873 111.6C221.893 111.6 222.733 111.77 223.393 112.11C224.053 112.43 224.553 112.78 224.893 113.16C225.253 113.54 225.473 113.8 225.553 113.94H225.793V111.9H230.353V127.8H225.793V125.76H225.553C225.473 125.9 225.253 126.16 224.893 126.54C224.553 126.92 224.053 127.28 223.393 127.62C222.733 127.94 221.893 128.1 220.873 128.1C219.693 128.1 218.663 127.87 217.783 127.41C216.923 126.93 216.203 126.3 215.623 125.52C215.043 124.72 214.603 123.83 214.303 122.85C214.023 121.87 213.883 120.87 213.883 119.85C213.883 118.83 214.023 117.83 214.303 116.85C214.603 115.87 215.043 114.99 215.623 114.21C216.203 113.41 216.923 112.78 217.783 112.32C218.663 111.84 219.693 111.6 220.873 111.6ZM222.193 115.29C221.373 115.29 220.683 115.52 220.123 115.98C219.583 116.42 219.173 116.99 218.893 117.69C218.633 118.39 218.503 119.11 218.503 119.85C218.503 120.59 218.633 121.31 218.893 122.01C219.173 122.71 219.583 123.29 220.123 123.75C220.683 124.19 221.373 124.41 222.193 124.41C223.013 124.41 223.693 124.19 224.233 123.75C224.793 123.29 225.203 122.71 225.463 122.01C225.743 121.31 225.883 120.59 225.883 119.85C225.883 119.11 225.743 118.39 225.463 117.69C225.203 116.99 224.793 116.42 224.233 115.98C223.693 115.52 223.013 115.29 222.193 115.29ZM241.014 128.1C239.774 128.1 238.784 127.92 238.044 127.56C237.304 127.18 236.744 126.71 236.364 126.15C235.984 125.57 235.734 124.96 235.614 124.32C235.494 123.68 235.434 123.09 235.434 122.55V115.53H232.734V111.9H235.434V107.97H239.994V111.9H243.384V115.53H239.994V122.43C239.994 123.09 240.164 123.6 240.504 123.96C240.864 124.32 241.454 124.5 242.274 124.5C242.634 124.5 242.964 124.47 243.264 124.41C243.564 124.35 243.714 124.32 243.714 124.32V127.83C243.714 127.83 243.444 127.87 242.904 127.95C242.364 128.05 241.734 128.1 241.014 128.1ZM249.459 109.74C248.659 109.74 248.009 109.49 247.509 108.99C247.009 108.47 246.759 107.86 246.759 107.16C246.759 106.42 247.009 105.8 247.509 105.3C248.009 104.78 248.659 104.52 249.459 104.52C250.219 104.52 250.859 104.78 251.379 105.3C251.899 105.8 252.159 106.42 252.159 107.16C252.159 107.86 251.899 108.47 251.379 108.99C250.859 109.49 250.219 109.74 249.459 109.74ZM247.179 127.8V111.9H251.739V127.8H247.179ZM263.766 128.1C261.986 128.1 260.476 127.72 259.236 126.96C257.996 126.18 257.046 125.17 256.386 123.93C255.746 122.67 255.426 121.31 255.426 119.85C255.426 118.39 255.746 117.04 256.386 115.8C257.046 114.54 257.996 113.53 259.236 112.77C260.476 111.99 261.986 111.6 263.766 111.6C265.546 111.6 267.056 111.99 268.296 112.77C269.536 113.53 270.476 114.54 271.116 115.8C271.776 117.04 272.106 118.39 272.106 119.85C272.106 121.31 271.776 122.67 271.116 123.93C270.476 125.17 269.536 126.18 268.296 126.96C267.056 127.72 265.546 128.1 263.766 128.1ZM263.766 124.38C264.566 124.38 265.236 124.17 265.776 123.75C266.336 123.33 266.766 122.78 267.066 122.1C267.366 121.4 267.516 120.65 267.516 119.85C267.516 119.03 267.366 118.28 267.066 117.6C266.766 116.92 266.336 116.37 265.776 115.95C265.236 115.53 264.566 115.32 263.766 115.32C262.966 115.32 262.286 115.53 261.726 115.95C261.166 116.37 260.736 116.92 260.436 117.6C260.156 118.28 260.016 119.03 260.016 119.85C260.016 120.65 260.156 121.4 260.436 122.1C260.736 122.78 261.166 123.33 261.726 123.75C262.286 124.17 262.966 124.38 263.766 124.38ZM275.206 127.8V111.9H279.766V114.18H279.916C280.096 113.86 280.356 113.5 280.696 113.1C281.056 112.7 281.526 112.35 282.106 112.05C282.706 111.75 283.466 111.6 284.386 111.6C285.626 111.6 286.636 111.89 287.416 112.47C288.196 113.03 288.766 113.76 289.126 114.66C289.486 115.54 289.666 116.47 289.666 117.45V127.8H285.106V118.23C285.106 117.47 284.896 116.8 284.476 116.22C284.076 115.64 283.426 115.35 282.526 115.35C281.846 115.35 281.306 115.51 280.906 115.83C280.506 116.15 280.216 116.56 280.036 117.06C279.856 117.56 279.766 118.09 279.766 118.65V127.8H275.206Z" fill="white"/>
<circle cx="131" cy="176" r="16" stroke="white" stroke-width="4"/>
<path d="M110 238.744C110 238.744 110.534 212.979 116.308 207.205C120.513 203 127.701 203 131.026 203C135.102 203 141.538 203 145.744 207.205C151.196 212.658 152.051 238.744 152.051 238.744" stroke="white" stroke-width="4" stroke-linecap="round" stroke-linejoin="round"/>
<circle cx="239" cy="176" r="16" stroke="white" stroke-width="4"/>
<path d="M218 238.744C218 238.744 218.534 212.979 224.308 207.205C228.513 203 235.701 203 239.026 203C243.102 203 249.538 203 253.744 207.205C259.196 212.658 260.051 238.744 260.051 238.744" stroke="white" stroke-width="4" stroke-linecap="round" stroke-linejoin="round"/>
<path d="M168 197.641H202L196.333 188.641" stroke="white" stroke-width="4" stroke-linecap="round" stroke-linejoin="round"/>
<path d="M202 207.641H168L173.667 216.641" stroke="white" stroke-width="4" stroke-linecap="round" stroke-linejoin="round"/>
<path d="M110.196 295.8V281H111.956L119.676 292.26V281H121.636V295.8H119.876L112.156 284.56V295.8H110.196ZM130.484 296C129.324 296 128.324 295.78 127.484 295.34C126.644 294.887 125.991 294.253 125.524 293.44C125.071 292.613 124.844 291.64 124.844 290.52V281H126.804V290.52C126.804 291.547 127.104 292.407 127.704 293.1C128.317 293.793 129.244 294.14 130.484 294.14C131.737 294.14 132.664 293.793 133.264 293.1C133.877 292.407 134.184 291.547 134.184 290.52V281H136.144V290.52C136.144 291.64 135.911 292.613 135.444 293.44C134.991 294.253 134.344 294.887 133.504 295.34C132.664 295.78 131.657 296 130.484 296ZM139.336 295.8V281H141.296V294.08H148.916V295.8H139.336ZM157.071 296C155.897 296 154.864 295.787 153.971 295.36C153.077 294.92 152.331 294.34 151.731 293.62C151.131 292.887 150.677 292.067 150.371 291.16C150.064 290.253 149.911 289.327 149.911 288.38C149.911 287.433 150.064 286.513 150.371 285.62C150.677 284.713 151.131 283.9 151.731 283.18C152.331 282.46 153.077 281.887 153.971 281.46C154.864 281.02 155.897 280.8 157.071 280.8C158.244 280.8 159.277 281.02 160.171 281.46C161.064 281.887 161.811 282.46 162.411 283.18C163.011 283.9 163.464 284.713 163.771 285.62C164.077 286.513 164.231 287.433 164.231 288.38C164.231 289.327 164.077 290.253 163.771 291.16C163.464 292.067 163.011 292.887 162.411 293.62C161.811 294.34 161.064 294.92 160.171 295.36C159.277 295.787 158.244 296 157.071 296ZM157.071 294.18C157.911 294.18 158.651 294.02 159.291 293.7C159.931 293.38 160.464 292.947 160.891 292.4C161.331 291.853 161.664 291.233 161.891 290.54C162.117 289.847 162.231 289.127 162.231 288.38C162.231 287.647 162.117 286.94 161.891 286.26C161.664 285.567 161.331 284.947 160.891 284.4C160.464 283.853 159.931 283.42 159.291 283.1C158.651 282.78 157.911 282.62 157.071 282.62C156.231 282.62 155.491 282.78 154.851 283.1C154.211 283.42 153.671 283.853 153.231 284.4C152.804 284.947 152.477 285.567 152.251 286.26C152.024 286.94 151.911 287.647 151.911 288.38C151.911 289.127 152.024 289.847 152.251 290.54C152.477 291.233 152.804 291.853 153.231 292.4C153.671 292.947 154.211 293.38 154.851 293.7C155.491 294.02 156.231 294.18 157.071 294.18ZM173.534 296C172.334 296 171.287 295.787 170.394 295.36C169.501 294.933 168.761 294.36 168.174 293.64C167.587 292.907 167.147 292.093 166.854 291.2C166.574 290.293 166.434 289.367 166.434 288.42C166.434 287.473 166.574 286.547 166.854 285.64C167.147 284.733 167.587 283.92 168.174 283.2C168.774 282.467 169.521 281.887 170.414 281.46C171.321 281.02 172.381 280.8 173.594 280.8C174.527 280.8 175.327 280.92 175.994 281.16C176.674 281.4 177.241 281.707 177.694 282.08C178.147 282.453 178.514 282.853 178.794 283.28C179.074 283.693 179.287 284.087 179.434 284.46C179.581 284.833 179.674 285.14 179.714 285.38C179.767 285.62 179.794 285.74 179.794 285.74H177.814C177.814 285.74 177.787 285.633 177.734 285.42C177.681 285.207 177.574 284.947 177.414 284.64C177.254 284.32 177.014 284.007 176.694 283.7C176.387 283.38 175.981 283.113 175.474 282.9C174.981 282.687 174.361 282.58 173.614 282.58C172.734 282.58 171.967 282.747 171.314 283.08C170.661 283.413 170.121 283.86 169.694 284.42C169.267 284.967 168.947 285.587 168.734 286.28C168.521 286.96 168.414 287.66 168.414 288.38C168.414 289.113 168.521 289.833 168.734 290.54C168.947 291.233 169.267 291.86 169.694 292.42C170.134 292.967 170.674 293.407 171.314 293.74C171.954 294.06 172.694 294.22 173.534 294.22C174.907 294.22 175.994 293.82 176.794 293.02C177.607 292.207 178.047 291.113 178.114 289.74H173.714V288.12H179.994V289.14C179.994 290.66 179.701 291.927 179.114 292.94C178.541 293.953 177.767 294.72 176.794 295.24C175.821 295.747 174.734 296 173.534 296ZM186.678 295.8V290.54L181.498 281H183.638L187.658 288.54L191.658 281H193.798L188.618 290.54V295.8H186.678ZM204.448 290.98C203.835 290.98 203.288 290.833 202.808 290.54C202.328 290.247 201.948 289.86 201.668 289.38C201.402 288.9 201.268 288.373 201.268 287.8C201.268 287.213 201.402 286.687 201.668 286.22C201.948 285.74 202.328 285.36 202.808 285.08C203.288 284.787 203.835 284.64 204.448 284.64C205.048 284.64 205.588 284.787 206.068 285.08C206.548 285.36 206.922 285.74 207.188 286.22C207.468 286.687 207.608 287.213 207.608 287.8C207.608 288.387 207.468 288.92 207.188 289.4C206.922 289.88 206.548 290.267 206.068 290.56C205.588 290.84 205.048 290.98 204.448 290.98ZM216.192 295.8V294.42L219.432 291.42C220.339 290.58 221.132 289.847 221.812 289.22C222.506 288.58 223.046 287.96 223.432 287.36C223.819 286.76 224.012 286.1 224.012 285.38C224.012 284.78 223.866 284.273 223.572 283.86C223.292 283.447 222.926 283.133 222.472 282.92C222.032 282.693 221.572 282.58 221.092 282.58C220.466 282.58 219.952 282.687 219.552 282.9C219.152 283.113 218.846 283.38 218.632 283.7C218.419 284.007 218.266 284.32 218.172 284.64C218.079 284.947 218.026 285.207 218.012 285.42C217.999 285.633 217.992 285.74 217.992 285.74H216.112C216.112 285.74 216.119 285.62 216.132 285.38C216.146 285.14 216.192 284.833 216.272 284.46C216.366 284.087 216.512 283.693 216.712 283.28C216.912 282.853 217.192 282.453 217.552 282.08C217.926 281.707 218.399 281.4 218.972 281.16C219.559 280.92 220.272 280.8 221.112 280.8C221.966 280.8 222.759 280.98 223.492 281.34C224.239 281.687 224.839 282.2 225.292 282.88C225.746 283.547 225.972 284.367 225.972 285.34C225.972 286.233 225.746 287.047 225.292 287.78C224.852 288.5 224.266 289.207 223.532 289.9C222.799 290.593 221.999 291.34 221.132 292.14L219.092 294.02H226.292V295.8H216.192ZM234.36 295.98C233.44 295.98 232.626 295.78 231.92 295.38C231.213 294.967 230.62 294.413 230.14 293.72C229.673 293.013 229.313 292.2 229.06 291.28C228.82 290.36 228.7 289.393 228.7 288.38C228.7 287.353 228.82 286.387 229.06 285.48C229.313 284.56 229.673 283.747 230.14 283.04C230.62 282.333 231.213 281.78 231.92 281.38C232.626 280.98 233.44 280.78 234.36 280.78C235.28 280.78 236.093 280.98 236.8 281.38C237.506 281.78 238.093 282.333 238.56 283.04C239.04 283.747 239.4 284.56 239.64 285.48C239.893 286.387 240.02 287.353 240.02 288.38C240.02 289.393 239.893 290.36 239.64 291.28C239.4 292.2 239.04 293.013 238.56 293.72C238.093 294.413 237.506 294.967 236.8 295.38C236.093 295.78 235.28 295.98 234.36 295.98ZM234.36 294.18C235.413 294.18 236.28 293.693 236.96 292.72C237.653 291.733 238 290.287 238 288.38C238 286.473 237.653 285.033 236.96 284.06C236.28 283.087 235.413 282.6 234.36 282.6C233.306 282.6 232.433 283.087 231.74 284.06C231.06 285.033 230.72 286.473 230.72 288.38C230.72 290.273 231.06 291.713 231.74 292.7C232.433 293.687 233.306 294.18 234.36 294.18ZM246.615 281V295.8H244.695V284.32L241.915 284.34V283.22L242.415 283.06C243.122 282.833 243.689 282.587 244.115 282.32C244.555 282.053 244.962 281.687 245.335 281.22L245.515 281H246.615ZM255.371 280.8C256.317 280.8 257.137 280.98 257.831 281.34C258.537 281.7 259.117 282.2 259.571 282.84C260.024 283.467 260.357 284.187 260.571 285C260.797 285.8 260.911 286.653 260.911 287.56C260.911 288.293 260.831 289.053 260.671 289.84C260.511 290.627 260.257 291.387 259.911 292.12C259.577 292.853 259.124 293.513 258.551 294.1C257.991 294.673 257.304 295.133 256.491 295.48C255.691 295.827 254.751 296 253.671 296C253.257 296 252.871 295.973 252.511 295.92C252.151 295.867 251.864 295.82 251.651 295.78C251.437 295.727 251.331 295.7 251.331 295.7V293.9C251.331 293.9 251.451 293.927 251.691 293.98C251.931 294.02 252.231 294.067 252.591 294.12C252.964 294.173 253.337 294.2 253.711 294.2C254.524 294.2 255.217 294.08 255.791 293.84C256.377 293.587 256.864 293.26 257.251 292.86C257.651 292.447 257.964 292.007 258.191 291.54C258.431 291.06 258.604 290.593 258.711 290.14C258.817 289.673 258.877 289.273 258.891 288.94C258.797 289.1 258.611 289.32 258.331 289.6C258.051 289.88 257.657 290.133 257.151 290.36C256.644 290.587 255.997 290.7 255.211 290.7C254.131 290.7 253.224 290.467 252.491 290C251.771 289.52 251.224 288.907 250.851 288.16C250.491 287.4 250.311 286.613 250.311 285.8C250.311 284.96 250.497 284.16 250.871 283.4C251.244 282.64 251.804 282.02 252.551 281.54C253.311 281.047 254.251 280.8 255.371 280.8ZM255.411 282.48C254.877 282.48 254.364 282.6 253.871 282.84C253.391 283.08 252.991 283.44 252.671 283.92C252.364 284.4 252.211 285.007 252.211 285.74C252.211 286.473 252.364 287.087 252.671 287.58C252.991 288.06 253.391 288.42 253.871 288.66C254.364 288.9 254.877 289.02 255.411 289.02C255.944 289.02 256.451 288.9 256.931 288.66C257.424 288.42 257.824 288.06 258.131 287.58C258.451 287.087 258.611 286.473 258.611 285.74C258.611 285.007 258.451 284.4 258.131 283.92C257.824 283.44 257.424 283.08 256.931 282.84C256.451 282.6 255.944 282.48 255.411 282.48Z" fill="white"/>
<defs>
<filter id="filter0_d_626_5665" x="0" y="0" width="369.6" height="369.6" filterUnits="userSpaceOnUse" color-interpolation-filters="sRGB">
<feFlood flood-opacity="0" result="BackgroundImageFix"/>
<feColorMatrix in="SourceAlpha" type="matrix" values="0 0 0 0 0 0 0 0 0 0 0 0 0 0 0 0 0 0 127 0" result="hardAlpha"/>
<feOffset dy="5"/>
<feGaussianBlur stdDeviation="6"/>
<feColorMatrix type="matrix" values="0 0 0 0 0.287583 0 0 0 0 0.287583 0 0 0 0 0.287583 0 0 0 0.2 0"/>
<feBlend mode="normal" in2="BackgroundImageFix" result="effect1_dropShadow_626_5665"/>
<feBlend mode="normal" in="SourceGraphic" in2="effect1_dropShadow_626_5665" result="shape"/>
</filter>
<linearGradient id="paint0_linear_626_5665" x1="263.5" y1="24" x2="120" y2="330" gradientUnits="userSpaceOnUse">
<stop stop-color="#52DF91"/>
<stop offset="1" stop-color="#34986A"/>
</linearGradient>
</defs>
</svg>
