<svg width="100" height="94" viewBox="0 0 100 94" fill="none" xmlns="http://www.w3.org/2000/svg">
<g id="scorecards">
<circle id="Oval" opacity="0.5" cx="53.5" cy="47.5" r="46.5" fill="#EF7E38" fill-opacity="0.5"/>
<rect id="Rectangle" x="2" y="2" width="91" height="84" rx="1" stroke="white" stroke-width="3"/>
<rect id="Rectangle_2" x="10" y="18" width="30" height="27" stroke="white" stroke-width="3" stroke-linejoin="round"/>
<g id="Group 9">
<path id="Line" d="M10 54L10 78H63" stroke="white" stroke-width="3" stroke-linecap="round" stroke-linejoin="round"/>
<path id="Line_2" d="M49 59H39V78" stroke="white" stroke-width="3" stroke-linecap="round" stroke-linejoin="round"/>
<path id="Line_3" d="M39 65H29V78" stroke="white" stroke-width="3" stroke-linecap="round" stroke-linejoin="round"/>
<path id="Line_4" d="M29 71H19V78" stroke="white" stroke-width="3" stroke-linecap="round" stroke-linejoin="round"/>
<path id="Line_5" d="M59 77V53L49 53V76.8345" stroke="white" stroke-width="3" stroke-linecap="round" stroke-linejoin="round"/>
</g>
<path id="Line_6" d="M71 53H85" stroke="white" stroke-width="3" stroke-linecap="round" stroke-linejoin="round"/>
<path id="Line_7" d="M71 59H83" stroke="white" stroke-width="3" stroke-linecap="round" stroke-linejoin="round"/>
<path id="Line_8" d="M71 65H79" stroke="white" stroke-width="3" stroke-linecap="round" stroke-linejoin="round"/>
<path id="Line_9" d="M71 78H85" stroke="white" stroke-width="3" stroke-linecap="round" stroke-linejoin="round"/>
<path id="Line_10" d="M2 10H93" stroke="white" stroke-width="3" stroke-linecap="round" stroke-linejoin="round"/>
<g id="Group 10">
<circle id="Oval_2" cx="50.5" cy="42.5" r="2.5" stroke="white" stroke-width="2"/>
<circle id="Oval_3" cx="82.5" cy="20.5" r="2.5" stroke="white" stroke-width="2"/>
<circle id="Oval_4" cx="74.5" cy="22.5" r="2.5" stroke="white" stroke-width="2"/>
<circle id="Oval_5" cx="66.5" cy="34.5" r="2.5" stroke="white" stroke-width="2"/>
<circle id="Oval_6" cx="58.5" cy="30.5" r="2.5" stroke="white" stroke-width="2"/>
<path id="Line 10" d="M52.5 40.5L57.5 32.5" stroke="white" stroke-width="3"/>
<path id="Line 10_2" d="M76.25 21.75L80.5 20.5" stroke="white" stroke-width="3"/>
<path id="Line 10_3" d="M67.5 33.5L72.5 24.5" stroke="white" stroke-width="3"/>
<path id="Line 10_4" d="M64.5 33.5L60 31" stroke="white" stroke-width="3"/>
</g>
</g>
</svg>
