<svg width="371" height="370" viewBox="0 0 371 370" fill="none" xmlns="http://www.w3.org/2000/svg">
<g filter="url(#filter0_d_626_5508)">
<circle cx="185.4" cy="179.8" r="172.8" fill="url(#paint0_linear_626_5508)"/>
</g>
<g clip-path="url(#clip0_626_5508)">
<path d="M125.084 90.1C123.644 90.1 122.414 89.93 121.394 89.59C120.394 89.23 119.554 88.78 118.874 88.24C118.214 87.68 117.684 87.1 117.284 86.5C116.884 85.88 116.584 85.3 116.384 84.76C116.204 84.2 116.084 83.75 116.024 83.41C115.984 83.05 115.964 82.87 115.964 82.87H120.644C120.644 82.87 120.684 83.04 120.764 83.38C120.864 83.72 121.064 84.12 121.364 84.58C121.664 85.02 122.124 85.41 122.744 85.75C123.364 86.07 124.204 86.23 125.264 86.23C126.564 86.23 127.524 85.96 128.144 85.42C128.764 84.86 129.074 84.2 129.074 83.44C129.074 82.76 128.834 82.22 128.354 81.82C127.894 81.42 127.174 81.12 126.194 80.92L123.224 80.35C122.024 80.13 120.904 79.78 119.864 79.3C118.844 78.82 118.014 78.16 117.374 77.32C116.734 76.46 116.414 75.36 116.414 74.02C116.414 72.66 116.754 71.48 117.434 70.48C118.114 69.46 119.064 68.68 120.284 68.14C121.524 67.58 122.974 67.3 124.634 67.3C126.194 67.3 127.484 67.53 128.504 67.99C129.544 68.43 130.364 68.98 130.964 69.64C131.584 70.28 132.034 70.93 132.314 71.59C132.614 72.25 132.804 72.8 132.884 73.24C132.984 73.68 133.034 73.9 133.034 73.9H128.474C128.474 73.9 128.434 73.76 128.354 73.48C128.294 73.2 128.134 72.88 127.874 72.52C127.614 72.16 127.214 71.84 126.674 71.56C126.154 71.28 125.434 71.14 124.514 71.14C123.254 71.14 122.344 71.42 121.784 71.98C121.224 72.52 120.944 73.11 120.944 73.75C120.944 74.41 121.224 74.92 121.784 75.28C122.344 75.64 123.074 75.91 123.974 76.09L127.124 76.72C128.324 76.94 129.424 77.31 130.424 77.83C131.424 78.35 132.214 79.05 132.794 79.93C133.394 80.79 133.694 81.86 133.694 83.14C133.694 84.46 133.364 85.65 132.704 86.71C132.044 87.75 131.074 88.58 129.794 89.2C128.514 89.8 126.944 90.1 125.084 90.1ZM143.895 90.1C142.655 90.1 141.665 89.92 140.925 89.56C140.185 89.18 139.625 88.71 139.245 88.15C138.865 87.57 138.615 86.96 138.495 86.32C138.375 85.68 138.315 85.09 138.315 84.55V77.53H135.615V73.9H138.315V69.97H142.875V73.9H146.265V77.53H142.875V84.43C142.875 85.09 143.045 85.6 143.385 85.96C143.745 86.32 144.335 86.5 145.155 86.5C145.515 86.5 145.845 86.47 146.145 86.41C146.445 86.35 146.595 86.32 146.595 86.32V89.83C146.595 89.83 146.325 89.87 145.785 89.95C145.245 90.05 144.615 90.1 143.895 90.1ZM149.639 89.8V73.9H154.169V76.21H154.319C154.499 75.79 154.749 75.38 155.069 74.98C155.389 74.58 155.829 74.25 156.389 73.99C156.949 73.73 157.669 73.6 158.549 73.6C158.989 73.6 159.339 73.63 159.599 73.69C159.859 73.73 159.989 73.75 159.989 73.75V78.25C159.989 78.25 159.839 78.22 159.539 78.16C159.259 78.1 158.889 78.07 158.429 78.07C157.009 78.07 155.949 78.46 155.249 79.24C154.549 80 154.199 81.25 154.199 82.99V89.8H149.639ZM168.606 73.6C169.626 73.6 170.466 73.77 171.126 74.11C171.786 74.43 172.286 74.78 172.626 75.16C172.986 75.54 173.206 75.8 173.286 75.94H173.526V73.9H178.086V89.8H173.526V87.76H173.286C173.206 87.9 172.986 88.16 172.626 88.54C172.286 88.92 171.786 89.28 171.126 89.62C170.466 89.94 169.626 90.1 168.606 90.1C167.426 90.1 166.396 89.87 165.516 89.41C164.656 88.93 163.936 88.3 163.356 87.52C162.776 86.72 162.336 85.83 162.036 84.85C161.756 83.87 161.616 82.87 161.616 81.85C161.616 80.83 161.756 79.83 162.036 78.85C162.336 77.87 162.776 76.99 163.356 76.21C163.936 75.41 164.656 74.78 165.516 74.32C166.396 73.84 167.426 73.6 168.606 73.6ZM169.926 77.29C169.106 77.29 168.416 77.52 167.856 77.98C167.316 78.42 166.906 78.99 166.626 79.69C166.366 80.39 166.236 81.11 166.236 81.85C166.236 82.59 166.366 83.31 166.626 84.01C166.906 84.71 167.316 85.29 167.856 85.75C168.416 86.19 169.106 86.41 169.926 86.41C170.746 86.41 171.426 86.19 171.966 85.75C172.526 85.29 172.936 84.71 173.196 84.01C173.476 83.31 173.616 82.59 173.616 81.85C173.616 81.11 173.476 80.39 173.196 79.69C172.936 78.99 172.526 78.42 171.966 77.98C171.426 77.52 170.746 77.29 169.926 77.29ZM188.748 90.1C187.508 90.1 186.518 89.92 185.778 89.56C185.038 89.18 184.478 88.71 184.098 88.15C183.718 87.57 183.468 86.96 183.348 86.32C183.228 85.68 183.168 85.09 183.168 84.55V77.53H180.468V73.9H183.168V69.97H187.728V73.9H191.118V77.53H187.728V84.43C187.728 85.09 187.898 85.6 188.238 85.96C188.598 86.32 189.188 86.5 190.008 86.5C190.368 86.5 190.698 86.47 190.998 86.41C191.298 86.35 191.448 86.32 191.448 86.32V89.83C191.448 89.83 191.178 89.87 190.638 89.95C190.098 90.05 189.468 90.1 188.748 90.1ZM202.178 90.1C200.778 90.1 199.568 89.87 198.548 89.41C197.528 88.93 196.688 88.3 196.028 87.52C195.368 86.72 194.868 85.83 194.528 84.85C194.208 83.87 194.048 82.86 194.048 81.82C194.048 80.82 194.198 79.84 194.498 78.88C194.818 77.9 195.298 77.01 195.938 76.21C196.598 75.41 197.428 74.78 198.428 74.32C199.448 73.84 200.648 73.6 202.028 73.6C203.488 73.6 204.778 73.92 205.898 74.56C207.038 75.2 207.928 76.15 208.568 77.41C209.208 78.65 209.528 80.16 209.528 81.94V83.05H198.638C198.698 84.01 199.028 84.84 199.628 85.54C200.248 86.24 201.098 86.59 202.178 86.59C202.798 86.59 203.298 86.5 203.678 86.32C204.078 86.12 204.388 85.9 204.608 85.66C204.828 85.4 204.978 85.17 205.058 84.97C205.138 84.77 205.178 84.67 205.178 84.67H209.378C209.378 84.67 209.328 84.86 209.228 85.24C209.148 85.6 208.968 86.05 208.688 86.59C208.408 87.13 207.998 87.67 207.458 88.21C206.938 88.75 206.248 89.2 205.388 89.56C204.528 89.92 203.458 90.1 202.178 90.1ZM198.638 80.29H205.148C205.088 79.19 204.758 78.37 204.158 77.83C203.558 77.29 202.818 77.02 201.938 77.02C201.058 77.02 200.308 77.31 199.688 77.89C199.068 78.45 198.718 79.25 198.638 80.29ZM220.817 96.16C219.337 96.16 218.117 95.98 217.157 95.62C216.217 95.26 215.467 94.8 214.907 94.24C214.347 93.7 213.937 93.16 213.677 92.62C213.417 92.08 213.247 91.62 213.167 91.24C213.107 90.88 213.077 90.7 213.077 90.7H217.517C217.517 90.7 217.547 90.79 217.607 90.97C217.687 91.17 217.837 91.39 218.057 91.63C218.277 91.89 218.597 92.11 219.017 92.29C219.457 92.49 220.037 92.59 220.757 92.59C221.997 92.59 222.907 92.24 223.487 91.54C224.087 90.84 224.387 89.92 224.387 88.78V87.1H224.177C223.977 87.42 223.677 87.77 223.277 88.15C222.877 88.53 222.367 88.85 221.747 89.11C221.127 89.37 220.377 89.5 219.497 89.5C218.317 89.5 217.287 89.28 216.407 88.84C215.527 88.38 214.787 87.77 214.187 87.01C213.607 86.25 213.167 85.4 212.867 84.46C212.587 83.52 212.447 82.55 212.447 81.55C212.447 80.57 212.587 79.61 212.867 78.67C213.167 77.71 213.607 76.85 214.187 76.09C214.787 75.33 215.527 74.73 216.407 74.29C217.287 73.83 218.317 73.6 219.497 73.6C220.377 73.6 221.127 73.74 221.747 74.02C222.367 74.28 222.877 74.6 223.277 74.98C223.697 75.34 223.997 75.69 224.177 76.03H224.387V73.9H228.947V88.78C228.947 90.1 228.657 91.32 228.077 92.44C227.497 93.56 226.607 94.46 225.407 95.14C224.207 95.82 222.677 96.16 220.817 96.16ZM220.757 85.9C221.597 85.9 222.287 85.69 222.827 85.27C223.387 84.85 223.807 84.31 224.087 83.65C224.367 82.97 224.507 82.27 224.507 81.55C224.507 80.81 224.367 80.11 224.087 79.45C223.807 78.79 223.387 78.25 222.827 77.83C222.287 77.41 221.597 77.2 220.757 77.2C219.937 77.2 219.247 77.41 218.687 77.83C218.147 78.25 217.737 78.79 217.457 79.45C217.177 80.11 217.037 80.81 217.037 81.55C217.037 82.27 217.177 82.97 217.457 83.65C217.737 84.31 218.147 84.85 218.687 85.27C219.247 85.69 219.937 85.9 220.757 85.9ZM235.132 71.74C234.332 71.74 233.682 71.49 233.182 70.99C232.682 70.47 232.432 69.86 232.432 69.16C232.432 68.42 232.682 67.8 233.182 67.3C233.682 66.78 234.332 66.52 235.132 66.52C235.892 66.52 236.532 66.78 237.052 67.3C237.572 67.8 237.832 68.42 237.832 69.16C237.832 69.86 237.572 70.47 237.052 70.99C236.532 71.49 235.892 71.74 235.132 71.74ZM232.852 89.8V73.9H237.412V89.8H232.852ZM249.379 90.1C247.979 90.1 246.759 89.87 245.719 89.41C244.679 88.93 243.819 88.3 243.139 87.52C242.459 86.74 241.949 85.86 241.609 84.88C241.269 83.88 241.099 82.87 241.099 81.85C241.099 80.83 241.269 79.83 241.609 78.85C241.949 77.87 242.459 76.99 243.139 76.21C243.819 75.41 244.679 74.78 245.719 74.32C246.759 73.84 247.979 73.6 249.379 73.6C250.799 73.6 251.969 73.81 252.889 74.23C253.809 74.63 254.539 75.14 255.079 75.76C255.639 76.36 256.049 76.97 256.309 77.59C256.569 78.19 256.729 78.7 256.789 79.12C256.869 79.52 256.909 79.72 256.909 79.72H252.649C252.649 79.72 252.609 79.6 252.529 79.36C252.469 79.1 252.329 78.81 252.109 78.49C251.909 78.15 251.599 77.86 251.179 77.62C250.759 77.36 250.199 77.23 249.499 77.23C248.639 77.23 247.919 77.45 247.339 77.89C246.779 78.31 246.359 78.87 246.079 79.57C245.799 80.27 245.659 81.03 245.659 81.85C245.659 82.67 245.799 83.43 246.079 84.13C246.359 84.83 246.779 85.4 247.339 85.84C247.919 86.26 248.639 86.47 249.499 86.47C250.199 86.47 250.759 86.35 251.179 86.11C251.599 85.85 251.909 85.56 252.109 85.24C252.329 84.9 252.469 84.61 252.529 84.37C252.609 84.11 252.649 83.98 252.649 83.98H256.909C256.909 83.98 256.869 84.19 256.789 84.61C256.729 85.01 256.569 85.52 256.309 86.14C256.049 86.74 255.639 87.35 255.079 87.97C254.539 88.57 253.809 89.08 252.889 89.5C251.969 89.9 250.799 90.1 249.379 90.1ZM99.7534 127.8V105.6H108.903C110.723 105.6 112.233 105.96 113.433 106.68C114.653 107.4 115.563 108.33 116.163 109.47C116.783 110.59 117.093 111.76 117.093 112.98C117.093 114.24 116.783 115.44 116.163 116.58C115.563 117.7 114.653 118.62 113.433 119.34C112.233 120.06 110.723 120.42 108.903 120.42H104.373V127.8H99.7534ZM108.903 109.65H104.373V116.4H108.903C109.683 116.4 110.333 116.24 110.853 115.92C111.373 115.58 111.763 115.16 112.023 114.66C112.303 114.14 112.443 113.59 112.443 113.01C112.443 112.45 112.303 111.91 112.023 111.39C111.763 110.87 111.373 110.45 110.853 110.13C110.333 109.81 109.683 109.65 108.903 109.65ZM125.804 111.6C126.824 111.6 127.664 111.77 128.324 112.11C128.984 112.43 129.484 112.78 129.824 113.16C130.184 113.54 130.404 113.8 130.484 113.94H130.724V111.9H135.284V127.8H130.724V125.76H130.484C130.404 125.9 130.184 126.16 129.824 126.54C129.484 126.92 128.984 127.28 128.324 127.62C127.664 127.94 126.824 128.1 125.804 128.1C124.624 128.1 123.594 127.87 122.714 127.41C121.854 126.93 121.134 126.3 120.554 125.52C119.974 124.72 119.534 123.83 119.234 122.85C118.954 121.87 118.814 120.87 118.814 119.85C118.814 118.83 118.954 117.83 119.234 116.85C119.534 115.87 119.974 114.99 120.554 114.21C121.134 113.41 121.854 112.78 122.714 112.32C123.594 111.84 124.624 111.6 125.804 111.6ZM127.124 115.29C126.304 115.29 125.614 115.52 125.054 115.98C124.514 116.42 124.104 116.99 123.824 117.69C123.564 118.39 123.434 119.11 123.434 119.85C123.434 120.59 123.564 121.31 123.824 122.01C124.104 122.71 124.514 123.29 125.054 123.75C125.614 124.19 126.304 124.41 127.124 124.41C127.944 124.41 128.624 124.19 129.164 123.75C129.724 123.29 130.134 122.71 130.394 122.01C130.674 121.31 130.814 120.59 130.814 119.85C130.814 119.11 130.674 118.39 130.394 117.69C130.134 116.99 129.724 116.42 129.164 115.98C128.624 115.52 127.944 115.29 127.124 115.29ZM138.77 127.8V111.9H143.3V114.21H143.45C143.63 113.79 143.88 113.38 144.2 112.98C144.52 112.58 144.96 112.25 145.52 111.99C146.08 111.73 146.8 111.6 147.68 111.6C148.12 111.6 148.47 111.63 148.73 111.69C148.99 111.73 149.12 111.75 149.12 111.75V116.25C149.12 116.25 148.97 116.22 148.67 116.16C148.39 116.1 148.02 116.07 147.56 116.07C146.14 116.07 145.08 116.46 144.38 117.24C143.68 118 143.33 119.25 143.33 120.99V127.8H138.77ZM159.217 128.1C157.977 128.1 156.987 127.92 156.247 127.56C155.507 127.18 154.947 126.71 154.567 126.15C154.187 125.57 153.937 124.96 153.817 124.32C153.697 123.68 153.637 123.09 153.637 122.55V115.53H150.937V111.9H153.637V107.97H158.197V111.9H161.587V115.53H158.197V122.43C158.197 123.09 158.367 123.6 158.707 123.96C159.067 124.32 159.657 124.5 160.477 124.5C160.837 124.5 161.167 124.47 161.467 124.41C161.767 124.35 161.917 124.32 161.917 124.32V127.83C161.917 127.83 161.647 127.87 161.107 127.95C160.567 128.05 159.937 128.1 159.217 128.1ZM164.961 127.8V111.9H169.521V114.18H169.671C169.851 113.86 170.111 113.5 170.451 113.1C170.811 112.7 171.281 112.35 171.861 112.05C172.461 111.75 173.221 111.6 174.141 111.6C175.381 111.6 176.391 111.89 177.171 112.47C177.951 113.03 178.521 113.76 178.881 114.66C179.241 115.54 179.421 116.47 179.421 117.45V127.8H174.861V118.23C174.861 117.47 174.651 116.8 174.231 116.22C173.831 115.64 173.181 115.35 172.281 115.35C171.601 115.35 171.061 115.51 170.661 115.83C170.261 116.15 169.971 116.56 169.791 117.06C169.611 117.56 169.521 118.09 169.521 118.65V127.8H164.961ZM190.635 128.1C189.235 128.1 188.025 127.87 187.005 127.41C185.985 126.93 185.145 126.3 184.485 125.52C183.825 124.72 183.325 123.83 182.985 122.85C182.665 121.87 182.505 120.86 182.505 119.82C182.505 118.82 182.655 117.84 182.955 116.88C183.275 115.9 183.755 115.01 184.395 114.21C185.055 113.41 185.885 112.78 186.885 112.32C187.905 111.84 189.105 111.6 190.485 111.6C191.945 111.6 193.235 111.92 194.355 112.56C195.495 113.2 196.385 114.15 197.025 115.41C197.665 116.65 197.985 118.16 197.985 119.94V121.05H187.095C187.155 122.01 187.485 122.84 188.085 123.54C188.705 124.24 189.555 124.59 190.635 124.59C191.255 124.59 191.755 124.5 192.135 124.32C192.535 124.12 192.845 123.9 193.065 123.66C193.285 123.4 193.435 123.17 193.515 122.97C193.595 122.77 193.635 122.67 193.635 122.67H197.835C197.835 122.67 197.785 122.86 197.685 123.24C197.605 123.6 197.425 124.05 197.145 124.59C196.865 125.13 196.455 125.67 195.915 126.21C195.395 126.75 194.705 127.2 193.845 127.56C192.985 127.92 191.915 128.1 190.635 128.1ZM187.095 118.29H193.605C193.545 117.19 193.215 116.37 192.615 115.83C192.015 115.29 191.275 115.02 190.395 115.02C189.515 115.02 188.765 115.31 188.145 115.89C187.525 116.45 187.175 117.25 187.095 118.29ZM201.26 127.8V111.9H205.79V114.21H205.94C206.12 113.79 206.37 113.38 206.69 112.98C207.01 112.58 207.45 112.25 208.01 111.99C208.57 111.73 209.29 111.6 210.17 111.6C210.61 111.6 210.96 111.63 211.22 111.69C211.48 111.73 211.61 111.75 211.61 111.75V116.25C211.61 116.25 211.46 116.22 211.16 116.16C210.88 116.1 210.51 116.07 210.05 116.07C208.63 116.07 207.57 116.46 206.87 117.24C206.17 118 205.82 119.25 205.82 120.99V127.8H201.26ZM220.811 128.1C219.491 128.1 218.401 127.92 217.541 127.56C216.681 127.2 215.991 126.76 215.471 126.24C214.971 125.7 214.591 125.17 214.331 124.65C214.091 124.11 213.931 123.66 213.851 123.3C213.791 122.94 213.761 122.76 213.761 122.76H217.991C217.991 122.76 218.021 122.86 218.081 123.06C218.141 123.26 218.271 123.49 218.471 123.75C218.691 124.01 219.001 124.24 219.401 124.44C219.801 124.64 220.341 124.74 221.021 124.74C221.861 124.74 222.431 124.57 222.731 124.23C223.051 123.89 223.211 123.55 223.211 123.21C223.211 122.49 222.621 122.01 221.441 121.77L219.281 121.35C218.361 121.17 217.491 120.91 216.671 120.57C215.871 120.21 215.221 119.72 214.721 119.1C214.241 118.46 214.001 117.64 214.001 116.64C214.001 115.68 214.251 114.82 214.751 114.06C215.251 113.3 215.961 112.7 216.881 112.26C217.821 111.82 218.941 111.6 220.241 111.6C221.461 111.6 222.471 111.77 223.271 112.11C224.091 112.43 224.741 112.84 225.221 113.34C225.701 113.82 226.061 114.31 226.301 114.81C226.541 115.29 226.691 115.7 226.751 116.04C226.831 116.36 226.871 116.52 226.871 116.52H222.791C222.791 116.52 222.731 116.39 222.611 116.13C222.491 115.85 222.241 115.58 221.861 115.32C221.501 115.04 220.941 114.9 220.181 114.9C219.401 114.9 218.861 115.06 218.561 115.38C218.261 115.68 218.111 116 218.111 116.34C218.111 116.74 218.281 117.04 218.621 117.24C218.981 117.44 219.441 117.6 220.001 117.72L222.071 118.14C223.591 118.44 224.841 118.97 225.821 119.73C226.801 120.47 227.291 121.55 227.291 122.97C227.291 123.93 227.041 124.8 226.541 125.58C226.041 126.36 225.311 126.98 224.351 127.44C223.391 127.88 222.211 128.1 220.811 128.1ZM230.359 127.8V105H234.919V114.18H235.069C235.249 113.86 235.509 113.5 235.849 113.1C236.209 112.7 236.679 112.35 237.259 112.05C237.859 111.75 238.619 111.6 239.539 111.6C240.779 111.6 241.789 111.89 242.569 112.47C243.349 113.03 243.919 113.76 244.279 114.66C244.639 115.54 244.819 116.47 244.819 117.45V127.8H240.259V118.23C240.259 117.47 240.049 116.8 239.629 116.22C239.229 115.64 238.579 115.35 237.679 115.35C236.999 115.35 236.459 115.51 236.059 115.83C235.659 116.15 235.369 116.56 235.189 117.06C235.009 117.56 234.919 118.09 234.919 118.65V127.8H230.359ZM251.011 109.74C250.211 109.74 249.561 109.49 249.061 108.99C248.561 108.47 248.311 107.86 248.311 107.16C248.311 106.42 248.561 105.8 249.061 105.3C249.561 104.78 250.211 104.52 251.011 104.52C251.771 104.52 252.411 104.78 252.931 105.3C253.451 105.8 253.711 106.42 253.711 107.16C253.711 107.86 253.451 108.47 252.931 108.99C252.411 109.49 251.771 109.74 251.011 109.74ZM248.731 127.8V111.9H253.291V127.8H248.731ZM257.488 133.65V111.9H262.048V113.94H262.258C262.358 113.8 262.578 113.54 262.918 113.16C263.278 112.78 263.788 112.43 264.448 112.11C265.108 111.77 265.948 111.6 266.968 111.6C268.148 111.6 269.168 111.84 270.028 112.32C270.908 112.78 271.638 113.41 272.218 114.21C272.798 114.99 273.228 115.87 273.508 116.85C273.808 117.83 273.958 118.83 273.958 119.85C273.958 120.87 273.808 121.87 273.508 122.85C273.228 123.83 272.798 124.72 272.218 125.52C271.638 126.3 270.908 126.93 270.028 127.41C269.168 127.87 268.148 128.1 266.968 128.1C265.948 128.1 265.108 127.94 264.448 127.62C263.788 127.28 263.278 126.92 262.918 126.54C262.578 126.16 262.358 125.9 262.258 125.76H262.048V133.65H257.488ZM261.958 119.85C261.958 120.59 262.088 121.31 262.348 122.01C262.628 122.71 263.038 123.29 263.578 123.75C264.138 124.19 264.828 124.41 265.648 124.41C266.468 124.41 267.148 124.19 267.688 123.75C268.248 123.29 268.658 122.71 268.918 122.01C269.198 121.31 269.338 120.59 269.338 119.85C269.338 119.11 269.198 118.39 268.918 117.69C268.658 116.99 268.248 116.42 267.688 115.98C267.148 115.52 266.468 115.29 265.648 115.29C264.828 115.29 264.138 115.52 263.578 115.98C263.038 116.42 262.628 116.99 262.348 117.69C262.088 118.39 261.958 119.11 261.958 119.85Z" fill="white"/>
<path d="M110.796 295.8V281H112.556L120.276 292.26V281H122.236V295.8H120.476L112.756 284.56V295.8H110.796ZM131.084 296C129.924 296 128.924 295.78 128.084 295.34C127.244 294.887 126.591 294.253 126.124 293.44C125.671 292.613 125.444 291.64 125.444 290.52V281H127.404V290.52C127.404 291.547 127.704 292.407 128.304 293.1C128.918 293.793 129.844 294.14 131.084 294.14C132.338 294.14 133.264 293.793 133.864 293.1C134.478 292.407 134.784 291.547 134.784 290.52V281H136.744V290.52C136.744 291.64 136.511 292.613 136.044 293.44C135.591 294.253 134.944 294.887 134.104 295.34C133.264 295.78 132.258 296 131.084 296ZM139.936 295.8V281H141.896V294.08H149.516V295.8H139.936ZM157.671 296C156.497 296 155.464 295.787 154.571 295.36C153.677 294.92 152.931 294.34 152.331 293.62C151.731 292.887 151.277 292.067 150.971 291.16C150.664 290.253 150.511 289.327 150.511 288.38C150.511 287.433 150.664 286.513 150.971 285.62C151.277 284.713 151.731 283.9 152.331 283.18C152.931 282.46 153.677 281.887 154.571 281.46C155.464 281.02 156.497 280.8 157.671 280.8C158.844 280.8 159.877 281.02 160.771 281.46C161.664 281.887 162.411 282.46 163.011 283.18C163.611 283.9 164.064 284.713 164.371 285.62C164.677 286.513 164.831 287.433 164.831 288.38C164.831 289.327 164.677 290.253 164.371 291.16C164.064 292.067 163.611 292.887 163.011 293.62C162.411 294.34 161.664 294.92 160.771 295.36C159.877 295.787 158.844 296 157.671 296ZM157.671 294.18C158.511 294.18 159.251 294.02 159.891 293.7C160.531 293.38 161.064 292.947 161.491 292.4C161.931 291.853 162.264 291.233 162.491 290.54C162.717 289.847 162.831 289.127 162.831 288.38C162.831 287.647 162.717 286.94 162.491 286.26C162.264 285.567 161.931 284.947 161.491 284.4C161.064 283.853 160.531 283.42 159.891 283.1C159.251 282.78 158.511 282.62 157.671 282.62C156.831 282.62 156.091 282.78 155.451 283.1C154.811 283.42 154.271 283.853 153.831 284.4C153.404 284.947 153.077 285.567 152.851 286.26C152.624 286.94 152.511 287.647 152.511 288.38C152.511 289.127 152.624 289.847 152.851 290.54C153.077 291.233 153.404 291.853 153.831 292.4C154.271 292.947 154.811 293.38 155.451 293.7C156.091 294.02 156.831 294.18 157.671 294.18ZM174.134 296C172.934 296 171.887 295.787 170.994 295.36C170.101 294.933 169.361 294.36 168.774 293.64C168.187 292.907 167.747 292.093 167.454 291.2C167.174 290.293 167.034 289.367 167.034 288.42C167.034 287.473 167.174 286.547 167.454 285.64C167.747 284.733 168.187 283.92 168.774 283.2C169.374 282.467 170.121 281.887 171.014 281.46C171.921 281.02 172.981 280.8 174.194 280.8C175.127 280.8 175.927 280.92 176.594 281.16C177.274 281.4 177.841 281.707 178.294 282.08C178.747 282.453 179.114 282.853 179.394 283.28C179.674 283.693 179.887 284.087 180.034 284.46C180.181 284.833 180.274 285.14 180.314 285.38C180.367 285.62 180.394 285.74 180.394 285.74H178.414C178.414 285.74 178.387 285.633 178.334 285.42C178.281 285.207 178.174 284.947 178.014 284.64C177.854 284.32 177.614 284.007 177.294 283.7C176.987 283.38 176.581 283.113 176.074 282.9C175.581 282.687 174.961 282.58 174.214 282.58C173.334 282.58 172.567 282.747 171.914 283.08C171.261 283.413 170.721 283.86 170.294 284.42C169.867 284.967 169.547 285.587 169.334 286.28C169.121 286.96 169.014 287.66 169.014 288.38C169.014 289.113 169.121 289.833 169.334 290.54C169.547 291.233 169.867 291.86 170.294 292.42C170.734 292.967 171.274 293.407 171.914 293.74C172.554 294.06 173.294 294.22 174.134 294.22C175.507 294.22 176.594 293.82 177.394 293.02C178.207 292.207 178.647 291.113 178.714 289.74H174.314V288.12H180.594V289.14C180.594 290.66 180.301 291.927 179.714 292.94C179.141 293.953 178.367 294.72 177.394 295.24C176.421 295.747 175.334 296 174.134 296ZM187.278 295.8V290.54L182.098 281H184.238L188.258 288.54L192.258 281H194.398L189.218 290.54V295.8H187.278ZM205.048 290.98C204.435 290.98 203.888 290.833 203.408 290.54C202.928 290.247 202.548 289.86 202.268 289.38C202.002 288.9 201.868 288.373 201.868 287.8C201.868 287.213 202.002 286.687 202.268 286.22C202.548 285.74 202.928 285.36 203.408 285.08C203.888 284.787 204.435 284.64 205.048 284.64C205.648 284.64 206.188 284.787 206.668 285.08C207.148 285.36 207.522 285.74 207.788 286.22C208.068 286.687 208.208 287.213 208.208 287.8C208.208 288.387 208.068 288.92 207.788 289.4C207.522 289.88 207.148 290.267 206.668 290.56C206.188 290.84 205.648 290.98 205.048 290.98ZM216.792 295.8V294.42L220.032 291.42C220.939 290.58 221.732 289.847 222.412 289.22C223.106 288.58 223.646 287.96 224.032 287.36C224.419 286.76 224.612 286.1 224.612 285.38C224.612 284.78 224.466 284.273 224.172 283.86C223.892 283.447 223.526 283.133 223.072 282.92C222.632 282.693 222.172 282.58 221.692 282.58C221.066 282.58 220.552 282.687 220.152 282.9C219.752 283.113 219.446 283.38 219.232 283.7C219.019 284.007 218.866 284.32 218.772 284.64C218.679 284.947 218.626 285.207 218.612 285.42C218.599 285.633 218.592 285.74 218.592 285.74H216.712C216.712 285.74 216.719 285.62 216.732 285.38C216.746 285.14 216.792 284.833 216.872 284.46C216.966 284.087 217.112 283.693 217.312 283.28C217.512 282.853 217.792 282.453 218.152 282.08C218.526 281.707 218.999 281.4 219.572 281.16C220.159 280.92 220.872 280.8 221.712 280.8C222.566 280.8 223.359 280.98 224.092 281.34C224.839 281.687 225.439 282.2 225.892 282.88C226.346 283.547 226.572 284.367 226.572 285.34C226.572 286.233 226.346 287.047 225.892 287.78C225.452 288.5 224.866 289.207 224.132 289.9C223.399 290.593 222.599 291.34 221.732 292.14L219.692 294.02H226.892V295.8H216.792ZM234.96 295.98C234.04 295.98 233.226 295.78 232.52 295.38C231.813 294.967 231.22 294.413 230.74 293.72C230.273 293.013 229.913 292.2 229.66 291.28C229.42 290.36 229.3 289.393 229.3 288.38C229.3 287.353 229.42 286.387 229.66 285.48C229.913 284.56 230.273 283.747 230.74 283.04C231.22 282.333 231.813 281.78 232.52 281.38C233.226 280.98 234.04 280.78 234.96 280.78C235.88 280.78 236.693 280.98 237.4 281.38C238.106 281.78 238.693 282.333 239.16 283.04C239.64 283.747 240 284.56 240.24 285.48C240.493 286.387 240.62 287.353 240.62 288.38C240.62 289.393 240.493 290.36 240.24 291.28C240 292.2 239.64 293.013 239.16 293.72C238.693 294.413 238.106 294.967 237.4 295.38C236.693 295.78 235.88 295.98 234.96 295.98ZM234.96 294.18C236.013 294.18 236.88 293.693 237.56 292.72C238.253 291.733 238.6 290.287 238.6 288.38C238.6 286.473 238.253 285.033 237.56 284.06C236.88 283.087 236.013 282.6 234.96 282.6C233.906 282.6 233.033 283.087 232.34 284.06C231.66 285.033 231.32 286.473 231.32 288.38C231.32 290.273 231.66 291.713 232.34 292.7C233.033 293.687 233.906 294.18 234.96 294.18ZM247.215 281V295.8H245.295V284.32L242.515 284.34V283.22L243.015 283.06C243.722 282.833 244.289 282.587 244.715 282.32C245.155 282.053 245.562 281.687 245.935 281.22L246.115 281H247.215ZM255.971 280.8C256.917 280.8 257.737 280.98 258.431 281.34C259.137 281.7 259.717 282.2 260.171 282.84C260.624 283.467 260.957 284.187 261.171 285C261.397 285.8 261.511 286.653 261.511 287.56C261.511 288.293 261.431 289.053 261.271 289.84C261.111 290.627 260.857 291.387 260.511 292.12C260.177 292.853 259.724 293.513 259.151 294.1C258.591 294.673 257.904 295.133 257.091 295.48C256.291 295.827 255.351 296 254.271 296C253.857 296 253.471 295.973 253.111 295.92C252.751 295.867 252.464 295.82 252.251 295.78C252.037 295.727 251.931 295.7 251.931 295.7V293.9C251.931 293.9 252.051 293.927 252.291 293.98C252.531 294.02 252.831 294.067 253.191 294.12C253.564 294.173 253.937 294.2 254.311 294.2C255.124 294.2 255.817 294.08 256.391 293.84C256.977 293.587 257.464 293.26 257.851 292.86C258.251 292.447 258.564 292.007 258.791 291.54C259.031 291.06 259.204 290.593 259.311 290.14C259.417 289.673 259.477 289.273 259.491 288.94C259.397 289.1 259.211 289.32 258.931 289.6C258.651 289.88 258.257 290.133 257.751 290.36C257.244 290.587 256.597 290.7 255.811 290.7C254.731 290.7 253.824 290.467 253.091 290C252.371 289.52 251.824 288.907 251.451 288.16C251.091 287.4 250.911 286.613 250.911 285.8C250.911 284.96 251.097 284.16 251.471 283.4C251.844 282.64 252.404 282.02 253.151 281.54C253.911 281.047 254.851 280.8 255.971 280.8ZM256.011 282.48C255.477 282.48 254.964 282.6 254.471 282.84C253.991 283.08 253.591 283.44 253.271 283.92C252.964 284.4 252.811 285.007 252.811 285.74C252.811 286.473 252.964 287.087 253.271 287.58C253.591 288.06 253.991 288.42 254.471 288.66C254.964 288.9 255.477 289.02 256.011 289.02C256.544 289.02 257.051 288.9 257.531 288.66C258.024 288.42 258.424 288.06 258.731 287.58C259.051 287.087 259.211 286.473 259.211 285.74C259.211 285.007 259.051 284.4 258.731 283.92C258.424 283.44 258.024 283.08 257.531 282.84C257.051 282.6 256.544 282.48 256.011 282.48Z" fill="white"/>
<path fill-rule="evenodd" clip-rule="evenodd" d="M139.8 203.626C139.8 202.769 140.257 201.977 140.999 201.548L185.4 175.897L229.801 201.548C230.543 201.977 231 202.769 231 203.626V257.497C231 258.822 229.926 259.897 228.6 259.897H142.2C140.875 259.897 139.8 258.822 139.8 257.497V203.626Z" stroke="white" stroke-width="3" stroke-linejoin="round"/>
<rect x="151.8" y="204.697" width="67.2" height="7.2" stroke="white" stroke-width="3" stroke-linejoin="round"/>
<path d="M155.4 213.097V258.697" stroke="white" stroke-width="3" stroke-linecap="square"/>
<path d="M215.4 213.097V222.697" stroke="white" stroke-width="3" stroke-linecap="round" stroke-linejoin="round"/>
<path d="M215.4 229.897V258.697" stroke="white" stroke-width="3" stroke-linecap="round"/>
<rect x="155.4" y="240.697" width="21.6" height="19.2" stroke="white" stroke-width="2.4" stroke-linejoin="round"/>
<rect x="162.6" y="240.697" width="7.2" height="9.6" stroke="white" stroke-width="2.4" stroke-linejoin="round"/>
<path d="M162.6 255.097H169.8" stroke="white" stroke-width="2.4" stroke-linecap="round"/>
<rect x="177" y="240.697" width="21.6" height="19.2" stroke="white" stroke-width="2.4" stroke-linejoin="round"/>
<rect x="184.2" y="240.697" width="7.2" height="9.6" stroke="white" stroke-width="2.4" stroke-linejoin="round"/>
<path d="M184.2 255.097H191.4" stroke="white" stroke-width="2.4" stroke-linecap="round"/>
<rect x="155.4" y="221.497" width="21.6" height="19.2" stroke="white" stroke-width="2.4" stroke-linejoin="round"/>
<rect x="162.6" y="221.497" width="7.2" height="9.6" stroke="white" stroke-width="2.4" stroke-linejoin="round"/>
<path d="M162.6 235.897H169.8" stroke="white" stroke-width="2.4" stroke-linecap="round"/>
</g>
<path fill-rule="evenodd" clip-rule="evenodd" d="M54.6001 163.37L88.6001 179.741V222L54.6001 206.185V163.37Z" stroke="white" stroke-width="3" stroke-linejoin="round"/>
<path d="M54.6001 163.37L88.6001 147L103.618 154.231L122.6 163.37" stroke="white" stroke-width="3" stroke-linecap="round" stroke-linejoin="round"/>
<path d="M72.1001 171.5L104.97 154.556" stroke="white" stroke-width="3" stroke-linejoin="round"/>
<path d="M121.95 162.648C122.414 162.425 122.961 162.455 123.398 162.73C123.835 163.004 124.1 163.484 124.1 164V180.63H123.1C122.402 180.63 121.73 180.742 121.1 180.945V166.387L90.1001 181.313V219.617L105.6 212.729V216.012L89.2095 223.297C88.7455 223.503 88.2085 223.46 87.7827 223.184C87.357 222.907 87.1001 222.434 87.1001 221.926V180.37C87.1002 179.794 87.4306 179.269 87.9497 179.019L121.95 162.648ZM121.1 193.314C121.73 193.518 122.402 193.63 123.1 193.63H124.1V206.814C124.1 207.407 123.751 207.945 123.209 208.186L111.6 213.345V210.062L121.1 205.84V193.314ZM124.1 183.63V186.63H121.1V184.259C121.668 183.863 122.357 183.63 123.1 183.63H124.1Z" fill="white"/>
<path d="M121.95 162.648L121.733 162.198L121.733 162.198L121.95 162.648ZM123.398 162.73L123.664 162.306L123.664 162.306L123.398 162.73ZM124.1 164L124.6 164L124.6 164L124.1 164ZM124.1 180.63V181.13C124.376 181.13 124.6 180.906 124.6 180.63H124.1ZM121.1 180.945H120.6C120.6 181.105 120.677 181.256 120.806 181.35C120.935 181.444 121.102 181.47 121.254 181.421L121.1 180.945ZM121.1 166.387H121.6C121.6 166.215 121.512 166.055 121.366 165.963C121.221 165.872 121.038 165.862 120.883 165.936L121.1 166.387ZM90.1001 181.313L89.8832 180.862C89.7101 180.945 89.6001 181.12 89.6001 181.313H90.1001ZM90.1001 219.617H89.6001C89.6001 219.786 89.6857 219.944 89.8276 220.036C89.9696 220.129 90.1485 220.143 90.3032 220.074L90.1001 219.617ZM105.6 212.729H106.1C106.1 212.559 106.014 212.402 105.873 212.309C105.731 212.217 105.552 212.203 105.397 212.272L105.6 212.729ZM105.6 216.012L105.803 216.469C105.984 216.388 106.1 216.209 106.1 216.012H105.6ZM89.2095 223.297L89.4125 223.754L89.4126 223.754L89.2095 223.297ZM87.7827 223.184L87.5102 223.603L87.5103 223.603L87.7827 223.184ZM87.1001 180.37L86.6001 180.37V180.37H87.1001ZM87.9497 179.019L87.7328 178.568L87.7328 178.568L87.9497 179.019ZM121.1 193.314L121.254 192.839C121.102 192.79 120.935 192.816 120.806 192.91C120.677 193.004 120.6 193.155 120.6 193.314H121.1ZM124.1 193.63H124.6C124.6 193.354 124.376 193.13 124.1 193.13V193.63ZM123.209 208.186L123.413 208.642L123.413 208.642L123.209 208.186ZM111.6 213.345H111.1C111.1 213.514 111.186 213.672 111.328 213.764C111.47 213.856 111.648 213.87 111.803 213.802L111.6 213.345ZM111.6 210.062L111.397 209.605C111.216 209.685 111.1 209.864 111.1 210.062H111.6ZM121.1 205.84L121.303 206.297C121.484 206.217 121.6 206.037 121.6 205.84H121.1ZM124.1 183.63H124.6C124.6 183.354 124.376 183.13 124.1 183.13V183.63ZM124.1 186.63V187.13C124.376 187.13 124.6 186.906 124.6 186.63H124.1ZM121.1 186.63H120.6C120.6 186.906 120.824 187.13 121.1 187.13V186.63ZM121.1 184.259L120.814 183.849C120.68 183.942 120.6 184.095 120.6 184.259H121.1ZM121.95 162.648L122.167 163.099C122.476 162.95 122.841 162.97 123.132 163.153L123.398 162.73L123.664 162.306C123.081 161.94 122.352 161.9 121.733 162.198L121.95 162.648ZM123.398 162.73L123.132 163.153C123.423 163.336 123.6 163.656 123.6 164L124.1 164L124.6 164C124.6 163.312 124.246 162.672 123.664 162.306L123.398 162.73ZM124.1 164H123.6V180.63H124.1H124.6V164H124.1ZM124.1 180.63V180.13H123.1V180.63V181.13H124.1V180.63ZM123.1 180.63V180.13C122.348 180.13 121.624 180.25 120.946 180.47L121.1 180.945L121.254 181.421C121.836 181.233 122.455 181.13 123.1 181.13V180.63ZM121.1 180.945H121.6V166.387H121.1H120.6V180.945H121.1ZM121.1 166.387L120.883 165.936L89.8832 180.862L90.1001 181.313L90.317 181.763L121.317 166.837L121.1 166.387ZM90.1001 181.313H89.6001V219.617H90.1001H90.6001V181.313H90.1001ZM90.1001 219.617L90.3032 220.074L105.803 213.185L105.6 212.729L105.397 212.272L89.897 219.16L90.1001 219.617ZM105.6 212.729H105.1V216.012H105.6H106.1V212.729H105.6ZM105.6 216.012L105.397 215.555L89.0064 222.84L89.2095 223.297L89.4126 223.754L105.803 216.469L105.6 216.012ZM89.2095 223.297L89.0064 222.84C88.6973 222.977 88.3392 222.949 88.0552 222.764L87.7827 223.184L87.5103 223.603C88.0777 223.972 88.7937 224.029 89.4125 223.754L89.2095 223.297ZM87.7827 223.184L88.0552 222.764C87.7714 222.58 87.6001 222.264 87.6001 221.926H87.1001H86.6001C86.6001 222.603 86.9426 223.234 87.5102 223.603L87.7827 223.184ZM87.1001 221.926H87.6001V180.37H87.1001H86.6001V221.926H87.1001ZM87.1001 180.37L87.6001 180.37C87.6002 179.986 87.8205 179.636 88.1666 179.469L87.9497 179.019L87.7328 178.568C87.0407 178.901 86.6002 179.602 86.6001 180.37L87.1001 180.37ZM87.9497 179.019L88.1666 179.469L122.167 163.099L121.95 162.648L121.733 162.198L87.7328 178.568L87.9497 179.019ZM121.1 193.314L120.946 193.79C121.625 194.01 122.348 194.13 123.1 194.13V193.63V193.13C122.456 193.13 121.836 193.027 121.254 192.839L121.1 193.314ZM123.1 193.63V194.13H124.1V193.63V193.13H123.1V193.63ZM124.1 193.63H123.6V206.814H124.1H124.6V193.63H124.1ZM124.1 206.814H123.6C123.6 207.21 123.367 207.568 123.006 207.729L123.209 208.186L123.413 208.642C124.135 208.321 124.6 207.605 124.6 206.814H124.1ZM123.209 208.186L123.006 207.729L111.397 212.888L111.6 213.345L111.803 213.802L123.413 208.642L123.209 208.186ZM111.6 213.345H112.1V210.062H111.6H111.1V213.345H111.6ZM111.6 210.062L111.803 210.518L121.303 206.297L121.1 205.84L120.897 205.383L111.397 209.605L111.6 210.062ZM121.1 205.84H121.6V193.314H121.1H120.6V205.84H121.1ZM124.1 183.63H123.6V186.63H124.1H124.6V183.63H124.1ZM124.1 186.63V186.13H121.1V186.63V187.13H124.1V186.63ZM121.1 186.63H121.6V184.259H121.1H120.6V186.63H121.1ZM121.1 184.259L121.386 184.669C121.873 184.329 122.463 184.13 123.1 184.13V183.63V183.13C122.251 183.13 121.462 183.396 120.814 183.849L121.1 184.259ZM123.1 183.63V184.13H124.1V183.63V183.13H123.1V183.63Z" fill="white"/>
<rect x="108.6" y="186.63" width="37" height="45" rx="1" fill="#42B87C" stroke="white" stroke-width="3"/>
<rect x="119.6" y="183.63" width="16" height="7" rx="3.5" stroke="white" stroke-width="3"/>
<rect x="119.6" y="183" width="16" height="7" rx="3.5" fill="#44BD7F" stroke="white" stroke-width="3"/>
<path d="M114.6 201L116.6 203L121.6 197" stroke="white" stroke-width="2" stroke-linecap="round" stroke-linejoin="round"/>
<path d="M126.6 198H135.6" stroke="white" stroke-width="2" stroke-linecap="round" stroke-linejoin="round"/>
<path d="M126.6 202H139.6" stroke="white" stroke-width="2" stroke-linecap="round" stroke-linejoin="round"/>
<path d="M126.6 207.5H135.6" stroke="white" stroke-width="2" stroke-linecap="round" stroke-linejoin="round"/>
<path d="M126.6 211.5H139.6" stroke="white" stroke-width="2" stroke-linecap="round" stroke-linejoin="round"/>
<path d="M114.6 211L116.6 213L121.6 207" stroke="white" stroke-width="2" stroke-linecap="round" stroke-linejoin="round"/>
<rect x="114.6" y="219" width="6" height="6" rx="1" stroke="white" stroke-width="2"/>
<rect x="226.2" y="152" width="82" height="76" rx="1" fill="#40B57A" stroke="white" stroke-width="3"/>
<rect x="233.2" y="167" width="27" height="24" stroke="white" stroke-width="3" stroke-linejoin="round"/>
<path d="M233.2 198.92L233.2 221H281.2" stroke="white" stroke-width="3" stroke-linecap="round" stroke-linejoin="round"/>
<path d="M268.521 203.52H259.464V221" stroke="white" stroke-width="3" stroke-linecap="round" stroke-linejoin="round"/>
<path d="M259.464 209.04H250.408V221" stroke="white" stroke-width="3" stroke-linecap="round" stroke-linejoin="round"/>
<path d="M250.408 214.56H241.351V221" stroke="white" stroke-width="3" stroke-linecap="round" stroke-linejoin="round"/>
<path d="M277.578 220.08V198L268.521 198V219.928" stroke="white" stroke-width="3" stroke-linecap="round" stroke-linejoin="round"/>
<path d="M288.2 198.5H301.2" stroke="white" stroke-width="3" stroke-linecap="round" stroke-linejoin="round"/>
<path d="M288.2 203.5H299.2" stroke="white" stroke-width="3" stroke-linecap="round" stroke-linejoin="round"/>
<path d="M288.2 209.5H295.2" stroke="white" stroke-width="3" stroke-linecap="round" stroke-linejoin="round"/>
<path d="M288.2 220.5H301.2" stroke="white" stroke-width="3" stroke-linecap="round" stroke-linejoin="round"/>
<path d="M226.2 159.5H308.2" stroke="white" stroke-width="3" stroke-linecap="round" stroke-linejoin="round"/>
<ellipse cx="270.43" cy="188.778" rx="2.22973" ry="2.22222" stroke="white" stroke-width="2"/>
<ellipse cx="298.97" cy="169.222" rx="2.22973" ry="2.22222" stroke="white" stroke-width="2"/>
<ellipse cx="291.835" cy="171" rx="2.22973" ry="2.22222" stroke="white" stroke-width="2"/>
<ellipse cx="284.7" cy="181.667" rx="2.22973" ry="2.22222" stroke="white" stroke-width="2"/>
<ellipse cx="277.565" cy="178.111" rx="2.22973" ry="2.22222" stroke="white" stroke-width="2"/>
<path d="M272.214 187L276.673 179.889" stroke="white" stroke-width="3"/>
<path d="M293.396 170.333L297.187 169.222" stroke="white" stroke-width="3"/>
<path d="M285.592 180.778L290.052 172.778" stroke="white" stroke-width="3"/>
<path d="M282.916 180.778L278.903 178.556" stroke="white" stroke-width="3"/>
<defs>
<filter id="filter0_d_626_5508" x="0.600098" y="0" width="369.6" height="369.6" filterUnits="userSpaceOnUse" color-interpolation-filters="sRGB">
<feFlood flood-opacity="0" result="BackgroundImageFix"/>
<feColorMatrix in="SourceAlpha" type="matrix" values="0 0 0 0 0 0 0 0 0 0 0 0 0 0 0 0 0 0 127 0" result="hardAlpha"/>
<feOffset dy="5"/>
<feGaussianBlur stdDeviation="6"/>
<feColorMatrix type="matrix" values="0 0 0 0 0.287583 0 0 0 0 0.287583 0 0 0 0 0.287583 0 0 0 0.2 0"/>
<feBlend mode="normal" in2="BackgroundImageFix" result="effect1_dropShadow_626_5508"/>
<feBlend mode="normal" in="SourceGraphic" in2="effect1_dropShadow_626_5508" result="shape"/>
</filter>
<linearGradient id="paint0_linear_626_5508" x1="114.1" y1="28.5" x2="232.1" y2="353" gradientUnits="userSpaceOnUse">
<stop stop-color="#50D98E"/>
<stop offset="1" stop-color="#34986A"/>
</linearGradient>
<clipPath id="clip0_626_5508">
<rect width="219" height="239" fill="white" transform="translate(77.4001 59.8)"/>
</clipPath>
</defs>
</svg>
