<svg width="370" height="370" viewBox="0 0 370 370" fill="none" xmlns="http://www.w3.org/2000/svg">
<g filter="url(#filter0_d)">
<circle cx="184.8" cy="179.8" r="172.8" fill="#D59F33"/>
</g>
<path d="M134.594 83.8313C134.594 82.9459 134.281 82.2688 133.656 81.8C133.031 81.3209 131.906 80.8209 130.281 80.3C128.656 79.7688 127.37 79.248 126.422 78.7375C123.839 77.3417 122.547 75.4615 122.547 73.0969C122.547 71.8678 122.891 70.774 123.578 69.8157C124.276 68.8469 125.271 68.0917 126.562 67.55C127.865 67.0084 129.323 66.7375 130.938 66.7375C132.562 66.7375 134.01 67.0344 135.281 67.6282C136.552 68.2115 137.536 69.0396 138.234 70.1125C138.943 71.1855 139.297 72.4042 139.297 73.7688H134.609C134.609 72.7271 134.281 71.9198 133.625 71.3469C132.969 70.7636 132.047 70.4719 130.859 70.4719C129.714 70.4719 128.823 70.7167 128.188 71.2063C127.552 71.6855 127.234 72.3209 127.234 73.1125C127.234 73.8521 127.604 74.4719 128.344 74.9719C129.094 75.4719 130.193 75.9407 131.641 76.3782C134.307 77.1803 136.25 78.175 137.469 79.3625C138.688 80.55 139.297 82.0292 139.297 83.8C139.297 85.7688 138.552 87.3157 137.062 88.4407C135.573 89.5553 133.568 90.1125 131.047 90.1125C129.297 90.1125 127.703 89.7948 126.266 89.1594C124.828 88.5136 123.729 87.6334 122.969 86.5188C122.219 85.4042 121.844 84.1125 121.844 82.6438H126.547C126.547 85.1542 128.047 86.4094 131.047 86.4094C132.161 86.4094 133.031 86.1855 133.656 85.7375C134.281 85.2792 134.594 84.6438 134.594 83.8313Z" fill="white"/>
<path d="M147.594 68.7375V72.8938H150.484V76.2063H147.594V84.6438C147.594 85.2688 147.714 85.7167 147.953 85.9875C148.193 86.2584 148.651 86.3938 149.328 86.3938C149.828 86.3938 150.271 86.3573 150.656 86.2844V89.7063C149.771 89.9771 148.859 90.1125 147.922 90.1125C144.755 90.1125 143.141 88.5136 143.078 85.3157V76.2063H140.609V72.8938H143.078V68.7375H147.594Z" fill="white"/>
<path d="M162.5 77.1282C161.885 77.0448 161.344 77.0032 160.875 77.0032C159.167 77.0032 158.047 77.5813 157.516 78.7375V89.8H153V72.8938H157.266L157.391 74.9094C158.297 73.3573 159.552 72.5813 161.156 72.5813C161.656 72.5813 162.125 72.649 162.562 72.7844L162.5 77.1282Z" fill="white"/>
<path d="M174.016 89.8C173.807 89.3938 173.656 88.8886 173.562 88.2844C172.469 89.5032 171.047 90.1125 169.297 90.1125C167.641 90.1125 166.266 89.6334 165.172 88.675C164.089 87.7167 163.547 86.5084 163.547 85.05C163.547 83.2584 164.208 81.8834 165.531 80.925C166.865 79.9667 168.786 79.4823 171.297 79.4719H173.375V78.5032C173.375 77.7219 173.172 77.0969 172.766 76.6282C172.37 76.1594 171.74 75.925 170.875 75.925C170.115 75.925 169.516 76.1073 169.078 76.4719C168.651 76.8365 168.438 77.3365 168.438 77.9719H163.922C163.922 76.9928 164.224 76.0865 164.828 75.2532C165.432 74.4198 166.286 73.7688 167.391 73.3C168.495 72.8209 169.734 72.5813 171.109 72.5813C173.193 72.5813 174.844 73.1073 176.062 74.1594C177.292 75.2011 177.906 76.6698 177.906 78.5657V85.8938C177.917 87.498 178.141 88.7115 178.578 89.5344V89.8H174.016ZM170.281 86.6594C170.948 86.6594 171.562 86.5136 172.125 86.2219C172.688 85.9198 173.104 85.5188 173.375 85.0188V82.1125H171.688C169.427 82.1125 168.224 82.8938 168.078 84.4563L168.062 84.7219C168.062 85.2844 168.26 85.748 168.656 86.1125C169.052 86.4771 169.594 86.6594 170.281 86.6594Z" fill="white"/>
<path d="M186.781 68.7375V72.8938H189.672V76.2063H186.781V84.6438C186.781 85.2688 186.901 85.7167 187.141 85.9875C187.38 86.2584 187.839 86.3938 188.516 86.3938C189.016 86.3938 189.458 86.3573 189.844 86.2844V89.7063C188.958 89.9771 188.047 90.1125 187.109 90.1125C183.943 90.1125 182.328 88.5136 182.266 85.3157V76.2063H179.797V72.8938H182.266V68.7375H186.781Z" fill="white"/>
<path d="M199.969 90.1125C197.49 90.1125 195.469 89.3521 193.906 87.8313C192.354 86.3105 191.578 84.2844 191.578 81.7532V81.3157C191.578 79.6178 191.906 78.1021 192.562 76.7688C193.219 75.425 194.146 74.3938 195.344 73.675C196.552 72.9459 197.927 72.5813 199.469 72.5813C201.781 72.5813 203.599 73.3105 204.922 74.7688C206.255 76.2271 206.922 78.2948 206.922 80.9719V82.8157H196.156C196.302 83.9198 196.74 84.8053 197.469 85.4719C198.208 86.1386 199.141 86.4719 200.266 86.4719C202.005 86.4719 203.365 85.8417 204.344 84.5813L206.562 87.0657C205.885 88.024 204.969 88.774 203.812 89.3157C202.656 89.8469 201.375 90.1125 199.969 90.1125ZM199.453 76.2375C198.557 76.2375 197.828 76.5396 197.266 77.1438C196.714 77.748 196.359 78.6125 196.203 79.7375H202.484V79.3782C202.464 78.3782 202.193 77.6073 201.672 77.0657C201.151 76.5136 200.411 76.2375 199.453 76.2375Z" fill="white"/>
<path d="M208.844 81.2219C208.844 78.6282 209.458 76.5396 210.688 74.9563C211.927 73.373 213.594 72.5813 215.688 72.5813C217.542 72.5813 218.984 73.2167 220.016 74.4875L220.203 72.8938H224.297V89.2375C224.297 90.7167 223.958 92.0032 223.281 93.0969C222.615 94.1907 221.672 95.024 220.453 95.5969C219.234 96.1698 217.807 96.4563 216.172 96.4563C214.932 96.4563 213.724 96.2063 212.547 95.7063C211.37 95.2167 210.479 94.5813 209.875 93.8L211.875 91.05C213 92.3105 214.365 92.9407 215.969 92.9407C217.167 92.9407 218.099 92.6178 218.766 91.9719C219.432 91.3365 219.766 90.4303 219.766 89.2532V88.3469C218.724 89.524 217.354 90.1125 215.656 90.1125C213.625 90.1125 211.979 89.3209 210.719 87.7375C209.469 86.1438 208.844 84.0344 208.844 81.4094V81.2219ZM213.359 81.55C213.359 83.0813 213.667 84.2844 214.281 85.1594C214.896 86.024 215.74 86.4563 216.812 86.4563C218.188 86.4563 219.172 85.9407 219.766 84.9094V77.8C219.161 76.7688 218.188 76.2532 216.844 76.2532C215.76 76.2532 214.906 76.6959 214.281 77.5813C213.667 78.4667 213.359 79.7896 213.359 81.55Z" fill="white"/>
<path d="M232.547 89.8H228.016V72.8938H232.547V89.8ZM227.75 68.5188C227.75 67.8417 227.974 67.2844 228.422 66.8469C228.88 66.4094 229.5 66.1907 230.281 66.1907C231.052 66.1907 231.667 66.4094 232.125 66.8469C232.583 67.2844 232.812 67.8417 232.812 68.5188C232.812 69.2063 232.578 69.7688 232.109 70.2063C231.651 70.6438 231.042 70.8625 230.281 70.8625C229.521 70.8625 228.906 70.6438 228.438 70.2063C227.979 69.7688 227.75 69.2063 227.75 68.5188Z" fill="white"/>
<path d="M243.312 86.4719C244.146 86.4719 244.823 86.2428 245.344 85.7844C245.865 85.3261 246.135 84.7167 246.156 83.9563H250.391C250.38 85.1021 250.068 86.1542 249.453 87.1125C248.839 88.0605 247.995 88.8 246.922 89.3313C245.859 89.8521 244.682 90.1125 243.391 90.1125C240.974 90.1125 239.068 89.3469 237.672 87.8157C236.276 86.274 235.578 84.149 235.578 81.4407V81.1438C235.578 78.5396 236.271 76.4615 237.656 74.9094C239.042 73.3573 240.943 72.5813 243.359 72.5813C245.474 72.5813 247.167 73.1855 248.438 74.3938C249.719 75.5917 250.37 77.1907 250.391 79.1907H246.156C246.135 78.3157 245.865 77.6073 245.344 77.0657C244.823 76.5136 244.135 76.2375 243.281 76.2375C242.229 76.2375 241.432 76.623 240.891 77.3938C240.359 78.1542 240.094 79.3938 240.094 81.1125V81.5813C240.094 83.3209 240.359 84.5709 240.891 85.3313C241.422 86.0917 242.229 86.4719 243.312 86.4719Z" fill="white"/>
<path d="M108.344 119.784V127.8H103.656V105.05H112.531C114.24 105.05 115.74 105.363 117.031 105.988C118.333 106.613 119.333 107.503 120.031 108.659C120.729 109.805 121.078 111.113 121.078 112.581C121.078 114.81 120.312 116.571 118.781 117.863C117.26 119.144 115.151 119.784 112.453 119.784H108.344ZM108.344 115.988H112.531C113.771 115.988 114.714 115.696 115.359 115.113C116.016 114.529 116.344 113.696 116.344 112.613C116.344 111.498 116.016 110.597 115.359 109.909C114.703 109.222 113.797 108.868 112.641 108.847H108.344V115.988Z" fill="white"/>
<path d="M133.625 127.8C133.417 127.394 133.266 126.889 133.172 126.284C132.078 127.503 130.656 128.113 128.906 128.113C127.25 128.113 125.875 127.633 124.781 126.675C123.698 125.717 123.156 124.508 123.156 123.05C123.156 121.258 123.818 119.883 125.141 118.925C126.474 117.967 128.396 117.482 130.906 117.472H132.984V116.503C132.984 115.722 132.781 115.097 132.375 114.628C131.979 114.159 131.349 113.925 130.484 113.925C129.724 113.925 129.125 114.107 128.688 114.472C128.26 114.837 128.047 115.337 128.047 115.972H123.531C123.531 114.993 123.833 114.087 124.438 113.253C125.042 112.42 125.896 111.769 127 111.3C128.104 110.821 129.344 110.581 130.719 110.581C132.802 110.581 134.453 111.107 135.672 112.159C136.901 113.201 137.516 114.67 137.516 116.566V123.894C137.526 125.498 137.75 126.712 138.188 127.534V127.8H133.625ZM129.891 124.659C130.557 124.659 131.172 124.514 131.734 124.222C132.297 123.92 132.714 123.519 132.984 123.019V120.113H131.297C129.036 120.113 127.833 120.894 127.688 122.456L127.672 122.722C127.672 123.284 127.87 123.748 128.266 124.113C128.661 124.477 129.203 124.659 129.891 124.659Z" fill="white"/>
<path d="M150.484 115.128C149.87 115.045 149.328 115.003 148.859 115.003C147.151 115.003 146.031 115.581 145.5 116.738V127.8H140.984V110.894H145.25L145.375 112.909C146.281 111.357 147.536 110.581 149.141 110.581C149.641 110.581 150.109 110.649 150.547 110.784L150.484 115.128Z" fill="white"/>
<path d="M158.859 106.738V110.894H161.75V114.206H158.859V122.644C158.859 123.269 158.979 123.717 159.219 123.988C159.458 124.258 159.917 124.394 160.594 124.394C161.094 124.394 161.536 124.357 161.922 124.284V127.706C161.036 127.977 160.125 128.113 159.188 128.113C156.021 128.113 154.406 126.514 154.344 123.316V114.206H151.875V110.894H154.344V106.738H158.859Z" fill="white"/>
<path d="M168.422 110.894L168.562 112.847C169.771 111.337 171.391 110.581 173.422 110.581C175.214 110.581 176.547 111.107 177.422 112.159C178.297 113.212 178.745 114.784 178.766 116.878V127.8H174.25V116.988C174.25 116.029 174.042 115.337 173.625 114.909C173.208 114.472 172.516 114.253 171.547 114.253C170.276 114.253 169.323 114.795 168.688 115.878V127.8H164.172V110.894H168.422Z" fill="white"/>
<path d="M189.984 128.113C187.505 128.113 185.484 127.352 183.922 125.831C182.37 124.31 181.594 122.284 181.594 119.753V119.316C181.594 117.618 181.922 116.102 182.578 114.769C183.234 113.425 184.161 112.394 185.359 111.675C186.568 110.946 187.943 110.581 189.484 110.581C191.797 110.581 193.615 111.31 194.938 112.769C196.271 114.227 196.938 116.295 196.938 118.972V120.816H186.172C186.318 121.92 186.755 122.805 187.484 123.472C188.224 124.139 189.156 124.472 190.281 124.472C192.021 124.472 193.38 123.842 194.359 122.581L196.578 125.066C195.901 126.024 194.984 126.774 193.828 127.316C192.672 127.847 191.391 128.113 189.984 128.113ZM189.469 114.238C188.573 114.238 187.844 114.54 187.281 115.144C186.729 115.748 186.375 116.613 186.219 117.738H192.5V117.378C192.479 116.378 192.208 115.607 191.688 115.066C191.167 114.514 190.427 114.238 189.469 114.238Z" fill="white"/>
<path d="M209.016 115.128C208.401 115.045 207.859 115.003 207.391 115.003C205.682 115.003 204.562 115.581 204.031 116.738V127.8H199.516V110.894H203.781L203.906 112.909C204.812 111.357 206.068 110.581 207.672 110.581C208.172 110.581 208.641 110.649 209.078 110.784L209.016 115.128Z" fill="white"/>
<path d="M220.359 123.128C220.359 122.576 220.083 122.144 219.531 121.831C218.99 121.508 218.115 121.222 216.906 120.972C212.885 120.128 210.875 118.42 210.875 115.847C210.875 114.347 211.495 113.097 212.734 112.097C213.984 111.087 215.615 110.581 217.625 110.581C219.771 110.581 221.484 111.087 222.766 112.097C224.057 113.107 224.703 114.42 224.703 116.034H220.188C220.188 115.389 219.979 114.857 219.562 114.441C219.146 114.014 218.495 113.8 217.609 113.8C216.849 113.8 216.26 113.972 215.844 114.316C215.427 114.659 215.219 115.097 215.219 115.628C215.219 116.128 215.453 116.534 215.922 116.847C216.401 117.149 217.203 117.415 218.328 117.644C219.453 117.863 220.401 118.113 221.172 118.394C223.557 119.269 224.75 120.784 224.75 122.941C224.75 124.482 224.089 125.732 222.766 126.691C221.443 127.639 219.734 128.113 217.641 128.113C216.224 128.113 214.964 127.863 213.859 127.363C212.766 126.852 211.906 126.159 211.281 125.284C210.656 124.399 210.344 123.446 210.344 122.425H214.625C214.667 123.227 214.964 123.842 215.516 124.269C216.068 124.696 216.807 124.909 217.734 124.909C218.599 124.909 219.25 124.748 219.688 124.425C220.135 124.092 220.359 123.659 220.359 123.128Z" fill="white"/>
<path d="M232.078 112.738C233.276 111.3 234.781 110.581 236.594 110.581C240.26 110.581 242.12 112.712 242.172 116.972V127.8H237.656V117.097C237.656 116.128 237.448 115.415 237.031 114.956C236.615 114.488 235.922 114.253 234.953 114.253C233.63 114.253 232.672 114.764 232.078 115.784V127.8H227.562V103.8H232.078V112.738Z" fill="white"/>
<path d="M250.344 127.8H245.812V110.894H250.344V127.8ZM245.547 106.519C245.547 105.842 245.771 105.284 246.219 104.847C246.677 104.409 247.297 104.191 248.078 104.191C248.849 104.191 249.464 104.409 249.922 104.847C250.38 105.284 250.609 105.842 250.609 106.519C250.609 107.206 250.375 107.769 249.906 108.206C249.448 108.644 248.839 108.863 248.078 108.863C247.318 108.863 246.703 108.644 246.234 108.206C245.776 107.769 245.547 107.206 245.547 106.519Z" fill="white"/>
<path d="M269.297 119.503C269.297 122.107 268.703 124.196 267.516 125.769C266.339 127.331 264.745 128.113 262.734 128.113C261.026 128.113 259.646 127.519 258.594 126.331V134.3H254.078V110.894H258.266L258.422 112.55C259.516 111.238 260.943 110.581 262.703 110.581C264.786 110.581 266.406 111.352 267.562 112.894C268.719 114.435 269.297 116.56 269.297 119.269V119.503ZM264.781 119.175C264.781 117.602 264.5 116.389 263.938 115.534C263.385 114.68 262.578 114.253 261.516 114.253C260.099 114.253 259.125 114.795 258.594 115.878V122.8C259.146 123.915 260.13 124.472 261.547 124.472C263.703 124.472 264.781 122.706 264.781 119.175Z" fill="white"/>
<path d="M129.418 293.8H127.533L120.375 282.843V293.8H118.49V279.581H120.375L127.553 290.587V279.581H129.418V293.8Z" fill="white"/>
<path d="M142.758 279.581V289.249C142.751 290.59 142.328 291.687 141.488 292.54C140.655 293.393 139.522 293.872 138.09 293.976L137.592 293.995C136.036 293.995 134.796 293.575 133.871 292.736C132.947 291.896 132.478 290.74 132.465 289.269V279.581H134.32V289.21C134.32 290.239 134.604 291.04 135.17 291.613C135.736 292.179 136.544 292.462 137.592 292.462C138.653 292.462 139.464 292.179 140.023 291.613C140.59 291.046 140.873 290.249 140.873 289.22V279.581H142.758Z" fill="white"/>
<path d="M147.602 292.267H154.34V293.8H145.717V279.581H147.602V292.267Z" fill="white"/>
<path d="M166.771 287.15C166.771 288.543 166.537 289.76 166.068 290.802C165.6 291.837 164.936 292.628 164.076 293.175C163.217 293.722 162.214 293.995 161.068 293.995C159.949 293.995 158.956 293.722 158.09 293.175C157.224 292.622 156.55 291.837 156.068 290.822C155.593 289.799 155.349 288.618 155.336 287.277V286.251C155.336 284.884 155.574 283.676 156.049 282.628C156.524 281.58 157.195 280.779 158.061 280.226C158.933 279.666 159.929 279.386 161.049 279.386C162.188 279.386 163.191 279.663 164.057 280.216C164.929 280.763 165.6 281.56 166.068 282.609C166.537 283.65 166.771 284.865 166.771 286.251V287.15ZM164.906 286.232C164.906 284.545 164.568 283.253 163.891 282.355C163.214 281.45 162.266 280.997 161.049 280.997C159.864 280.997 158.93 281.45 158.246 282.355C157.569 283.253 157.221 284.503 157.201 286.105V287.15C157.201 288.784 157.543 290.07 158.227 291.007C158.917 291.938 159.864 292.404 161.068 292.404C162.279 292.404 163.217 291.964 163.881 291.085C164.545 290.2 164.887 288.934 164.906 287.286V286.232Z" fill="white"/>
<path d="M180.082 291.935C179.6 292.625 178.926 293.142 178.061 293.488C177.201 293.826 176.199 293.995 175.053 293.995C173.894 293.995 172.865 293.725 171.967 293.185C171.068 292.638 170.372 291.863 169.877 290.861C169.389 289.858 169.138 288.696 169.125 287.374V286.134C169.125 283.992 169.623 282.332 170.619 281.154C171.622 279.975 173.028 279.386 174.838 279.386C176.322 279.386 177.517 279.767 178.422 280.529C179.327 281.284 179.88 282.358 180.082 283.751H178.207C177.855 281.87 176.736 280.929 174.848 280.929C173.591 280.929 172.637 281.372 171.986 282.257C171.342 283.136 171.016 284.412 171.01 286.085V287.247C171.01 288.842 171.374 290.112 172.104 291.056C172.833 291.993 173.819 292.462 175.062 292.462C175.766 292.462 176.381 292.384 176.908 292.228C177.436 292.072 177.872 291.808 178.217 291.437V288.243H174.926V286.72H180.082V291.935Z" fill="white"/>
<path d="M187.553 286.72L191.264 279.581H193.393L188.49 288.497V293.8H186.615V288.497L181.713 279.581H183.861L187.553 286.72Z" fill="white"/>
<path d="M199.887 286.261C199.887 285.695 200.066 285.229 200.424 284.865C200.788 284.5 201.27 284.318 201.869 284.318C202.462 284.318 202.943 284.497 203.314 284.855C203.686 285.206 203.871 285.685 203.871 286.29V286.652C203.871 287.218 203.692 287.68 203.334 288.038C202.976 288.396 202.491 288.575 201.879 288.575C201.273 288.575 200.788 288.396 200.424 288.038C200.066 287.674 199.887 287.205 199.887 286.632V286.261Z" fill="white"/>
<path d="M220.736 293.8H211.42V292.501L216.342 287.032C217.071 286.206 217.572 285.535 217.846 285.021C218.126 284.5 218.266 283.963 218.266 283.409C218.266 282.667 218.041 282.059 217.592 281.583C217.143 281.108 216.544 280.87 215.795 280.87C214.896 280.87 214.197 281.128 213.695 281.642C213.201 282.15 212.953 282.859 212.953 283.771H211.146C211.146 282.462 211.566 281.404 212.406 280.597C213.253 279.79 214.382 279.386 215.795 279.386C217.117 279.386 218.161 279.734 218.93 280.431C219.698 281.121 220.082 282.042 220.082 283.195C220.082 284.594 219.19 286.261 217.406 288.195L213.598 292.325H220.736V293.8Z" fill="white"/>
<path d="M231.566 287.736C231.566 289.851 231.205 291.424 230.482 292.452C229.76 293.481 228.63 293.995 227.094 293.995C225.577 293.995 224.454 293.494 223.725 292.491C222.995 291.482 222.618 289.978 222.592 287.98V285.568C222.592 283.478 222.953 281.925 223.676 280.909C224.398 279.894 225.531 279.386 227.074 279.386C228.604 279.386 229.73 279.878 230.453 280.861C231.176 281.837 231.547 283.348 231.566 285.392V287.736ZM229.76 285.265C229.76 283.735 229.545 282.622 229.115 281.925C228.686 281.222 228.005 280.87 227.074 280.87C226.15 280.87 225.476 281.219 225.053 281.915C224.63 282.612 224.411 283.683 224.398 285.128V288.019C224.398 289.555 224.62 290.691 225.062 291.427C225.512 292.156 226.189 292.521 227.094 292.521C227.986 292.521 228.646 292.176 229.076 291.486C229.512 290.795 229.74 289.708 229.76 288.224V285.265Z" fill="white"/>
<path d="M239.818 293.8H238.002V281.759L234.359 283.097V281.456L239.535 279.513H239.818V293.8Z" fill="white"/>
<path d="M252.035 287.55C251.658 287.999 251.205 288.361 250.678 288.634C250.157 288.907 249.584 289.044 248.959 289.044C248.139 289.044 247.423 288.842 246.811 288.439C246.205 288.035 245.736 287.469 245.404 286.74C245.072 286.004 244.906 285.193 244.906 284.308C244.906 283.357 245.085 282.501 245.443 281.74C245.808 280.978 246.322 280.395 246.986 279.991C247.65 279.588 248.425 279.386 249.311 279.386C250.717 279.386 251.824 279.913 252.631 280.968C253.445 282.016 253.852 283.448 253.852 285.265V285.792C253.852 288.559 253.305 290.581 252.211 291.857C251.117 293.126 249.467 293.777 247.26 293.81H246.908V292.286H247.289C248.78 292.26 249.926 291.873 250.727 291.124C251.527 290.369 251.964 289.178 252.035 287.55ZM249.252 287.55C249.857 287.55 250.414 287.365 250.922 286.993C251.436 286.622 251.811 286.163 252.045 285.616V284.894C252.045 283.709 251.788 282.745 251.273 282.003C250.759 281.261 250.108 280.89 249.32 280.89C248.526 280.89 247.888 281.196 247.406 281.808C246.924 282.413 246.684 283.214 246.684 284.21C246.684 285.18 246.915 285.981 247.377 286.613C247.846 287.238 248.471 287.55 249.252 287.55Z" fill="white"/>
<path fill-rule="evenodd" clip-rule="evenodd" d="M139.2 204.626C139.2 203.769 139.657 202.977 140.399 202.548L184.8 176.897L229.201 202.548C229.943 202.977 230.4 203.769 230.4 204.626V258.497C230.4 259.822 229.325 260.897 228 260.897H141.6C140.274 260.897 139.2 259.822 139.2 258.497V204.626Z" fill="#D59F33" stroke="white" stroke-width="3" stroke-linejoin="round"/>
<rect x="151.2" y="205.697" width="67.2" height="7.2" fill="#D59F33" stroke="white" stroke-width="3" stroke-linejoin="round"/>
<path fill-rule="evenodd" clip-rule="evenodd" d="M154.8 214.097V259.697Z" fill="#D59F33"/>
<path d="M154.8 214.097V259.697" stroke="white" stroke-width="3" stroke-linecap="square"/>
<path fill-rule="evenodd" clip-rule="evenodd" d="M214.8 214.097V223.697Z" fill="#D59F33"/>
<path d="M214.8 214.097V223.697" stroke="white" stroke-width="3" stroke-linecap="round" stroke-linejoin="round"/>
<path fill-rule="evenodd" clip-rule="evenodd" d="M214.8 230.897V259.697Z" fill="#D59F33"/>
<path d="M214.8 230.897V259.697" stroke="white" stroke-width="3" stroke-linecap="round"/>
<rect x="154.8" y="241.697" width="21.6" height="19.2" fill="#D59F33" stroke="white" stroke-width="2.4" stroke-linejoin="round"/>
<rect x="162" y="241.697" width="7.2" height="9.6" fill="#D59F33" stroke="white" stroke-width="2.4" stroke-linejoin="round"/>
<path fill-rule="evenodd" clip-rule="evenodd" d="M162 256.097H169.2Z" fill="#D59F33"/>
<path d="M162 256.097H169.2" stroke="white" stroke-width="2.4" stroke-linecap="round"/>
<rect x="176.4" y="241.697" width="21.6" height="19.2" fill="#D59F33" stroke="white" stroke-width="2.4" stroke-linejoin="round"/>
<rect x="183.6" y="241.697" width="7.2" height="9.6" fill="#D59F33" stroke="white" stroke-width="2.4" stroke-linejoin="round"/>
<path fill-rule="evenodd" clip-rule="evenodd" d="M183.6 256.097H190.8Z" fill="#D59F33"/>
<path d="M183.6 256.097H190.8" stroke="white" stroke-width="2.4" stroke-linecap="round"/>
<rect x="154.8" y="222.497" width="21.6" height="19.2" fill="#D59F33" stroke="white" stroke-width="2.4" stroke-linejoin="round"/>
<rect x="162" y="222.497" width="7.2" height="9.6" fill="#D59F33" stroke="white" stroke-width="2.4" stroke-linejoin="round"/>
<path fill-rule="evenodd" clip-rule="evenodd" d="M162 236.897H169.2Z" fill="#D59F33"/>
<path d="M162 236.897H169.2" stroke="white" stroke-width="2.4" stroke-linecap="round"/>
<path fill-rule="evenodd" clip-rule="evenodd" d="M54 164.37L88 180.741V223L54 207.185V164.37Z" stroke="white" stroke-width="3" stroke-linejoin="round"/>
<path d="M54 164.37L88 148L103.018 155.231L122 164.37" stroke="white" stroke-width="3" stroke-linecap="round" stroke-linejoin="round"/>
<path d="M71.5 172.5L104.37 155.556" stroke="white" stroke-width="3" stroke-linejoin="round"/>
<path fill-rule="evenodd" clip-rule="evenodd" d="M121.349 163.648C121.814 163.425 122.361 163.455 122.798 163.73C123.235 164.004 123.5 164.484 123.5 165V181.63H122.5C121.802 181.63 121.13 181.74 120.5 181.943V167.387L89.5 182.313V220.618L105 213.729V217.012L88.6092 224.297C88.1452 224.503 87.6084 224.46 87.1826 224.184C86.7569 223.907 86.5 223.434 86.5 222.926V181.37C86.5 180.794 86.8301 180.269 87.3493 180.019L121.349 163.648ZM123.5 194.63V207.815C123.5 208.408 123.151 208.945 122.609 209.186L111 214.345V211.062L120.5 206.84V194.316C121.13 194.52 121.802 194.63 122.5 194.63H123.5ZM123.5 184.63V187.63H120.768H120.5V185.257C121.067 184.861 121.757 184.63 122.5 184.63H123.5ZM120.5 191.002V191.002C120.802 191.213 121.139 191.377 121.501 191.485C121.139 191.377 120.802 191.213 120.5 191.002Z" fill="white"/>
<path d="M122.798 163.73L122.532 164.153L122.532 164.153L122.798 163.73ZM121.349 163.648L121.566 164.099L121.566 164.099L121.349 163.648ZM123.5 181.63V182.13C123.776 182.13 124 181.906 124 181.63H123.5ZM120.5 181.943H120C120 182.103 120.076 182.253 120.206 182.347C120.335 182.442 120.502 182.468 120.654 182.419L120.5 181.943ZM120.5 167.387H121C121 167.215 120.912 167.055 120.766 166.964C120.62 166.872 120.438 166.862 120.283 166.937L120.5 167.387ZM89.5 182.313L89.2831 181.862C89.11 181.946 89 182.121 89 182.313H89.5ZM89.5 220.618H89C89 220.787 89.0856 220.945 89.2275 221.037C89.3695 221.129 89.5484 221.143 89.7031 221.075L89.5 220.618ZM105 213.729H105.5C105.5 213.56 105.414 213.402 105.272 213.31C105.131 213.217 104.952 213.203 104.797 213.272L105 213.729ZM105 217.012L105.203 217.469C105.384 217.389 105.5 217.209 105.5 217.012H105ZM88.6092 224.297L88.4061 223.84L88.4061 223.84L88.6092 224.297ZM87.1826 224.184L86.9102 224.603L86.9102 224.603L87.1826 224.184ZM87.3493 180.019L87.5662 180.469L87.5662 180.469L87.3493 180.019ZM123.5 194.63H124C124 194.353 123.776 194.13 123.5 194.13V194.63ZM122.609 209.186L122.406 208.729L122.406 208.729L122.609 209.186ZM111 214.345H110.5C110.5 214.514 110.586 214.672 110.728 214.764C110.869 214.857 111.048 214.871 111.203 214.802L111 214.345ZM111 211.062L110.797 210.605C110.616 210.686 110.5 210.865 110.5 211.062H111ZM120.5 206.84L120.703 207.297C120.884 207.217 121 207.038 121 206.84H120.5ZM120.5 194.316L120.654 193.84C120.502 193.791 120.335 193.818 120.206 193.912C120.076 194.006 120 194.156 120 194.316H120.5ZM123.5 187.63V188.13C123.776 188.13 124 187.906 124 187.63H123.5ZM123.5 184.63H124C124 184.353 123.776 184.13 123.5 184.13V184.63ZM120.5 187.63H120C120 187.906 120.224 188.13 120.5 188.13V187.63ZM120.5 185.257L120.214 184.847C120.08 184.94 120 185.093 120 185.257H120.5ZM120.5 191.002L120.786 190.592C120.633 190.485 120.434 190.473 120.269 190.559C120.104 190.645 120 190.816 120 191.002H120.5ZM120.5 191.002H120C120 191.166 120.08 191.319 120.214 191.412L120.5 191.002ZM121.501 191.485L121.358 191.964C121.623 192.043 121.901 191.892 121.98 191.627C122.059 191.363 121.908 191.084 121.643 191.006L121.501 191.485ZM123.064 163.307C122.482 162.941 121.752 162.9 121.132 163.198L121.566 164.099C121.876 163.95 122.241 163.97 122.532 164.153L123.064 163.307ZM124 165C124 164.312 123.647 163.673 123.064 163.307L122.532 164.153C122.823 164.336 123 164.656 123 165H124ZM124 181.63V165H123V181.63H124ZM122.5 182.13H123.5V181.13H122.5V182.13ZM120.654 182.419C121.235 182.231 121.855 182.13 122.5 182.13V181.13C121.749 181.13 121.025 181.248 120.346 181.467L120.654 182.419ZM120 167.387V181.943H121V167.387H120ZM89.7169 182.763L120.717 167.838L120.283 166.937L89.2831 181.862L89.7169 182.763ZM90 220.618V182.313H89V220.618H90ZM104.797 213.272L89.2969 220.161L89.7031 221.075L105.203 214.186L104.797 213.272ZM105.5 217.012V213.729H104.5V217.012H105.5ZM88.8123 224.754L105.203 217.469L104.797 216.555L88.4061 223.84L88.8123 224.754ZM86.9102 224.603C87.4778 224.972 88.1936 225.029 88.8123 224.754L88.4061 223.84C88.0968 223.977 87.7389 223.949 87.4551 223.764L86.9102 224.603ZM86 222.926C86 223.603 86.3425 224.234 86.9102 224.603L87.4551 223.764C87.1712 223.58 87 223.264 87 222.926H86ZM86 181.37V222.926H87V181.37H86ZM87.1324 179.568C86.4401 179.902 86 180.602 86 181.37H87C87 180.986 87.2201 180.636 87.5662 180.469L87.1324 179.568ZM121.132 163.198L87.1324 179.568L87.5662 180.469L121.566 164.099L121.132 163.198ZM124 207.815V194.63H123V207.815H124ZM122.812 209.642C123.535 209.321 124 208.605 124 207.815H123C123 208.21 122.767 208.568 122.406 208.729L122.812 209.642ZM111.203 214.802L122.812 209.642L122.406 208.729L110.797 213.888L111.203 214.802ZM110.5 211.062V214.345H111.5V211.062H110.5ZM120.297 206.383L110.797 210.605L111.203 211.519L120.703 207.297L120.297 206.383ZM120 194.316V206.84H121V194.316H120ZM122.5 194.13C121.855 194.13 121.235 194.028 120.654 193.84L120.346 194.792C121.025 195.011 121.749 195.13 122.5 195.13V194.13ZM123.5 194.13H122.5V195.13H123.5V194.13ZM124 187.63V184.63H123V187.63H124ZM120.768 188.13H123.5V187.13H120.768V188.13ZM120.5 188.13H120.768V187.13H120.5V188.13ZM120 185.257V187.63H121V185.257H120ZM122.5 184.13C121.652 184.13 120.863 184.394 120.214 184.847L120.786 185.667C121.272 185.328 121.863 185.13 122.5 185.13V184.13ZM123.5 184.13H122.5V185.13H123.5V184.13ZM120 191.002V191.002H121V191.002H120ZM121.643 191.006C121.334 190.914 121.045 190.773 120.786 190.592L120.214 191.412C120.559 191.653 120.944 191.841 121.358 191.964L121.643 191.006ZM120.214 191.412C120.559 191.653 120.945 191.841 121.358 191.964L121.643 191.006C121.334 190.914 121.045 190.773 120.786 190.592L120.214 191.412Z" fill="white"/>
<rect x="108" y="187.63" width="37" height="45" rx="1" fill="#D59F33" stroke="white" stroke-width="3"/>
<rect x="119" y="184.63" width="16" height="7" rx="3.5" stroke="white" stroke-width="3"/>
<rect x="119" y="184" width="16" height="7" rx="3.5" fill="#D59F33" stroke="white" stroke-width="3"/>
<path d="M114 202L116 204L121 198" stroke="white" stroke-width="2" stroke-linecap="round" stroke-linejoin="round"/>
<path d="M126 199H135" stroke="white" stroke-width="2" stroke-linecap="round" stroke-linejoin="round"/>
<path d="M126 203H139" stroke="white" stroke-width="2" stroke-linecap="round" stroke-linejoin="round"/>
<path d="M126 208.5H135" stroke="white" stroke-width="2" stroke-linecap="round" stroke-linejoin="round"/>
<path d="M126 212.5H139" stroke="white" stroke-width="2" stroke-linecap="round" stroke-linejoin="round"/>
<path d="M114 212L116 214L121 208" stroke="white" stroke-width="2" stroke-linecap="round" stroke-linejoin="round"/>
<rect x="114" y="220" width="6" height="6" rx="1" stroke="white" stroke-width="2"/>
<rect x="224" y="157" width="82" height="76" rx="1" fill="#D59F33" stroke="white" stroke-width="3"/>
<rect x="231" y="172" width="27" height="24" stroke="white" stroke-width="3" stroke-linejoin="round"/>
<path d="M231 203.92L231 226H279" stroke="white" stroke-width="3" stroke-linecap="round" stroke-linejoin="round"/>
<path d="M266.321 208.52H257.264V226" stroke="white" stroke-width="3" stroke-linecap="round" stroke-linejoin="round"/>
<path d="M257.264 214.04H248.208V226" stroke="white" stroke-width="3" stroke-linecap="round" stroke-linejoin="round"/>
<path d="M248.207 219.56H239.151V226" stroke="white" stroke-width="3" stroke-linecap="round" stroke-linejoin="round"/>
<path d="M275.377 225.08V203L266.321 203V224.928" stroke="white" stroke-width="3" stroke-linecap="round" stroke-linejoin="round"/>
<path d="M286 203.5H299" stroke="white" stroke-width="3" stroke-linecap="round" stroke-linejoin="round"/>
<path d="M286 208.5H297" stroke="white" stroke-width="3" stroke-linecap="round" stroke-linejoin="round"/>
<path d="M286 214.5H293" stroke="white" stroke-width="3" stroke-linecap="round" stroke-linejoin="round"/>
<path d="M286 225.5H299" stroke="white" stroke-width="3" stroke-linecap="round" stroke-linejoin="round"/>
<path d="M224 164.5H306" stroke="white" stroke-width="3" stroke-linecap="round" stroke-linejoin="round"/>
<ellipse cx="268.23" cy="193.778" rx="2.22973" ry="2.22222" stroke="white" stroke-width="2"/>
<ellipse cx="296.77" cy="174.222" rx="2.22973" ry="2.22222" stroke="white" stroke-width="2"/>
<ellipse cx="289.635" cy="176" rx="2.22973" ry="2.22222" stroke="white" stroke-width="2"/>
<ellipse cx="282.5" cy="186.667" rx="2.22973" ry="2.22222" stroke="white" stroke-width="2"/>
<ellipse cx="275.365" cy="183.111" rx="2.22973" ry="2.22222" stroke="white" stroke-width="2"/>
<path d="M270.014 192L274.473 184.889" stroke="white" stroke-width="3"/>
<path d="M291.196 175.333L294.986 174.222" stroke="white" stroke-width="3"/>
<path d="M283.392 185.778L287.851 177.778" stroke="white" stroke-width="3"/>
<path d="M280.716 185.778L276.703 183.556" stroke="white" stroke-width="3"/>
<defs>
<filter id="filter0_d" x="0" y="0" width="369.6" height="369.6" filterUnits="userSpaceOnUse" color-interpolation-filters="sRGB">
<feFlood flood-opacity="0" result="BackgroundImageFix"/>
<feColorMatrix in="SourceAlpha" type="matrix" values="0 0 0 0 0 0 0 0 0 0 0 0 0 0 0 0 0 0 127 0"/>
<feOffset dy="5"/>
<feGaussianBlur stdDeviation="6"/>
<feColorMatrix type="matrix" values="0 0 0 0 0.552941 0 0 0 0 0.552941 0 0 0 0 0.552941 0 0 0 0.5 0"/>
<feBlend mode="normal" in2="BackgroundImageFix" result="effect1_dropShadow"/>
<feBlend mode="normal" in="SourceGraphic" in2="effect1_dropShadow" result="shape"/>
</filter>
</defs>
</svg>
