<svg width="370" height="370" viewBox="0 0 370 370" fill="none" xmlns="http://www.w3.org/2000/svg">
<g filter="url(#filter0_d_624_10342)">
<circle cx="184.8" cy="179.8" r="172.8" fill="url(#paint0_linear_624_10342)"/>
</g>
<rect x="132" y="152" width="106.816" height="99" rx="1" stroke="white" stroke-width="3"/>
<rect x="141.118" y="171.54" width="35.1711" height="31.2632" stroke="white" stroke-width="3" stroke-linejoin="round"/>
<path d="M141.118 213.119L141.118 241.881H203.645" stroke="white" stroke-width="3" stroke-linecap="round" stroke-linejoin="round"/>
<path d="M187.128 219.112H175.331V241.882" stroke="white" stroke-width="3" stroke-linecap="round" stroke-linejoin="round"/>
<path d="M175.331 226.302H163.533V241.882" stroke="white" stroke-width="3" stroke-linecap="round" stroke-linejoin="round"/>
<path d="M163.534 233.493H151.736V241.882" stroke="white" stroke-width="3" stroke-linecap="round" stroke-linejoin="round"/>
<path d="M198.926 240.683V211.921L187.128 211.921V240.485" stroke="white" stroke-width="3" stroke-linecap="round" stroke-linejoin="round"/>
<path d="M212.763 212.572H229.697" stroke="white" stroke-width="3" stroke-linecap="round" stroke-linejoin="round"/>
<path d="M212.763 219.086H227.092" stroke="white" stroke-width="3" stroke-linecap="round" stroke-linejoin="round"/>
<path d="M212.763 226.901H221.882" stroke="white" stroke-width="3" stroke-linecap="round" stroke-linejoin="round"/>
<path d="M212.763 241.23H229.697" stroke="white" stroke-width="3" stroke-linecap="round" stroke-linejoin="round"/>
<path d="M132 161.77H238.816" stroke="white" stroke-width="3" stroke-linecap="round" stroke-linejoin="round"/>
<ellipse cx="189.615" cy="199.908" rx="2.90452" ry="2.89474" stroke="white" stroke-width="2"/>
<ellipse cx="226.793" cy="174.434" rx="2.90452" ry="2.89474" stroke="white" stroke-width="2"/>
<ellipse cx="217.499" cy="176.75" rx="2.90452" ry="2.89474" stroke="white" stroke-width="2"/>
<ellipse cx="208.204" cy="190.644" rx="2.90452" ry="2.89474" stroke="white" stroke-width="2"/>
<ellipse cx="198.91" cy="186.013" rx="2.90452" ry="2.89474" stroke="white" stroke-width="2"/>
<path d="M191.939 197.592L197.748 188.329" stroke="white" stroke-width="3"/>
<path d="M219.532 175.882L224.469 174.434" stroke="white" stroke-width="3"/>
<path d="M209.366 189.487L215.175 179.066" stroke="white" stroke-width="3"/>
<path d="M205.88 189.487L200.652 186.592" stroke="white" stroke-width="3"/>
<path d="M143.78 89.8V71.62H136.97V67.6H155.21V71.62H148.4V89.8H143.78ZM161.839 73.6C162.859 73.6 163.699 73.77 164.359 74.11C165.019 74.43 165.519 74.78 165.859 75.16C166.219 75.54 166.439 75.8 166.519 75.94H166.759V73.9H171.319V89.8H166.759V87.76H166.519C166.439 87.9 166.219 88.16 165.859 88.54C165.519 88.92 165.019 89.28 164.359 89.62C163.699 89.94 162.859 90.1 161.839 90.1C160.659 90.1 159.629 89.87 158.749 89.41C157.889 88.93 157.169 88.3 156.589 87.52C156.009 86.72 155.569 85.83 155.269 84.85C154.989 83.87 154.849 82.87 154.849 81.85C154.849 80.83 154.989 79.83 155.269 78.85C155.569 77.87 156.009 76.99 156.589 76.21C157.169 75.41 157.889 74.78 158.749 74.32C159.629 73.84 160.659 73.6 161.839 73.6ZM163.159 77.29C162.339 77.29 161.649 77.52 161.089 77.98C160.549 78.42 160.139 78.99 159.859 79.69C159.599 80.39 159.469 81.11 159.469 81.85C159.469 82.59 159.599 83.31 159.859 84.01C160.139 84.71 160.549 85.29 161.089 85.75C161.649 86.19 162.339 86.41 163.159 86.41C163.979 86.41 164.659 86.19 165.199 85.75C165.759 85.29 166.169 84.71 166.429 84.01C166.709 83.31 166.849 82.59 166.849 81.85C166.849 81.11 166.709 80.39 166.429 79.69C166.169 78.99 165.759 78.42 165.199 77.98C164.659 77.52 163.979 77.29 163.159 77.29ZM174.805 89.8V73.9H179.335V76.21H179.485C179.665 75.79 179.915 75.38 180.235 74.98C180.555 74.58 180.995 74.25 181.555 73.99C182.115 73.73 182.835 73.6 183.715 73.6C184.155 73.6 184.505 73.63 184.765 73.69C185.025 73.73 185.155 73.75 185.155 73.75V78.25C185.155 78.25 185.005 78.22 184.705 78.16C184.425 78.1 184.055 78.07 183.595 78.07C182.175 78.07 181.115 78.46 180.415 79.24C179.715 80 179.365 81.25 179.365 82.99V89.8H174.805ZM195.153 96.16C193.673 96.16 192.453 95.98 191.493 95.62C190.553 95.26 189.803 94.8 189.243 94.24C188.683 93.7 188.273 93.16 188.013 92.62C187.753 92.08 187.583 91.62 187.503 91.24C187.443 90.88 187.413 90.7 187.413 90.7H191.853C191.853 90.7 191.883 90.79 191.943 90.97C192.023 91.17 192.173 91.39 192.393 91.63C192.613 91.89 192.933 92.11 193.353 92.29C193.793 92.49 194.373 92.59 195.093 92.59C196.333 92.59 197.243 92.24 197.823 91.54C198.423 90.84 198.723 89.92 198.723 88.78V87.1H198.513C198.313 87.42 198.013 87.77 197.613 88.15C197.213 88.53 196.703 88.85 196.083 89.11C195.463 89.37 194.713 89.5 193.833 89.5C192.653 89.5 191.623 89.28 190.743 88.84C189.863 88.38 189.123 87.77 188.523 87.01C187.943 86.25 187.503 85.4 187.203 84.46C186.923 83.52 186.783 82.55 186.783 81.55C186.783 80.57 186.923 79.61 187.203 78.67C187.503 77.71 187.943 76.85 188.523 76.09C189.123 75.33 189.863 74.73 190.743 74.29C191.623 73.83 192.653 73.6 193.833 73.6C194.713 73.6 195.463 73.74 196.083 74.02C196.703 74.28 197.213 74.6 197.613 74.98C198.033 75.34 198.333 75.69 198.513 76.03H198.723V73.9H203.283V88.78C203.283 90.1 202.993 91.32 202.413 92.44C201.833 93.56 200.943 94.46 199.743 95.14C198.543 95.82 197.013 96.16 195.153 96.16ZM195.093 85.9C195.933 85.9 196.623 85.69 197.163 85.27C197.723 84.85 198.143 84.31 198.423 83.65C198.703 82.97 198.843 82.27 198.843 81.55C198.843 80.81 198.703 80.11 198.423 79.45C198.143 78.79 197.723 78.25 197.163 77.83C196.623 77.41 195.933 77.2 195.093 77.2C194.273 77.2 193.583 77.41 193.023 77.83C192.483 78.25 192.073 78.79 191.793 79.45C191.513 80.11 191.373 80.81 191.373 81.55C191.373 82.27 191.513 82.97 191.793 83.65C192.073 84.31 192.483 84.85 193.023 85.27C193.583 85.69 194.273 85.9 195.093 85.9ZM214.454 90.1C213.054 90.1 211.844 89.87 210.824 89.41C209.804 88.93 208.964 88.3 208.304 87.52C207.644 86.72 207.144 85.83 206.804 84.85C206.484 83.87 206.324 82.86 206.324 81.82C206.324 80.82 206.474 79.84 206.774 78.88C207.094 77.9 207.574 77.01 208.214 76.21C208.874 75.41 209.704 74.78 210.704 74.32C211.724 73.84 212.924 73.6 214.304 73.6C215.764 73.6 217.054 73.92 218.174 74.56C219.314 75.2 220.204 76.15 220.844 77.41C221.484 78.65 221.804 80.16 221.804 81.94V83.05H210.914C210.974 84.01 211.304 84.84 211.904 85.54C212.524 86.24 213.374 86.59 214.454 86.59C215.074 86.59 215.574 86.5 215.954 86.32C216.354 86.12 216.664 85.9 216.884 85.66C217.104 85.4 217.254 85.17 217.334 84.97C217.414 84.77 217.454 84.67 217.454 84.67H221.654C221.654 84.67 221.604 84.86 221.504 85.24C221.424 85.6 221.244 86.05 220.964 86.59C220.684 87.13 220.274 87.67 219.734 88.21C219.214 88.75 218.524 89.2 217.664 89.56C216.804 89.92 215.734 90.1 214.454 90.1ZM210.914 80.29H217.424C217.364 79.19 217.034 78.37 216.434 77.83C215.834 77.29 215.094 77.02 214.214 77.02C213.334 77.02 212.584 77.31 211.964 77.89C211.344 78.45 210.994 79.25 210.914 80.29ZM232.196 90.1C230.956 90.1 229.966 89.92 229.226 89.56C228.486 89.18 227.926 88.71 227.546 88.15C227.166 87.57 226.916 86.96 226.796 86.32C226.676 85.68 226.616 85.09 226.616 84.55V77.53H223.916V73.9H226.616V69.97H231.176V73.9H234.566V77.53H231.176V84.43C231.176 85.09 231.346 85.6 231.686 85.96C232.046 86.32 232.636 86.5 233.456 86.5C233.816 86.5 234.146 86.47 234.446 86.41C234.746 86.35 234.896 86.32 234.896 86.32V89.83C234.896 89.83 234.626 89.87 234.086 89.95C233.546 90.05 232.916 90.1 232.196 90.1ZM96.1383 127.8L103.698 105.6H109.848L117.408 127.8H112.548L111.138 123.45H102.438L100.998 127.8H96.1383ZM103.728 119.43H109.848L106.788 110.16L103.728 119.43ZM126.725 128.1C125.405 128.1 124.315 127.92 123.455 127.56C122.595 127.2 121.905 126.76 121.385 126.24C120.885 125.7 120.505 125.17 120.245 124.65C120.005 124.11 119.845 123.66 119.765 123.3C119.705 122.94 119.675 122.76 119.675 122.76H123.905C123.905 122.76 123.935 122.86 123.995 123.06C124.055 123.26 124.185 123.49 124.385 123.75C124.605 124.01 124.915 124.24 125.315 124.44C125.715 124.64 126.255 124.74 126.935 124.74C127.775 124.74 128.345 124.57 128.645 124.23C128.965 123.89 129.125 123.55 129.125 123.21C129.125 122.49 128.535 122.01 127.355 121.77L125.195 121.35C124.275 121.17 123.405 120.91 122.585 120.57C121.785 120.21 121.135 119.72 120.635 119.1C120.155 118.46 119.915 117.64 119.915 116.64C119.915 115.68 120.165 114.82 120.665 114.06C121.165 113.3 121.875 112.7 122.795 112.26C123.735 111.82 124.855 111.6 126.155 111.6C127.375 111.6 128.385 111.77 129.185 112.11C130.005 112.43 130.655 112.84 131.135 113.34C131.615 113.82 131.975 114.31 132.215 114.81C132.455 115.29 132.605 115.7 132.665 116.04C132.745 116.36 132.785 116.52 132.785 116.52H128.705C128.705 116.52 128.645 116.39 128.525 116.13C128.405 115.85 128.155 115.58 127.775 115.32C127.415 115.04 126.855 114.9 126.095 114.9C125.315 114.9 124.775 115.06 124.475 115.38C124.175 115.68 124.025 116 124.025 116.34C124.025 116.74 124.195 117.04 124.535 117.24C124.895 117.44 125.355 117.6 125.915 117.72L127.985 118.14C129.505 118.44 130.755 118.97 131.735 119.73C132.715 120.47 133.205 121.55 133.205 122.97C133.205 123.93 132.955 124.8 132.455 125.58C131.955 126.36 131.225 126.98 130.265 127.44C129.305 127.88 128.125 128.1 126.725 128.1ZM142.662 128.1C141.342 128.1 140.252 127.92 139.392 127.56C138.532 127.2 137.842 126.76 137.322 126.24C136.822 125.7 136.442 125.17 136.182 124.65C135.942 124.11 135.782 123.66 135.702 123.3C135.642 122.94 135.612 122.76 135.612 122.76H139.842C139.842 122.76 139.872 122.86 139.932 123.06C139.992 123.26 140.122 123.49 140.322 123.75C140.542 124.01 140.852 124.24 141.252 124.44C141.652 124.64 142.192 124.74 142.872 124.74C143.712 124.74 144.282 124.57 144.582 124.23C144.902 123.89 145.062 123.55 145.062 123.21C145.062 122.49 144.472 122.01 143.292 121.77L141.132 121.35C140.212 121.17 139.342 120.91 138.522 120.57C137.722 120.21 137.072 119.72 136.572 119.1C136.092 118.46 135.852 117.64 135.852 116.64C135.852 115.68 136.102 114.82 136.602 114.06C137.102 113.3 137.812 112.7 138.732 112.26C139.672 111.82 140.792 111.6 142.092 111.6C143.312 111.6 144.322 111.77 145.122 112.11C145.942 112.43 146.592 112.84 147.072 113.34C147.552 113.82 147.912 114.31 148.152 114.81C148.392 115.29 148.542 115.7 148.602 116.04C148.682 116.36 148.722 116.52 148.722 116.52H144.642C144.642 116.52 144.582 116.39 144.462 116.13C144.342 115.85 144.092 115.58 143.712 115.32C143.352 115.04 142.792 114.9 142.032 114.9C141.252 114.9 140.712 115.06 140.412 115.38C140.112 115.68 139.962 116 139.962 116.34C139.962 116.74 140.132 117.04 140.472 117.24C140.832 117.44 141.292 117.6 141.852 117.72L143.922 118.14C145.442 118.44 146.692 118.97 147.672 119.73C148.652 120.47 149.142 121.55 149.142 122.97C149.142 123.93 148.892 124.8 148.392 125.58C147.892 126.36 147.162 126.98 146.202 127.44C145.242 127.88 144.062 128.1 142.662 128.1ZM159.889 128.1C158.489 128.1 157.279 127.87 156.259 127.41C155.239 126.93 154.399 126.3 153.739 125.52C153.079 124.72 152.579 123.83 152.239 122.85C151.919 121.87 151.759 120.86 151.759 119.82C151.759 118.82 151.909 117.84 152.209 116.88C152.529 115.9 153.009 115.01 153.649 114.21C154.309 113.41 155.139 112.78 156.139 112.32C157.159 111.84 158.359 111.6 159.739 111.6C161.199 111.6 162.489 111.92 163.609 112.56C164.749 113.2 165.639 114.15 166.279 115.41C166.919 116.65 167.239 118.16 167.239 119.94V121.05H156.349C156.409 122.01 156.739 122.84 157.339 123.54C157.959 124.24 158.809 124.59 159.889 124.59C160.509 124.59 161.009 124.5 161.389 124.32C161.789 124.12 162.099 123.9 162.319 123.66C162.539 123.4 162.689 123.17 162.769 122.97C162.849 122.77 162.889 122.67 162.889 122.67H167.089C167.089 122.67 167.039 122.86 166.939 123.24C166.859 123.6 166.679 124.05 166.399 124.59C166.119 125.13 165.709 125.67 165.169 126.21C164.649 126.75 163.959 127.2 163.099 127.56C162.239 127.92 161.169 128.1 159.889 128.1ZM156.349 118.29H162.859C162.799 117.19 162.469 116.37 161.869 115.83C161.269 115.29 160.529 115.02 159.649 115.02C158.769 115.02 158.019 115.31 157.399 115.89C156.779 116.45 156.429 117.25 156.349 118.29ZM177.203 128.1C175.883 128.1 174.793 127.92 173.933 127.56C173.073 127.2 172.383 126.76 171.863 126.24C171.363 125.7 170.983 125.17 170.723 124.65C170.483 124.11 170.323 123.66 170.243 123.3C170.183 122.94 170.153 122.76 170.153 122.76H174.383C174.383 122.76 174.413 122.86 174.473 123.06C174.533 123.26 174.663 123.49 174.863 123.75C175.083 124.01 175.393 124.24 175.793 124.44C176.193 124.64 176.733 124.74 177.413 124.74C178.253 124.74 178.823 124.57 179.123 124.23C179.443 123.89 179.603 123.55 179.603 123.21C179.603 122.49 179.013 122.01 177.833 121.77L175.673 121.35C174.753 121.17 173.883 120.91 173.063 120.57C172.263 120.21 171.613 119.72 171.113 119.1C170.633 118.46 170.393 117.64 170.393 116.64C170.393 115.68 170.643 114.82 171.143 114.06C171.643 113.3 172.353 112.7 173.273 112.26C174.213 111.82 175.333 111.6 176.633 111.6C177.853 111.6 178.863 111.77 179.663 112.11C180.483 112.43 181.133 112.84 181.613 113.34C182.093 113.82 182.453 114.31 182.693 114.81C182.933 115.29 183.083 115.7 183.143 116.04C183.223 116.36 183.263 116.52 183.263 116.52H179.183C179.183 116.52 179.123 116.39 179.003 116.13C178.883 115.85 178.633 115.58 178.253 115.32C177.893 115.04 177.333 114.9 176.573 114.9C175.793 114.9 175.253 115.06 174.953 115.38C174.653 115.68 174.503 116 174.503 116.34C174.503 116.74 174.673 117.04 175.013 117.24C175.373 117.44 175.833 117.6 176.393 117.72L178.463 118.14C179.983 118.44 181.233 118.97 182.213 119.73C183.193 120.47 183.683 121.55 183.683 122.97C183.683 123.93 183.433 124.8 182.933 125.58C182.433 126.36 181.703 126.98 180.743 127.44C179.783 127.88 178.603 128.1 177.203 128.1ZM193.141 128.1C191.821 128.1 190.731 127.92 189.871 127.56C189.011 127.2 188.321 126.76 187.801 126.24C187.301 125.7 186.921 125.17 186.661 124.65C186.421 124.11 186.261 123.66 186.181 123.3C186.121 122.94 186.091 122.76 186.091 122.76H190.321C190.321 122.76 190.351 122.86 190.411 123.06C190.471 123.26 190.601 123.49 190.801 123.75C191.021 124.01 191.331 124.24 191.731 124.44C192.131 124.64 192.671 124.74 193.351 124.74C194.191 124.74 194.761 124.57 195.061 124.23C195.381 123.89 195.541 123.55 195.541 123.21C195.541 122.49 194.951 122.01 193.771 121.77L191.611 121.35C190.691 121.17 189.821 120.91 189.001 120.57C188.201 120.21 187.551 119.72 187.051 119.1C186.571 118.46 186.331 117.64 186.331 116.64C186.331 115.68 186.581 114.82 187.081 114.06C187.581 113.3 188.291 112.7 189.211 112.26C190.151 111.82 191.271 111.6 192.571 111.6C193.791 111.6 194.801 111.77 195.601 112.11C196.421 112.43 197.071 112.84 197.551 113.34C198.031 113.82 198.391 114.31 198.631 114.81C198.871 115.29 199.021 115.7 199.081 116.04C199.161 116.36 199.201 116.52 199.201 116.52H195.121C195.121 116.52 195.061 116.39 194.941 116.13C194.821 115.85 194.571 115.58 194.191 115.32C193.831 115.04 193.271 114.9 192.511 114.9C191.731 114.9 191.191 115.06 190.891 115.38C190.591 115.68 190.441 116 190.441 116.34C190.441 116.74 190.611 117.04 190.951 117.24C191.311 117.44 191.771 117.6 192.331 117.72L194.401 118.14C195.921 118.44 197.171 118.97 198.151 119.73C199.131 120.47 199.621 121.55 199.621 122.97C199.621 123.93 199.371 124.8 198.871 125.58C198.371 126.36 197.641 126.98 196.681 127.44C195.721 127.88 194.541 128.1 193.141 128.1ZM202.564 127.8V111.9H207.124V114.06H207.274C207.614 113.48 208.124 112.93 208.804 112.41C209.484 111.87 210.414 111.6 211.594 111.6C212.794 111.6 213.754 111.88 214.474 112.44C215.214 113 215.754 113.69 216.094 114.51H216.154C216.414 114.05 216.754 113.6 217.174 113.16C217.614 112.7 218.154 112.33 218.794 112.05C219.454 111.75 220.224 111.6 221.104 111.6C222.204 111.6 223.114 111.85 223.834 112.35C224.554 112.85 225.084 113.51 225.424 114.33C225.784 115.13 225.964 115.99 225.964 116.91V127.8H221.404V118.05C221.404 117.27 221.204 116.63 220.804 116.13C220.424 115.61 219.844 115.35 219.064 115.35C218.464 115.35 217.974 115.5 217.594 115.8C217.234 116.1 216.964 116.49 216.784 116.97C216.624 117.43 216.544 117.91 216.544 118.41V127.8H211.984V118.05C211.984 117.27 211.784 116.63 211.384 116.13C211.004 115.61 210.424 115.35 209.644 115.35C209.044 115.35 208.554 115.5 208.174 115.8C207.814 116.1 207.544 116.49 207.364 116.97C207.204 117.43 207.124 117.91 207.124 118.41V127.8H202.564ZM237.203 128.1C235.803 128.1 234.593 127.87 233.573 127.41C232.553 126.93 231.713 126.3 231.053 125.52C230.393 124.72 229.893 123.83 229.553 122.85C229.233 121.87 229.073 120.86 229.073 119.82C229.073 118.82 229.223 117.84 229.523 116.88C229.843 115.9 230.323 115.01 230.963 114.21C231.623 113.41 232.453 112.78 233.453 112.32C234.473 111.84 235.673 111.6 237.053 111.6C238.513 111.6 239.803 111.92 240.923 112.56C242.063 113.2 242.953 114.15 243.593 115.41C244.233 116.65 244.553 118.16 244.553 119.94V121.05H233.663C233.723 122.01 234.053 122.84 234.653 123.54C235.273 124.24 236.123 124.59 237.203 124.59C237.823 124.59 238.323 124.5 238.703 124.32C239.103 124.12 239.413 123.9 239.633 123.66C239.853 123.4 240.003 123.17 240.083 122.97C240.163 122.77 240.203 122.67 240.203 122.67H244.403C244.403 122.67 244.353 122.86 244.253 123.24C244.173 123.6 243.993 124.05 243.713 124.59C243.433 125.13 243.023 125.67 242.483 126.21C241.963 126.75 241.273 127.2 240.413 127.56C239.553 127.92 238.483 128.1 237.203 128.1ZM233.663 118.29H240.173C240.113 117.19 239.783 116.37 239.183 115.83C238.583 115.29 237.843 115.02 236.963 115.02C236.083 115.02 235.333 115.31 234.713 115.89C234.093 116.45 233.743 117.25 233.663 118.29ZM247.652 127.8V111.9H252.212V114.18H252.362C252.542 113.86 252.802 113.5 253.142 113.1C253.502 112.7 253.972 112.35 254.552 112.05C255.152 111.75 255.912 111.6 256.832 111.6C258.072 111.6 259.082 111.89 259.862 112.47C260.642 113.03 261.212 113.76 261.572 114.66C261.932 115.54 262.112 116.47 262.112 117.45V127.8H257.552V118.23C257.552 117.47 257.342 116.8 256.922 116.22C256.522 115.64 255.872 115.35 254.972 115.35C254.292 115.35 253.752 115.51 253.352 115.83C252.952 116.15 252.662 116.56 252.482 117.06C252.302 117.56 252.212 118.09 252.212 118.65V127.8H247.652ZM272.757 128.1C271.517 128.1 270.527 127.92 269.787 127.56C269.047 127.18 268.487 126.71 268.107 126.15C267.727 125.57 267.477 124.96 267.357 124.32C267.237 123.68 267.177 123.09 267.177 122.55V115.53H264.477V111.9H267.177V107.97H271.737V111.9H275.127V115.53H271.737V122.43C271.737 123.09 271.907 123.6 272.247 123.96C272.607 124.32 273.197 124.5 274.017 124.5C274.377 124.5 274.707 124.47 275.007 124.41C275.307 124.35 275.457 124.32 275.457 124.32V127.83C275.457 127.83 275.187 127.87 274.647 127.95C274.107 128.05 273.477 128.1 272.757 128.1Z" fill="white"/>
<path d="M99.143 295.8V281H104.843C105.79 281 106.596 281.173 107.263 281.52C107.943 281.853 108.463 282.307 108.823 282.88C109.183 283.44 109.363 284.053 109.363 284.72C109.363 285.453 109.23 286.047 108.963 286.5C108.696 286.953 108.396 287.3 108.063 287.54C107.73 287.767 107.463 287.92 107.263 288V288.12C107.583 288.213 107.95 288.393 108.363 288.66C108.79 288.913 109.156 289.28 109.463 289.76C109.77 290.24 109.923 290.867 109.923 291.64C109.923 292.32 109.756 292.98 109.423 293.62C109.09 294.26 108.563 294.787 107.843 295.2C107.123 295.6 106.17 295.8 104.983 295.8H99.143ZM104.763 282.7H101.103V287.42H104.763C105.403 287.42 105.916 287.307 106.303 287.08C106.703 286.853 106.99 286.56 107.163 286.2C107.35 285.827 107.443 285.447 107.443 285.06C107.443 284.66 107.35 284.28 107.163 283.92C106.99 283.56 106.703 283.267 106.303 283.04C105.916 282.813 105.403 282.7 104.763 282.7ZM104.923 289H101.103V294.1H104.923C105.656 294.1 106.243 293.98 106.683 293.74C107.123 293.487 107.443 293.167 107.643 292.78C107.856 292.38 107.963 291.967 107.963 291.54C107.963 291.113 107.856 290.707 107.643 290.32C107.443 289.933 107.123 289.62 106.683 289.38C106.243 289.127 105.656 289 104.923 289ZM112.62 295.8V281H122.02V282.72H114.58V287.4H121.1V289.12H114.58V294.08H122.12V295.8H112.62ZM125.022 295.8V281H126.782L134.502 292.26V281H136.462V295.8H134.702L126.982 284.56V295.8H125.022ZM146.17 296C145.01 296 143.99 295.787 143.11 295.36C142.23 294.92 141.497 294.34 140.91 293.62C140.337 292.887 139.904 292.073 139.61 291.18C139.317 290.273 139.17 289.347 139.17 288.4C139.17 287.453 139.317 286.527 139.61 285.62C139.904 284.713 140.337 283.9 140.91 283.18C141.497 282.447 142.23 281.867 143.11 281.44C143.99 281.013 145.01 280.8 146.17 280.8C147.13 280.8 147.95 280.927 148.63 281.18C149.324 281.42 149.897 281.733 150.35 282.12C150.817 282.507 151.19 282.92 151.47 283.36C151.764 283.8 151.977 284.213 152.11 284.6C152.257 284.987 152.35 285.307 152.39 285.56C152.444 285.8 152.47 285.92 152.47 285.92H150.51C150.51 285.92 150.484 285.813 150.43 285.6C150.377 285.373 150.27 285.1 150.11 284.78C149.95 284.447 149.71 284.113 149.39 283.78C149.07 283.447 148.65 283.173 148.13 282.96C147.61 282.733 146.964 282.62 146.19 282.62C145.35 282.62 144.617 282.787 143.99 283.12C143.364 283.44 142.837 283.88 142.41 284.44C141.997 284.987 141.684 285.607 141.47 286.3C141.27 286.98 141.17 287.68 141.17 288.4C141.17 289.12 141.27 289.827 141.47 290.52C141.684 291.2 141.997 291.82 142.41 292.38C142.837 292.927 143.364 293.367 143.99 293.7C144.617 294.02 145.35 294.18 146.19 294.18C146.964 294.18 147.61 294.067 148.13 293.84C148.65 293.613 149.07 293.34 149.39 293.02C149.71 292.687 149.95 292.36 150.11 292.04C150.27 291.707 150.377 291.427 150.43 291.2C150.484 290.973 150.51 290.86 150.51 290.86H152.47C152.47 290.86 152.444 290.987 152.39 291.24C152.35 291.48 152.257 291.8 152.11 292.2C151.977 292.587 151.764 293 151.47 293.44C151.19 293.867 150.817 294.28 150.35 294.68C149.897 295.067 149.324 295.387 148.63 295.64C147.95 295.88 147.13 296 146.17 296ZM155.178 295.8V281H157.138V287.42H164.198V281H166.158V295.8H164.198V289.18H157.138V295.8H155.178ZM174.318 296C173.464 296 172.731 295.893 172.118 295.68C171.518 295.453 171.018 295.167 170.618 294.82C170.218 294.46 169.898 294.087 169.658 293.7C169.418 293.313 169.238 292.947 169.118 292.6C168.998 292.24 168.918 291.953 168.878 291.74C168.851 291.513 168.838 291.4 168.838 291.4H170.838C170.838 291.4 170.858 291.493 170.898 291.68C170.938 291.867 171.018 292.1 171.138 292.38C171.271 292.66 171.464 292.947 171.718 293.24C171.971 293.52 172.311 293.753 172.738 293.94C173.164 294.127 173.704 294.22 174.358 294.22C175.344 294.22 176.124 293.987 176.698 293.52C177.271 293.04 177.558 292.42 177.558 291.66C177.558 291.007 177.338 290.5 176.898 290.14C176.471 289.78 175.858 289.5 175.058 289.3L173.098 288.82C172.404 288.647 171.758 288.407 171.158 288.1C170.571 287.78 170.098 287.367 169.738 286.86C169.391 286.34 169.218 285.693 169.218 284.92C169.218 284.053 169.431 283.313 169.858 282.7C170.284 282.087 170.864 281.62 171.598 281.3C172.331 280.967 173.164 280.8 174.098 280.8C175.004 280.8 175.758 280.94 176.358 281.22C176.958 281.5 177.438 281.847 177.798 282.26C178.158 282.66 178.424 283.067 178.598 283.48C178.771 283.88 178.884 284.22 178.938 284.5C178.991 284.78 179.018 284.92 179.018 284.92H177.098C177.098 284.92 177.071 284.8 177.018 284.56C176.964 284.32 176.838 284.047 176.638 283.74C176.438 283.42 176.131 283.14 175.718 282.9C175.304 282.66 174.744 282.54 174.038 282.54C173.078 282.54 172.351 282.767 171.858 283.22C171.378 283.673 171.138 284.193 171.138 284.78C171.138 285.313 171.331 285.747 171.718 286.08C172.104 286.4 172.638 286.647 173.318 286.82L175.438 287.34C176.198 287.527 176.884 287.8 177.498 288.16C178.111 288.507 178.598 288.96 178.958 289.52C179.318 290.067 179.498 290.74 179.498 291.54C179.498 292.34 179.298 293.08 178.898 293.76C178.511 294.44 177.931 294.987 177.158 295.4C176.398 295.8 175.451 296 174.318 296ZM188.846 296C187.686 296 186.666 295.787 185.786 295.36C184.906 294.92 184.173 294.34 183.586 293.62C183.013 292.887 182.579 292.073 182.286 291.18C181.993 290.273 181.846 289.347 181.846 288.4C181.846 287.453 181.993 286.527 182.286 285.62C182.579 284.713 183.013 283.9 183.586 283.18C184.173 282.447 184.906 281.867 185.786 281.44C186.666 281.013 187.686 280.8 188.846 280.8C189.806 280.8 190.626 280.927 191.306 281.18C191.999 281.42 192.573 281.733 193.026 282.12C193.493 282.507 193.866 282.92 194.146 283.36C194.439 283.8 194.653 284.213 194.786 284.6C194.933 284.987 195.026 285.307 195.066 285.56C195.119 285.8 195.146 285.92 195.146 285.92H193.186C193.186 285.92 193.159 285.813 193.106 285.6C193.053 285.373 192.946 285.1 192.786 284.78C192.626 284.447 192.386 284.113 192.066 283.78C191.746 283.447 191.326 283.173 190.806 282.96C190.286 282.733 189.639 282.62 188.866 282.62C188.026 282.62 187.293 282.787 186.666 283.12C186.039 283.44 185.513 283.88 185.086 284.44C184.673 284.987 184.359 285.607 184.146 286.3C183.946 286.98 183.846 287.68 183.846 288.4C183.846 289.12 183.946 289.827 184.146 290.52C184.359 291.2 184.673 291.82 185.086 292.38C185.513 292.927 186.039 293.367 186.666 293.7C187.293 294.02 188.026 294.18 188.866 294.18C189.639 294.18 190.286 294.067 190.806 293.84C191.326 293.613 191.746 293.34 192.066 293.02C192.386 292.687 192.626 292.36 192.786 292.04C192.946 291.707 193.053 291.427 193.106 291.2C193.159 290.973 193.186 290.86 193.186 290.86H195.146C195.146 290.86 195.119 290.987 195.066 291.24C195.026 291.48 194.933 291.8 194.786 292.2C194.653 292.587 194.439 293 194.146 293.44C193.866 293.867 193.493 294.28 193.026 294.68C192.573 295.067 191.999 295.387 191.306 295.64C190.626 295.88 189.806 296 188.846 296ZM197.854 295.8V281H199.814V295.8H197.854ZM211.56 290.98C210.946 290.98 210.4 290.833 209.92 290.54C209.44 290.247 209.06 289.86 208.78 289.38C208.513 288.9 208.38 288.373 208.38 287.8C208.38 287.213 208.513 286.687 208.78 286.22C209.06 285.74 209.44 285.36 209.92 285.08C210.4 284.787 210.946 284.64 211.56 284.64C212.16 284.64 212.7 284.787 213.18 285.08C213.66 285.36 214.033 285.74 214.3 286.22C214.58 286.687 214.72 287.213 214.72 287.8C214.72 288.387 214.58 288.92 214.3 289.4C214.033 289.88 213.66 290.267 213.18 290.56C212.7 290.84 212.16 290.98 211.56 290.98ZM223.304 295.8V294.42L226.544 291.42C227.45 290.58 228.244 289.847 228.924 289.22C229.617 288.58 230.157 287.96 230.544 287.36C230.93 286.76 231.124 286.1 231.124 285.38C231.124 284.78 230.977 284.273 230.684 283.86C230.404 283.447 230.037 283.133 229.584 282.92C229.144 282.693 228.684 282.58 228.204 282.58C227.577 282.58 227.064 282.687 226.664 282.9C226.264 283.113 225.957 283.38 225.744 283.7C225.53 284.007 225.377 284.32 225.284 284.64C225.19 284.947 225.137 285.207 225.124 285.42C225.11 285.633 225.104 285.74 225.104 285.74H223.224C223.224 285.74 223.23 285.62 223.244 285.38C223.257 285.14 223.304 284.833 223.384 284.46C223.477 284.087 223.624 283.693 223.824 283.28C224.024 282.853 224.304 282.453 224.664 282.08C225.037 281.707 225.51 281.4 226.084 281.16C226.67 280.92 227.384 280.8 228.224 280.8C229.077 280.8 229.87 280.98 230.604 281.34C231.35 281.687 231.95 282.2 232.404 282.88C232.857 283.547 233.084 284.367 233.084 285.34C233.084 286.233 232.857 287.047 232.404 287.78C231.964 288.5 231.377 289.207 230.644 289.9C229.91 290.593 229.11 291.34 228.244 292.14L226.204 294.02H233.404V295.8H223.304ZM241.471 295.98C240.551 295.98 239.738 295.78 239.031 295.38C238.324 294.967 237.731 294.413 237.251 293.72C236.784 293.013 236.424 292.2 236.171 291.28C235.931 290.36 235.811 289.393 235.811 288.38C235.811 287.353 235.931 286.387 236.171 285.48C236.424 284.56 236.784 283.747 237.251 283.04C237.731 282.333 238.324 281.78 239.031 281.38C239.738 280.98 240.551 280.78 241.471 280.78C242.391 280.78 243.204 280.98 243.911 281.38C244.618 281.78 245.204 282.333 245.671 283.04C246.151 283.747 246.511 284.56 246.751 285.48C247.004 286.387 247.131 287.353 247.131 288.38C247.131 289.393 247.004 290.36 246.751 291.28C246.511 292.2 246.151 293.013 245.671 293.72C245.204 294.413 244.618 294.967 243.911 295.38C243.204 295.78 242.391 295.98 241.471 295.98ZM241.471 294.18C242.524 294.18 243.391 293.693 244.071 292.72C244.764 291.733 245.111 290.287 245.111 288.38C245.111 286.473 244.764 285.033 244.071 284.06C243.391 283.087 242.524 282.6 241.471 282.6C240.418 282.6 239.544 283.087 238.851 284.06C238.171 285.033 237.831 286.473 237.831 288.38C237.831 290.273 238.171 291.713 238.851 292.7C239.544 293.687 240.418 294.18 241.471 294.18ZM249.847 295.8V294.42L253.087 291.42C253.993 290.58 254.787 289.847 255.467 289.22C256.16 288.58 256.7 287.96 257.087 287.36C257.473 286.76 257.667 286.1 257.667 285.38C257.667 284.78 257.52 284.273 257.227 283.86C256.947 283.447 256.58 283.133 256.127 282.92C255.687 282.693 255.227 282.58 254.747 282.58C254.12 282.58 253.607 282.687 253.207 282.9C252.807 283.113 252.5 283.38 252.287 283.7C252.073 284.007 251.92 284.32 251.827 284.64C251.733 284.947 251.68 285.207 251.667 285.42C251.653 285.633 251.647 285.74 251.647 285.74H249.767C249.767 285.74 249.773 285.62 249.787 285.38C249.8 285.14 249.847 284.833 249.927 284.46C250.02 284.087 250.167 283.693 250.367 283.28C250.567 282.853 250.847 282.453 251.207 282.08C251.58 281.707 252.053 281.4 252.627 281.16C253.213 280.92 253.927 280.8 254.767 280.8C255.62 280.8 256.413 280.98 257.147 281.34C257.893 281.687 258.493 282.2 258.947 282.88C259.4 283.547 259.627 284.367 259.627 285.34C259.627 286.233 259.4 287.047 258.947 287.78C258.507 288.5 257.92 289.207 257.187 289.9C256.453 290.593 255.653 291.34 254.787 292.14L252.747 294.02H259.947V295.8H249.847ZM267.754 296C266.914 296 266.194 295.893 265.594 295.68C265.007 295.453 264.521 295.167 264.134 294.82C263.761 294.473 263.461 294.107 263.234 293.72C263.021 293.333 262.861 292.967 262.754 292.62C262.661 292.273 262.601 291.993 262.574 291.78C262.547 291.553 262.534 291.44 262.534 291.44H264.374C264.374 291.44 264.387 291.54 264.414 291.74C264.441 291.927 264.507 292.167 264.614 292.46C264.734 292.74 264.914 293.027 265.154 293.32C265.394 293.6 265.721 293.84 266.134 294.04C266.561 294.227 267.101 294.32 267.754 294.32C268.527 294.32 269.167 294.153 269.674 293.82C270.181 293.487 270.561 293.06 270.814 292.54C271.067 292.02 271.194 291.473 271.194 290.9C271.194 290.313 271.067 289.753 270.814 289.22C270.561 288.673 270.181 288.233 269.674 287.9C269.181 287.553 268.567 287.38 267.834 287.38C267.261 287.38 266.781 287.473 266.394 287.66C266.007 287.847 265.701 288.06 265.474 288.3C265.261 288.54 265.107 288.753 265.014 288.94C264.921 289.127 264.874 289.22 264.874 289.22H262.954L264.114 281H272.074V282.74H265.574L264.974 286.98H265.034C265.194 286.807 265.394 286.627 265.634 286.44C265.887 286.24 266.214 286.073 266.614 285.94C267.014 285.793 267.514 285.72 268.114 285.72C269.207 285.72 270.121 285.973 270.854 286.48C271.587 286.973 272.141 287.613 272.514 288.4C272.901 289.173 273.094 289.993 273.094 290.86C273.094 291.5 272.981 292.127 272.754 292.74C272.541 293.353 272.214 293.907 271.774 294.4C271.334 294.88 270.781 295.267 270.114 295.56C269.447 295.853 268.661 296 267.754 296Z" fill="white"/>
<defs>
<filter id="filter0_d_624_10342" x="0" y="0" width="369.6" height="369.6" filterUnits="userSpaceOnUse" color-interpolation-filters="sRGB">
<feFlood flood-opacity="0" result="BackgroundImageFix"/>
<feColorMatrix in="SourceAlpha" type="matrix" values="0 0 0 0 0 0 0 0 0 0 0 0 0 0 0 0 0 0 127 0" result="hardAlpha"/>
<feOffset dy="5"/>
<feGaussianBlur stdDeviation="6"/>
<feColorMatrix type="matrix" values="0 0 0 0 0.287583 0 0 0 0 0.287583 0 0 0 0 0.287583 0 0 0 0.2 0"/>
<feBlend mode="normal" in2="BackgroundImageFix" result="effect1_dropShadow_624_10342"/>
<feBlend mode="normal" in="SourceGraphic" in2="effect1_dropShadow_624_10342" result="shape"/>
</filter>
<linearGradient id="paint0_linear_624_10342" x1="263.5" y1="24" x2="120" y2="330" gradientUnits="userSpaceOnUse">
<stop stop-color="#F099F8"/>
<stop offset="1" stop-color="#EF7E38"/>
</linearGradient>
</defs>
</svg>
