<svg width="97" height="97" viewBox="0 0 97 97" fill="none" xmlns="http://www.w3.org/2000/svg">
<g id="warehouse">
<g id="warehouse_2">
<circle id="Oval" cx="46.5" cy="50.0031" r="46.5" fill="#8148F9" fill-opacity="0.5"/>
<path id="Rectangle" fill-rule="evenodd" clip-rule="evenodd" d="M4 29.7295C4 28.8723 4.45718 28.0802 5.19941 27.6514L49.6 2L94.0006 27.6514C94.7428 28.0802 95.2 28.8723 95.2 29.7295V83.6C95.2 84.9255 94.1255 86 92.8 86H6.4C5.07452 86 4 84.9255 4 83.6V29.7295Z" stroke="white" stroke-width="3" stroke-linejoin="round"/>
<rect id="Rectangle_2" x="16" y="30.8" width="67.2" height="7.2" stroke="white" stroke-width="3" stroke-linejoin="round"/>
<path id="Line" d="M19.6 39.2V84.8" stroke="white" stroke-width="3" stroke-linecap="square"/>
<path id="Line_2" d="M79.5999 39.2V48.8" stroke="white" stroke-width="3" stroke-linecap="round" stroke-linejoin="round"/>
<path id="Line_3" d="M79.5999 56V84.8" stroke="white" stroke-width="3" stroke-linecap="round"/>
<g id="Group 5">
<rect id="Rectangle_3" x="19.6" y="66.8" width="21.6" height="19.2" stroke="white" stroke-width="2.4" stroke-linejoin="round"/>
<rect id="Rectangle_4" x="26.7999" y="66.8" width="7.2" height="9.6" stroke="white" stroke-width="2.4" stroke-linejoin="round"/>
<path id="Line 2" d="M26.8 81.2H34" stroke="white" stroke-width="2.4" stroke-linecap="round"/>
</g>
<g id="Group 5_2">
<rect id="Rectangle_5" x="41.2" y="66.8" width="21.6" height="19.2" stroke="white" stroke-width="2.4" stroke-linejoin="round"/>
<rect id="Rectangle_6" x="48.3999" y="66.8" width="7.2" height="9.6" stroke="white" stroke-width="2.4" stroke-linejoin="round"/>
<path id="Line 2_2" d="M48.4 81.2H55.6" stroke="white" stroke-width="2.4" stroke-linecap="round"/>
</g>
<g id="Group 5_3">
<rect id="Rectangle_7" x="19.6" y="47.6" width="21.6" height="19.2" stroke="white" stroke-width="2.4" stroke-linejoin="round"/>
<rect id="Rectangle_8" x="26.7999" y="47.6" width="7.2" height="9.6" stroke="white" stroke-width="2.4" stroke-linejoin="round"/>
<path id="Line 2_3" d="M26.8 62H34" stroke="white" stroke-width="2.4" stroke-linecap="round"/>
</g>
</g>
</g>
</svg>
