<?xml version="1.0" encoding="UTF-8"?>
<svg width="97px" height="96px" viewBox="0 0 97 96" version="1.1" xmlns="http://www.w3.org/2000/svg" xmlns:xlink="http://www.w3.org/1999/xlink">
    <!-- Generator: Sketch 63.1 (92452) - https://sketch.com -->
    <title>warehouse</title>
    <desc>Created with Sketch.</desc>
    <g id="mobile" stroke="none" stroke-width="1" fill="none" fill-rule="evenodd">
        <g id="warehouse" transform="translate(0.000000, 1.000000)">
            <g transform="translate(0.000000, 0.496875)">
                <circle id="Oval" fill-opacity="0.6" fill="#E9CFC1" cx="46.5" cy="48.003125" r="46.5"></circle>
                <path d="M5.19941382,25.6513906 L49.6,0 L49.6,0 L94.0005862,25.6513906 C94.7428184,26.0801978 95.2,26.8723175 95.2,27.7295131 L95.2,81.6 C95.2,82.9254834 94.1254834,84 92.8,84 L6.4,84 C5.0745166,84 4,82.9254834 4,81.6 L4,27.7295131 C4,26.8723175 4.45718159,26.0801978 5.19941382,25.6513906 Z" id="Rectangle" stroke="#000000" stroke-width="3" stroke-linejoin="round"></path>
                <rect id="Rectangle" stroke="#000000" stroke-width="3" stroke-linejoin="round" x="16" y="28.8" width="67.2" height="7.2"></rect>
                <line x1="19.6" y1="37.2" x2="19.6" y2="82.8" id="Line" stroke="#000000" stroke-width="3" stroke-linecap="square"></line>
                <line x1="79.6" y1="37.2" x2="79.6" y2="46.8" id="Line" stroke="#000000" stroke-width="3" stroke-linecap="round" stroke-linejoin="round"></line>
                <line x1="79.6" y1="54" x2="79.6" y2="82.8" id="Line" stroke="#000000" stroke-width="3" stroke-linecap="round"></line>
                <g id="Group-5" transform="translate(19.600000, 64.800000)" stroke="#000000" stroke-width="2.4">
                    <rect id="Rectangle" stroke-linejoin="round" x="0" y="0" width="21.6" height="19.2"></rect>
                    <rect id="Rectangle" stroke-linejoin="round" x="7.2" y="0" width="7.2" height="9.6"></rect>
                    <line x1="7.2" y1="14.4" x2="14.4" y2="14.4" id="Line-2" stroke-linecap="round"></line>
                </g>
                <g id="Group-5" transform="translate(41.200000, 64.800000)" stroke="#000000" stroke-width="2.4">
                    <rect id="Rectangle" stroke-linejoin="round" x="0" y="0" width="21.6" height="19.2"></rect>
                    <rect id="Rectangle" stroke-linejoin="round" x="7.2" y="0" width="7.2" height="9.6"></rect>
                    <line x1="7.2" y1="14.4" x2="14.4" y2="14.4" id="Line-2" stroke-linecap="round"></line>
                </g>
                <g id="Group-5" transform="translate(19.600000, 45.600000)" stroke="#000000" stroke-width="2.4">
                    <rect id="Rectangle" stroke-linejoin="round" x="0" y="0" width="21.6" height="19.2"></rect>
                    <rect id="Rectangle" stroke-linejoin="round" x="7.2" y="0" width="7.2" height="9.6"></rect>
                    <line x1="7.2" y1="14.4" x2="14.4" y2="14.4" id="Line-2" stroke-linecap="round"></line>
                </g>
            </g>
        </g>
    </g>
</svg>